<?xml version="1.0" encoding="utf-8"?>
<!-- Generator: Adobe Illustrator 16.0.0, SVG Export Plug-In . SVG Version: 6.00 Build 0)  -->
<!DOCTYPE svg PUBLIC "-//W3C//DTD SVG 1.1//EN" "http://www.w3.org/Graphics/SVG/1.1/DTD/svg11.dtd">
<svg version="1.1" id="Layer_1" xmlns="http://www.w3.org/2000/svg" xmlns:xlink="http://www.w3.org/1999/xlink" x="0px" y="0px"
	 width="300px" height="300px" viewBox="0 0 300 300" enable-background="new 0 0 300 300" xml:space="preserve">
<g>
	<path fill-rule="evenodd" clip-rule="evenodd" fill="#E49537" d="M149.284,299.928c-5.118,0.055-10.213-0.411-15.316-0.695
		c-5.344-0.751-10.693-1.476-15.975-2.605c-2.039,0.503-3.866-0.493-5.75-0.909c-4.465-0.983-8.788-2.485-13.106-3.977
		c-0.77-0.209-1.507-0.501-2.223-0.851c-1.73-0.715-3.525-1.271-5.214-2.088c-1.688-0.75-3.412-1.414-5.082-2.205
		c-1.596-0.851-3.223-1.642-4.847-2.435c-1.669-0.939-3.467-1.64-5.08-2.689c-0.143-0.071-0.279-0.152-0.417-0.233
		c-1.875-1.063-3.716-2.18-5.549-3.313c-3.557-2.165-6.966-4.547-10.312-7.021c-2.242-1.687-4.399-3.479-6.627-5.184
		c-1.352-0.885-2.337-2.179-3.574-3.191c-4.083-3.532-7.847-7.398-11.5-11.354c-4.602-4.982-8.737-10.362-12.575-15.964
		c-0.853-1.244-1.659-2.515-2.458-3.793c-4.845-7.38-8.79-15.23-12.17-23.373c-1.333-2.779-2.135-5.759-3.271-8.613
		c-0.193-0.485-0.321-0.999-0.098-1.522c-2.423-8.19-4.546-16.438-5.77-24.922c-0.839-5.82-1.139-11.672-1.659-17.511
		c-0.857-1.615-0.765-3.242-0.057-4.875c0.204-5.402,0.456-10.796,1.069-16.174c0.867-7.598,2.315-15.081,4.269-22.47
		c0.233-0.884,0.457-1.771,0.685-2.656c0.593-1.882,1.186-3.764,1.779-5.646c-0.222-1.583,0.578-2.925,1.104-4.303
		c1.462-3.835,3.049-7.62,4.736-11.362c0.964-1.777,1.823-3.608,2.725-5.417c2.747-5.251,5.787-10.328,9.114-15.232
		c0.927-1.429,2.02-2.742,2.907-4.199c4.365-5.845,9.049-11.432,14.157-16.628c5.722-5.819,11.928-11.11,18.512-15.946
		c3.006-2.141,6.091-4.166,9.153-6.226c3.49-1.992,6.926-4.081,10.515-5.898c2.791-1.355,5.54-2.794,8.395-4.014
		c0.68-0.291,1.323-0.735,2.124-0.471c6.798-2.792,13.773-5.065,20.844-7.053c4.274-0.83,8.508-1.854,12.813-2.548
		c4.891-0.789,9.793-1.387,14.74-1.636c1.257-0.064,2.511-0.223,3.765-0.338c5.219-0.033,10.438-0.048,15.651,0.29
		c12.59,0.956,24.913,3.26,36.893,7.299c8.168,2.647,15.982,6.123,23.543,10.169c3.086,1.652,6.08,3.477,9.117,5.223
		c2.257,0.698,4.014,2.252,5.906,3.543c6.935,4.733,13.204,10.281,19.307,16.023c0.483,0.455,0.785,0.976,0.938,1.605
		c6.387,6.599,12.249,13.637,17.408,21.233c4.858,7.152,8.98,14.727,12.535,22.615c1.651,3.664,3.025,7.435,4.521,11.159
		c1.274,4.061,2.551,8.122,3.826,12.182c0.712,3.544,1.422,7.088,2.135,10.632c1.072,5.316,1.622,10.691,2.048,16.095
		c0.48,6.075,0.393,12.149,0.209,18.218c-0.169,5.53-0.835,11.03-1.727,16.493c-1.473,9.04-3.765,17.873-6.865,26.493
		c-2.608,7.257-5.815,14.245-9.468,21.033c-0.162,0.302-0.278,0.63-0.416,0.946c-0.557,2.463-2.283,4.303-3.436,6.448
		c-0.457,0.854-1.062,1.625-1.599,2.435c-0.415,0.578-0.812,1.167-1.132,1.806c-1.221,1.647-2.312,3.386-3.534,5.031
		c-0.133,0.199-0.282,0.385-0.437,0.566c-1.406,1.481-2.135,3.559-4.03,4.612c-3.58,4.2-7.178,8.391-11.11,12.267
		c-13.56,13.359-29.093,23.804-46.579,31.313c-3.776,1.621-7.678,2.953-11.521,4.42c-4.415,1.249-8.832,2.497-13.247,3.747
		c-3.723,0.664-7.433,1.402-11.169,1.973c-3.978,0.608-7.981,0.991-11.996,1.328C156.314,299.879,152.798,299.752,149.284,299.928z"
		/>
	<path fill-rule="evenodd" clip-rule="evenodd" fill="#0D72B9" d="M180.252,91.79c-0.008,0.437-0.016,0.873-0.023,1.31
		c-1.793,1.021-3.583,0.961-5.371-0.012c-0.744-2.142-0.744-2.15-3.025-2.152c-9.542-0.003-19.084,0-28.625-0.001
		c-0.924-0.001-1.773,0.48-2.582,0.619c-3.56,0.61-7.204,0.85-10.743-0.13c-0.799-0.222-1.11-0.403-1.313,0.467
		c-0.03,0.534-0.115,1.045-0.509,1.449c-1.671,0.617-3.354,0.526-5.043,0.09c-0.206-0.132-0.339-0.327-0.324-0.568
		c0.103-1.694-0.896-1.992-2.315-1.972c-3.578,0.048-7.156,0.01-10.733,0.017c-4.622,0.008-7.845-2.277-10.122-6.134
		c-0.611-1.036-0.797-2.139-0.565-3.316c-0.256-4.684-0.315-9.382-0.014-14.051c0.273-4.249,4.165-7.567,8.987-8.191
		c0.687-0.089,1.385-0.108,2.078-0.109c26.533-0.005,53.065,0.003,79.598-0.011c4.063-0.003,7.445,1.275,9.757,4.802
		c0.782,1.194,1.226,2.548,1.257,3.908c0.1,4.421,0.042,8.846,0.028,13.27c-0.002,0.336-0.141,0.672-0.216,1.007
		c0.44,0.559,0.14,1.111-0.055,1.635c-1.014,2.724-2.895,4.662-5.438,6.027c-1.021,0.547-2.415,0.449-3.023,1.771
		c-0.111,0.243-0.648,0.113-0.991,0.113c-2.944,0.003-5.888,0.023-8.831-0.024c-0.374-0.005-1.089,0.449-1.198-0.507
		C180.884,90.998,180.562,91.629,180.252,91.79z"/>
	<path fill-rule="evenodd" clip-rule="evenodd" fill="#E7E7E7" d="M64.394,177.041c-0.372-2.235-0.105-4.485-0.143-6.729
		c-0.019-1.191,1.028-1.806,1.789-2.415c1.403-1.125,1.79-2.43,1.783-4.197c-0.063-19.218-0.039-38.436-0.036-57.653
		c0-0.693,0.042-1.386,0.066-2.08c0.676-0.58,1.503-0.544,2.31-0.544c16.668-0.011,33.335-0.011,50.002,0.001
		c0.804,0.001,1.632-0.044,2.335,0.484c0.587,0.673,0.546,1.506,0.546,2.31c0.015,19.288,0.015,38.576,0.003,57.864
		c0,0.521-0.014,1.043-0.13,1.549c-0.339,1.232-1.377,1.058-2.274,1.062c-5.272,0.022-10.545,0.01-15.818,0.01
		c-5.62,0.002-11.24-0.006-16.861,0.009c-0.787,0.002-1.637-0.171-2.422,0.657c1.213-0.148,2.364-0.346,2.193,1.383
		c-0.06,0.599,0.539,0.458,0.919,0.454c2.374-0.028,4.749-0.003,7.124-0.009c0.59-0.002,1.153-0.044,1.556-0.581
		c0.546-0.729,1.191-1.016,1.798-0.111c0.473,0.704,0.623-0.03,0.878-0.145c0.814-0.362,1.589-0.82,2.237,0.277
		c0.484,0.822,1.346,0.542,2.059,0.546c4.169,0.022,8.34-0.024,12.509,0.021c0.88,0.01,1.784-0.046,2.159,1.029
		c0.066,0.178,0.106,0.358,0.128,0.546c0.053,2.073,0.077,4.144-0.006,6.211c-0.022,0.179-0.077,0.353-0.155,0.516
		c-0.829,0.765-1.76,0.11-2.622,0.114c-13.647,0.074-27.294,0.212-40.941,0.056c-3.058-0.035-6.119,0.313-9.171-0.189
		C65.586,177.384,64.931,177.475,64.394,177.041z"/>
	<path fill-rule="evenodd" clip-rule="evenodd" fill="#E7E7E7" d="M122.623,235.51c-1.204-0.001-2.408-0.003-3.612-0.004
		c-0.504-0.517-0.487-1.175-0.364-1.788c0.319-1.575,0.599-3.163,1.034-4.716c0.124-0.446,0.273-1.03,0.713-1.12
		c1.17-0.245,1.414-0.938,1.321-1.998c-0.118-1.337-1.292-0.585-1.863-1.011c-0.139-0.103-0.277-0.194-0.357-0.355
		c0.363-3.033,0.531-6.071,0.441-9.126c-0.085-2.858-0.646-5.61-1.663-8.277c-0.291-0.762-0.685-1.464-1.179-2.109
		c-1.698-2.22-3.58-2.251-5.498-0.187c-0.554,0.596-0.716,1.871-2.031,1.434c-0.456-0.523-0.481-1.168-0.483-1.801
		c-0.006-4.212-0.075-8.425,0.032-12.636c-0.097-3.103-0.097-3.104-3.174-3.104c-6.303,0-12.605-0.008-18.908,0.004
		c-2.144,0.004-2.276,0.13-2.28,2.25c-0.015,7.401-0.006,14.803-0.006,22.204c0,3.302,0.001,3.302,3.231,3.712
		c5.949-0.055,11.897-0.018,17.845-0.018c0.577,0,1.157,0.011,1.709,0.209c0.63,0.26,0.745,0.841,0.836,1.414
		c0.273,1.715,0.459,3.438,0.542,5.171c-0.27,1.124-0.878,1.656-2.128,1.43c-1.422-0.259-1.857,0.88-2.325,1.883
		c-0.184,0.396-0.064,0.67,0.416,0.706c0.116,0.008,0.232-0.004,0.347,0.004c3.57,0.23,3.617,0.223,4.178,3.773
		c0.209,1.328,0.845,2.667,0.22,4.052c-5.795,0.026-11.591,0.075-17.387,0.071c-8.753-0.005-17.505-0.065-26.258-0.055
		c-1.236,0.001-2.03-0.102-1.721-1.661c0.127-0.64-0.079-1.343-0.113-2.019c-0.125-2.484,0.286-4.743,2.573-6.244
		c0.908-0.596,1.097-1.473,1.095-2.545c-0.024-14.029-0.004-28.059,0.005-42.089c0.396-1.072,1.33-0.628,2.016-0.629
		c10.193-0.021,20.386-0.021,30.579-0.018c4.634,0.001,9.267-0.01,13.9,0.006c1.392,0.006,2.776-0.035,4.15-0.272
		c1.224,0.457,1.034,1.55,1.057,2.492c0.089,3.585-0.079,7.172,0.084,10.754c0.416,0.968,1.118,1.718,1.85,2.448
		c0.696,0.695,1.296,1.453,1.485,2.463c0.206,1.561,0.113,3.128,0.114,4.691c0.009,9.91,0.009,19.82-0.002,29.732
		C123.044,233.604,123.2,234.614,122.623,235.51z"/>
	<path fill-rule="evenodd" clip-rule="evenodd" fill="#E7E7E7" d="M235.512,103.996c0.02,5.101,0.052,10.203,0.055,15.304
		c0.009,15.655,0.004,31.31,0.006,46.965c-2.295,0.836-4.639,0.545-6.978,0.3c-0.701-0.423-0.365-0.709,0.149-0.924
		c0.582-0.243,1.244-0.08,2.014-0.271c-2.447-3.551-4.939-6.901-7.298-10.27c-0.167,1.298,0.463,2.719-0.498,3.963
		c-0.161,0.065-0.326,0.09-0.497,0.071c-0.351-0.098-0.574-0.354-0.783-0.627c-1.003-1.297-1.922-2.661-3.01-3.895
		c-0.332-0.377-0.716-0.751-0.554-1.345c0.095-0.165,0.199-0.319,0.313-0.471c0.421-1.361,0.237-2.757,0.248-4.137
		c0.032-3.984-0.015-7.969,0.022-11.955c-0.04-1.071-0.034-2.143,0.011-3.213c-0.073-4.189-0.054-8.378-0.021-12.563
		c0.304-1.454-0.369-2.249-1.696-2.762c-7.186-2.78-14.33-2.809-21.479,0.144c-1.17,0.482-1.569,1.251-1.436,2.438
		c0.06,0.534-0.004,1.098-0.616,1.291c-0.551,0.175-0.844-0.309-1.111-0.656c-3.862-4.988-7.896-9.842-11.644-14.924
		c-0.332-1.154-0.812-2.354,0.871-2.908c0.805-0.162,1.619-0.13,2.429-0.131c16.171-0.003,32.341-0.006,48.513,0.008
		C233.541,103.431,234.631,103.205,235.512,103.996z"/>
	<path fill-rule="evenodd" clip-rule="evenodd" fill="#81B0CA" d="M177.248,235.479c-0.828,0.442-1.689,0.066-2.53,0.07
		c-6.632,0.044-13.264,0.033-19.896,0.029c-0.514-0.002-1.027-0.08-1.542-0.121c-0.357-0.646-0.251-1.354-0.241-2.038
		c0.181-12.882,0.09-25.763,0.064-38.645c-0.001-0.519-0.072-1.046,0.311-1.482c0.551-0.357,1.129-0.227,1.707-0.1
		c3.294-0.113,6.591,0.073,9.887-0.112c2.697-0.344,5.4-0.174,8.101-0.13c0.905,0.179,1.818,0.287,2.745,0.253
		c0.933-0.032,1.559,0.34,1.715,1.324c0.167,1.157,0.106,2.318,0.107,3.477c0.004,11.534,0.008,23.069-0.006,34.603
		C177.667,233.577,177.849,234.591,177.248,235.479z"/>
	<path fill-rule="evenodd" clip-rule="evenodd" fill="#E4E5E7" d="M235.694,180.549c-0.043,0.633-0.121,1.267-0.121,1.899
		c-0.007,13.44,0.011,26.88-0.033,40.319c-0.004,1.266,0.255,2.273,1.277,3.023c1.882,1.379,2.715,3.167,2.328,5.524
		c-0.13,0.79-0.096,1.627-0.004,2.428c0.165,1.444-0.324,2.08-1.817,1.699c-0.479-0.201-0.91-0.454-1.242-0.882
		c-1.831-2.347-3.889-4.508-5.743-6.837c-3.42-3.874-6.599-7.949-9.96-11.873c-0.599-0.698-1.207-1.388-1.535-2.274
		c-0.055-0.198-0.085-0.392-0.098-0.595c-0.158-7.078-0.092-14.153-0.044-21.227c-0.105-3.026-0.107-3.006-3.085-3.036
		c-5.697-0.057-11.396,0.155-17.09-0.11c-0.715-0.135-1.263-0.542-1.723-1.083c-1.459-1.715-2.897-3.449-4.312-5.199
		c-0.436-0.54-1.054-1.207-0.154-1.923c0.98-0.196,1.967-0.076,2.947-0.078c12.968-0.027,25.936,0.034,38.902-0.035
		C234.705,180.288,235.238,180.202,235.694,180.549z"/>
	<path fill-rule="evenodd" clip-rule="evenodd" fill="#D1D1D6" d="M122.833,93.113c1.734-0.005,3.469-0.012,5.204-0.018
		c0.546-0.397,1.18-0.448,1.822-0.448c14.81,0.004,29.619-0.059,44.43,0.03c0.231,0.025,0.444,0.103,0.638,0.232
		c1.752,0.506,3.533,0.153,5.302,0.191c7.61,0.028,15.221,0.07,22.831,0.08c11.342,0.014,22.684,0.003,34.233,0.003
		c-0.633,1.358-1.207,2.59-1.78,3.824c-0.478,0.273-1.005,0.24-1.524,0.24c-17.307-0.015-34.613-0.001-51.92-0.005
		c-0.464,0-0.924-0.066-1.388-0.047c-2.368,0.057-4.736,0.063-7.105-0.007c-13.522,0.126-27.047,0.022-40.568,0.053
		c-1.041,0.003-2.082,0.051-3.12-0.046c-2.488,0.058-4.978,0.063-7.467,0c-5.389,0.118-10.777,0.041-16.166,0.048
		c-11.82,0.014-23.641,0.007-35.462-0.001c-1.033,0-2.101,0.135-3.029-0.514c-0.639-1.077-1.278-2.154-1.691-3.546
		c18.94,0,37.722,0,56.505,0C122.632,93.036,122.715,93.007,122.833,93.113z"/>
	<path fill-rule="evenodd" clip-rule="evenodd" fill="#D1D1D7" d="M235.694,180.549c-0.652,0.262-1.328,0.336-2.033,0.336
		c-13.25-0.011-26.499-0.008-39.749-0.007c-0.615,0-1.229,0.004-1.844,0.006c-1.014-0.057-1.388-0.964-1.921-1.568
		c-2.134-2.418-4.219-4.881-6.241-7.393c-0.461-0.571-1.283-1.106-0.83-2.087c1.225-0.913,2.656-0.668,4.015-0.647
		c8.206,0.12,16.413-0.039,24.617,0.004c8.495,0.043,16.992-0.154,25.486,0.079c0.646,0.019,1.271,0.074,1.817,0.463
		c0.041,2.236,0.074,4.471,0.126,6.705c0.027,1.159-0.922,1.659-1.568,2.349C236.984,179.412,236.322,179.965,235.694,180.549z"/>
	<path fill-rule="evenodd" clip-rule="evenodd" fill="#F7F7F7" d="M239.012,169.734c-6.915-0.043-13.829-0.124-20.745-0.121
		c-6.65,0.002-13.303,0.103-19.954,0.137c-4.595,0.023-9.189,0.008-13.784-0.001c-0.534,0-1.034,0.079-1.5,0.347
		c-0.168,0.125-0.355,0.188-0.564,0.191c-2.768-0.076-5.537,0.014-8.303-0.057c-3.475-0.389-6.953-0.248-10.435-0.005
		c-2.532,0.016-5.063,0.129-7.588-0.057c-3.496-0.266-6.992-0.131-10.491,0.062c-2.658,0.052-5.315,0.057-7.968,0.01
		c-3.384-0.352-6.772-0.286-10.165-0.041c-2.95,0.025-5.9,0.26-8.842-0.105c-1.5-0.973-3.187-0.394-4.763-0.463
		c-3.56-0.157-7.134,0.014-10.701-0.012c-0.584-0.004-1.698,0.379-1.358-1.027c0.045-0.188-0.282-0.503-0.461-0.364
		c-0.614,0.475-1.955,0.028-1.71,1.431c-0.738-0.028-0.565-0.531-0.717-0.869c-0.308-0.688-1.007-0.887-1.216-0.105
		c-0.272,1.019-0.712,0.954-1.575,0.936c-2.716-0.059-5.437,0.076-8.155,0.111c-0.513,0.006-1.296,0.171-1.016-0.808
		c0.109-0.379,0.776-0.554,0.297-1.152c-0.538-0.67-0.91,0.154-1.384,0.082c-0.241-0.038-0.521,0.174-0.816,0.285
		c-0.263-1.635,0.674-1.884,2.006-1.882c11.072,0.022,22.145,0.015,33.216,0.011c0.752-0.001,1.506-0.038,2.259-0.058
		c1.442-0.851,3.026-0.335,4.543-0.457c0.684-0.056,1.377-0.015,2.062,0.011c15.05-0.083,30.104-0.042,45.162-0.008
		c2.268-0.013,4.531-0.042,6.797-0.003c6.195-0.156,12.387,0.014,18.579,0.019c8.684,0.005,17.366-0.006,26.05,0.011
		c0.847,0.002,1.757-0.198,2.483,0.478c2.438,0.002,4.878,0.004,7.317,0.006C236.813,167.329,238.047,168.397,239.012,169.734z"/>
	<path fill-rule="evenodd" clip-rule="evenodd" fill="#C3C3C7" d="M219.22,213.936c3.807,4.54,7.614,9.078,11.419,13.617
		c-0.098,0.808-0.648,0.789-1.279,0.767c-6.83-0.23-13.658-0.051-20.488,0.083c-4.159,0.081-8.323,0-12.481-0.116
		c-0.977-0.025-1.19,0.348-1.366,1.101c-0.473,2.03-0.785,4.092-1.167,6.14c-4.356-0.001-8.715-0.003-13.071-0.003
		c-0.489-0.724-0.384-1.552-0.373-2.347c0.039-2.706-0.146-5.415,0.104-8.114c0.131-0.354,0.225-0.896,0.711-0.745
		c0.85,0.267,1.644-0.233,2.466-0.043c0.939,1.493,2.302,1.906,4.004,1.737c1.263-0.125,2.548-0.068,3.819-0.014
		c1.44,0.061,2.286-0.625,2.737-1.923c0.557-1.602,0.759-3.262,0.842-4.946c0.093-1.847,0.283-2.125,2.148-2.185
		c6.311-0.204,12.623-0.063,18.935-0.067c2.22,0,2.22,0.038,2.646-2.194C218.88,214.394,218.981,214.128,219.22,213.936z"/>
	<path fill-rule="evenodd" clip-rule="evenodd" fill="#A3DEF8" d="M150.104,235.481c-8.087,0.155-16.173,0.153-24.26,0
		c-0.075-0.179-0.103-0.365-0.085-0.56c0.216-4.516,0.063-9.036,0.087-13.554c0.029-5.389,0.007-10.777,0.007-16.166
		c0-0.521-0.023-1.044,0.027-1.563c0.043-0.454,0.034-1.003,0.555-1.17c0.499-0.158,0.879,0.227,1.196,0.557
		c1.525,1.591,2.889,3.322,4.339,4.979c5.874,6.711,11.667,13.492,17.566,20.179c0.716,0.883,0.664,1.95,0.641,2.98
		C150.147,232.603,150.32,234.046,150.104,235.481z"/>
	<path fill-rule="evenodd" clip-rule="evenodd" fill="#B9BABE" d="M67.764,96.727c18.271,0.006,36.542,0.012,54.813,0.018
		c0.78,2.241,0.433,4.521,0.231,6.797c-0.086,0.202-0.227,0.354-0.421,0.455c-18.178-0.01-36.356-0.02-54.534-0.03
		C67.823,101.553,67.793,99.14,67.764,96.727z"/>
	<path fill-rule="evenodd" clip-rule="evenodd" fill="#B9BABE" d="M180.521,96.745c3.993-0.022,7.986-0.063,11.98-0.064
		c13.606-0.008,27.211-0.004,40.817-0.001c0.744,0,1.514-0.119,2.194,0.327c-0.001,2.33-0.001,4.66-0.001,6.989
		c-18.181,0.001-36.361,0.001-54.543,0.003c-0.587-0.527-0.555-1.247-0.536-1.924C180.48,100.298,180.229,98.516,180.521,96.745z"/>
	<path fill-rule="evenodd" clip-rule="evenodd" fill="#448BC9" d="M180.252,91.79c0.115-0.437-0.318-1.111,0.484-1.218
		c0.097-0.013,1.719-0.502,0.566,0.76c-0.063,0.068,0.49,0.117,0.748,0.118c2.945,0.014,5.892,0.012,8.838,0.004
		c0.439,0,1.117,0.241,0.637-0.713c-0.167-0.332,0.324-0.421,0.686-0.515c4.321-1.109,7.118-3.779,8.221-8.147
		c5.793,0.03,11.587,0.078,17.381,0.072c0.95,0,1.768,0.201,2.609,0.644c5.04,2.652,10.106,5.254,15.158,7.885
		c0.486,0.253,1.101,0.332,1.483,1.021c-1.15,0-2.207,0-3.262,0c-17.506,0.001-35.011,0.001-52.516,0.007
		C180.941,91.708,180.597,91.761,180.252,91.79z"/>
	<path fill-rule="evenodd" clip-rule="evenodd" fill="#AFAFB7" d="M193.856,235.526c-0.067-0.312-0.561-0.332-0.437-0.832
		c0.467-1.881,0.914-3.771,1.259-5.677c0.173-0.949,0.488-1.016,1.468-1.058c4.693-0.198,9.389,0.001,14.077-0.05
		c6.465-0.068,12.949-0.381,19.416,0.119c0.46,0.036,0.726-0.197,1-0.477c2.228,2.631,4.456,5.261,6.685,7.89
		c-10.895,0.317-21.792,0.069-32.689,0.137C201.043,235.601,197.449,235.546,193.856,235.526z"/>
	<path fill-rule="evenodd" clip-rule="evenodd" fill="#448BCA" d="M122.833,93.113c-0.083,0.035-0.167,0.057-0.255,0.067
		c0.163-1.077-0.16-1.494-1.382-1.49c-17.656,0.056-35.312,0.053-52.968,0.064c-0.636,0.001-1.271,0-2.416,0
		c2.161-1.171,3.908-2.149,5.683-3.075c3.773-1.971,7.569-3.901,11.338-5.879c0.899-0.472,1.806-0.657,2.82-0.647
		c3.94,0.039,7.88,0.025,11.82,0.005c0.573-0.003,1.356,0.294,1.483-0.704c0.916,4.545,3.656,7.386,8.058,8.728
		c0.63,0.193,1.24,0.23,1.873,0.23c3.757,0.004,7.516,0.003,11.274,0.003C122.832,90.415,122.832,90.415,122.833,93.113z"/>
	<path fill-rule="evenodd" clip-rule="evenodd" fill="#D1D1D6" d="M118.684,180.184c-0.453,0.479-0.957,0.711-1.666,0.711
		c-15.971-0.023-31.942-0.021-47.914-0.003c-0.425,0-0.894-0.408-1.294,0.073c-1.02-1.411-2.588-2.346-3.417-3.924
		c10.765,0.604,21.54,0.118,32.311,0.323c6.686,0.126,13.379-0.056,20.068-0.14c0.723-0.01,1.35,0.064,1.914,0.518
		C119.834,178.558,119.837,179.371,118.684,180.184z"/>
	<path fill-rule="evenodd" clip-rule="evenodd" fill="#757E86" d="M180.974,224.382c-0.003,3.092,0.004,6.184-0.017,9.275
		c-0.004,0.622-0.11,1.244-0.171,1.866c-1.181-0.014-2.36-0.028-3.538-0.042c-0.042-6.071-0.102-12.14-0.123-18.209
		c-0.027-7.868-0.023-15.734-0.034-23.602c1.295-1.154,2.872-1.104,4.179,0.133c0.273,0.723,0.234,1.48,0.234,2.23
		c0.007,8.565,0.012,17.131-0.005,25.696C181.497,222.638,181.668,223.602,180.974,224.382z"/>
	<path fill-rule="evenodd" clip-rule="evenodd" fill="#757E86" d="M150.104,235.481c-0.573-2.29,0.019-4.658-0.477-6.95
		c-0.299-0.477-0.218-1.011-0.218-1.526c-0.002-10.728-0.014-21.454,0.023-32.182c0.002-0.645-0.276-1.454,0.669-1.771
		c1.139-0.111,2.303-0.457,3.332,0.377c0.13,13.725,0.233,27.449-0.058,41.174c-0.007,0.285-0.062,0.571-0.095,0.855
		C152.221,235.482,151.166,235.931,150.104,235.481z"/>
	<path fill-rule="evenodd" clip-rule="evenodd" fill="#757E86" d="M125.972,235.139c-0.042,0.114-0.084,0.229-0.126,0.344
		c-1.074,0.087-2.147,0.244-3.223,0.027c-0.027-6.117-0.054-12.233-0.084-18.351c-0.031-6.52-0.067-13.041-0.1-19.562
		c-0.411-1.293-0.728-2.59-0.208-3.934c1.493-1.14,3.284-1.119,4.603,0.051c0.13,2.135,0.271,4.307-0.015,6.4
		c-1.503,11.031-0.264,22.105-0.686,33.15C126.109,233.891,126.287,234.537,125.972,235.139z"/>
	<path fill-rule="evenodd" clip-rule="evenodd" fill="#F7F7F7" d="M109.617,235.506c-0.352-2.207-0.712-4.413-1.05-6.622
		c-0.084-0.556-0.401-0.821-0.92-0.833c-0.509-0.013-1.024,0.099-1.526,0.052c-0.832-0.077-1.871,0.354-2.41-0.297
		c-0.216-0.262,0.401-1.387,0.836-1.974c0.587-0.791,1.285-1.768,2.494-1.145c0.895,0.461,1.08-0.238,1.477-0.66
		c2.588,3.211,6.123,1.68,9.311,1.822c0.785,0.034,1.14-0.947,1.894-1.132c2.437-0.196,2.999,0.456,2.435,2.759
		c-0.082,0.335-0.18,0.548-0.518,0.515c-1.474-0.143-1.596,0.926-1.755,1.946c-0.291,1.857-1.048,3.64-0.873,5.568
		C115.879,235.506,112.748,235.506,109.617,235.506z"/>
	<path fill-rule="evenodd" clip-rule="evenodd" fill="#FEFEFE" d="M143.843,75.748c-0.178,4.956-2.878,8-7.206,8.045
		c-2.783,0.029-4.972-1.171-6.187-3.677c-1.566-3.231-1.49-6.517,0.567-9.538c2.469-3.629,7.877-3.974,10.862-0.751
		C143.414,71.483,143.874,73.547,143.843,75.748z"/>
	<path fill-rule="evenodd" clip-rule="evenodd" fill="#FDFDFE" d="M126.736,75.748c0,2.19-0.043,4.382,0.021,6.571
		c0.026,0.906-0.235,1.194-1.153,1.209c-1.087,0.017-0.825-0.645-0.823-1.245c0.007-1.681-0.027-3.361,0.016-5.04
		c0.02-0.813-0.24-1.133-1.091-1.109c-1.853,0.052-3.71,0.074-5.561-0.007c-0.957-0.042-1.028,0.445-1.021,1.147
		c0.02,1.764,0.005,3.527,0.049,5.289c0.02,0.756-0.278,0.976-1.009,0.957c-0.699-0.019-1.044-0.159-1.039-0.963
		c0.03-4.635,0.027-9.27,0.003-13.905c-0.004-0.73,0.321-0.862,0.943-0.839c0.62,0.023,1.122-0.015,1.083,0.896
		c-0.067,1.532,0.039,3.072-0.011,4.606c-0.025,0.761,0.063,1.151,0.981,1.116c1.852-0.073,3.708-0.055,5.561-0.008
		c0.825,0.021,1.138-0.25,1.111-1.088c-0.046-1.504,0.013-3.013-0.021-4.518c-0.016-0.728,0.216-1.029,0.99-1.015
		c0.757,0.015,0.983,0.267,0.966,1.029c-0.05,2.305-0.019,4.612-0.019,6.918C126.721,75.748,126.729,75.748,126.736,75.748z"/>
	<path fill-rule="evenodd" clip-rule="evenodd" fill="#E49637" d="M174.825,92.986c-4.125,0.433-8.264,0.153-12.395,0.17
		c-11.236,0.049-22.473,0.016-33.71,0.011c-0.228,0-0.456-0.047-0.684-0.072c0.003-0.45,0.006-0.899,0.01-1.348
		c0.744-0.664,1.546-0.095,2.321-0.125c3.865-0.149,7.751,0.4,11.599-0.339c0.284-0.055,0.578-0.043,0.867-0.043
		c9.909-0.007,19.817-0.022,29.725,0.015C173.679,91.261,175.07,91.104,174.825,92.986z"/>
	<path fill-rule="evenodd" clip-rule="evenodd" fill="#FBFCFD" d="M157.308,75.731c0-2.199,0.035-4.399-0.017-6.597
		c-0.021-0.919,0.161-1.372,1.223-1.333c2.08,0.075,4.166,0.029,6.248,0.019c0.632-0.003,1.171,0.041,1.153,0.886
		c-0.019,0.825-0.547,0.889-1.181,0.881c-1.215-0.015-2.43-0.003-3.646-0.003c-0.288-0.001-0.617-0.099-0.861,0.006
		c-1.727,0.741-0.585,2.245-0.807,3.378c-0.106,0.541-0.561,1.62,0.85,1.561c1.419-0.06,2.843,0.002,4.265-0.02
		c0.665-0.009,1.079,0.108,1.067,0.934c-0.014,0.83-0.54,0.744-1.051,0.748c-1.389,0.009-2.778,0.032-4.166-0.007
		c-0.735-0.021-1.101,0.216-1.013,0.985c0.012,0.114,0.003,0.231,0,0.347c-0.123,4.33-0.123,4.329,4.163,4.324
		c0.625,0,1.252,0.048,1.875,0.003c0.573-0.042,0.806,0.064,0.819,0.733c0.014,0.684-0.153,0.938-0.84,0.932
		c-2.374-0.021-4.747-0.046-7.119,0.01c-0.96,0.023-0.979-0.48-0.971-1.188C157.324,80.13,157.309,77.931,157.308,75.731z"/>
	<path fill-rule="evenodd" clip-rule="evenodd" fill="#478CC7" d="M174.825,92.986c0.154-1.689-1.11-1.268-1.983-1.269
		c-9.543-0.017-19.087-0.007-28.629,0c-5.389,0.005-10.777,0.02-16.166,0.03c0.064-0.533-0.18-1.325,0.711-1.282
		c0.482,0.023,1.494-0.629,1.389,0.756c-0.032,0.42,0.558,0.221,0.855,0.224c2.893,0.017,5.787,0.026,8.679-0.013
		c0.324-0.005,1.155,0.479,0.886-0.661c-0.15-0.64,0.594-0.339,0.9-0.339c10.763-0.022,21.526-0.029,32.29-0.009
		c2.013,0.003,1.008,1.546,1.171,2.484L174.825,92.986z"/>
	<path fill-rule="evenodd" clip-rule="evenodd" fill="#F9FAFC" d="M150.817,76.751c0.003,1.912-0.04,3.826,0.024,5.736
		c0.025,0.717-0.069,1.049-0.876,1.031c-0.764-0.018-1.125-0.144-1.109-1.063c0.063-3.813-0.005-7.626,0.052-11.438
		c0.018-1.121-0.281-1.607-1.467-1.451c-0.741,0.098-1.504,0.013-2.258,0.02c-0.597,0.005-1.138,0.058-1.143-0.848
		c-0.005-0.835,0.393-0.931,1.07-0.926c3.13,0.021,6.26,0.01,9.39,0.012c0.592,0,1.129-0.058,1.138,0.862
		c0.01,0.9-0.49,0.864-1.102,0.908c-1.184,0.086-2.732-0.549-3.46,0.31c-0.767,0.904-0.2,2.454-0.251,3.719
		C150.782,74.663,150.815,75.708,150.817,76.751z"/>
	<path fill-rule="evenodd" clip-rule="evenodd" fill="#FBFCFD" d="M168.789,75.627c0-2.203,0.033-4.407-0.017-6.609
		c-0.02-0.881,0.221-1.229,1.163-1.226c1.007,0.003,0.927,0.575,0.925,1.244c-0.012,3.826,0.039,7.653-0.035,11.479
		c-0.021,1.089,0.3,1.412,1.351,1.35c1.478-0.088,2.966-0.024,4.447-0.079c0.664-0.024,0.913,0.172,0.944,0.867
		c0.032,0.771-0.353,0.854-0.948,0.851c-2.261-0.011-4.522-0.037-6.782,0.013c-0.854,0.019-1.078-0.295-1.062-1.106
		C168.821,80.149,168.791,77.888,168.789,75.627z"/>
	<path fill-rule="evenodd" clip-rule="evenodd" fill="#969799" d="M129.688,166.208c-2.37,0-4.739,0.001-7.109,0.001
		c-0.029-0.635-0.085-1.27-0.085-1.903c-0.005-19.411-0.003-38.821-0.008-58.231c0-0.693-0.064-1.385-0.098-2.078
		c0,0,0.169-0.018,0.169-0.018c1.992-1.609,4.367-2.5,6.666-3.528c0.262-0.118,0.566-0.076,0.781,0.191
		c0.112,0.18,0.188,0.371,0.236,0.577c0.154,0.807,0.119,1.62,0.12,2.431c0.003,19.815,0.007,39.631-0.012,59.446
		C130.347,164.159,130.644,165.329,129.688,166.208z"/>
	<path fill-rule="evenodd" clip-rule="evenodd" fill="#A3DEF8" d="M109.587,137.021c0.007,5.451,0.013,10.901,0.02,16.352
		c-0.426,0.488-1.017,0.542-1.592,0.546c-6.367,0.033-12.735,0.075-19.102-0.02c-0.231-0.003-0.458-0.061-0.678-0.119
		c-0.706-0.189-0.795-0.763-0.805-1.358c-0.08-4.789-0.073-9.58-0.058-14.37c0.002-0.938,0.472-1.365,1.36-1.436
		c0.404-0.032,0.808-0.041,1.211-0.041c5.832-0.003,11.664-0.005,17.496,0.004C108.178,136.581,108.956,136.466,109.587,137.021z"/>
	<path fill-rule="evenodd" clip-rule="evenodd" fill="#A3DEF8" d="M109.589,120.313c0,4.306,0,8.612,0,12.918
		c-0.344,0.67-0.981,0.508-1.535,0.514c-6.248,0.068-12.498,0.01-18.747,0.028c-1.593,0.004-1.928-0.343-1.91-1.958
		c0.034-2.889,0.072-5.778-0.015-8.665c-0.038-1.249,0.579-1.902,1.634-2.362c4.102-1.786,8.374-2.608,12.849-2.372
		c2.027,0.106,4.036,0.319,5.994,0.877C108.521,119.485,109.236,119.595,109.589,120.313z"/>
	<path fill-rule="evenodd" clip-rule="evenodd" fill="#81B0CA" d="M109.589,120.313c-7.01-2.413-13.88-1.982-20.652,0.954
		c-0.802,0.348-1.233,0.84-1.203,1.637c0.118,3.041,0.137,6.079,0.018,9.121c-0.024,0.604-0.108,1.434,1.113,1.421
		c6.746-0.063,13.492-0.028,20.239-0.036c0.162,0,0.323-0.117,0.485-0.179c0,1.264,0,2.526-0.001,3.79
		c-6.665,0.005-13.33,0.034-19.994-0.005c-1.264-0.008-1.887-0.004-1.806,1.695c0.211,4.434,0.095,8.883,0.086,13.327
		c-0.001,0.437,0.135,0.92-0.198,1.316c-1.137,0.788-2.275,0.778-3.417,0.012c0-5.561,0.001-11.123,0.001-16.684
		c0.866-0.935,1.915-0.393,2.9-0.343c0.068-2.296,0.068-2.298-2.086-2.528c-0.29-0.031-0.563-0.098-0.813-0.253
		c-0.015-4.564-0.02-9.128-0.055-13.692c-0.007-0.832,0.19-1.312,1.066-1.694c7.757-3.393,15.49-3.283,23.273-0.098
		C109.718,118.553,109.669,119.37,109.589,120.313z"/>
	<path fill-rule="evenodd" clip-rule="evenodd" fill="#B9B9BE" d="M80.694,158.956c0.91,0,1.47,0,2.031,0
		c9.616,0,19.23-0.038,28.844,0.038c1.581,0.014,2.063-0.466,1.892-1.965c-0.111-0.964-0.021-1.95-0.021-3.479
		c3.054,4.293,5.824,8.188,8.612,12.107c-0.661,0.438-1.19,0.271-1.684,0.272c-10.946,0.012-21.893-0.009-32.84,0.035
		c-1.154,0.004-1.948-0.291-2.61-1.241C83.615,162.856,82.231,161.045,80.694,158.956z"/>
	<path fill-rule="evenodd" clip-rule="evenodd" fill="#0D72B9" d="M126.673,193.637c-1.404-0.342-2.807-0.44-4.202,0.047
		c-1.023,0.472-2.067,0.304-3.111,0.1c-0.671-0.246-0.484-0.773-0.48-1.296c0.024-3.59,0.022-7.179,0.006-10.769
		c-0.003-0.512-0.132-1.023-0.202-1.535c0.385-0.813,0.38-1.627,0.003-2.441c0.017-0.105,0.015-0.211-0.004-0.315
		c0.264-2.343,0.245-4.686,0.01-7.03c0.02-0.102,0.013-0.203-0.02-0.303c1.879-0.646,3.824-0.184,5.734-0.32
		c1.188-0.086,2.389-0.002,3.584,0.007c0.689,0.625,0.61,1.468,0.611,2.267c0.001,5.209,0.049,10.417-0.017,15.621
		c-0.279,1.846-0.049,3.713-0.195,5.567C127.998,194.133,127.41,194.2,126.673,193.637z"/>
	<path fill-rule="evenodd" clip-rule="evenodd" fill="#F5F4F4" d="M84.26,153.366c1.139-0.003,2.277-0.008,3.417-0.012
		c7.309,0.006,14.62,0.013,21.93,0.019c3.565,0.064,3.527,0.064,3.513,3.734c-0.004,1.093-0.241,1.394-1.431,1.415
		c-9.435,0.171-18.869,0.111-28.303,0.01c-0.628-0.007-1.259,0.08-1.886,0.066c-0.341-0.007-0.845,0.248-0.912-0.442
		c-0.045-0.472-0.04-0.804,0.575-0.771c0.403,0.021,0.694-0.287,0.736-0.61c0.059-0.454-0.321-0.631-0.73-0.792
		c-1.098-0.43-0.455-1.414-0.521-2.112c-0.082-0.869,0.761-0.419,1.183-0.461C82.633,153.329,83.449,153.374,84.26,153.366z"/>
	<path fill-rule="evenodd" clip-rule="evenodd" fill="#708491" d="M84.262,133.558c3.01-0.571,3.68,0.345,3.395,2.536
		c-0.098,0.755-0.257,0.865-0.741,0.689c-0.894-0.325-1.767-0.173-2.654-0.101C84.261,135.641,84.262,134.6,84.262,133.558z"/>
	<path fill-rule="evenodd" clip-rule="evenodd" fill="#D1D1D6" d="M118.693,170.396c0.389,2.345,0.403,4.688-0.01,7.03
		C118.686,175.083,118.689,172.74,118.693,170.396z"/>
	<path fill-rule="evenodd" clip-rule="evenodd" fill="#A3DEF8" d="M109.588,191.648c0.01,4.273,0.01,8.548,0.041,12.822
		c0.005,0.604-0.249,1.284,0.33,1.794c0.411,0.477,0.222,0.996,0.06,1.48c-0.833,2.486-1.33,5.028-1.436,7.655
		c-0.029,0.721-0.007,1.538-0.739,2.039c-6.718-0.035-13.436-0.072-20.154-0.109c-0.482-2.224-0.282-4.484-0.277-6.723
		c0.015-5.422,0.01-10.845-0.012-16.267c-0.002-0.405,0.038-0.809,0.033-1.211c-0.016-1.332,0.624-1.791,1.939-1.786
		c5.893,0.024,11.787-0.019,17.68,0.03C107.899,191.381,108.791,191.131,109.588,191.648z"/>
	<path fill-rule="evenodd" clip-rule="evenodd" fill="#2B948D" d="M107.844,217.439c0.333-3.795,0.707-7.583,2.115-11.175
		c1.14-1.711,2.081-3.764,4.648-3.473c2.417,0.274,3.364,2.188,4.114,4.149c2.224,5.812,2.367,11.755,1,17.776
		c-0.573,1.426-1.602,1.85-3.117,1.689c-1.458-0.155-2.968-0.181-4.415,0.022c-2.034,0.285-3.047-0.688-3.672-2.402
		C108.292,221.831,108.069,219.636,107.844,217.439z"/>
	<path fill-rule="evenodd" clip-rule="evenodd" fill="#81B0CA" d="M109.588,191.648c-4.538,0.044-9.076,0.101-13.614,0.13
		c-2.352,0.015-4.708,0.049-7.056-0.064c-0.949-0.045-1.068,0.354-1.065,1.079c0.012,3.586,0.106,7.176,0.003,10.759
		c-0.131,4.594,0.198,9.192-0.166,13.779c-3.474-0.228-3.474-0.228-3.474-3.784c0-7.694,0-15.391,0-23.085
		c0-2.28,0-2.281,2.364-2.281c6.885,0,13.771,0,20.655,0c2.417,0,2.417,0.001,2.385,2.427
		C109.617,190.954,109.6,191.302,109.588,191.648z"/>
	<path fill-rule="evenodd" clip-rule="evenodd" fill="#B5B6BB" d="M119.36,193.783c1.027-0.333,2.071-0.183,3.112-0.099
		c-0.011,1.304-0.022,2.608-0.034,3.913C121.572,196.196,120.006,195.361,119.36,193.783z"/>
	<path fill-rule="evenodd" clip-rule="evenodd" fill="#B8B9BE" d="M228.255,166.259c-15.276-0.01-30.554-0.021-45.83-0.034
		c-0.521-0.001-1.041-0.04-1.561-0.062c-0.569-0.688-0.48-1.524-0.481-2.323c-0.012-18.336-0.013-36.672,0.003-55.008
		c0-0.848-0.132-1.76,0.606-2.438c4.116,5.15,8.232,10.301,12.382,15.491c0.139-0.168,0.356-0.326,0.331-0.416
		c-0.667-2.392,0.638-3.309,2.676-4.034c7.213-2.563,14.304-2.385,21.355,0.554c1.077,0.448,1.766,1.051,1.482,2.323
		c-0.949,0.391-1.824-0.098-2.688-0.307c-5.804-1.401-11.435-0.873-16.983,1.25c-1.268,0.484-1.892,1.163-1.811,2.54
		c0.05,0.854,0.125,1.733-0.184,2.571c-0.626,0.73-1.036,0.103-1.38-0.289c-0.684-0.777-1.334-1.587-2.143-2.663
		c0.044,4.59-0.117,8.922-0.069,13.255c0.063,5.595,0.162,11.188-0.044,16.783c-1.063,0.772-2.279,1.419-2.342,2.988
		c-0.009,0.225-0.155,0.442-0.439,0.43c-0.252-0.011-0.428-0.176-0.527-0.391c-0.178-0.377-0.041-0.783-0.07-0.963
		c-0.042,2.455,0.032,2.525,2.563,2.548c3.578,0.032,7.177,0.25,10.729-0.071c2.851-0.257,5.639,0.245,8.467,0.118
		c2.876-0.13,5.771-0.112,8.655-0.037c0.35,0.009,0.689,0.071,1.009,0.215c0.142,0.207,0.283,0.415,0.424,0.623
		c-0.749,0.777-1.729,0.546-2.624,0.548c-8.629,0.021-17.258,0.012-25.886,0.013c-0.463,0-0.926-0.007-1.39,0.011
		c-0.874,0.032-1.012,0.438-0.527,1.1c0.991,1.355,1.977,2.715,3.042,4.015c0.479,0.583,1.131,0.785,1.854,0.787
		c9.671,0.032,19.342,0.024,29.013,0.002c0.224-0.001,0.467-0.022,0.684-0.347c-0.676-1.413-1.896-2.495-2.815-3.792
		c-0.489-0.691-1.224-1.275-1.048-2.276c0.757-1.46,0.055-3.053,0.517-4.952c2.877,4.013,5.605,7.813,8.39,11.696
		C230.472,166.286,229.228,165.515,228.255,166.259z"/>
	<path fill-rule="evenodd" clip-rule="evenodd" fill="#757E86" d="M180.992,106.393c-0.018,13.031-0.03,26.063-0.056,39.095
		c-0.014,6.892-0.048,13.783-0.072,20.676c-2.376,0.021-4.753,0.041-7.13,0.063c-0.654-0.629-0.655-1.454-0.655-2.266
		c0.01-20.857-0.055-41.715,0.022-62.568c0.104-1.063-0.048-2.132,0.02-3.2c0.035-0.56-0.039-1.154,0.604-1.455
		c2.266,0.002,4.53,0.004,6.795,0.007c0.855,1.257,0.279,2.666,0.397,3.999c0.097,1.078,0.04,2.169,0.051,3.255
		C180.597,104.8,180.858,105.596,180.992,106.393z"/>
	<path fill-rule="evenodd" clip-rule="evenodd" fill="#81B0CA" d="M219.186,133.571c0,1.036,0,2.071,0,3.106
		c-0.501,1.014-1.461,0.792-2.292,0.801c-3.406,0.038-6.814-0.006-10.691,0.032c1.529,1.715,2.613,3.307,3.829,4.802
		c2.444,3.01,4.799,6.092,7.217,9.125c0.446,0.562,1.1,1.075,0.947,1.95l-0.015,0.021c-0.387,0.425-0.912,0.5-1.432,0.501
		c-6.475,0.008-12.95,0.166-19.419-0.075c-0.543-0.133-0.994-0.364-0.89-1.046c0.717-4.721,0.14-9.471,0.331-14.204
		c0.095-2.346,0.095-2.323,2.516-2.323c1.37,0,2.756-0.021,4.169-0.449c-0.595-1.513-1.84-1.82-3.202-1.887
		c-3.33-0.163-3.646,0.775-3.445-3.403c0.053-1.113-0.476-2.31,0.441-3.309c0.842-0.103,1.199,0.566,1.659,1.056
		c0.989,1.054,1.808,2.25,2.667,3.403c0.779,1.046,1.688,1.391,2.959,1.355c4.268-0.117,8.537,0.018,12.808-0.024
		C217.991,132.996,218.77,132.748,219.186,133.571z"/>
	<path fill-rule="evenodd" clip-rule="evenodd" fill="#A3DEF8" d="M219.186,133.571c-2.058-0.416-4.136-0.127-6.203-0.178
		c-2.413-0.059-4.852-0.197-7.239,0.067c-2.735,0.303-4.377-0.913-5.697-3.064c-0.722-1.174-1.589-2.264-2.696-3.125
		c-0.233-0.199-0.271-0.428-0.104-0.689c0.011-0.288,0.028-0.575,0.031-0.864c0.046-4.597,0.07-4.511,4.613-5.776
		c5.835-1.625,11.592-1.611,17.328,0.369C219.208,124.731,219.196,129.15,219.186,133.571z"/>
	<path fill-rule="evenodd" clip-rule="evenodd" fill="#959698" d="M222.686,158.971c1.457,1.856,2.91,3.716,4.375,5.567
		c0.285,0.359,0.744,0.71,0.535,1.188c-0.192,0.438-0.725,0.195-1.099,0.196c-9.967,0.014-19.935,0.004-29.9,0.026
		c-0.964,0.003-1.589-0.296-2.143-1.133c-1.048-1.582-2.251-3.062-3.383-4.589c-0.228-0.307-0.755-0.53-0.543-0.985
		c0.251-0.539,0.829-0.268,1.255-0.271c3.478-0.022,6.955-0.01,10.433-0.016c6.722-0.012,13.445-0.028,20.168-0.044
		C222.483,158.935,222.584,158.955,222.686,158.971z"/>
	<path fill-rule="evenodd" clip-rule="evenodd" fill="#C2C3C7" d="M196.6,153.374c7.193,0.012,14.388,0.022,21.581,0.034
		c1.261,1.626,2.521,3.252,3.779,4.879c-2.286,0.581-4.614,0.035-6.935,0.251c-2.463,0.229-5.005,0.155-7.456-0.189
		c-2.409-0.34-4.717,0.4-7.111,0.155c-2.46-0.252-4.967-0.042-7.453-0.044c-2.71-0.001-2.674-0.007-2.76-2.696
		c-0.015-0.48,0.08-0.886,0.127-1.34c1.051,0.511-0.163,1.649,0.807,2.276c0.02-1.844,0.833-3.015,2.653-3.321
		C194.754,152.838,195.676,152.386,196.6,153.374z"/>
	<path fill-rule="evenodd" clip-rule="evenodd" fill="#A3DEF8" d="M218.195,153.387c-4.225-5.367-8.45-10.734-12.87-16.349
		c4.078,0,7.876,0.003,11.674-0.003c0.746,0,1.518,0.126,2.187-0.357c0.01,5.121,0.017,10.242,0.034,15.363
		C219.223,152.771,219.255,153.482,218.195,153.387z"/>
	<path fill-rule="evenodd" clip-rule="evenodd" fill="#0E72B9" d="M155.552,169.761c2.888-0.001,5.775-0.001,8.662-0.001
		c0.664,0.313,0.595,0.923,0.588,1.491c-0.072,5.803,0.079,11.607-0.089,17.412c-0.017,1.533-0.009,3.064,0.021,4.597
		c0.015,0.199-0.061,0.355-0.223,0.471c-3.08-0.31-6.16-0.291-9.24-0.001c-0.165-0.116-0.238-0.275-0.221-0.477
		c-0.036-1.678,0.232-3.365-0.185-5.031c-0.063-0.2-0.103-0.402-0.131-0.608c-0.175-5.31-0.068-10.617-0.06-15.925
		C154.677,170.938,154.732,170.163,155.552,169.761z"/>
	<path fill-rule="evenodd" clip-rule="evenodd" fill="#0D72B9" d="M180.95,193.669c-1.286-0.43-2.573-0.428-3.859,0.003
		c-1.14-0.317-2.345,0.157-3.475-0.288c-0.975-1.685-0.365-3.517-0.493-5.28c-0.103-5.472-0.034-10.942-0.035-16.413
		c0-0.696,0.052-1.391,0.58-1.935c2.593,0.012,5.186,0.015,7.778,0.04c0.437,0.004,0.935-0.18,1.287,0.268
		c0.337,0.688,0.49,1.409,0.489,2.18c-0.002,6.483,0.027,12.968-0.019,19.45C183.188,193.85,182.772,194.163,180.95,193.669z"/>
	<path fill-rule="evenodd" clip-rule="evenodd" fill="#B9BABE" d="M173.569,188.159c0.015,1.742,0.031,3.483,0.047,5.226
		c-2.361,0.006-4.723,0.022-7.084,0.011c-0.699-0.003-1.377,0.04-2.021,0.335c0.015-0.104,0.013-0.209-0.004-0.313
		c-0.1-1.77-0.228-3.54,0.069-5.306c2.052-0.954,4.224-0.317,6.336-0.46C171.813,187.592,172.786,187.464,173.569,188.159z"/>
	<path fill-rule="evenodd" clip-rule="evenodd" fill="#B9B9BE" d="M155.294,193.405c-0.027,0.106-0.034,0.216-0.022,0.325
		c-0.587-0.253-1.191-0.406-1.838-0.302c-1.24,0.014-2.48,0.027-3.721,0.04c-1.21,0.704-2.425,0.634-3.643,0.019
		c-0.72-1.795-0.717-3.591-0.002-5.387c3.049-0.742,6.095-0.819,9.136,0.054l0.104,0.03
		C155.393,189.925,155.418,191.665,155.294,193.405z"/>
	<path fill-rule="evenodd" clip-rule="evenodd" fill="#75A2A1" d="M219.22,213.936c-0.169,1.074,0.449,2.432-0.313,3.173
		c-0.764,0.745-2.081,0.15-3.158,0.148c-5.772-0.011-11.546,0.004-17.318,0.02c-0.512,0.001-1.034,0.155-1.534,0.098
		c-1.146-0.131-1.328,0.439-1.324,1.426c0.01,2.201-0.269,4.36-1.255,6.388c-0.461,0.945-1.084,1.388-2.17,1.338
		c-1.617-0.072-3.253-0.146-4.857,0.016c-1.89,0.189-3.235-0.311-3.896-2.18c-0.902-0.611-0.86-1.617-0.955-2.509
		c-0.603-5.606-0.342-11.109,2.169-16.307c0.303-0.628,0.657-1.224,1.134-1.742c1.916-2.085,4.593-2.128,6.575-0.098
		c0.488,0.5,0.856,1.093,1.257,1.657c0.543,0.587,0.522,1.386,0.777,2.11c0.351-0.044,0.433-0.771,0.884-0.435
		c0.661,0.493,0.934,1.166,0.648,1.853c1.345-1.226,0.193-3.005,0.745-4.515c0.118-0.322-0.208-0.571-0.52-0.796
		c-1.525-1.099-1.496-2.643,0.109-3.548c0.467-0.264,0.552-0.532,0.51-0.937c-0.123-1.197,0.578-2.567-0.732-3.523
		c-0.146-0.106-0.164-0.36-0.05-0.471c1.303-1.244,0.702-3.004,1.217-4.46c0.168-0.476,0.481-0.834,0.886-0.985
		c0.238-0.089,0.846,0.364,0.239-0.313c-0.317-0.355-1.012-0.445-0.731-1.171c0.139-0.128,0.282-0.128,0.431-0.019
		c6.23,0.025,12.461,0.037,18.691,0.081c2.808,0.021,2.454-0.439,2.482,2.46c0.002,0.288,0.004,0.576,0.005,0.865
		c-0.563,0.828-1.438,0.604-2.213,0.611c-4.458,0.043-8.918,0.012-13.378,0.016c-0.455,0.001-0.915-0.05-1.543,0.105
		c1.47,1.973,3.033,3.721,4.529,5.519c3.705,4.452,7.406,8.908,11.135,13.339c0.642,0.761,1.199,1.555,1.472,2.524
		C219.168,213.765,219.186,213.853,219.22,213.936z"/>
	<path fill-rule="evenodd" clip-rule="evenodd" fill="#B9B9BE" d="M193.509,205.963c-0.482-0.642-0.914-1.33-1.454-1.918
		c-2.088-2.269-5.08-1.771-6.723,1.086c-1.646,2.864-2.322,6.036-2.592,9.253c-0.278,3.332-0.311,6.701,0.652,9.978
		c-0.8,0.673-1.606,0.738-2.419,0.021c-0.008-10.237-0.016-20.475-0.023-30.712c1.588,0.24,1.774-0.582,1.765-1.958
		c-0.054-7.216,0.002-14.433,0.019-21.648c0.1,0.001,0.198,0.012,0.295,0.032c2.843,3.739,5.979,7.233,9.04,10.788
		c1.754,2.602,3.858,4.918,5.919,7.271c-0.109,0.027-0.219,0.053-0.329,0.073c-0.604,0.481-1.333,0.421-2.004,0.344
		c-1.356-0.155-1.671,0.451-1.651,1.699c0.067,4.402,0.024,8.807,0.024,13.209C194.027,204.336,194.158,205.236,193.509,205.963z"/>
	<path fill-rule="evenodd" clip-rule="evenodd" fill="#A3DEF8" d="M219.167,213.675c-6.018-7.217-12.034-14.434-18.437-22.113
		c6.508,0,12.473,0,18.435-0.001C219.165,198.932,219.167,206.303,219.167,213.675z"/>
	<path fill-rule="evenodd" clip-rule="evenodd" fill="#B9BABE" d="M173.726,96.738c-0.439,1.247-0.152,2.522-0.152,3.786
		c-0.822,0.541-1.761,0.527-2.686,0.529c-12.906,0.017-25.814,0.013-38.721,0c-0.796-0.001-1.64,0.1-2.298-0.539l-0.157,0.005
		c-0.642-1.258-0.636-2.516-0.002-3.774c7.509-0.022,15.019-0.062,22.528-0.063C159.399,96.681,166.563,96.718,173.726,96.738z"/>
	<path fill-rule="evenodd" clip-rule="evenodd" fill="#757E86" d="M129.709,96.745c0,1.258,0.002,2.516,0.002,3.774
		c-2.381,1.161-4.662,2.53-7.155,3.46c0.006-2.412,0.013-4.824,0.02-7.235C124.954,96.745,127.331,96.745,129.709,96.745z"/>
	<path fill-rule="evenodd" clip-rule="evenodd" fill="#E7E7E7" d="M129.869,100.515c13.545-0.004,27.089-0.008,40.633-0.01
		c1.024,0,2.048,0.013,3.071,0.02c0.013,21.093,0.023,42.186,0.042,63.279c0.001,0.808,0.078,1.615,0.119,2.423
		c-14.682-0.007-29.364-0.013-44.047-0.019c0.037-0.75,0.104-1.501,0.104-2.251c0.006-20.396,0.004-40.792,0.008-61.188
		C129.799,102.018,129.845,101.266,129.869,100.515z"/>
	<path fill-rule="evenodd" clip-rule="evenodd" fill="#0D72B9" d="M146.236,188.127c-0.005,1.753-0.01,3.506-0.016,5.26
		c-0.119,0.825-0.802,0.527-1.228,0.537c-2.193,0.047-4.389,0.007-6.583,0.021c-0.823,0.006-1.497-0.182-1.703-1.113
		c-0.213-1.618-0.097-3.242-0.11-4.864c-0.111-5.426-0.039-10.85-0.037-16.273c0.001-0.692,0.029-1.398,0.625-1.907
		c2.963-0.001,5.927-0.003,8.89-0.005c0.64,0.569,0.623,1.345,0.626,2.096c0.022,4.754,0.019,9.509,0.001,14.264
		C146.698,186.83,146.728,187.544,146.236,188.127z"/>
	<path fill-rule="evenodd" clip-rule="evenodd" fill="#DEE0E3" d="M173.569,188.159c-2.988,0.011-5.977,0.021-8.965,0.032
		c-0.185,0.188-0.27,0.149-0.252-0.113c0.041-5.959,0.083-11.918,0.111-17.877c0-0.147-0.163-0.294-0.25-0.441
		c3.151-0.196,6.302-0.249,9.454-0.004C173.635,175.891,173.603,182.024,173.569,188.159z"/>
	<path fill-rule="evenodd" clip-rule="evenodd" fill="#E0E2E4" d="M137.184,169.786c-0.026,5.374-0.049,10.748-0.08,16.122
		c-0.004,0.751-0.043,1.501-0.066,2.251c-0.376,0.414-0.879,0.522-1.4,0.539c-2.058,0.067-4.115,0.067-6.171,0.001
		c-0.53-0.017-1.012-0.176-1.407-0.548c-0.022-6.124-0.045-12.247-0.068-18.371c1.194-0.666,2.421,0.034,3.637-0.086
		C133.477,169.51,135.335,169.543,137.184,169.786z"/>
	<path fill-rule="evenodd" clip-rule="evenodd" fill="#E0E2E4" d="M146.236,188.127c-0.023-5.483-0.044-10.966-0.075-16.448
		c-0.003-0.633-0.057-1.265-0.087-1.897c3.159-0.204,6.319-0.25,9.478-0.021c-0.473,0.61-0.299,1.325-0.302,2.001
		c-0.024,5.465-0.032,10.929-0.046,16.393C152.215,188.145,149.226,188.136,146.236,188.127z"/>
	<path fill-rule="evenodd" clip-rule="evenodd" fill="#E7E7E7" d="M106.986,168.112c-0.033,0.389-0.277,0.662-0.613,0.715
		c-0.375,0.06-0.657-0.257-0.711-0.588c-0.062-0.375,0.255-0.654,0.588-0.712C106.63,167.462,106.827,167.8,106.986,168.112z"/>
	<path fill-rule="evenodd" clip-rule="evenodd" fill="#82AFC8" d="M137.083,193.382c3.046,0.253,6.091,0.283,9.137,0.005
		c1.164,0.027,2.327,0.054,3.492,0.081c0.049,4.589,0.129,9.177,0.139,13.766c0.015,6.553-0.021,13.105-0.039,19.657
		c-0.001,0.553,0.186,1.128-0.185,1.641c-0.26-0.101-0.608-0.125-0.771-0.312c-3.246-3.742-6.465-7.508-9.702-11.258
		c-3.954-4.581-7.92-9.152-11.887-13.724c-0.185-0.213-0.422-0.379-0.742-0.659c-0.354,0.664-0.207,1.296-0.208,1.885
		c-0.012,9.568-0.003,19.135-0.023,28.701c-0.002,0.659,0.285,1.401-0.324,1.974c-0.013-10.706-0.138-21.413,0.039-32.116
		c0.046-2.751,0.222-5.521,0.284-8.285c0.009-0.411,0.014-0.814,0.378-1.101c0.441-0.248,1.019,0.268,1.413-0.252
		c0.397-0.382,0.902-0.526,1.417-0.494C132.031,193.046,134.617,192.309,137.083,193.382z"/>
	<path fill-rule="evenodd" clip-rule="evenodd" fill="#E7E7E7" d="M105.529,225.603c0.416,0.048,0.747,0.307,0.729,0.629
		c-0.032,0.546-0.484,0.925-0.97,1.053c-0.36,0.093-0.325-0.307-0.361-0.604C104.859,226.127,105.115,225.829,105.529,225.603z"/>
	<path fill-rule="evenodd" clip-rule="evenodd" fill="#0E72B9" d="M141.647,75.497c0.066,1.748-0.262,3.297-1.242,4.671
		c-1.876,2.627-5.647,2.678-7.477,0.019c-1.833-2.665-1.749-5.513-0.395-8.347c0.856-1.792,2.421-2.651,4.349-2.573
		c1.865,0.075,3.225,1.095,4.037,2.811C141.446,73.193,141.721,74.353,141.647,75.497z"/>
	<path fill-rule="evenodd" clip-rule="evenodd" fill="#B9B9BE" d="M137.083,193.382c-2.999,0.002-5.999,0.003-8.998,0.003
		c-0.19-1.743-0.154-3.488-0.027-5.233c2.992,0.003,5.985,0.005,8.978,0.008C137.053,189.899,137.068,191.641,137.083,193.382z"/>
	<path fill-rule="evenodd" clip-rule="evenodd" fill="#76828A" d="M196.6,153.374c-0.923-0.43-1.845,0.065-2.768,0.005
		c-0.41-3.438-0.133-6.889-0.171-10.333c-0.074-6.758-0.022-13.52-0.022-20.451c1.568,1.072,2.164,2.935,3.608,3.987
		c0.033,0.229,0.068,0.458,0.103,0.688c-0.37,1.83-0.064,3.68-0.163,5.518c-0.038,0.694,0.169,0.762,0.985,0.75
		c1.276-0.019,2.568-0.219,3.949,0.297c1.186,0.443,1.354,1.382,1.979,2.065c0.296,0.325-0.166,0.769-0.643,0.674
		c-1.632-0.321-3.237,0.403-4.904,0.006c-0.813-0.194-1.442,0.334-1.418,1.476c0.088,4.142,0.034,8.287,0.085,12.429
		C197.232,151.517,197.019,152.457,196.6,153.374z"/>
	<path fill-rule="evenodd" clip-rule="evenodd" fill="#578A8A" d="M164.353,188.078c0.091,0.022,0.175,0.06,0.252,0.113
		c-0.032,1.742-0.064,3.484-0.097,5.227C164.001,191.651,164.253,189.862,164.353,188.078z"/>
	<path fill-rule="evenodd" clip-rule="evenodd" fill="#2B948D" d="M155.294,193.405c-0.102-1.74-0.171-3.48,0.015-5.221
		C155.688,189.926,155.707,191.666,155.294,193.405z"/>
	<path fill-rule="evenodd" clip-rule="evenodd" fill="#76828B" d="M193.509,205.963c0.307-5.193,0.171-10.393,0.085-15.587
		c-0.028-1.702,0.312-2.536,2.167-2.195c0.614,0.112,1.265,0.036,1.897,0.046c1.228,1.102,1.228,1.102,0.923,2.433
		c-0.459-0.116-0.12-0.792-0.35-0.745c-0.303,0.063-0.796,0.49-0.764,0.688c0.207,1.27-0.618,2.458-0.321,3.664
		c0.28,1.136-0.642,0.577-1.143,0.967c1.242,0.35,1.274,1.182,1.147,2.189c-0.119,0.942-0.007,1.911-0.026,2.867
		c-0.002,0.065-0.277,0.198-0.4,0.174c-0.585-0.111-1.465,0.296-1.249,0.505c0.635,0.612-1.187,2.388,1.028,2.127
		c0.114-0.014,0.871,0.671,0.676,1.259c-0.521,1.574,0.071,3.256-0.55,4.834c-0.201,0.515-0.733,0.255-0.875,0.65
		c-0.342-0.166-0.568-0.615-0.439-0.797c0.519-0.73,0.087-1.229-0.294-1.789c-0.188,0.414-0.37,0.818-0.609,1.349
		C193.698,207.778,193.925,206.753,193.509,205.963z"/>
	<path fill-rule="evenodd" clip-rule="evenodd" fill="#76828B" d="M196.926,216.889c-0.451-0.578-1.99-0.237-1.323-1.62
		c0.185-0.384,0.19-1.334,0.99-0.944C197.845,214.935,196.959,215.976,196.926,216.889z"/>
	<path fill-rule="evenodd" clip-rule="evenodd" fill="#76828B" d="M196.04,213.867c-0.12-1.089-0.253-1.763-0.245-2.433
		c0.004-0.385-0.271-0.957,0.43-1.133c0.359-0.09,0.559,0.119,0.727,0.338c0.309,0.4,0.344,1.074,0.035,1.24
		C196.262,212.269,196.587,212.988,196.04,213.867z"/>
	<path fill-rule="evenodd" clip-rule="evenodd" fill="#A3DEF8" d="M164.507,133.186c-0.021,6.08-0.075,12.16-0.041,18.239
		c0.009,1.484-0.354,2.04-2.001,2.011c-6.604-0.119-13.209-0.065-19.814-0.076c-0.553-0.468-0.551-1.111-0.553-1.753
		c-0.015-5.497-0.029-10.993,0.004-16.49c0.013-1.951,0.417-2.358,2.361-2.369c6.075-0.033,12.15-0.015,18.226-0.01
		C163.333,132.737,163.964,132.783,164.507,133.186z"/>
	<path fill-rule="evenodd" clip-rule="evenodd" fill="#A3DEF8" d="M164.51,116.157c-0.035,3.963-0.069,7.926-0.109,11.889
		c-0.006,0.553,0.146,1.122-0.142,1.65c-0.594,0.629-1.379,0.519-2.118,0.521c-5.784,0.014-11.57,0.023-17.356,0
		c-2.365-0.01-2.697-0.358-2.707-2.735c-0.011-2.545,0.027-5.092-0.016-7.637c-0.025-1.471,0.584-2.384,1.938-2.935
		C150.75,114.165,157.579,113.836,164.51,116.157z"/>
	<path fill-rule="evenodd" clip-rule="evenodd" fill="#81B0CA" d="M164.51,116.157c-0.804,0.578-1.567,0.024-2.291-0.166
		c-6.251-1.638-12.305-0.958-18.231,1.432c-0.992,0.4-1.48,0.936-1.414,2.188c0.154,2.914,0.145,5.845,0.002,8.76
		c-0.059,1.223,0.425,1.367,1.372,1.364c6.77-0.021,13.541-0.027,20.311-0.039c0.084,1.163,0.166,2.326,0.249,3.489
		c-6.649,0.008-13.297,0.055-19.944-0.003c-1.538-0.014-2.028,0.317-1.985,2.017c0.151,6.05,0.067,12.107,0.072,18.161
		c-4.605,0.071-3.763,0.381-3.785-3.692c-0.03-5.605,0.043-11.21,0.072-16.816c0.6-0.244,1.233-0.156,1.855-0.191
		c0.695-0.041,0.873-0.483,0.743-1.061c-0.099-0.439,0.409-1.106-0.381-1.292c-0.487-0.114-1.043-0.167-1.393,0.35
		c-0.197,0.292-0.137,0.66-0.202,0.991c-0.074,0.379-0.078,0.824-0.624,0.871c-0.028-5.496-0.04-10.992-0.099-16.487
		c-0.01-0.987,0.633-1.276,1.325-1.582c5.371-2.377,10.933-3.061,16.723-1.976c2.169,0.406,4.22,1.132,6.261,1.925
		C163.973,114.72,164.543,115.191,164.51,116.157z"/>
	<path fill-rule="evenodd" clip-rule="evenodd" fill="#728492" d="M138.935,132.518c0.081-0.269,0.264-0.554,0.225-0.805
		c-0.275-1.75,0.503-2.169,2.112-1.902c0.804,0.132,1.485,0.051,0.767,1.105c-0.135,0.198-0.243,0.374-0.096,0.617
		c0.927,1.545-0.388,1.539-1.226,1.572c-0.561,0.023-1.26,0.285-1.779-0.254C138.91,132.74,138.909,132.629,138.935,132.518z"/>
</g>
</svg>
