<?xml version="1.0" encoding="utf-8"?>
<!-- Generator: Adobe Illustrator 16.0.0, SVG Export Plug-In . SVG Version: 6.00 Build 0)  -->
<!DOCTYPE svg PUBLIC "-//W3C//DTD SVG 1.1//EN" "http://www.w3.org/Graphics/SVG/1.1/DTD/svg11.dtd">
<svg version="1.1" id="Layer_1" xmlns="http://www.w3.org/2000/svg" xmlns:xlink="http://www.w3.org/1999/xlink" x="0px" y="0px"
	 width="300px" height="300px" viewBox="0 0 300 300" enable-background="new 0 0 300 300" xml:space="preserve">
<path fill="#1B8CAA" d="M299.75,158.67C295.26,237.48,229.93,300,150,300c-2.68,0-5.35-0.07-8-0.21L16.21,173.05l253.04-45.11
	L299.75,158.67z"/>
<path fill="#21AEDF" d="M300,150c0,2.91-0.08,5.8-0.25,8.67l-30.5-30.73L16.21,173.05L142,299.79C62.88,295.63,0,230.16,0,150
	C0,67.16,67.16,0,150,0S300,67.16,300,150z"/>
<g>
	<path fill-rule="evenodd" clip-rule="evenodd" fill="#02A6D4" d="M248.119,224.821c-5.119-1.033-10.998-2.205-16.87-3.412
		c-37.039-7.619-74.076-15.246-111.114-22.871c-16.027-3.301-32.049-6.625-48.09-9.861c-1.548-0.313-2.419-1.09-3.026-2.4
		c-0.737-1.596-1.682-2.357-3.132-0.697c-1.172,1.342-2.553,1.303-4.178,0.961c-13.074-2.762-26.171-5.416-39.244-8.182
		c-4.723-1-6.764-4.061-5.81-8.75c4.782-23.519,9.623-47.025,14.45-70.535c0.805-3.918,1.597-7.841,2.478-11.743
		c1.008-4.465,4.236-6.687,8.651-5.798c13.455,2.711,26.888,5.533,40.342,8.25c1.652,0.333,2.524,1.3,3.05,2.725
		c0.489,1.325,1.192,1.46,2.126,0.473c1.511-1.598,3.301-1.484,5.255-1.08c31.242,6.469,62.488,12.92,93.737,19.353
		c26.267,5.408,52.534,10.807,78.811,16.167c6.2,1.265,8.308,4.309,7.038,10.469c-5.468,26.533-10.929,53.068-16.391,79.604
		C255.155,222.585,252.894,224.864,248.119,224.821z"/>
	<path fill-rule="evenodd" clip-rule="evenodd" fill="#FFFFFF" d="M99.626,98.307c4.053,0.819,9.041,1.813,14.022,2.838
		c25.534,5.256,51.063,10.53,76.598,15.778c23.316,4.792,46.636,9.565,69.957,14.326c4.901,1,6.92,3.724,5.927,8.567
		c-5.034,24.563-10.109,49.117-15.219,73.664c-0.939,4.51-3.589,6.242-8.122,5.32c-22.429-4.563-44.849-9.178-67.269-13.787
		c-24.646-5.068-49.288-10.15-73.931-15.225c-6.229-1.283-12.464-2.533-18.685-3.85c-4.967-1.051-6.665-3.76-5.656-8.674
		c5.006-24.383,9.992-48.77,14.977-73.158C93.012,100.256,95.151,98.305,99.626,98.307z"/>
	<path fill-rule="evenodd" clip-rule="evenodd" fill="#176193" d="M40.348,147.388c-1.104-4.028-2.912-7.434-6.134-9.964
		c-0.445-0.349-1.295-0.775-0.834-1.481c0.295-0.453,1.056-0.755,1.643-0.821c0.587-0.066,1.212,0.275,1.83,0.387
		c1.682,0.302,3.328,1.857,4.943,1.084c2.771-1.325,5.442-2.986,7.678-5.139c1.373-1.322,0.138-2.51-0.742-3.528
		c-2.616-3.028-6.181-4.746-9.493-6.819c-0.924-0.579-2.805-1.004-2.328-2.119c0.583-1.362,2.376-1.55,3.838-0.754
		c1.826,0.995,3.495,1.206,5.255-0.227c0.818-0.666,1.614-0.281,1.595,0.879c-0.038,2.198,1.502,3.197,3.498,2.185
		c0.565-0.286,1.066-0.697,1.63-0.986c0.823-0.422,1.157,0.108,1.356,0.794c0.213,0.731-1.725,1.795,0.317,2.235
		c2.07,0.447,3.969,2.369,6.316,0.404c1.449-1.212,3.174-2.139,4.88-2.983c0.985-0.486,2.326-1.199,3.203,0.132
		c0.894,1.356-0.382,2.195-1.195,2.936c-1.001,0.912-2.105,1.799-3.319,2.372c-3.088,1.458-3.628,3.994-3.368,7.01
		c0.069,0.796-0.015,1.506,1.158,1.128c0.564-0.182,1.252-0.036,1.261,0.61c0.006,0.422-0.489,0.947-0.889,1.261
		c-0.981,0.771-2.24,1.258-2.019,2.905c0.149,1.105-0.598,2.763,1.701,2.186c0.321-0.081,0.84,0.121,0.774,0.551
		c-0.06,0.395-0.324,0.937-0.648,1.085c-2.2,1.006-2.634,2.741-2.369,4.948c0.185,1.536-0.67,2.566-2.343,3.212
		c-1.264-3.827-1.426-7.786-1.924-11.665c-0.635-4.947-2.242-5.952-6.611-3.692c-1.688,0.873-3.258,1.974-4.878,2.977
		c-2.145,1.328-1.158,3.637-1.575,5.467C42.231,145.367,42.051,146.598,40.348,147.388z"/>
	<path fill-rule="evenodd" clip-rule="evenodd" fill="#176193" d="M44.24,90.538c6.405,1.276,12.532,2.486,18.654,3.72
		c4.26,0.858,8.519,1.727,12.768,2.636c1.318,0.282,2.755,0.476,2.218,2.551c-0.481,1.862-1.536,1.782-3.074,1.456
		c-10.004-2.122-20.01-4.248-30.057-6.153c-2.342-0.444-2.191-1.502-1.755-3.167C43.227,90.696,43.599,90.3,44.24,90.538z"/>
	<path fill-rule="evenodd" clip-rule="evenodd" fill="#176193" d="M43.058,97.624c5.954,1.222,11.703,2.405,17.453,3.582
		c1.423,0.292,1.101,1.276,0.712,2.084c-0.338,0.702,0.347,2.25-1.529,1.854c-5.83-1.23-11.677-2.382-17.525-3.525
		c-1.467-0.286-1.001-1.252-0.811-2.079C41.583,98.561,41.548,97.205,43.058,97.624z"/>
	<path fill-rule="evenodd" clip-rule="evenodd" fill="#166293" d="M56.655,162.28c-0.964,4.785-1.914,9.574-2.906,14.355
		c-0.205,0.984-0.95,1.248-1.884,1.041c-0.786-0.172-0.967-0.641-0.812-1.408c1.006-4.963,1.971-9.934,2.981-14.896
		c0.138-0.678,0.556-1.111,1.387-0.873C56.348,160.765,56.836,161.267,56.655,162.28z"/>
	<path fill-rule="evenodd" clip-rule="evenodd" fill="#166294" d="M30.875,157.12c-1,4.662-2.02,9.438-3.056,14.209
		c-0.147,0.678-0.161,1.525-1.33,1.141c-0.877-0.289-1.118-0.816-0.949-1.646c0.956-4.693,1.897-9.391,2.879-14.08
		c0.168-0.803,0.455-1.627,1.599-1.42C31.048,155.513,30.939,156.269,30.875,157.12z"/>
	<path fill-rule="evenodd" clip-rule="evenodd" fill="#166294" d="M47.951,175.437c1.019-4.781,2.034-9.561,3.065-14.338
		c0.151-0.699,0.261-1.564,1.332-1.248c0.947,0.277,0.795,0.955,0.627,1.75c-1.011,4.779-1.964,9.572-2.915,14.365
		c-0.14,0.705-0.368,1.234-1.204,1.127C47.814,176.956,47.92,176.171,47.951,175.437z"/>
	<path fill-rule="evenodd" clip-rule="evenodd" fill="#166294" d="M28.847,170.995c0.917-4.436,1.871-9.125,2.875-13.805
		c0.146-0.68,0.387-1.525,1.41-1.252c1.039,0.277,0.718,1.105,0.583,1.791c-0.93,4.693-1.873,9.385-2.825,14.074
		c-0.146,0.719-0.324,1.545-1.35,1.25C28.625,172.792,28.711,171.989,28.847,170.995z"/>
	<path fill-rule="evenodd" clip-rule="evenodd" fill="#166294" d="M36.634,173.483c1.057-5.107,2.054-9.883,3.024-14.666
		c0.162-0.795,0.394-1.455,1.373-1.221c1.024,0.246,0.802,1.025,0.646,1.75c-1.006,4.68-2.013,9.359-3.015,14.041
		c-0.146,0.68-0.046,1.613-1.153,1.426C36.566,174.655,36.429,173.981,36.634,173.483z"/>
	<path fill-rule="evenodd" clip-rule="evenodd" fill="#156294" d="M46.054,160.188c-0.911,4.607-1.8,9.219-2.756,13.816
		c-0.129,0.621-0.184,1.662-1.229,1.436c-1.032-0.223-0.373-1.02-0.268-1.549c0.923-4.697,1.876-9.389,2.815-14.082
		c0.108-0.539,0.189-1.207,0.89-1.115C46.412,158.815,46.195,159.579,46.054,160.188z"/>
	<path fill-rule="evenodd" clip-rule="evenodd" fill="#156394" d="M38.361,158.37c-0.969,4.701-1.92,9.406-2.921,14.1
		c-0.133,0.625-0.044,1.754-1.084,1.52c-0.98-0.223-0.517-1.129-0.367-1.83c0.985-4.605,1.948-9.217,2.908-13.828
		c0.126-0.604,0.047-1.412,0.998-1.262C38.679,157.194,38.473,157.837,38.361,158.37z"/>
	<path fill-rule="evenodd" clip-rule="evenodd" fill="#166395" d="M36.177,158.04c-0.998,4.768-1.99,9.539-3.001,14.305
		c-0.115,0.543,0.075,1.504-0.938,1.23c-0.844-0.229-0.506-0.963-0.375-1.592c0.994-4.773,1.963-9.551,2.928-14.33
		c0.108-0.533,0.122-1.217,0.853-1.111C36.55,156.671,36.325,157.433,36.177,158.04z"/>
	<path fill-rule="evenodd" clip-rule="evenodd" fill="#166496" d="M49.572,158.778c-0.753,6.412-2.174,11.975-3.518,17.84
		C44.874,174.646,47.369,161.497,49.572,158.778z"/>
	<path fill-rule="evenodd" clip-rule="evenodd" fill="#156395" d="M39.237,175.604c0.87-4.406,1.626-8.256,2.391-12.102
		c0.299-1.508,0.598-3.014,0.941-4.51c0.101-0.438,0.368-0.875,0.932-0.768c0.445,0.086,0.502,0.498,0.417,0.852
		c-1.276,5.256-1.824,10.672-3.476,15.844C40.403,175.04,40.154,175.093,39.237,175.604z"/>
	<path fill-rule="evenodd" clip-rule="evenodd" fill="#E6F5F9" d="M82.519,118.123c-0.232,0.641-0.002,1.631-1.126,1.478
		c-0.618-0.085-1.238-0.32-1.236-1.14c0.002-0.771,0.115-1.482,1.147-1.371C81.932,117.158,82.567,117.283,82.519,118.123z"/>
	<path fill-rule="evenodd" clip-rule="evenodd" fill="#EDF7FA" d="M81.636,122.604c-0.26,0.772-0.293,1.595-1.337,1.515
		c-0.713-0.055-1.275-0.274-1.175-1.121c0.074-0.629,0.188-1.339,1.086-1.221C80.798,121.853,81.507,121.852,81.636,122.604z"/>
	<path fill-rule="evenodd" clip-rule="evenodd" fill="#D6EEF6" d="M79.38,126.322c0.666,0.036,1.319,0.156,1.284,1.006
		c-0.029,0.709-0.103,1.561-1.153,1.38c-0.543-0.093-1.438-0.016-1.355-0.934C78.217,127.099,78.374,126.297,79.38,126.322z"/>
	<path fill-rule="evenodd" clip-rule="evenodd" fill="#D7EFF6" d="M73.058,164.362c-0.09,0.826-0.331,1.379-1.158,1.295
		c-0.733-0.076-1.516-0.191-1.253-1.248c0.14-0.563,0.135-1.402,1.06-1.213C72.364,163.331,73.204,163.448,73.058,164.362z"/>
	<path fill-rule="evenodd" clip-rule="evenodd" fill="#E8F5F9" d="M84.457,109.069c-0.205,0.677-0.321,1.478-1.34,1.266
		c-0.61-0.127-1.337-0.303-1.142-1.147c0.124-0.536,0.141-1.412,1.021-1.295C83.633,107.978,84.506,108.013,84.457,109.069z"/>
	<path fill-rule="evenodd" clip-rule="evenodd" fill="#EEF8FB" d="M78.524,131.027c0.662,0.118,1.249,0.418,1.061,1.404
		c-0.12,0.627-0.423,0.97-1.092,0.926c-0.956-0.063-1.224-0.614-1.101-1.483C77.477,131.281,77.612,130.779,78.524,131.027z"/>
	<path fill-rule="evenodd" clip-rule="evenodd" fill="#E8F5F9" d="M77.81,141.318c-0.29,0.595-0.252,1.53-1.325,1.278
		c-0.609-0.143-1.288-0.315-1.165-1.152c0.085-0.574,0.154-1.381,1.022-1.209C76.927,140.353,77.897,140.199,77.81,141.318z"/>
	<path fill-rule="evenodd" clip-rule="evenodd" fill="#E1F3F8" d="M71.149,173.7c-0.227,0.568-0.287,1.344-1.187,1.186
		c-0.758-0.133-1.438-0.438-1.222-1.422c0.144-0.654,0.37-1.268,1.27-0.934C70.58,172.739,71.345,172.751,71.149,173.7z"/>
	<path fill-rule="evenodd" clip-rule="evenodd" fill="#DCF0F7" d="M69.031,177.134c0.667,0.041,1.314,0.137,1.188,1.045
		c-0.113,0.813-0.538,1.301-1.45,1.213c-0.583-0.057-1.121-0.191-1.061-0.898C67.774,177.728,68.081,177.089,69.031,177.134z"/>
	<path fill-rule="evenodd" clip-rule="evenodd" fill="#E0F2F8" d="M75.798,150.741c-0.057,0.672-0.183,1.293-1.086,1.119
		c-0.804-0.154-1.27-0.593-1.147-1.49c0.079-0.575,0.228-1.091,0.947-1.002C75.293,149.464,75.866,149.819,75.798,150.741z"/>
	<path fill-rule="evenodd" clip-rule="evenodd" fill="#EDF7FA" d="M84.244,103.367c0.678,0.11,1.244,0.319,1.032,1.2
		c-0.165,0.688-0.493,1.12-1.308,1.027c-0.767-0.088-1.159-0.401-1.022-1.219C83.07,103.634,83.446,103.239,84.244,103.367z"/>
	<path fill-rule="evenodd" clip-rule="evenodd" fill="#EFF9FB" d="M73.991,159.831c-0.254,0.5-0.223,1.344-1.154,1.104
		c-0.542-0.139-1.427-0.027-1.272-0.975c0.11-0.666,0.287-1.465,1.313-1.324C73.573,158.731,74.063,159.005,73.991,159.831z"/>
	<path fill-rule="evenodd" clip-rule="evenodd" fill="#F3FAFC" d="M73.773,156.38c-0.674-0.037-1.276-0.197-1.233-1.047
		c0.032-0.637,0.128-1.332,1.004-1.26c0.61,0.053,1.304,0.166,1.241,1.059C74.74,155.772,74.685,156.429,73.773,156.38z"/>
	<path fill-rule="evenodd" clip-rule="evenodd" fill="#E2F3F8" d="M75.712,147.134c-0.828-0.061-1.506-0.109-1.3-1.034
		c0.131-0.587,0.25-1.266,1.106-1.229c0.632,0.027,1.327,0.053,1.304,0.921C76.802,146.574,76.429,147.135,75.712,147.134z"/>
	<path fill-rule="evenodd" clip-rule="evenodd" fill="#F5FAFC" d="M83.405,113.763c-0.042,0.774-0.408,1.141-1.222,1.067
		c-0.826-0.075-1.073-0.506-0.968-1.276c0.088-0.649,0.416-0.951,1.074-0.931C83.04,112.646,83.51,112.917,83.405,113.763z"/>
	<path fill-rule="evenodd" clip-rule="evenodd" fill="#F1F9FC" d="M77.533,137.855c-0.698-0.034-1.26-0.211-1.18-1.093
		c0.065-0.73,0.354-1.207,1.187-1.12c0.6,0.063,1.057,0.288,1.033,0.982C78.549,137.292,78.449,137.927,77.533,137.855z"/>
	<path fill-rule="evenodd" clip-rule="evenodd" fill="#F4FAFD" d="M71.951,169.099c-0.042,0.82-0.507,1.07-1.268,1
		c-0.856-0.082-1.008-0.604-0.915-1.324c0.084-0.65,0.442-0.928,1.098-0.875C71.619,167.96,72.045,168.29,71.951,169.099z"/>
	<path fill-rule="evenodd" clip-rule="evenodd" fill="#F0F9FB" d="M86.186,100.13c-0.028,0.713-0.409,1.05-1.218,0.943
		c-0.811-0.107-1.062-0.579-0.969-1.316c0.081-0.639,0.44-0.944,1.099-0.881C85.817,98.943,86.315,99.208,86.186,100.13z"/>
	<path fill-rule="evenodd" clip-rule="evenodd" fill="#B5B5B5" d="M220.975,153.614c-4.044-0.852-8.473-1.801-12.91-2.713
		c-22.986-4.727-45.974-9.452-68.965-14.16c-11.807-2.418-23.624-4.789-35.428-7.222c-0.9-0.186-2.396-0.095-2.44-1.199
		c-0.056-1.39,0.345-2.935,1.002-4.171c0.48-0.901,1.689-0.069,2.497,0.093c10.482,2.109,20.945,4.309,31.417,6.465
		c22.098,4.55,44.198,9.091,66.299,13.63c6.391,1.313,12.795,2.564,19.171,3.944c0.971,0.21,2.804,0.121,2.228,1.95
		C223.431,151.55,224.089,153.913,220.975,153.614z"/>
	<path fill-rule="evenodd" clip-rule="evenodd" fill="#B5B5B5" d="M105.833,111.489c3.879,0.785,7.786,1.561,11.687,2.368
		c25.986,5.374,51.969,10.771,77.96,16.124c9.4,1.937,18.825,3.756,28.229,5.684c1.329,0.272,2.871,0.305,2.336,2.682
		c-0.49,2.177-1.169,3.142-3.527,2.639c-12.488-2.667-24.984-5.303-37.494-7.874c-21.911-4.501-43.834-8.949-65.752-13.417
		c-4.527-0.923-9.053-1.853-13.586-2.748c-1.458-0.287-2.395-0.949-1.971-2.574C104.023,113.182,103.717,111.455,105.833,111.489z"
		/>
	<path fill-rule="evenodd" clip-rule="evenodd" fill="#B5B5B5" d="M207.074,201.351c-0.084,1.984-1.037,2.17-2.604,1.834
		c-11.518-2.465-23.041-4.904-34.578-7.273c-21.661-4.447-43.335-8.838-65.001-13.268c-3.994-0.814-7.955-1.811-11.968-2.518
		c-1.745-0.307-2.022-1.143-1.756-2.611c0.324-1.779,1.486-1.115,2.508-0.904c15.535,3.188,31.067,6.389,46.605,9.561
		c21.22,4.328,42.449,8.613,63.655,13.01C205.149,199.433,207.436,198.909,207.074,201.351z"/>
	<path fill-rule="evenodd" clip-rule="evenodd" fill="#B5B5B5" d="M206.633,195.7c-6.452-1.344-12.837-2.691-19.229-4.002
		c-21.927-4.492-43.857-8.963-65.784-13.457c-8.878-1.82-17.754-3.656-26.615-5.557c-0.846-0.182-2.067-0.041-2.298-1.473
		c-0.318-1.986,0.433-2.66,2.673-2.193c8.515,1.777,17.021,3.598,25.543,5.344c21.572,4.42,43.151,8.805,64.727,13.207
		c7.1,1.449,14.19,2.943,21.3,4.346c1.354,0.268,1.984,0.84,1.658,2.205C208.358,195.163,207.946,196.093,206.633,195.7z"/>
	<path fill-rule="evenodd" clip-rule="evenodd" fill="#B5B5B5" d="M172.465,156.376c-5.495-1.139-10.99-2.279-16.485-3.416
		c-18.265-3.778-36.527-7.571-54.802-11.301c-1.66-0.339-2.827-0.766-2.324-2.763c0.422-1.68,0.536-2.994,3.254-2.411
		c20.273,4.348,40.603,8.434,60.919,12.587c3.28,0.67,6.58,1.246,9.864,1.904c1.118,0.224,2.056,0.575,1.834,2.134
		C174.316,155.966,174.088,156.409,172.465,156.376z"/>
	<path fill-rule="evenodd" clip-rule="evenodd" fill="#B4B4B4" d="M98.85,156.313c6.354,1.305,13.194,2.709,20.036,4.107
		c17.501,3.584,35.007,7.15,52.504,10.752c19.72,4.061,39.432,8.15,59.146,12.232c3.909,0.811,7.817,1.627,11.72,2.473
		c0.625,0.135,1.802-0.27,1.689,0.799c-0.12,1.135-1.141,0.785-1.973,0.611c-7.103-1.479-14.212-2.93-21.319-4.385
		c-20.964-4.289-41.932-8.559-62.892-12.867c-19.363-3.982-38.719-8.004-58.076-12.014c-0.531-0.111-1.043-0.309-1.567-0.449
		c-0.547-0.148-1.141-0.307-0.917-1.045C97.403,155.87,97.942,156.298,98.85,156.313z"/>
	<path fill-rule="evenodd" clip-rule="evenodd" fill="#0EA6D4" d="M257.947,149.175c-0.04,7.365-6.046,13.242-13.482,13.193
		c-7.07-0.045-13.16-6.207-13.185-13.337c-0.023-7.182,6.212-13.365,13.473-13.359C252.027,135.678,257.988,141.778,257.947,149.175
		z"/>
	<path fill-rule="evenodd" clip-rule="evenodd" fill="#9A9B9B" d="M246.493,198.196c-1.021,4.943-1.982,9.635-2.959,14.324
		c-0.226,1.08-0.88,1.516-1.98,1.225c-1.024-0.268-1.169-0.916-0.969-1.867c0.972-4.596,1.875-9.205,2.867-13.797
		c0.169-0.783,0.193-1.971,1.641-1.551C246.077,196.815,246.756,197.272,246.493,198.196z"/>
	<path fill-rule="evenodd" clip-rule="evenodd" fill="#9A9B9B" d="M216.839,192.589c-0.938,4.578-1.888,9.271-2.866,13.959
		c-0.19,0.914-0.72,1.402-1.764,1.182c-1.231-0.26-0.958-1.068-0.794-1.883c0.934-4.607,1.855-9.219,2.797-13.826
		c0.156-0.764,0.131-1.738,1.407-1.494C216.738,190.741,217.147,191.384,216.839,192.589z"/>
	<path fill-rule="evenodd" clip-rule="evenodd" fill="#9A9B9B" d="M220.129,193.632c-0.839,4.111-1.812,8.916-2.804,13.717
		c-0.183,0.885-0.814,1.154-1.646,0.99c-0.851-0.168-0.872-0.74-0.72-1.453c1.021-4.797,2.027-9.594,3.02-14.395
		c0.147-0.713,0.424-1.178,1.246-1.113C220.262,191.458,220.327,192.134,220.129,193.632z"/>
	<path fill-rule="evenodd" clip-rule="evenodd" fill="#9B9C9C" d="M237.126,211.196c0.944-4.787,1.898-9.576,2.837-14.369
		c0.182-0.926,0.732-1.191,1.58-0.971c1.031,0.266,0.782,0.98,0.63,1.727c-0.958,4.703-1.889,9.41-2.823,14.117
		c-0.148,0.746-0.275,1.492-1.345,1.207C237.079,212.661,237,211.983,237.126,211.196z"/>
	<path fill-rule="evenodd" clip-rule="evenodd" fill="#9A9B9B" d="M229.263,194.884c-0.984,4.697-1.968,9.393-2.956,14.086
		c-0.14,0.664-0.009,1.582-1.203,1.299c-1.066-0.252-1.159-0.947-0.965-1.865c0.979-4.602,1.917-9.211,2.917-13.809
		c0.158-0.725,0.21-1.779,1.478-1.428C229.463,193.423,229.51,194.114,229.263,194.884z"/>
	<path fill-rule="evenodd" clip-rule="evenodd" fill="#9C9D9D" d="M234.428,195.888c-1.023,4.75-2.067,9.627-3.138,14.498
		c-0.108,0.492-0.204,1.184-0.998,0.969c-0.646-0.174-0.758-0.688-0.629-1.299c1.048-4.969,2.089-9.939,3.125-14.912
		c0.102-0.484,0.323-0.947,0.84-0.883C234.494,194.37,234.401,195.118,234.428,195.888z"/>
	<path fill-rule="evenodd" clip-rule="evenodd" fill="#9C9D9D" d="M225.545,193.681c-1.006,4.896-1.925,9.518-2.936,14.119
		c-0.14,0.637,0.004,1.973-1.314,1.531c-0.935-0.313-0.453-1.223-0.311-1.893c0.975-4.607,1.964-9.211,2.944-13.816
		c0.139-0.65,0.282-1.34,1.187-1.039C225.844,192.825,225.541,193.45,225.545,193.681z"/>
	<path fill-rule="evenodd" clip-rule="evenodd" fill="#9D9E9E" d="M222.926,191.421c0.106,4.287-1.38,7.58-1.755,11.033
		c-0.184,1.701-0.662,3.373-1.039,5.051c-0.134,0.596-0.228,1.439-1.083,1.246c-0.869-0.197-0.545-1.064-0.439-1.609
		c0.673-3.467,1.304-6.947,2.177-10.365C221.189,195.202,220.856,193.319,222.926,191.421z"/>
	<path fill-rule="evenodd" clip-rule="evenodd" fill="#9D9E9E" d="M231.223,193.763c0.836,0.666,0.536,1.443,0.41,2.092
		c-0.88,4.52-1.805,9.031-2.753,13.535c-0.121,0.572-0.216,1.459-1.007,1.377c-0.923-0.094-0.633-1.01-0.523-1.545
		c0.98-4.773,2.017-9.535,3.043-14.301C230.486,194.485,230.572,194.03,231.223,193.763z"/>
	<path fill-rule="evenodd" clip-rule="evenodd" fill="#9E9E9E" d="M234.313,212.382c-1.095-2.059-0.038-3.674,0.211-5.258
		c0.563-3.572,1.406-7.1,2.159-10.639c0.109-0.514,0.249-1.18,0.929-1.148c0.792,0.035,0.699,0.768,0.6,1.248
		c-1.029,4.963-2.095,9.918-3.172,14.871C234.989,211.685,234.727,211.866,234.313,212.382z"/>
	<path fill-rule="evenodd" clip-rule="evenodd" fill="#FEFEFF" d="M244.694,137.642c6.309-0.026,11.543,5.109,11.56,11.341
		c0.018,6.166-5.346,11.619-11.439,11.637c-6.358,0.016-11.497-5.045-11.548-11.373
		C233.212,142.585,238.053,137.668,244.694,137.642z"/>
	<path fill-rule="evenodd" clip-rule="evenodd" fill="#04A6D4" d="M252.428,149.021c0.024,4.225-3.615,7.85-7.848,7.814
		c-4.097-0.033-7.574-3.619-7.547-7.784c0.028-4.334,3.563-7.896,7.785-7.845C248.887,141.256,252.403,144.867,252.428,149.021z"/>
</g>
</svg>
