<?xml version="1.0" encoding="utf-8"?>
<!-- Generator: Adobe Illustrator 16.0.0, SVG Export Plug-In . SVG Version: 6.00 Build 0)  -->
<!DOCTYPE svg PUBLIC "-//W3C//DTD SVG 1.1//EN" "http://www.w3.org/Graphics/SVG/1.1/DTD/svg11.dtd">
<svg version="1.1" id="Layer_1" xmlns="http://www.w3.org/2000/svg" xmlns:xlink="http://www.w3.org/1999/xlink" x="0px" y="0px"
	 width="300px" height="300px" viewBox="0 0 300 300" enable-background="new 0 0 300 300" xml:space="preserve">
<path fill="#F2E5BC" d="M84.202,267.535c-1.195,0.492-2.436,0.319-3.669,0.251C81.728,267.282,82.974,267.539,84.202,267.535z"/>
<g>
	<path fill="#4B3615" d="M90.593,204.263c1.924-5.178,3.807-10.244,5.691-15.313c0.116-0.311,0.224-0.627,0.369-0.924
		c0.155-0.316,0.184-0.789,0.667-0.785c0.478,0.003,0.541,0.465,0.675,0.788c2.055,4.96,4.097,9.924,6.146,14.886
		c0.152,0.368,0.22,0.791,0.577,1.062c1.383-4.666,2.782-9.314,4.13-13.979c0.517-1.787,0.431-1.862-1.341-2.295
		c-0.204-0.049-0.405-0.139-0.384-0.315c0.014-0.119,0.25-0.278,0.402-0.3c0.367-0.049,0.744-0.039,1.117-0.033
		c4.417,0.05,8.836,0.224,13.253,0c0.186-0.01,0.375-0.02,0.559,0.005c0.272,0.034,0.686-0.033,0.646,0.391
		c-0.032,0.346-0.407,0.223-0.649,0.252c-1.525,0.184-1.808,0.43-1.841,2.076c-0.071,3.543-0.081,7.088-0.099,10.63
		c-0.013,2.499-0.042,4.996,0.16,7.491c0.125,1.552,0.401,1.847,1.963,1.954c0.149,0.01,0.299,0.003,0.447,0.021
		c0.303,0.037,0.816-0.15,0.799,0.323c-0.015,0.403-0.513,0.33-0.84,0.319c-2.715-0.088-5.43-0.197-8.146-0.002
		c-0.323,0.021-0.819,0.057-0.814-0.334c0.006-0.446,0.516-0.295,0.827-0.306c0.966-0.029,1.465-0.443,1.591-1.474
		c0.155-1.265,0.166-2.527,0.167-3.793c0.006-4.665,0.006-9.329-0.002-13.995c-0.001-0.52-0.034-1.043-0.106-1.557
		c-0.122-0.865-0.676-1.261-1.523-1.354c-2.355-0.253-2.931,0.057-3.714,2.343c-2.196,6.423-4.347,12.86-6.534,19.285
		c-0.19,0.56-0.135,1.47-0.908,1.479c-0.737,0.009-0.781-0.895-1.008-1.438c-2.002-4.779-3.964-9.577-5.958-14.361
		c-0.119-0.286-0.13-0.68-0.529-0.839c-1.875,4.877-3.66,9.778-5.703,14.58c-0.188,0.441-0.407,0.87-0.618,1.301
		c-0.174,0.357-0.28,0.856-0.795,0.791c-0.424-0.056-0.479-0.515-0.593-0.857c-0.823-2.463-1.643-4.926-2.464-7.391
		c-1.374-4.117-2.735-8.237-4.128-12.349c-0.424-1.253-0.714-2.692-2.555-2.559c-0.181,0.014-0.28-0.104-0.263-0.271
		c0.022-0.213,0.182-0.332,0.379-0.338c0.521-0.015,1.047-0.049,1.563,0.003c1.45,0.143,2.896,0.147,4.345,0.005
		c0.48-0.046,0.968-0.027,1.452-0.024c0.232,0,0.492,0.092,0.51,0.332c0.023,0.302-0.268,0.313-0.488,0.299
		c-1.273-0.079-1.203,0.758-0.991,1.557c1.302,4.908,2.806,9.761,4.333,14.604C90.399,203.958,90.472,204.048,90.593,204.263z"/>
	<path fill="#4B3615" d="M158.301,193.47c0,1.232-0.02,2.327,0.006,3.423c0.072,3.353,0.152,6.707,0.248,10.061
		c0.055,1.995,0.568,2.767,1.891,2.908c0.298,0.032,0.599,0.008,0.896,0.023c0.149,0.009,0.304,0.044,0.329,0.232
		c0.033,0.236-0.133,0.322-0.314,0.374c-0.104,0.029-0.221,0.03-0.332,0.025c-2.381-0.088-4.762-0.143-7.144-0.002
		c-0.284,0.017-0.696,0.048-0.671-0.363c0.029-0.427,0.462-0.257,0.729-0.274c1.56-0.105,1.857-0.405,1.941-1.964
		c0.213-4.021,0.173-8.049,0.232-12.074c0.043-2.721,0.104-5.44,0.172-8.159c0.009-0.355-0.141-0.829,0.269-1.016
		c0.484-0.222,0.7,0.27,0.97,0.546c5.373,5.545,10.74,11.093,16.11,16.639c0.146,0.147,0.3,0.284,0.558,0.529
		c0-2.563,0.022-4.969-0.008-7.375c-0.027-2.158-0.137-4.316-0.175-6.477c-0.034-2.167-0.504-2.93-2.588-2.832
		c-0.202,0.008-0.509,0.07-0.526-0.244c-0.019-0.356,0.31-0.385,0.561-0.384c0.671,0.003,1.344-0.005,2.009,0.073
		c1.604,0.187,3.197-0.06,4.797-0.084c0.324-0.009,0.826-0.058,0.826,0.33c0.005,0.455-0.509,0.29-0.817,0.311
		c-0.941,0.053-1.481,0.473-1.652,1.464c-0.133,0.784-0.122,1.563-0.137,2.34c-0.102,5.893-0.178,11.781-0.26,17.673
		c-0.004,0.299,0.018,0.601-0.018,0.896c-0.096,0.813-0.506,0.946-1.12,0.45c-0.375-0.304-0.728-0.644-1.063-0.988
		c-5.125-5.213-10.48-10.202-15.305-15.708C158.625,193.721,158.508,193.645,158.301,193.47z"/>
	<path fill="#4B3615" d="M146.674,204.597c-0.125-5.097-0.211-9.892-0.38-14.684c-0.063-1.783-0.509-2.108-2.363-2.219
		c-0.263-0.016-0.523-0.101-0.841-0.165c0.349-0.571,0.787-0.494,1.18-0.471c2.043,0.115,4.084,0.194,6.129,0.005
		c0.356-0.031,0.962-0.188,0.97,0.379c0.008,0.438-0.54,0.216-0.84,0.252c-1.106,0.133-1.584,0.675-1.614,1.998
		c-0.092,4.173-0.161,8.346-0.246,12.52c-0.049,2.495-0.101,4.989-0.177,7.482c-0.012,0.371,0.207,0.888-0.327,1.068
		c-0.465,0.154-0.747-0.238-1.032-0.522c-5.344-5.31-10.771-10.534-15.843-16.109c-0.188-0.208-0.384-0.406-0.537-0.566
		c0,2.172-0.016,4.313,0.004,6.455c0.024,2.533-0.014,5.068,0.229,7.596c0.172,1.783,0.525,2.135,2.354,2.255
		c0.293,0.021,0.722-0.05,0.708,0.327c-0.011,0.312-0.43,0.336-0.738,0.323c-2.38-0.106-4.76-0.132-7.14-0.002
		c-0.273,0.016-0.595-0.01-0.614-0.324c-0.022-0.373,0.329-0.301,0.582-0.323c1.793-0.164,2.067-0.399,2.134-2.262
		c0.093-2.607,0.107-5.217,0.142-7.826c0.055-3.988,0.1-7.979,0.146-11.967c0.005-0.442-0.069-0.996,0.389-1.182
		c0.433-0.177,0.704,0.305,0.975,0.602c4.556,4.979,9.397,9.686,14.081,14.543C144.832,202.636,145.643,203.507,146.674,204.597z"/>
	<path fill="#4B3615" d="M191.716,210.543c-2.901,0-5.802-0.385-8.706-0.028c-0.291,0.035-0.598,0.013-0.889-0.036
		c-0.117-0.02-0.286-0.17-0.303-0.277c-0.028-0.212,0.148-0.279,0.354-0.33c2.004-0.501,2.077-0.589,2.13-2.61
		c0.158-5.813,0.165-11.629,0.025-17.443c-0.038-1.556-0.5-2.015-2.08-2.124c-0.296-0.021-0.838,0.213-0.85-0.225
		c-0.014-0.592,0.597-0.424,0.955-0.404c3.352,0.183,6.707,0.15,10.06,0.168c1.049,0.006,2.086-0.073,3.108-0.269
		c0.414-0.078,0.687-0.12,0.64,0.386c-0.117,1.258-0.269,2.515-0.406,3.77c-0.021,0.181-0.021,0.394-0.28,0.396
		c-0.242,0.004-0.258-0.191-0.314-0.374c-0.653-1.999-0.878-2.192-3.006-2.274c-1.225-0.047-2.789-0.457-3.584,0.131
		c-0.752,0.558-0.189,2.222-0.225,3.398c-0.041,1.304,0.016,2.61-0.022,3.916c-0.017,0.588,0.089,0.867,0.771,0.838
		c1.415-0.061,2.836-0.033,4.252-0.039c0.647,0,1.256-0.098,1.731-0.602c0.12-0.128,0.251-0.313,0.464-0.189
		c0.189,0.106,0.16,0.312,0.143,0.497c-0.127,1.368-0.25,2.737-0.379,4.106c-0.021,0.215,0.006,0.505-0.31,0.481
		c-0.272-0.021-0.278-0.304-0.327-0.519c-0.439-1.845-0.624-1.985-2.531-2.013c-1.044-0.014-2.086-0.025-3.128-0.085
		c-0.551-0.031-0.69,0.172-0.687,0.704c0.027,2.386-0.014,4.773,0.021,7.159c0.022,1.409,0.629,2.01,2.071,2.095
		c1.004,0.06,2.015,0.048,3.021,0.015c1.672-0.056,2.301-0.589,2.75-2.211c0.08-0.291,0.037-0.786,0.487-0.715
		c0.38,0.063,0.206,0.51,0.19,0.771c-0.063,0.964-0.145,1.93-0.277,2.886c-0.1,0.711-0.488,1.101-1.293,1.066
		C194.104,210.506,192.908,210.543,191.716,210.543z"/>
	<path fill="#4B3615" d="M223.001,209.871c-1.493-0.092-2.675-0.808-3.71-1.833c-2.044-2.025-3.744-4.343-5.553-6.565
		c-0.471-0.578-1.246-1.146-1.295-1.764c-0.055-0.645,0.966-0.997,1.426-1.567c0.188-0.23,0.418-0.427,0.602-0.662
		c1.557-2.016,2.4-4.194,1.434-6.737c-0.945-2.499-3.004-3.313-5.449-3.534c-3.454-0.309-6.921,0.231-10.373-0.143
		c-0.307-0.033-0.787-0.093-0.745,0.398c0.038,0.419,0.481,0.213,0.745,0.229c1.748,0.11,2.133,0.381,2.18,2.104
		c0.075,2.758,0.021,5.52,0.021,8.28c0.016,0,0.03,0,0.047,0c0,1.604,0.013,3.209-0.005,4.813c-0.02,1.714-0.042,3.428-0.122,5.139
		c-0.044,0.99-0.324,1.856-1.595,1.852c-0.295,0-0.83-0.183-0.813,0.291c0.018,0.511,0.568,0.33,0.911,0.344
		c1.56,0.058,3.11-0.258,4.683-0.094c1.107,0.116,2.231,0.068,3.35,0.097c0.252,0.006,0.479-0.106,0.488-0.344
		c0.01-0.28-0.248-0.314-0.49-0.304c-0.188,0.009-0.373,0.001-0.561-0.011c-1.5-0.101-1.771-0.387-1.957-1.861
		c-0.27-2.152-0.158-4.315-0.185-6.476c-0.005-0.239-0.095-0.511,0.235-0.672c0.725-0.356,3.231,0.259,3.722,0.933
		c1.659,2.288,3.14,4.71,5.081,6.787c0.773,0.828,1.638,1.517,2.783,1.755c1.701,0.352,3.422,0.142,5.133,0.189
		c0.259,0.007,0.568-0.01,0.537-0.379C223.501,209.831,223.219,209.885,223.001,209.871z M206.398,199.077
		c-0.424-0.226-0.371-0.595-0.371-0.964c0-1.455,0-2.91,0-4.366c0-1.38,0.029-2.762-0.012-4.14
		c-0.021-0.662,0.221-0.925,0.873-1.002c3.069-0.363,5.514,1.67,5.644,4.77c0.049,1.224,0.081,2.444-0.419,3.625
		C211.191,199.187,208.479,200.188,206.398,199.077z"/>
</g>
<path fill="#616262" d="M81.423,304.684c1.146,0.163,2.293,0.47,3.439,0.469c44.567-0.018,89.134-0.063,133.701-0.104
	c11.717,0.073,23.435,0.135,35.151,0.229c4.091,0.032,7.606,0.987,8.483,5.776c0.687,17.627,0.115,35.26,0.297,52.889
	c0.023,2.404-1.233,3.679-3.526,4.038c-1.813,0.285-3.647,0.309-5.479,0.31c-68.901,0.031-137.804,0.043-206.708-0.045
	c-3.011-0.004-6.467,0.911-8.711-2.312c-0.026-17.45-0.078-34.899-0.065-52.351c0.004-5.877,2.185-8.193,8.084-8.274
	c9.638-0.134,19.278-0.035,28.918-0.06C77.158,305.244,79.339,305.479,81.423,304.684z"/>
<radialGradient id="SVGID_1_" cx="191.0762" cy="188.1804" r="150" gradientUnits="userSpaceOnUse">
	<stop  offset="0" style="stop-color:#0B98D8"/>
	<stop  offset="1" style="stop-color:#007CD7"/>
</radialGradient>
<circle fill="url(#SVGID_1_)" cx="150.275" cy="150" r="150"/>
<g>
	<radialGradient id="SVGID_2_" cx="463.6055" cy="140.5525" r="142.1377" gradientUnits="userSpaceOnUse">
		<stop  offset="0" style="stop-color:#0B98D8"/>
		<stop  offset="1" style="stop-color:#0093D7"/>
	</radialGradient>
	<path fill="url(#SVGID_2_)" d="M605.743,126.341c0,9.951,0,19.899,0,29.849c-1.533,3.979-0.051,8.424-1.915,12.35
		c-3.404,2.723-5.802,0.098-7.917-1.852c-12.136-11.18-24.967-21.67-35.256-34.72c-1.692-2.147-4.122-3.08-6.371-4.345
		c-2.424-1.651-3.854-4.164-5.421-6.505c-5.286-7.904-12.467-13.45-20.942-17.561c-3.563-1.729-7.62-2.841-9.876-6.598
		c-6.376-4.79-3.941-12.044-5.164-18.272c-0.744-5.191-4.391-7.506-8.88-9.041c-8.089-2.764-16.507-4.173-24.907-5.2
		c-22.861-2.794-45.648-1.87-68.236,2.792c-3.006,0.621-5.854,1.852-8.783,2.774c-4.803,1.514-7.555,4.553-7.506,9.771
		c-1.305,4.311,0.33,8.762-0.639,13.084c0.197,7.094,0.676,14.184,0.075,21.273c-1.091,4.075,1.116,7.995,0.593,12.041
		c-1.11,7.362-0.195,14.72,0.097,22.079c-1.655,3.999,0.182,8.051-0.152,12.069c-0.335,7.504-2.043,15.146,2.306,22.16
		c1.467,5.938,6.478,9.24,10.41,13.084c20.272,19.807,38.803,41.299,59.278,60.893c5.819,5.568,10.606,12.039,16.14,17.854
		c1.848,1.941,4.18,4.154,2.114,7.4c-2.255,0.818-4.815-0.563-6.971,0.969c-9.949,0-19.899,0-29.849,0
		c-2.404-1.488-5.067-0.539-7.599-0.756c-36.019-3.055-63.894-20.969-87.136-47.475c-13.143-14.986-22.303-32.154-28.129-51.121
		c-2.705-8.811-1.946-18.162-3.639-27.15c0-10.424,0-20.847,0-31.27c1.489-2.404,0.539-5.068,0.752-7.6
		c3.057-36.016,20.971-63.892,47.477-87.136c14.988-13.142,32.154-22.301,51.121-28.127c8.811-2.706,18.162-1.946,27.152-3.641
		c9.948,0,19.898,0,29.848,0c3.322,1.709,6.939,0.603,10.408,1.01c47.064,5.522,79.301,32.035,102.68,71.591
		C601.051,88.179,604.682,106.862,605.743,126.341z"/>
	<path fill="#005C7C" d="M602.737,168.885c-3.601,23.746-14.076,44.418-29.048,62.799c-19.457,23.891-44.381,39.568-74.26,47.191
		c-4.748,1.209-9.559,2.521-14.57,2.221c-5.854-6.473-11.561-13.09-17.59-19.398c-23.189-24.254-46.491-48.402-69.711-72.629
		c-1.219-1.27-3.28-2.203-2.664-4.598c2.924-2.055,5.806-1.055,8.766,0.002c10.094,3.604,20.709,4.35,31.234,5.557
		c4.572,0.523,6.174-1.213,4.226-5.664c-0.849-1.943-1.957-3.846-2.325-5.922c-0.875-4.953-4.042-6.281-8.611-6.492
		c-9.211-0.42-18.258-2.113-27.096-4.713c-3.792-1.115-7.953-2.154-8.775-7.107c-1.569-3.736-1.907-7.48-0.094-11.246
		c3.295-2.218,6.445-0.452,9.457,0.591c8.277,2.864,16.68,4.729,25.451,5.463c4.891,0.41,6.484-1.344,6.541-5.698
		c0.012-0.704,0.068-1.413,0.174-2.111c1.334-8.724,1.321-8.563-7.775-9.364c-8.438-0.746-16.836-2.037-24.896-4.717
		c-3.678-1.222-7.949-2.177-8.842-7.083c-1.904-3.569-1.077-7.405-1.096-11.158c2.972-2.336,5.847-0.912,8.658,0.308
		c10.558,4.589,21.75,5.941,33.08,6.765c5.752,0.418,10.06-1.331,12.889-6.635c1.727-3.235,4.464-5.871,7.072-9.902
		c-10.109-0.018-19.22-0.595-28.319-1.423c-8.772-0.798-17.188-2.892-25.601-5.186c-3.556-0.97-6.365-3.053-7.871-6.582
		c0.42-4.348-1.135-8.878,1.205-13.047c2.012-1.278,4.121-1.048,6.107-0.115c8.7,4.082,18.053,5.507,27.426,6.782
		c23.877,3.248,47.575,2.038,71.174-2.755c6.434-1.307,11.771-6.271,18.791-5.341c1.094,6.491-1.586,13.919,4.74,19.112
		c-2.41,2.874-5.496,2.01-8.552,1.623c-35.089-4.449-64.04,21.127-64.535,56.509c-0.425,30.449,20.404,54.227,49.144,57.658
		c30.929,3.691,57.483-17.209,62.305-47.207c1.711-10.66,0.533-20.665-2.977-30.62c-1.037-2.949-2.156-5.835-0.107-8.793
		c3.181-0.282,4.301,2.544,6.018,4.235C575.238,143.365,588.473,156.667,602.737,168.885z"/>
	<path fill="#FFFFFF" d="M555.859,125.958c8.683,18.516,9.984,37.255,1.209,56.08c-12.196,26.158-40.811,39.615-68.441,32.42
		c-27.123-7.063-46.324-34.346-44.091-62.643c3.054-38.644,35.431-63.135,73.229-55.4c0.926,0.188,1.875,0.251,2.815,0.371
		C535.87,102.244,547.555,112.057,555.859,125.958z"/>
	<path fill="#FFFFFF" d="M515.844,77.675c-9.271,7.973-20.851,9.354-32.228,10.842c-26.119,3.415-52.134,3.066-77.856-3.377
		c-4.832-1.21-9.375-3.052-13.412-6.032c-3.711-5.575,0.017-8.285,4.281-10.372c8.797-4.305,18.356-5.91,27.967-7.013
		c25.476-2.924,50.83-2.675,75.896,3.496c3.908,0.962,7.645,2.363,11.126,4.404C514.695,71.426,516.771,73.765,515.844,77.675z"/>
	<path fill="#FEFEFE" d="M391.139,92.152c21.766,10.217,45.224,9.728,69.605,10.347c-6.68,6.832-12.229,13.154-16.021,20.774
		c-1.367,2.744-3.988,2.046-6.272,1.997c-16.431-0.352-32.416-2.757-47.218-10.463C390.391,107.258,390.477,99.706,391.139,92.152z"
		/>
	<path fill="#FEFEFF" d="M392.313,160.132c11.55,6.115,24.158,8.131,36.933,8.695c5.981,0.264,9.396,1.354,10.587,8.049
		c0.959,5.398,3.979,10.434,6.339,16.258c-17.837,0.16-34.987-1.482-51.271-8.658c-2.948-1.848-4.893-4.076-4.227-7.984
		C391.594,171.087,389.066,165.321,392.313,160.132z"/>
	<path fill="#FEFEFE" d="M392.328,125.966c12.855,6.664,26.827,8.422,40.984,8.961c4.882,0.187,6.771,1.037,4.955,6.44
		c-1.319,3.929-1.731,8.382-1.518,12.549c0.251,4.924-1.917,5.324-5.855,4.877c-13.357-1.525-26.565-3.521-38.672-9.905
		C389.868,141.234,389.609,133.592,392.328,125.966z"/>
	<path fill="#005C7C" d="M505.432,197.235c-3.571,0.598-5.636-0.232-5.008-3.92c0.766-4.508-1.182-6.408-5.617-6.443
		c-1.615-0.016-3.244-0.586-4.838-1.02c-6.338-1.723-7.979-7.416-3.951-12.729c1.771-2.332,2.94-0.199,4.156,0.207
		c4.736,1.588,9.491,3.127,14.527,2.447c3.27-0.439,6.684-1.223,7.417-5.359c0.708-4.014-1.714-6.211-4.877-7.703
		c-3.827-1.809-7.81-3.289-11.662-5.043c-6.968-3.172-11.755-8.168-11.581-16.241c0.176-8.216,4.739-13.818,12.339-16.384
		c3.736-1.262,4.853-3.199,4.339-6.682c-0.574-3.916,1.373-4.724,4.903-4.718c3.47,0.007,5.558,0.67,4.894,4.645
		c-0.713,4.26,1.676,4.855,5.271,5.292c8.841,1.075,9.244,2.047,7.612,9.084c-0.965,4.159-2.662,4.652-6.324,3.028
		c-3.234-1.433-6.871-1.727-10.436-1.46c-3.133,0.236-6.393,0.789-7.32,4.41c-0.965,3.765,1.811,5.663,4.617,7.045
		c3.799,1.871,7.816,3.291,11.646,5.11c7.333,3.481,12.369,8.644,12.028,17.454c-0.344,8.896-5.178,14.785-13.312,17.197
		c-4.534,1.346-4.716,3.857-4.465,7.289C510.055,196.298,509.139,198.462,505.432,197.235z"/>
</g>
<path fill="#014A5E" d="M264.915,170.175c2.317-4.48,6.188-6.452,10.254-8.03c2.472-0.958,5.026-1.562,7.665-1.653
	c0.811-0.028,0.982,0.219,0.646,1.056c-1.34,3.335-3.143,6.317-5.162,9.168c-1.588,2.24-3.43,4.097-5.616,5.516
	c-2.251,1.462-4.548,2.211-6.917,0.309c-0.426-0.342-0.582,0.007-0.809,0.278c-1.897,2.281-3.361,4.806-3.969,7.947
	c-0.643,3.327-2.18,6.278-3.347,9.385c-0.401,1.075-0.843,2.14-1.019,3.362c0.998-0.285,1.461-0.66,1.414-1.986
	c-0.08-2.174,1.119-3.789,2.58-5.086c2.165-1.929,4.678-2.986,7.366-3.439c3.812-0.643,7.649-0.249,11.603-0.305
	c-0.529,1.511-1.485,2.471-2.344,3.488c-2.783,3.307-5.597,6.586-9.291,8.641c-2.016,1.12-4.16,1.28-6.338,1.054
	c-0.978-0.101-1.902-0.5-2.548-1.413c-0.378-0.528-0.702-0.568-1.211-0.201c-1.403,1.015-2.685,2.189-3.464,3.877
	c-2.195,4.738-5.112,8.934-7.68,13.394c-0.183,0.315-0.359,0.635-0.551,0.976c1.45,0.112,1.866-0.212,2.211-1.589
	c0.363-1.456,1.209-2.514,2.297-3.318c1.896-1.404,4.006-1.977,6.248-2.097c3.823-0.199,7.492,0.644,11.094,2
	c0.812,0.308,1.643,0.554,2.465,0.824c0.173,0.059,0.391,0.028,0.447,0.293c0.053,0.247-0.082,0.373-0.246,0.505
	c-3.793,3.011-7.644,5.898-12.088,7.56c-2.104,0.786-4.25,0.877-6.399,0.354c-1.519-0.371-2.778-1.251-3.539-2.842
	c-0.289-0.611-0.685-0.543-1.131-0.451c-1.847,0.375-3.356,1.474-4.526,3.061c-3.189,4.335-6.752,8.232-10.49,11.941
	c-0.076,0.073-0.117,0.195-0.179,0.308c1.626,0.295,1.669,0.246,2.417-1.35c0.836-1.783,2.333-2.542,3.93-3.098
	c2.334-0.813,4.644-0.484,6.944,0.229c3.497,1.088,6.905,2.433,10.071,4.474c0.605,0.392,1.502,0.8,1.482,1.561
	c-0.017,0.586-1.017,0.624-1.584,0.89c-2.724,1.264-5.385,2.729-8.303,3.362c-3.055,0.66-6.121,1.221-9.125-0.262
	c-1.675-0.824-3.186-1.896-3.719-4.07c-0.118-0.483-0.416-0.427-0.7-0.389c-1.973,0.271-3.931,0.612-5.534,2.104
	c-3.65,3.393-7.856,5.822-11.768,8.768c-0.309,0.231-0.615,0.46-0.951,0.711c1.26,0.636,2.049,0.442,2.766-0.633
	c1.754-2.64,4.24-2.789,6.785-2.397c3.529,0.546,6.506,2.636,9.411,4.792c1.806,1.344,3.587,2.757,5.021,4.632
	c0.246,0.318,0.601,0.645,0.516,1.069c-0.107,0.552-0.631,0.338-0.949,0.362c-4.121,0.336-8.193,1.516-12.357,0.953
	c-2.508-0.34-5.036-0.596-7.024-2.783c-0.903-0.993-1.471-2.106-1.795-3.427c-0.226-0.904-0.683-1.185-1.533-1.239
	c-2.546-0.165-4.868,0.513-7.079,1.903c-3.084,1.941-6.533,2.831-9.791,4.278c-0.545,0.242-1.086,0.484-1.867,0.831
	c0.877,0.298,1.437,0.74,2.09,0.1c2.322-2.282,5.011-2.015,7.441-0.693c4.938,2.682,8.809,6.888,11.928,11.979
	c0.188,0.312,0.322,0.667,0.472,1.007c0.245,0.56,0.054,0.753-0.46,0.746c-5.51-0.082-10.969-0.514-16.028-3.332
	c-2.688-1.498-4.539-3.706-4.368-7.408c0.024-0.551-0.147-0.789-0.673-0.913c-3.68-0.866-7.182,0.167-10.688,1.204
	c-0.34,0.103-0.424,0.359-0.557,0.688c-0.921,2.233-0.535,4.259,0.654,6.204c1.148,1.882,2.504,3.572,3.755,5.358
	c1.278,1.824,2.603,3.655,3.022,6.006c0.486,2.735,0.334,5.466-0.418,8.137c-0.045,0.158-0.109,0.322-0.324,0.28
	c-0.258-0.16-0.146-0.438-0.098-0.653c0.523-2.422-0.111-4.575-1.109-6.686c-1.516-3.213-3.826-5.582-6.276-7.825
	c-1.368-1.251-2.596-2.669-3.577-4.34c-0.873-1.484-1.082-3.051-0.392-4.685c0.319-0.762,0.263-1.074-0.56-0.978
	c-1.742,0.204-3.49,0.36-5.234,0.549c-0.913,0.099-1.305,0.942-1.68,1.693c-0.402,0.804-0.662,1.699-0.975,2.56
	c-0.258,0.702-0.566,1.355-1.304,2.042c0.438-4.513-0.733-8.746-0.085-13.021c0.045-0.291,0.091-0.589,0.188-0.86
	c0.209-0.6,0.49-1.322,1.07-1.328c0.54-0.005,0.362,0.815,0.51,1.251c0.647,1.934,2.02,3.197,3.811,3.11
	c1.971-0.094,3.939-0.347,5.896-0.634c0.719-0.104,1.461-0.345,2.014-1.004c0.457-0.545,0.631-0.977-0.034-1.533
	c-0.729-0.615-0.979-1.596-1.084-2.568c-0.317-2.978-0.007-5.851,1.474-8.41c2.014-3.479,4.401-6.608,7.092-9.439
	c0.286-0.303,0.606-0.81,1.019-0.608c0.36,0.178,0.218,0.764,0.247,1.171c0.293,4.263,0.566,8.525-0.196,12.768
	c-0.284,1.586-0.737,3.104-1.455,4.504c-1.093,2.138-2.649,3.515-4.896,3.722c-0.213,0.021-0.461-0.024-0.586,0.493
	c0.61,0.197,1.22,0.04,1.789-0.073c4.642-0.925,9.086-2.636,13.541-4.314c0.584-0.221,1.076-0.59,1.399-1.195
	c0.345-0.64,0.407-1.082-0.258-1.682c-1.356-1.228-1.95-2.845-2.026-4.943c-0.213-5.906,1.979-10.727,4.864-15.313
	c0.387-0.616,0.726-1.276,1.06-1.938c0.141-0.273,0.271-0.495,0.584-0.482c0.301,0.015,0.353,0.271,0.409,0.513
	c1.188,5.013,2.702,9.969,2.136,15.293c-0.201,1.905-0.697,3.708-1.687,5.313c-0.694,1.131-1.594,1.901-2.789,2.15
	c-0.497,0.103-0.847,0.279-0.944,0.974c0.512,0.117,0.909-0.258,1.31-0.447c4.284-2.004,8.379-4.43,12.317-7.188
	c0.569-0.397,1.148-0.789,1.528-1.457c0.854-1.5,0.751-1.651-0.549-2.484c-2.173-1.394-2.617-3.86-2.769-6.415
	c-0.237-4.029,0.474-7.908,1.558-11.72c0.414-1.449,0.821-2.901,1.589-4.175c0.314-0.522,0.602-0.85,1.025-0.015
	c2.046,4.01,3.796,8.145,4.519,12.747c0.269,1.721,0.229,3.469,0.063,5.19c-0.161,1.706-0.91,3.108-2.131,4.163
	c-0.41,0.354-0.851,0.681-1.119,1.227c0.25,0.231,0.423-0.013,0.565-0.129c3.755-2.999,7.296-6.301,10.726-9.756
	c0.855-0.862,1.41-1.964,1.785-3.18c0.194-0.646,0.189-1.084-0.629-1.173c-1.438-0.153-2.484-1.124-3.188-2.504
	c-0.892-1.749-1.563-3.55-1.839-5.624c-0.621-4.734-0.051-9.354,0.568-14c0.092-0.702,0.412-0.577,0.78-0.366
	c0.608,0.354,1.093,0.896,1.522,1.478c2.74,3.697,4.904,7.785,6.104,12.435c0.767,2.971,0.735,5.879-1.565,8.163
	c-0.25,0.249-0.432,0.57-0.491,1.104c0.741-0.552,1.256-1.24,1.753-1.915c2.314-3.15,4.622-6.313,6.891-9.503
	c1.014-1.425,1.805-2.993,2.098-4.849c0.119-0.771-0.004-1.126-0.748-1.063c-2.252,0.19-3.672-1.322-4.948-3.127
	c-2.082-2.942-2.617-6.496-3.021-10.073c-0.266-2.345-0.332-4.718-0.515-7.076c-0.08-1.026,0.238-1.157,0.989-0.721
	c2.406,1.399,4.238,3.57,6.05,5.767c1.175,1.42,2.183,2.992,3.151,4.604c1.313,2.173,1.719,4.542,1.519,7.114
	c-0.073,0.942-0.44,1.687-0.995,2.343c-0.279,0.333-0.607,0.626-0.26,1.257c1.258-2.015,2.275-4.113,3.195-6.275
	c1.391-3.27,3.104-6.361,4.059-9.872c0.264-0.966,0.047-1.833,0.059-2.744c0.006-0.429-0.27-0.322-0.467-0.272
	c-3.051,0.77-5.144-1.052-7.001-3.394c-2.364-2.981-3.345-6.752-4.433-10.438c-0.434-1.461-0.684-2.992-1.012-4.492
	c-0.16-0.729,0.338-0.555,0.603-0.482c0.911,0.246,1.76,0.687,2.586,1.182c2.873,1.718,5.729,3.469,8.121,6.013
	c2.104,2.239,3.453,4.871,3.131,8.301c-0.028,0.31-0.002,0.623,0.171,0.974c0.35-1.098,0.799-2.166,1.031-3.293
	c0.811-3.908,1.891-7.741,2.49-11.705c0.101-0.667,0.178-1.324-0.068-1.994c-0.529-1.439-0.648-1.426-1.982-1.1
	c-2.414,0.593-4.609-0.214-6.595-1.762c-2.069-1.615-3.517-3.873-4.79-6.285c-1.146-2.18-2.324-4.342-3.171-6.701
	c-0.469-1.309-0.382-1.463,0.827-1.223c5.152,1.024,9.928,3.017,13.811,7.183c1.604,1.718,2.252,3.838,1.895,6.323
	c-0.071,0.501-0.073,0.926,0.604,1.139c0.237-3.779,0.514-7.508,0.693-11.242c0.094-1.94,0.018-3.893,0.018-5.839
	c0-0.254-0.008-0.508-0.008-0.762c0-0.8-0.521-1.302-0.897-1.853c-0.587-0.854-1.013,0.111-1.489,0.299
	c-2.115,0.821-4.197,0.646-6.21-0.333c-2.086-1.015-3.828-2.634-5.394-4.461c-1.871-2.188-3.485-4.624-5.01-7.135
	c-0.42-0.689-0.521-1.146,0.446-1.147c4.368-0.002,8.627,0.667,12.676,2.623c1.382,0.668,2.65,1.548,3.69,2.813
	c1.063,1.295,1.658,2.782,1.564,4.592c-0.021,0.383-0.246,0.854,0.26,1.176c0.342-0.741,0.521-1.477,0.096-2.239
	c-0.174-0.311-0.193-0.627-0.186-0.969c0.141-4.793-0.927-9.391-1.802-14.017c-0.241-1.28-1.054-2.104-1.942-2.84
	c-0.227-0.188-0.418-0.292-0.685-0.023c-2.459,2.468-5.231,2.148-7.972,0.908c-4.232-1.916-7.688-5.125-10.773-8.867
	c-0.227-0.272-0.441-0.579-0.472-1.041c1.094-0.472,2.267-0.32,3.396-0.454c3.643-0.432,7.297-0.754,10.875,0.51
	c2.969,1.049,5.233,2.891,5.568,6.752c0.049,0.559,0.357,0.792,0.895,0.906c0.006-1.534-0.475-2.915-0.808-4.317
	c-0.854-3.6-2.184-7.01-3.321-10.496c-0.565-1.738-1.68-2.958-2.985-4.001c-0.418-0.334-0.728-0.378-1.017,0.119
	c-1.94,3.327-4.928,3.031-7.672,2.38c-4.035-0.957-7.728-3.053-11.117-5.751c-0.484-0.386-0.97-0.791-1.203-1.584
	c4.244-1.45,8.398-3.319,12.92-2.922c2.324,0.204,4.691,0.539,6.354,2.816c0.507,0.695,0.998,1.417,1.12,2.3
	c0.122,0.866,0.533,1.217,1.316,1.37c-0.447-1.535-1.09-2.894-1.766-4.232c-0.906-1.798-1.845-3.576-2.73-5.388
	c-0.735-1.504-1.746-2.597-3.192-3.194c-0.692-0.288-1.362-0.684-2.005-1.108c-0.447-0.301-0.8-0.4-1.137,0.135
	c-1.909,3.036-4.69,2.839-7.481,2.581c-1.893-0.174-3.598-0.998-5.264-1.989c-2.281-1.355-4.56-2.714-6.63-4.463
	c-0.289-0.244-0.693-0.626-0.688-0.934c0.012-0.521,0.592-0.333,0.911-0.477c3.726-1.656,7.578-2.495,11.591-2.248
	c1.604,0.1,3.213,0.201,4.728,0.871c1.286,0.569,2.571,1.413,2.817,3.01c0.34,2.221,1.774,2.363,3.311,2.631
	c-0.924-1.288-1.848-2.576-2.771-3.866c-1.455-2.036-2.91-4.074-4.367-6.111c-0.278-0.391-0.52-0.881-1.073-0.716
	c-3.423,1.016-5.712-1.037-7.726-3.727c-2.332-3.113-3.261-6.992-4.39-10.747c-0.575-1.917-1.051-3.878-1.371-5.878
	c-0.049-0.321-0.168-0.729,0.111-0.947c0.27-0.212,0.563,0.024,0.833,0.18c3.662,2.11,7.255,4.342,10.441,7.334
	c1.949,1.833,3.299,4.104,4.139,6.8c0.529,1.701,0.375,3.334-0.286,4.925c-0.376,0.902-0.191,1.48,0.483,2.158
	c3.18,3.19,5.682,7.036,8.063,10.991c0.416,0.689,0.876,1.348,1.345,2.066c0.742-1.8,0.571-2.533-0.742-3.59
	c-1.213-0.975-1.964-2.297-2.229-3.957c-0.392-2.451-0.294-4.892,0.276-7.289c0.97-4.054,2.268-7.966,4.141-11.606
	c0.298-0.582,0.673-1.115,1.021-1.663c0.399-0.628,0.743-0.609,1.021,0.13c2.194,5.861,3.741,11.869,3.213,18.34
	c-0.125,1.534-0.573,2.983-1.222,4.323c-0.707,1.471-1.748,2.563-3.301,2.711c-0.705,0.067-0.85,0.421-0.814,1.135
	c0.129,2.784,0.553,5.411,2.111,7.736c1.705,2.543,2.477,5.667,3.768,8.476c0.822,1.793,1.563,3.634,2.436,5.662
	c0.237-0.825,0.392-1.446,0.601-2.043c0.192-0.557,0.075-0.993-0.296-1.366c-2.777-2.776-2.901-6.305-1.866-9.902
	c1.558-5.418,4.267-10.129,7.638-14.338c0.916-1.145,1.1-1.093,1.432,0.362c0.719,3.138,1.029,6.34,1.191,9.577
	c0.127,2.503,0.279,4.979-0.385,7.417c-0.977,3.568-2.549,6.509-6.048,7.414c-0.493,0.127-0.486,0.519-0.565,0.94
	c-0.684,3.532-0.4,6.915,0.827,10.288c1.425,3.901,2.478,7.953,2.986,12.16c0.047,0.371,0.167,0.731,0.256,1.12
	c1.013-1.084,1.122-1.708,0.413-2.864c-1.866-3.048-1.143-6.065,0.146-9.001c1.614-3.677,4.291-6.356,6.937-9.038
	c1.251-1.269,2.505-2.544,3.987-3.466c1.062-0.658,1.295-0.493,1.275,0.893c-0.058,4.506-0.582,8.942-1.795,13.237
	c-0.615,2.182-1.65,4.167-2.84,6.017c-1.251,1.947-3.1,2.572-5.119,2.551c-0.791-0.008-0.98,0.355-1.291,1.108
	c-1.615,3.939-0.658,8.001-0.542,12.007c0.103,3.535,0.409,7.063,0.632,10.724c0.79-0.782,1.204-1.35,0.729-2.679
	c-0.96-2.684-0.202-5.233,1.146-7.563c1.055-1.824,2.402-3.354,3.982-4.583c2.865-2.228,5.872-4.186,9.02-5.857
	c0.37-0.197,0.767-0.325,1.147-0.496c0.634-0.284,0.817,0.025,0.728,0.7c-0.181,1.341-0.479,2.651-0.871,3.93
	c-1.197,3.915-2.322,7.875-4.504,11.276c-1.5,2.336-3.283,4.279-5.91,4.886c-0.969,0.224-1.936,0.31-2.84-0.246
	c-0.5-0.307-0.713-0.049-0.965,0.398c-0.931,1.655-1.689,3.387-1.957,5.348c-0.46,3.382-0.902,6.767-1.351,10.148
	c-0.175,0.856,0.089,1.733-0.085,2.59c-0.434,1.255-0.279,2.651-0.715,3.933c0.488-0.277,0.758-0.692,0.576-1.307
	c-0.232-0.794-0.136-1.567,0.013-2.35C264.455,171.548,264.379,170.733,264.915,170.175z"/>
<path fill="#014A5E" d="M99.638,252.494c-3.546-1.547-6.902-3.626-10.571-4.833c-1.396-0.458-2.814-0.256-4.225-0.305
	c-0.346-0.011-0.555,0.16-0.601,0.578c-0.4,3.637-2.678,5.147-5.418,6.097c-2.678,0.929-5.409,1.091-8.185,0.707
	c-2.625-0.365-5.261-0.649-7.89-0.982c-0.31-0.04-0.77,0.111-0.861-0.34c-0.05-0.249,0.197-0.62,0.378-0.873
	c1.194-1.657,2.729-2.873,4.274-4.053c2.604-1.986,5.317-3.764,8.293-4.946c2.431-0.966,4.87-1.208,7.257,0.233
	c0.502,0.305,0.938,0.695,1.308,1.173c1.079,1.4,1.074,1.404,2.797,0.989c-0.149-0.547-0.575-0.756-0.932-1.005
	c-3.932-2.748-8.039-5.172-11.674-8.46c-1.546-1.4-3.427-2.015-5.417-2.129c-0.327-0.019-0.631-0.198-0.796,0.356
	c-1.124,3.793-3.892,4.746-6.962,4.999c-4.405,0.367-8.451-1.255-12.432-3.133c-0.963-0.455-1.933-0.891-2.904-1.321
	c-0.207-0.094-0.461-0.108-0.522-0.399c-0.068-0.324,0.177-0.418,0.366-0.547c4.339-2.983,8.931-5.258,13.988-6.081
	c2.526-0.408,4.888,0.305,7.019,1.92c0.565,0.427,1.025,0.992,1.356,1.664c0.746,1.514,0.738,1.521,2.521,1.253
	c-0.692-0.715-1.311-1.361-1.937-2.002c-3.246-3.314-6.294-6.851-9.215-10.533c-1.185-1.495-2.799-2.184-4.48-2.691
	c-0.451-0.135-0.678-0.015-0.904,0.418c-1.163,2.228-3.099,2.871-5.176,3.066c-2.524,0.237-4.85-0.702-7.13-1.798
	c-3.2-1.537-6.334-3.22-9.036-5.752c-1.141-1.069-1.064-1.397,0.346-1.89c4.111-1.438,8.276-2.506,12.622-2.38
	c1.859,0.054,3.625,0.486,5.295,1.39c1.497,0.812,2.754,2,3.266,3.811c0.429,1.522,1.291,2.031,2.658,2.122
	c-1.883-2.561-3.544-5.187-5.052-7.932c-1.202-2.188-2.346-4.421-3.549-6.608c-0.881-1.603-2.112-2.83-3.442-3.943
	c-0.408-0.343-0.699-0.512-1.098,0.068c-0.793,1.151-1.935,1.4-3.17,1.56c-3.348,0.435-6.108-1.022-8.715-3.166
	c-2.941-2.415-5.735-5.001-7.916-8.341c-0.199-0.302-0.375-0.631-0.531-0.966c-0.084-0.179-0.106-0.396-0.214-0.825
	c1.589,0,3.093,0.022,4.597-0.004c3.517-0.061,7.016,0.044,10.398,1.315c2.715,1.021,5.037,2.579,6.015,5.883
	c0.141,0.476,0.266,0.987,0.265,1.481c-0.004,1.266,0.559,1.906,1.604,2.117c0.149-0.225,0.007-0.413-0.066-0.586
	c-2.13-4.985-3.854-10.148-5.275-15.449c-0.531-1.98-1.989-3.233-3.048-4.801c-0.267-0.396-0.49-0.218-0.756-0.034
	c-2.668,1.846-5.269,1.104-7.623-0.622c-3.55-2.6-5.944-6.47-8.188-10.44c-0.684-1.211-1.29-2.473-1.79-3.798
	c-0.346-0.917-0.176-1.32,0.767-1.246c2.325,0.18,4.563,0.826,6.767,1.614c3.245,1.159,6.428,2.506,9.036,5.11
	c0.581,0.58,1.044,1.313,1.561,1.975c1.125,1.389,1.079,3.141,1.082,4.834c0.001,0.737,0.027,1.375,0.522,1.964
	c-0.434-1.993-0.523-4.009-0.966-5.952c-0.048-0.212-0.031-0.415,0.072-0.604c-0.301-2.923-0.706-5.838-0.873-8.771
	c-0.154-2.705-1.681-4.654-2.61-6.931c-0.185-0.453-0.58-0.299-0.895-0.182c-2.497,0.92-4.53-0.123-6.357-1.957
	c-1.153-1.157-2.109-2.519-2.868-4.037c-2.071-4.138-3.701-8.484-4.676-13.126c-0.334-1.59-0.15-1.83,1.147-1.27
	c5.42,2.335,10.305,5.586,13.774,11.029c1.484,2.329,2.203,4.881,0.905,7.718c-0.468,1.023,0.399,1.548,1.096,2.199
	c0-1.365,0.003-2.732-0.001-4.099c-0.013-4.068,0.313-8.109,0.781-12.139c0.271-2.325,0-4.548-0.869-6.683
	c-0.23-0.563-0.464-0.852-1.1-0.701c-1.488,0.352-2.79-0.198-3.934-1.301c-1.958-1.887-3.291-4.192-3.969-7.036
	c-1.065-4.457-2.142-8.897-1.978-13.581c0.049-1.431,0.287-1.673,1.348-0.84c4.288,3.37,8.245,7.139,10.847,12.409
	c1.002,2.031,1.217,4.248,1.04,6.521c-0.062,0.796-0.222,1.662-0.767,2.2c-1.078,1.063-0.422,1.977,0.046,3.108
	c0.468-0.695,0.331-1.406,0.449-2.026c0.94-4.929,2.44-9.665,3.803-14.448c0.347-1.219,0.691-2.405,0.375-3.705
	c-0.079-0.32-0.071-0.671-0.08-1.009c-0.053-1.893-0.307-3.203-2.396-3.931c-2.793-0.973-3.804-4.108-4.467-7.133
	c-0.993-4.528-0.467-9.045,0.264-13.547c0.229-1.41,0.397-2.833,0.593-4.25c0.561-0.07,0.797,0.374,1.065,0.674
	c3.964,4.438,6.723,9.681,8.026,15.841c0.376,1.782,0.309,3.618-0.122,5.407c-0.261,1.087-0.67,2.177-1.56,2.685
	c-0.907,0.516-0.783,1.12-0.508,1.912c0.136,0.394,0.244,0.798,0.377,1.236c0.107-0.06,0.242-0.083,0.275-0.161
	c2.119-5.04,4.285-10.054,6.856-14.819c1.12-2.076,1.175-4.31,1.116-6.61c-0.015-0.58-0.288-0.679-0.684-0.776
	c-2.447-0.597-3.575-2.589-4.078-5.143c-1.025-5.2-0.282-10.253,1.084-15.244c0.41-1.495,0.838-2.981,1.485-4.372
	c0.224-0.48,0.407-1.003,0.879-1.245c2.702,5.232,5.405,10.44,6.029,16.638c0.352,3.487-0.462,6.461-2.796,8.792
	c-0.84,0.839-0.968,1.705-0.576,2.829c0.605-0.245,0.904-0.804,1.223-1.303c2.034-3.187,4.146-6.306,6.371-9.322
	c0.668-0.904,1.457-1.695,2.182-2.547c0.312-0.366,0.595-0.702,0.339-1.323c-1.157-2.804-0.625-5.454,0.721-7.957
	c1.737-3.23,4.358-5.407,7.106-7.403c2.042-1.484,4.198-2.743,6.345-4.021c0.483-0.287,0.857-0.406,0.773,0.481
	c-0.679,7.169-2.673,13.702-7.34,18.843c-1.53,1.687-3.413,2.586-5.635,1.781c-0.344-0.125-0.655-0.088-0.907,0.26
	c-2.524,3.498-5.188,6.867-7.595,10.476c-0.014,0.021,0.014,0.08,0.042,0.223c0.912-0.108,1.727-0.597,2.577-0.934
	c0.258-0.104,0.212-0.411,0.247-0.653c0.317-2.268,1.635-3.492,3.405-4.303c2.704-1.24,5.506-0.809,8.294-0.737
	c2.793,0.072,5.383,1.161,8.035,1.961c1.054,0.319,0.831,0.716,0.24,1.344c-1.569,1.67-3.412,2.873-5.32,3.937
	c-2.418,1.349-4.938,2.403-7.64,2.733c-2.587,0.318-5.03,0.05-6.694-2.648c-0.337-0.546-0.637-0.331-1.039-0.14
	c-2.416,1.155-4.437,2.667-5.778,5.455c-1.313,2.73-2.723,5.396-3.987,8.32c0.728,0.063,1.068-0.146,1.179-0.813
	c0.37-2.236,1.736-3.47,3.46-4.296c3.205-1.535,6.517-1.101,9.81-0.563c2.367,0.386,4.6,1.411,6.913,2.066
	c0.625,0.178,0.657,0.467,0.253,0.896c-0.46,0.489-0.944,0.969-1.473,1.354c-3.219,2.347-6.649,4.188-10.363,5.276
	c-1.644,0.482-3.347,0.409-5,0.074c-1.479-0.298-2.749-1.097-3.394-2.89c-1.763,1.333-3.174,2.95-3.923,5.139
	c-1.551,4.532-2.763,9.198-4.065,13.828c-0.041,0.146-0.056,0.302-0.109,0.602c0.898-0.342,1.446-0.757,1.289-1.82
	c-0.119-0.805,0.164-1.467,0.564-2.117c1.905-3.1,4.653-4.418,7.839-4.667c3.541-0.276,7.082-0.064,10.617,0.278
	c0.865,0.083,0.819,0.432,0.433,1.064c-0.946,1.552-2.175,2.789-3.483,3.916c-2.833,2.439-5.797,4.629-9.278,5.718
	c-2.061,0.645-4.013,0.422-5.686-1.206c-0.62-0.604-0.97-0.41-1.604,0.053c-1.529,1.114-1.54,2.887-1.777,4.554
	c-0.723,5.088-1.391,10.188-2.076,15.282c-0.022,0.164-0.003,0.334-0.003,0.597c0.718-0.391,1.11-0.784,0.847-1.759
	c-0.343-1.271,0.101-2.425,0.748-3.448c1.255-1.988,2.975-3.347,4.957-4.191c3.833-1.636,7.802-2.55,11.92-2.491
	c1.15,0.018,1.272,0.154,0.647,1.261c-2.44,4.311-5.376,8.108-9.226,10.882c-1.661,1.196-3.542,1.515-5.481,1.394
	c-0.635-0.04-1.25-0.197-1.823-0.551c-1.311-0.808-2.217-0.271-2.507,1.46c-0.021,0.124-0.02,0.253-0.02,0.38
	c0.02,5.243-0.217,10.497,0.63,15.697c0.122,0.747,0.181,1.507,0.278,2.329c0.438-0.285,0.605-0.618,0.414-1.211
	c-0.631-1.952-0.087-3.664,0.945-5.226c1.503-2.273,3.347-4.091,5.708-5.139c3.019-1.338,6.013-2.77,9.211-3.492
	c1.063-0.241,1.281,0.015,0.888,1.15c-1.097,3.173-2.7,6.033-4.509,8.729c-0.946,1.409-1.994,2.754-3.129,3.97
	c-2.161,2.312-4.69,3.188-7.6,2.024c-0.417-0.168-0.629-0.074-0.909,0.353c-0.704,1.065-0.686,2.225-0.421,3.389
	c0.925,4.08,1.391,8.291,2.667,12.271c0.135,0.421,0.33,0.817,0.595,1.229c-0.083-3.155,1.071-5.593,3.044-7.677
	c3.094-3.272,6.579-5.813,10.522-7.536c0.29-0.127,0.652-0.46,0.933-0.179c0.279,0.28,0.04,0.708-0.028,1.071
	c-0.811,4.413-1.96,8.686-4.093,12.539c-1.001,1.813-2.186,3.427-3.873,4.481c-1.256,0.789-2.578,1.138-3.982,0.662
	c-0.654-0.223-0.831,0.003-0.916,0.73c-0.117,0.995-0.057,1.911,0.294,2.844c1.643,4.364,3.628,8.527,5.674,12.656
	c0.107,0.215,0.258,0.404,0.59,0.913c-1.204-5.269,0.897-8.937,3.624-12.303c1.919-2.371,4.007-4.553,6.346-6.396
	c0.355-0.279,0.771-0.741,1.189-0.496c0.392,0.231,0.153,0.848,0.176,1.289c0.243,4.598-0.659,8.992-1.875,13.324
	c-0.644,2.291-1.911,4.101-3.551,5.575c-0.753,0.68-1.632,1.046-2.608,0.904c-0.978-0.146-1.15,0.45-1.053,1.349
	c0.068,0.64,0.291,1.215,0.549,1.784c1.697,3.728,4.188,6.773,6.6,9.885c0.605,0.782,1.081,1.728,1.996,2.138
	c0.308,0.643,0.848,1.052,1.267,1.579c-0.402-0.549-0.937-0.955-1.285-1.562c-1.865-4.723-0.726-8.979,1.606-13.026
	c1.51-2.62,3.029-5.239,5.017-7.446c0.264-0.293,0.55-0.747,0.908-0.649c0.436,0.117,0.292,0.702,0.345,1.1
	c0.341,2.549,0.849,5.09,0.965,7.649c0.166,3.685-0.029,7.375-1.665,10.723c-0.832,1.7-2.022,2.94-3.819,3.158
	c-0.591,0.068-0.631,0.337-0.502,0.915c0.354,1.591,1.162,2.877,2.237,3.866c3.528,3.246,6.833,6.813,10.671,9.616
	c0.087,0.062,0.199,0.084,0.313,0.131c0.294-0.604-0.114-0.679-0.428-0.88c-2.048-1.326-3.087-3.361-3.165-6.018
	c-0.178-6.053,2.067-11.243,4.573-16.331c0.189-0.384,0.44-0.901,0.873-0.901c0.507,0.003,0.524,0.645,0.668,1.04
	c1.783,4.875,3.213,9.846,2.924,15.225c-0.163,3.02-0.962,5.67-3.646,7.005c-0.566,0.285-0.34,0.647-0.206,1.016
	c0.464,1.266,1.32,2.164,2.307,2.857c2.854,2.002,5.874,3.657,8.91,5.272c1.404,0.746,2.832,1.436,4.327,2.189
	c0.037-0.737-0.169-1.055-0.695-1.144c-1.999-0.336-3.081-1.869-3.861-3.812c-0.996-2.479-0.927-5.1-0.824-7.729
	c0.151-3.839,0.961-7.511,2.151-11.097c0.271-0.816,0.556-0.636,0.936-0.232c1.021,1.087,1.722,2.436,2.375,3.818
	c1.587,3.366,2.975,6.83,3.542,10.628c0.291,1.943,0.175,3.88-0.489,5.736c-0.242,0.676-0.624,1.228-1.074,1.755
	c-0.305,0.36-1.13,0.318-0.896,1.062c0.254,0.809,0.563,1.662,1.431,1.98c2.056,0.756,4.082,1.627,6.157,2.303
	c3.066,1,6.089,2.269,9.358,2.349c-0.033-0.442-0.263-0.603-0.581-0.629c-3.028-0.246-4.611-2.419-5.59-5.396
	c-0.914-2.778-1.098-5.691-1.132-8.613c-0.027-2.326,0.054-4.654,0.133-6.979c0.014-0.42-0.19-1.063,0.259-1.242
	c0.372-0.147,0.752,0.291,1.079,0.564c1.642,1.368,2.943,3.112,4.148,4.95c1.811,2.758,3.484,5.624,4.287,8.982
	c0.574,2.403,0.636,4.79-1.133,6.729c-0.4,0.439-0.389,0.742,0.074,1.204c0.823,0.817,1.709,1.286,2.809,1.366
	c1.562,0.115,3.128,0.244,4.672,0.521c2.012,0.354,3.182-0.749,3.979-2.646c0.256-0.605,0.491-1.222,0.752-1.877
	c0.955,0.688,1.332,1.77,1.415,2.903c0.279,3.782-0.312,7.525-0.379,11.658c-0.855-1.242-1.18-2.373-1.574-3.434
	c-0.633-1.704-1.657-2.523-3.303-2.36c-1.72,0.168-3.401-0.358-5.105-0.515c-0.011,0.155-0.05,0.266-0.019,0.313
	c1.784,2.746,0.893,5.325-1.034,7.299c-1.938,1.981-3.913,3.926-5.768,6.006c-2.273,2.548-3.986,5.466-4.171,9.271
	c-0.039,0.804,0.185,1.588,0.078,2.471c-0.666-0.287-0.795-0.898-0.903-1.493c-0.683-3.755-0.301-7.283,1.618-10.548
	c1.206-2.051,2.645-3.877,4.042-5.747c1.102-1.476,1.893-3.136,2.297-5.021c0.457-2.13-0.271-3.479-2.126-4.094
	c-3.107-1.03-6.233-1.643-9.481-0.967c-0.613,0.127-0.943,0.268-0.932,1.057c0.053,3.52-1.684,5.744-4.243,7.308
	c-3.147,1.917-6.599,2.624-10.099,3.018c-1.889,0.213-3.796,0.228-5.697,0.281c-1.009,0.029-1.114-0.211-0.601-1.241
	c0.665-1.336,1.526-2.511,2.453-3.612c2.704-3.21,5.354-6.501,8.949-8.518c0.914-0.511,1.846-0.91,2.885-0.868
	c0.892-0.283,1.823,0.084,2.714-0.211c0.067,0.017,0.134,0.012,0.2-0.014c0.918-0.22,1.61,0.404,2.313,0.871
	c0.625,0.415,1.235,0.626,1.864,0.469C102.358,254.071,100.991,253.305,99.638,252.494z"/>
<path fill="#014A5E" d="M151.068,221.304c3.363,4.543,6.709,9.054,10.052,13.569c3.521,4.755,7.028,9.52,10.56,14.271
	c0.314,0.424,0.457,0.708,0.077,1.217c-6.849,9.188-13.674,18.396-20.506,27.596c-0.044,0.062-0.106,0.104-0.242,0.233
	c-1.665-2.232-3.322-4.45-4.973-6.677c-5.124-6.9-10.236-13.812-15.376-20.698c-0.516-0.693-0.677-1.151-0.071-1.962
	c6.614-8.856,13.171-17.753,19.746-26.637C150.555,221.919,150.799,221.639,151.068,221.304z"/>
<path fill="#FEFEFE" d="M196.425,106.556c-3.59-0.015-7.18-0.058-10.77,0.026c-1.15,0.026-1.422-0.36-1.258-1.384
	c0.375-2.327,0.215-4.68,0.311-7.02c0.033-0.856-0.172-1.152-1.09-1.152c-23.408,0.022-46.815,0.021-70.223-0.012
	c-1.014-0.001-1.119,0.388-1.149,1.244c-0.082,2.354,0.257,4.681,0.333,7.023c0.031,0.978-0.216,1.315-1.251,1.296
	c-3.541-0.063-7.085,0.031-10.626-0.048c-1.727-0.039-2.949,0.54-3.657,2.128c0,1.436,0,2.873,0,4.309
	c0.251,0.135,0.243,0.383,0.27,0.616c1.717,14.991,9.13,26.327,22.183,33.794c2.867,1.641,4.942,3.527,6.638,6.369
	c3.995,6.695,9.028,12.432,16.772,15.035c0.515,0.174,0.688,0.48,0.694,1.047c0.016,1.588-0.146,3.162-0.403,4.711
	c-1.553,9.387-6.13,16.945-13.813,22.596c-0.372,0.271-0.833,0.48-0.789,1.09c0.095,1.33-0.179,2.676,0.169,3.996
	c0.539,0.967,1.496,0.723,2.312,0.73c5.642,0.043,11.284,0.02,16.924,0.021c5.932,0,11.859,0.018,17.787-0.02
	c0.822-0.004,1.762,0.246,2.373-0.627c0.861-2.633,0.371-4.389-1.57-5.951c-8.387-6.746-12.713-15.531-13.207-26.258
	c-0.039-0.824,0.215-1.197,0.967-1.422c1.832-0.543,3.518-1.418,5.109-2.469c5.732-3.789,9.703-9.119,12.967-15.027
	c0.66-1.199,1.518-1.902,2.705-2.518c15.623-8.105,23.965-20.923,24.756-38.556C200.007,107.494,199.044,106.568,196.425,106.556z
	 M106.25,125.272c-1.727-3.698-2.815-7.576-3.257-11.646c-0.121-1.114,0.233-1.487,1.287-1.477c2.488,0.024,4.98,0.099,7.461-0.03
	c1.256-0.065,1.554,0.527,1.645,1.516c0.284,3.078,0.853,6.111,1.416,9.147c1.107,5.975,2.712,11.808,4.788,17.516
	c0.045,0.125,0.076,0.255,0.222,0.751C113.68,136.893,109.248,131.691,106.25,125.272z M194.079,113.428
	c-1.484,11.517-6.947,20.638-16.447,27.33c-0.061,0.043-0.166,0.016-0.371,0.031c1.43-3.99,2.672-7.988,3.68-12.059
	c1.277-5.166,2.139-10.404,2.828-15.672c0.102-0.767,0.316-0.927,1.025-0.916c2.629,0.04,5.26,0.024,7.889,0.013
	C193.563,112.15,194.224,112.323,194.079,113.428z"/>
</svg>
