<?xml version="1.0" encoding="utf-8"?>
<!-- Generator: Adobe Illustrator 16.0.0, SVG Export Plug-In . SVG Version: 6.00 Build 0)  -->
<!DOCTYPE svg PUBLIC "-//W3C//DTD SVG 1.1//EN" "http://www.w3.org/Graphics/SVG/1.1/DTD/svg11.dtd">
<svg version="1.1" id="Layer_1" xmlns="http://www.w3.org/2000/svg" xmlns:xlink="http://www.w3.org/1999/xlink" x="0px" y="0px"
	 width="300px" height="300px" viewBox="0 0 300 300" enable-background="new 0 0 300 300" xml:space="preserve">
<g>
	<path fill-rule="evenodd" clip-rule="evenodd" fill="#4991CD" d="M130.844,298.314c-5.634-0.374-11.127-1.585-16.576-2.932
		c-27.583-6.836-51.426-20.355-71.312-40.639c-21.288-21.715-34.708-47.632-40.422-77.5c-1.838-9.606-2.702-19.34-2.507-29.112
		c0.725-36.241,12.587-68.386,36.218-95.925C57.662,27.246,84.58,11.124,116.636,3.668c8.999-2.093,18.123-3.242,27.361-3.565
		c34.814-1.217,66.401,8.313,94.472,28.874c26.432,19.359,44.544,44.866,54.477,76.108c3.88,12.198,6.08,24.723,6.595,37.528
		c0.021,0.599-0.018,1.198-0.026,1.793c-0.692,0.484-1.112-0.072-1.551-0.438c-0.505-0.417-0.947-0.914-1.414-1.376
		c-20.661-20.666-41.327-41.327-61.984-61.994c-0.85-0.848-1.699-1.689-2.681-2.39c-1.844-2.279-4.249-3.099-7.138-3.061
		c-5.983,0.079-11.972,0.03-17.958,0.017c-0.889-0.002-1.809,0.121-2.622-0.404c-0.548-0.654-0.479-1.453-0.488-2.224
		c-0.023-2.031,0.017-4.064-0.017-6.097c-0.049-2.891-1.003-3.822-3.938-3.856c-1.437-0.017-2.872-0.051-4.307,0.017
		c-2.137,0.102-3.15,1.103-3.239,3.259c-0.092,2.15-0.009,4.304-0.036,6.456c-0.011,0.829,0.078,1.687-0.47,2.419
		c-0.185,0.145-0.389,0.244-0.616,0.304c-0.652,0.132-1.311,0.102-1.969,0.1c-25.9-0.049-51.802,0.132-77.702,0.074
		c-1.011-0.002-2.042,0.119-3.008-0.312c-0.813-0.576-0.701-1.464-0.718-2.28c-0.042-2.209,0.025-4.423-0.03-6.632
		c-0.06-2.271-1.041-3.282-3.282-3.382c-1.61-0.072-3.227-0.063-4.839-0.006c-2.165,0.079-3.163,1.007-3.32,3.183
		c-0.159,2.205-0.021,4.418-0.066,6.63c-0.017,0.824,0.096,1.691-0.54,2.381c-0.82,0.501-1.737,0.393-2.625,0.395
		c-5.87,0.013-11.737,0.004-17.604,0.006c-0.779,0.002-1.559-0.013-2.333,0.087c-3.556,0.457-5.591,2.672-5.619,6.262
		c-0.049,5.809-0.002,11.617-0.019,17.425c-0.015,6.229,0.059,12.453-0.036,18.682c0.013,2.974,0.115,5.953-0.198,8.922
		c-0.091,0.956-0.115,1.916-0.115,2.872c0,33.068,0.015,66.135-0.025,99.198c-0.004,3.157,0.831,5.774,3.45,7.661
		c0.714,1.414,1.899,2.421,3.002,3.521c18.828,18.796,37.635,37.609,56.427,56.436C130.417,296.794,131.375,297.24,130.844,298.314z
		"/>
	<path fill-rule="evenodd" clip-rule="evenodd" fill="#3785C6" d="M130.844,298.314c-0.017-0.756-0.618-1.13-1.073-1.585
		c-18.902-18.91-37.818-37.813-56.701-56.745c-0.837-0.841-2.267-1.283-2.227-2.834c0.365-0.263,0.788-0.242,1.207-0.242
		c25.575,0.128,51.15,0.025,76.725,0.052c0.24,0,0.478,0.013,0.716,0.033c24.688-0.047,49.38-0.008,74.07-0.021
		c0.718-0.005,1.436,0.008,2.154-0.009c4.304-0.106,6.755-2.481,7.01-6.798c0.056-0.896,0.03-1.797,0.03-2.693
		c0-32.962,0-65.923,0-98.884c0-0.718-0.018-1.436,0.055-2.154c0.038-14.569,0.005-29.138,0.013-43.703
		c0-0.538,0.005-1.077-0.165-1.595c-0.115-0.952-0.612-1.878-0.2-2.868c0.837,0.176,1.254,0.895,1.793,1.432
		c21.099,21.085,42.189,42.18,63.293,63.262c0.573,0.573,1.007,1.385,1.971,1.444c0.009,0.327,0.021,0.65,0.034,0.977
		c0.213,3.063,0.213,6.126,0,9.19c-0.119,4.321-0.573,8.608-1.032,12.903c-0.48,4.495-1.309,8.914-2.158,13.341
		c-1.364,7.129-3.526,14.013-5.999,20.836c-2.299,6.355-5.014,12.512-8.196,18.452c-3.59,6.699-7.715,13.064-12.219,19.208
		c-5.464,7.465-11.777,14.147-18.431,20.495c-3.947,3.769-8.242,7.193-12.632,10.478c-16.166,12.101-34.115,20.377-53.695,25.174
		c-12.096,2.961-24.39,4.286-36.828,4.201c-5.447-0.033-10.887-0.425-16.304-1.041C131.645,298.574,131.245,298.421,130.844,298.314
		z"/>
	<path fill-rule="evenodd" clip-rule="evenodd" fill="#4991CD" d="M299.549,154.573c0-3.063,0-6.126,0-9.19
		C299.986,148.447,299.966,151.51,299.549,154.573z"/>
	<path fill-rule="evenodd" clip-rule="evenodd" fill="#FFFFFF" d="M149.544,237.49c-2.038,0.021-4.075,0.056-6.112,0.056
		c-22.954,0.004-45.909,0-68.865,0c-1.255,0-2.515,0.038-3.724-0.396c-3.261-1.768-4.353-4.542-4.344-8.179
		c0.066-33.437,0.036-66.87,0.051-100.302c0-0.756-0.238-1.56,0.245-2.273c0.684-0.65,1.557-0.552,2.381-0.552
		c26.114-0.013,52.231-0.013,78.348,0c0.833,0,1.689-0.06,2.428,0.463c0.612,0.773,0.524,1.699,0.524,2.587
		c0.011,35.229,0.011,70.46-0.006,105.69C150.468,235.621,150.717,236.798,149.544,237.49z"/>
	<path fill-rule="evenodd" clip-rule="evenodd" fill="#EE6764" d="M108.343,74.666c27.02-0.006,54.039-0.011,81.056-0.013
		c0.598,0,1.194,0.051,1.791,0.079c-0.557,1.118-1.625,0.816-2.511,0.822c-5.753,0.041-11.508,0.019-17.26,0.021
		c-6.174,0-12.347-0.011-18.521,0.004c-2.303,0.006-2.413,0.115-2.415,2.458c-0.011,12.225,0.002,24.452-0.015,36.676
		c0,1.062,0.183,2.175-0.529,3.127c-0.773,0.612-1.695,0.531-2.585,0.531c-26.008,0.013-52.017,0.008-78.025,0
		c-0.896,0-1.812,0.046-2.562-0.599c-0.027-6.458-0.063-12.916-0.079-19.374c-0.013-5.562-0.027-11.123,0.004-16.686
		c0.025-4.204,2.751-7.004,6.934-7.03c7.295-0.044,14.592,0.002,21.887,0.013c0.843,0.746,0.621,1.761,0.625,2.686
		c0.028,5.678,0.011,11.355,0.015,17.032c0,0.777-0.032,1.555,0.102,2.328c0.295,1.691,1.041,2.367,2.755,2.49
		c0.597,0.039,1.196,0.017,1.793,0.021c6.766,0.046,6.904,0.399,6.828-6.73c-0.051-4.839-0.008-9.682-0.008-14.523
		c0-0.597-0.028-1.198,0.034-1.791C107.718,75.627,107.68,74.984,108.343,74.666z"/>
	<path fill-rule="evenodd" clip-rule="evenodd" fill="#EC5550" d="M149.884,117.775c0.004-13.579,0.038-27.157-0.026-40.737
		c-0.008-1.674,0.48-2.092,2.105-2.084c12.383,0.066,24.766,0.042,37.148,0.025c0.69,0,1.438,0.251,2.077-0.249
		c0.083-0.046,0.172-0.068,0.268-0.062c0.958,0.678,0.697,1.71,0.701,2.622c0.032,5.976,0.005,11.955,0.02,17.933
		c0.011,3.365,0.654,4.011,3.96,4.023c1.555,0.008,3.109,0.06,4.662-0.025c1.711-0.094,2.454-0.799,2.743-2.502
		c0.132-0.769,0.1-1.546,0.1-2.324c0.004-5.68-0.013-11.358,0.015-17.036c0.007-0.922-0.231-1.944,0.646-2.672
		c7.248-0.008,14.498-0.011,21.747-0.027c2.826-0.009,4.903,1.287,6.407,3.609c0.247,0.784,0.642,1.534,0.557,2.396
		c0.2,0.395,0.132,0.822,0.132,1.236c0,11.56,0,23.12,0,34.681c0,0.417,0.051,0.837-0.114,1.241
		c-0.693,0.625-1.563,0.544-2.393,0.544c-26.128,0.013-52.258,0.013-78.387,0.004c-0.718-0.004-1.445,0.017-2.107-0.344
		C150.058,117.941,149.971,117.86,149.884,117.775z"/>
	<path fill-rule="evenodd" clip-rule="evenodd" fill="#D95C58" d="M232.908,117.763c0.013-11.531,0.025-23.062,0.043-34.591
		c0.004-0.837,0.042-1.672,0.063-2.507c0.306,0.429,0.204,0.922,0.204,1.391c0.004,14.375,0.004,28.744,0,43.117
		c0,0.417-0.085,0.829-0.132,1.241c-0.671,0.671-1.542,0.582-2.366,0.582c-26.201,0.017-52.402,0.017-78.604,0.004
		c-0.775,0-1.566,0.017-2.227-0.51c-0.956-0.03-1.91-0.077-2.866-0.077c-26.744-0.008-53.487-0.013-80.23-0.017
		c-0.238-2.876-0.138-5.749-0.028-8.625c27.706,0,55.411,0.004,83.117,0.004l0.017,0.017c0.572,0.637,0.55,1.432,0.567,2.209
		c0.021,1.139-0.017,2.277,0.015,3.416c0.051,1.835,0.227,1.997,2.118,2.061c0.358,0.013,0.72,0.004,1.079,0.004
		c25.171,0,50.342,0.004,75.515,0c3.195,0,3.152-0.004,3.221-3.148C232.445,120.805,232.029,119.203,232.908,117.763z"/>
	<path fill-rule="evenodd" clip-rule="evenodd" fill="#3D474B" d="M108.343,74.666c-0.025,6.944-0.051,13.892-0.075,20.834
		c-0.013,3.45-0.924,4.372-4.351,4.384c-1.498,0.004-2.995,0.013-4.493,0c-2.749-0.025-3.817-1.07-3.824-3.811
		c-0.017-6.348-0.004-12.698-0.009-19.048c-0.002-0.777-0.051-1.555-0.079-2.331c0.032-2.814,0.072-5.627,0.094-8.44
		c0.025-3.065,1.143-4.183,4.25-4.202c1.619-0.009,3.238-0.041,4.854,0.006c2.261,0.066,3.493,1.355,3.527,3.628
		C108.281,68.681,108.309,71.672,108.343,74.666z"/>
	<path fill-rule="evenodd" clip-rule="evenodd" fill="#283339" d="M204.304,74.687c-0.032,6.947-0.064,13.892-0.094,20.839
		c-0.015,3.395-0.979,4.363-4.383,4.376c-1.557,0.008-3.116,0.021-4.674-0.008c-2.451-0.047-3.611-1.19-3.619-3.667
		c-0.025-6.887-0.011-13.777-0.016-20.664c0-0.298-0.04-0.595-0.062-0.893c0.041-2.98,0.081-5.958,0.124-8.937
		c0.033-2.407,1.213-3.635,3.604-3.675c1.851-0.034,3.703-0.036,5.551,0.015c2.169,0.057,3.416,1.321,3.459,3.492
		C204.257,68.604,204.27,71.646,204.304,74.687z"/>
	<path fill-rule="evenodd" clip-rule="evenodd" fill="#ECEEEF" d="M149.891,126.49c2.156-0.021,4.311-0.051,6.467-0.051
		c25.576-0.013,51.153-0.017,76.729-0.025c0.293,0.629,0.166,1.3,0.17,1.95c0.004,33.785,0.004,67.566,0.004,101.353
		c0,5.034-2.728,7.821-7.707,7.826c-24.979,0.008-49.957,0.004-74.935,0.004c-0.359,0-0.716-0.038-1.075-0.056
		c0.441-0.642,0.353-1.372,0.353-2.086C149.895,199.1,149.893,162.795,149.891,126.49z"/>
	<path fill-rule="evenodd" clip-rule="evenodd" fill="#D0D9DE" d="M104.584,216.995c0,2.214-0.036,4.427,0.017,6.641
		c0.023,1.02-0.363,1.351-1.362,1.347c-4.486-0.038-8.973-0.047-13.459,0.004c-1.16,0.013-1.396-0.484-1.387-1.508
		c0.036-4.427,0.042-8.854-0.006-13.277c-0.013-1.108,0.378-1.448,1.459-1.436c4.425,0.042,8.852,0.06,13.279-0.005
		c1.247-0.017,1.51,0.489,1.479,1.598C104.54,212.567,104.584,214.781,104.584,216.995z"/>
	<path fill-rule="evenodd" clip-rule="evenodd" fill="#CFD8DD" d="M132.093,224.966c-2.273,0-4.548-0.025-6.821,0.013
		c-0.905,0.013-1.287-0.289-1.281-1.241c0.032-4.546,0.036-9.096-0.002-13.643c-0.008-1.036,0.397-1.329,1.381-1.325
		c4.487,0.038,8.976,0.034,13.462,0c0.992-0.009,1.381,0.302,1.373,1.33c-0.039,4.55-0.034,9.096-0.002,13.643
		c0.006,0.956-0.389,1.249-1.287,1.231C136.641,224.94,134.368,224.966,132.093,224.966z"/>
	<path fill-rule="evenodd" clip-rule="evenodd" fill="#CFD8DD" d="M132.14,189.361c-2.216,0-4.429-0.034-6.643,0.013
		c-1.018,0.025-1.527-0.208-1.515-1.376c0.055-4.368,0.042-8.74,0.006-13.107c-0.006-0.99,0.302-1.385,1.332-1.377
		c4.548,0.038,9.099,0.034,13.647,0.005c0.956-0.009,1.238,0.387,1.232,1.287c-0.025,4.427-0.036,8.858,0.006,13.285
		c0.011,1.084-0.484,1.301-1.423,1.283C136.569,189.332,134.353,189.361,132.14,189.361z"/>
	<path fill-rule="evenodd" clip-rule="evenodd" fill="#CFD8DD" d="M132.048,137.927c2.215,0,4.429,0.034,6.645-0.017
		c1.011-0.021,1.532,0.2,1.517,1.376c-0.053,4.368-0.042,8.74-0.006,13.107c0.006,0.981-0.289,1.39-1.326,1.381
		c-4.55-0.042-9.099-0.038-13.647-0.004c-0.952,0.004-1.243-0.378-1.238-1.283c0.028-4.427,0.036-8.858-0.004-13.286
		c-0.011-1.083,0.474-1.304,1.417-1.287C127.619,137.957,129.834,137.927,132.048,137.927z"/>
	<path fill-rule="evenodd" clip-rule="evenodd" fill="#CFD8DE" d="M96.313,189.361c-2.213,0-4.429-0.025-6.641,0.013
		c-0.916,0.018-1.281-0.31-1.274-1.249c0.027-4.427,0.032-8.854-0.004-13.281c-0.009-1.036,0.399-1.338,1.383-1.33
		c4.487,0.034,8.973,0.034,13.46,0c0.999-0.008,1.372,0.323,1.364,1.343c-0.038,4.428-0.034,8.854-0.002,13.281
		c0.006,0.956-0.385,1.249-1.286,1.236C100.979,189.336,98.645,189.361,96.313,189.361z"/>
	<path fill-rule="evenodd" clip-rule="evenodd" fill="#D64E4B" d="M232.908,117.763c0.021,2.273-0.017,4.55,0.077,6.819
		c0.051,1.228-0.446,1.559-1.576,1.5c-1.377-0.076-2.754-0.021-4.13-0.021c-25.086,0.004-50.168-0.017-75.252,0.042
		c-1.752,0.004-2.288-0.493-2.165-2.209c0.146-2.022,0.036-4.066,0.038-6.101c26.952,0,53.903-0.004,80.854-0.004
		C231.473,117.789,232.19,117.771,232.908,117.763z"/>
	<path fill-rule="evenodd" clip-rule="evenodd" fill="#CFD8DD" d="M159.609,216.889c0-2.214,0.038-4.427-0.017-6.641
		c-0.026-1.05,0.268-1.504,1.408-1.491c4.488,0.051,8.979,0.047,13.468,0.009c1.03-0.009,1.345,0.387,1.337,1.376
		c-0.036,4.428-0.036,8.858-0.007,13.29c0.009,1.189-0.533,1.551-1.648,1.542c-4.37-0.029-8.739-0.038-13.109,0.009
		c-1.09,0.009-1.482-0.349-1.451-1.449C159.654,221.32,159.609,219.106,159.609,216.889z"/>
	<path fill-rule="evenodd" clip-rule="evenodd" fill="#CFD8DD" d="M203.122,224.961c-2.216,0-4.432-0.025-6.645,0.013
		c-0.912,0.018-1.283-0.302-1.277-1.244c0.03-4.551,0.036-9.101-0.004-13.651c-0.009-1.054,0.432-1.321,1.397-1.313
		c4.43,0.033,8.861,0.029,13.29,0.004c1.054-0.004,1.523,0.408,1.519,1.487c-0.022,4.49-0.025,8.981,0.003,13.473
		c0.006,0.942-0.368,1.257-1.279,1.244C207.791,224.936,205.457,224.961,203.122,224.961z"/>
	<path fill-rule="evenodd" clip-rule="evenodd" fill="#F8971E" d="M175.725,181.629c-0.002,2.154-0.036,4.309,0.015,6.458
		c0.021,0.952-0.188,1.406-1.274,1.397c-4.546-0.051-9.095-0.042-13.641-0.008c-0.911,0.004-1.255-0.26-1.247-1.22
		c0.041-4.546,0.043-9.097-0.002-13.643c-0.011-0.978,0.372-1.206,1.262-1.198c4.549,0.03,9.095,0.038,13.643-0.008
		c1.09-0.013,1.283,0.458,1.262,1.397C175.692,177.079,175.727,179.355,175.725,181.629z"/>
	<path fill-rule="evenodd" clip-rule="evenodd" fill="#CFD8DD" d="M203.165,153.753c-2.154,0-4.309-0.033-6.461,0.018
		c-1.02,0.025-1.527-0.217-1.512-1.381c0.051-4.368,0.04-8.735,0.004-13.103c-0.007-0.986,0.308-1.381,1.336-1.372
		c4.546,0.038,9.093,0.034,13.639,0.004c0.956-0.008,1.238,0.391,1.234,1.288c-0.025,4.427-0.036,8.854,0.004,13.281
		c0.011,1.083-0.49,1.296-1.426,1.279C207.711,153.728,205.438,153.753,203.165,153.753z"/>
	<path fill-rule="evenodd" clip-rule="evenodd" fill="#CFD8DE" d="M167.729,153.753c-2.216,0-4.432-0.033-6.645,0.018
		c-1.041,0.025-1.509-0.255-1.496-1.402c0.051-4.368,0.043-8.739,0.005-13.111c-0.009-1.02,0.367-1.351,1.365-1.342
		c4.43,0.034,8.861,0.034,13.29,0c1.191-0.009,1.56,0.531,1.553,1.644c-0.029,4.249-0.038,8.501,0.009,12.75
		c0.011,1.079-0.323,1.5-1.437,1.466C172.16,153.707,169.944,153.753,167.729,153.753z"/>
	<path fill-rule="evenodd" clip-rule="evenodd" fill="#CFD8DE" d="M203.198,189.357c-2.218,0-4.436-0.034-6.651,0.017
		c-1.015,0.021-1.357-0.361-1.351-1.363c0.036-4.372,0.036-8.748,0-13.12c-0.007-0.994,0.318-1.381,1.343-1.372
		c4.434,0.038,8.869,0.033,13.303,0c1.179-0.009,1.574,0.505,1.565,1.631c-0.034,4.193-0.043,8.392,0.004,12.585
		c0.013,1.283-0.548,1.67-1.742,1.64C207.513,189.323,205.354,189.357,203.198,189.357z"/>
</g>
</svg>
