<?xml version="1.0" encoding="utf-8"?>
<!-- Generator: Adobe Illustrator 16.0.0, SVG Export Plug-In . SVG Version: 6.00 Build 0)  -->
<!DOCTYPE svg PUBLIC "-//W3C//DTD SVG 1.1//EN" "http://www.w3.org/Graphics/SVG/1.1/DTD/svg11.dtd">
<svg version="1.1" id="Layer_1" xmlns="http://www.w3.org/2000/svg" xmlns:xlink="http://www.w3.org/1999/xlink" x="0px" y="0px"
	 width="300px" height="300px" viewBox="0 0 300 300" enable-background="new 0 0 300 300" xml:space="preserve">
<radialGradient id="SVGID_1_" cx="212.042" cy="206.7185" r="150" gradientUnits="userSpaceOnUse">
	<stop  offset="0" style="stop-color:#0BA4D8"/>
	<stop  offset="1" style="stop-color:#007CD7"/>
</radialGradient>
<circle fill="url(#SVGID_1_)" cx="150" cy="150" r="150"/>
<path fill="#FFFFFF" d="M241.531,134.68c8.683,18.516,9.984,37.256,1.209,56.08c-12.196,26.158-40.811,39.614-68.441,32.419
	c-27.123-7.062-46.325-34.345-44.091-62.643c3.053-38.644,35.431-63.135,73.229-55.399c0.926,0.188,1.875,0.251,2.815,0.371
	C221.542,110.967,233.227,120.779,241.531,134.68z"/>
<path fill="#FFFFFF" d="M201.516,86.397c-9.271,7.973-20.851,9.354-32.228,10.842c-26.119,3.415-52.134,3.066-77.856-3.377
	c-4.832-1.21-9.376-3.052-13.413-6.032c-3.711-5.575,0.017-8.285,4.282-10.372c8.797-4.305,18.356-5.91,27.967-7.013
	c25.475-2.924,50.83-2.675,75.896,3.496c3.908,0.962,7.645,2.363,11.126,4.404C200.367,80.148,202.443,82.487,201.516,86.397z"/>
<path fill="#FEFEFE" d="M76.811,100.874c21.765,10.217,45.223,9.728,69.605,10.347c-6.679,6.832-12.229,13.154-16.021,20.774
	c-1.367,2.744-3.989,2.046-6.273,1.997c-16.43-0.352-32.416-2.757-47.217-10.463C76.063,115.98,76.148,108.428,76.811,100.874z"/>
<path fill="#FEFEFF" d="M77.985,168.854c11.549,6.115,24.158,8.13,36.932,8.694c5.982,0.264,9.396,1.354,10.587,8.05
	c0.959,5.398,3.979,10.434,6.339,16.258c-17.837,0.16-34.988-1.482-51.271-8.658c-2.948-1.849-4.893-4.077-4.227-7.985
	C77.265,179.809,74.738,174.044,77.985,168.854z"/>
<path fill="#FEFEFE" d="M78,134.688c12.856,6.664,26.827,8.422,40.984,8.961c4.882,0.187,6.772,1.037,4.956,6.44
	c-1.32,3.929-1.732,8.382-1.518,12.549c0.251,4.924-1.917,5.324-5.855,4.877c-13.358-1.524-26.566-3.521-38.673-9.904
	C75.54,149.956,75.281,142.314,78,134.688z"/>
<path fill="#005C7C" d="M191.104,205.957c-3.571,0.599-5.636-0.231-5.008-3.92c0.766-4.507-1.182-6.408-5.617-6.443
	c-1.615-0.015-3.244-0.586-4.838-1.019c-6.338-1.724-7.979-7.417-3.951-12.729c1.771-2.333,2.94-0.2,4.156,0.206
	c4.736,1.589,9.491,3.128,14.527,2.448c3.27-0.439,6.684-1.223,7.417-5.36c0.708-4.014-1.714-6.21-4.877-7.702
	c-3.827-1.809-7.81-3.289-11.662-5.044c-6.968-3.171-11.755-8.168-11.581-16.24c0.176-8.216,4.739-13.818,12.339-16.384
	c3.736-1.262,4.853-3.199,4.339-6.682c-0.574-3.916,1.373-4.724,4.903-4.718c3.47,0.007,5.558,0.67,4.894,4.645
	c-0.713,4.26,1.676,4.855,5.271,5.292c8.841,1.075,9.244,2.047,7.612,9.084c-0.965,4.159-2.662,4.652-6.324,3.028
	c-3.234-1.433-6.871-1.727-10.436-1.46c-3.133,0.236-6.393,0.789-7.32,4.41c-0.965,3.765,1.811,5.663,4.617,7.045
	c3.799,1.871,7.816,3.291,11.646,5.109c7.333,3.481,12.369,8.644,12.028,17.455c-0.344,8.896-5.178,14.785-13.312,17.196
	c-4.534,1.346-4.716,3.858-4.465,7.289C195.727,205.02,194.811,207.184,191.104,205.957z"/>
<radialGradient id="SVGID_2_" cx="-84.3149" cy="100.8738" r="44.3711" gradientUnits="userSpaceOnUse">
	<stop  offset="0" style="stop-color:#0B98D8"/>
	<stop  offset="1" style="stop-color:#0093D7"/>
</radialGradient>
<rect x="-132.664" y="60.874" fill="url(#SVGID_2_)" width="96.697" height="80"/>
</svg>
