<?xml version="1.0" encoding="utf-8"?>
<!-- Generator: Adobe Illustrator 16.0.0, SVG Export Plug-In . SVG Version: 6.00 Build 0)  -->
<!DOCTYPE svg PUBLIC "-//W3C//DTD SVG 1.1//EN" "http://www.w3.org/Graphics/SVG/1.1/DTD/svg11.dtd">
<svg version="1.1" id="Layer_1" xmlns="http://www.w3.org/2000/svg" xmlns:xlink="http://www.w3.org/1999/xlink" x="0px" y="0px"
	 width="300px" height="100px" viewBox="0 0 300 100" enable-background="new 0 0 300 100" xml:space="preserve">
<g>
	<path fill-rule="evenodd" clip-rule="evenodd" fill="#FFFFFF" d="M42.498,43.557c3.171,0,6.344,0.047,9.514-0.023
		c1.414-0.03,2.161,0.215,2.133,1.911c-0.092,5.747-0.072,11.497-0.002,17.244c0.016,1.284-0.524,2.01-1.516,2.63
		c-11.517,7.204-23.701,8.728-36.267,3.449C7.5,65.047,2.451,57.985,2.027,48.277C1.625,39.081,5.72,31.778,13.605,27.25
		c12.049-6.919,24.344-6.435,36.454,0.263c1.63,0.902,2.278,1.842,0.467,3.198c-0.079,0.059-0.136,0.145-0.205,0.216
		c-1.712,1.79-3.126,4.217-5.219,5.197c-2.245,1.05-4.013-1.83-6.209-2.555c-5.153-1.701-10.276-2.252-15.37-0.005
		c-6.066,2.677-9.659,8.841-8.925,15.045c0.813,6.867,5.632,12.073,12.458,13.309c4.684,0.848,9.239,0.396,13.661-1.511
		c3.358-1.449,1.675-4.289,1.791-6.488c0.122-2.304-2.024-1.209-3.181-1.323c-1.766-0.178-3.563-0.048-5.347-0.048
		c-0.397,0-0.803-0.055-1.188,0.01c-2.77,0.464-2.829-1.587-2.286-3.076c0.719-1.971-2.571-5.61,2.181-5.889
		C35.948,43.402,39.228,43.557,42.498,43.557z"/>
	<path fill-rule="evenodd" clip-rule="evenodd" fill="#FFFFFF" d="M189.685,48.533c-2.572,6.513-5.229,12.995-7.672,19.557
		c-0.83,2.228-1.811,3.434-4.439,3.16c-2.504-0.26-4.76,0.329-5.99-3.141c-3.631-10.261-7.723-20.362-11.723-30.492
		c-0.711-1.8-0.578-2.363,1.547-2.389c6.996-0.087,6.99-0.164,9.336,6.506c2.002,5.689,4.014,11.375,6.109,17.309
		c1.338-1.377,1.576-2.971,2.119-4.381c2.213-5.729,4.434-11.456,6.473-17.247c0.643-1.825,1.568-2.559,3.441-2.297
		c0.777,0.108,1.596,0.104,2.375,0c1.963-0.259,2.955,0.417,3.65,2.428c2.137,6.172,4.561,12.246,6.885,18.353
		c0.346,0.91,0.754,1.798,1.201,2.861c1.246-0.687,1.234-1.866,1.564-2.787c2.17-6.057,4.375-12.105,6.375-18.218
		c0.633-1.933,1.512-2.57,3.559-2.538c6.592,0.106,6.613,0.019,4.215,6.227c-3.533,9.144-7.152,18.255-10.607,27.43
		c-0.676,1.797-1.588,2.374-3.461,2.353c-5.225-0.058-5.242,0.033-7.152-4.749c-2.379-5.962-4.727-11.935-7.086-17.904
		C190.165,48.563,189.923,48.547,189.685,48.533z"/>
	<path fill-rule="evenodd" clip-rule="evenodd" fill="#FFFFFF" d="M245.04,23.346c4.629,0,8.57,0.059,12.508-0.031
		c1.488-0.034,2.068,0.905,2.738,1.891c3.336,4.913,6.785,9.753,9.971,14.762c1.545,2.432,2.328,2.018,3.719-0.091
		c3.268-4.957,6.791-9.745,10.1-14.677c0.939-1.4,1.973-1.949,3.648-1.892c3.529,0.12,7.064,0.036,11.189,0.036
		c-1.277,1.775-2.223,3.106-3.186,4.423c-5.434,7.432-10.85,14.877-16.334,22.273c-0.994,1.341-1.467,2.674-1.434,4.358
		c0.092,4.853-0.018,9.707,0.059,14.559c0.025,1.521-0.41,2.107-1.998,2.04c-2.668-0.114-5.35-0.106-8.02-0.003
		c-1.563,0.061-2.051-0.483-2.025-2.036c0.084-4.852-0.021-9.706,0.059-14.558c0.027-1.579-0.422-2.825-1.35-4.087
		C258.247,41.551,251.872,32.742,245.04,23.346z"/>
	<path fill-rule="evenodd" clip-rule="evenodd" fill="#FFFFFF" d="M59.458,52.955c0-5.155,0.055-10.312-0.032-15.465
		c-0.028-1.654,0.454-2.259,2.171-2.245c8.823,0.067,17.647,0.055,26.47,0.006c1.489-0.008,2.059,0.403,2.126,1.996
		c0.208,4.94,0.281,4.938-4.556,4.938c-4.858,0-9.719,0.116-14.571-0.051c-2.268-0.079-2.884,0.659-2.794,2.857
		c0.222,5.396-0.626,4.524,4.563,4.586c4.063,0.049,8.139,0.181,12.191-0.045c3.316-0.181,2.363,2.038,2.461,3.723
		c0.105,1.822,0.36,3.506-2.577,3.345c-4.646-0.257-9.319,0.03-13.974-0.112c-2.086-0.064-2.741,0.576-2.661,2.67
		c0.218,5.727-0.735,4.83,4.877,4.892c4.956,0.054,9.915,0.087,14.87-0.026c1.929-0.045,2.758,0.521,2.482,2.511
		c-0.121,0.875-0.07,1.785-0.011,2.672c0.081,1.202-0.258,1.789-1.625,1.783c-9.22-0.045-18.441-0.063-27.661,0.009
		c-1.856,0.015-1.765-1.023-1.76-2.279C59.471,63.464,59.458,58.21,59.458,52.955z"/>
	<path fill-rule="evenodd" clip-rule="evenodd" fill="#FFFFFF" d="M108.995,35.274c4.555,0,9.121,0.194,13.661-0.069
		c2.878-0.167,3.702,0.903,3.305,3.504c-0.074,0.484-0.059,0.994-0.003,1.483c0.188,1.635-0.417,2.321-2.152,2.24
		c-2.568-0.121-5.155,0.095-7.719-0.07c-2.076-0.133-2.718,0.559-2.688,2.649c0.111,7.722-0.032,15.448,0.094,23.17
		c0.035,2.158-0.457,2.892-2.759,2.848c-6.183-0.114-6.186,0.006-6.186-6.17c0-6.237,0.001-12.476,0-18.715
		c0-3.741-0.002-3.741-3.885-3.742c-2.079-0.001-4.164-0.096-6.236,0.029c-1.729,0.105-2.431-0.325-2.434-2.255
		c-0.006-4.901-0.113-4.901,4.824-4.901C100.875,35.274,104.935,35.274,108.995,35.274z"/>
	<path fill-rule="evenodd" clip-rule="evenodd" fill="#FFFFFF" d="M117.371,17.841c0.278-2.14-1.186-5.644,0.623-7.171
		c1.531-1.294,4.908-0.413,7.468-0.475c1.088-0.027,2.19-0.11,3.261,0.025c1.075,0.137,2.778-0.816,2.857,1.428
		c0.078,2.237-1.593,1.541-2.72,1.592c-1.876,0.085-3.761,0.087-5.637,0.006c-1.496-0.065-1.817,0.653-1.824,1.98
		c-0.008,1.368,0.645,1.696,1.826,1.659c1.285-0.041,2.602-0.178,3.849,0.043c1.206,0.214,3.349-1.151,3.389,1.457
		c0.043,2.855-2.268,1.332-3.523,1.582c-1.236,0.247-2.563,0.097-3.847,0.047c-1.32-0.052-1.668,0.602-1.69,1.816
		c-0.022,1.271,0.445,1.801,1.712,1.78c2.175-0.035,4.352-0.004,6.528-0.001c1.116,0.001,2.197-0.085,2.247,1.581
		c0.049,1.614-0.865,1.709-2.08,1.698c-3.462-0.033-6.927-0.069-10.387,0.014c-1.537,0.038-2.134-0.494-2.073-2.042
		C117.435,22.687,117.371,20.508,117.371,17.841z"/>
	<path fill-rule="evenodd" clip-rule="evenodd" fill="#FFFFFF" d="M141.706,10.122c2.058-0.129,3.73,0.097,5.254,0.864
		c0.648,0.326,2.062,0.457,1.304,1.73c-0.545,0.917-1.094,2.24-2.739,1.335c-1.401-0.771-2.962-1.118-4.585-0.835
		c-0.823,0.143-1.585,0.521-1.621,1.448c-0.03,0.778,0.624,1.221,1.304,1.438c1.879,0.6,3.797,1.084,5.658,1.729
		c1.923,0.666,3.154,1.864,3.132,4.14c-0.022,2.21-1.159,3.57-3.025,4.301c-3.417,1.341-6.8,0.868-10.026-0.707
		c-0.625-0.305-2.039-0.565-1.163-1.79c0.618-0.863,1.255-2.15,2.835-1.16c1.528,0.958,3.241,1.469,5.083,1.285
		c1.014-0.102,2.071-0.337,2.193-1.558c0.111-1.108-0.892-1.487-1.716-1.757c-1.404-0.459-2.859-0.756-4.285-1.154
		c-2.527-0.706-4.312-2.024-3.983-5.005c0.265-2.399,2.283-4.054,5.25-4.298C141.065,10.087,141.563,10.122,141.706,10.122z"/>
	<path fill-rule="evenodd" clip-rule="evenodd" fill="#FFFFFF" d="M202.825,10.199c2.074-0.001,4.148,0.024,6.223-0.011
		c1.123-0.019,1.58,0.446,1.574,1.582c-0.006,1.083-0.367,1.531-1.508,1.682c-4.232,0.559-4.227,0.606-4.227,4.896
		c0,2.172-0.068,4.348,0.018,6.518c0.063,1.539-0.504,2.075-2.057,2.051c-1.453-0.022-2.189-0.347-2.141-1.975
		c0.086-2.96-0.096-5.931,0.059-8.886c0.111-2.112-0.678-2.829-2.715-2.661c-0.924,0.076-2.268,0.499-2.727-0.494
		c-0.484-1.046-0.906-2.668,1.277-2.696C198.677,10.178,200.751,10.199,202.825,10.199z"/>
	<path fill-rule="evenodd" clip-rule="evenodd" fill="#FFFFFF" d="M258.022,68.426c-4.729-9.479-9.615-18.896-13.859-28.592
		c-1.793-4.093-4.074-5.429-8.254-4.962c-1.803,0.201-2.857,0.629-3.604,2.33c-1.432,3.261-3.08,6.426-4.643,9.629
		c-3.852,7.894-7.705,15.785-11.729,24.029c0.975,0.058,1.375,0.042,1.758,0.11c5.08,0.903,8.844-0.365,10.053-5.986
		c0.393-1.825,1.719-2.089,3.381-2.053c4.162,0.087,8.332,0.141,12.488-0.02c2.021-0.079,3.258,0.568,3.732,2.485
		c1.164,4.691,4.039,6.612,8.809,5.572c0.094-0.021,0.199-0.015,0.297-0.001C258.892,71.298,259.034,70.45,258.022,68.426z
		 M232.011,55.845c1.746-3.738,3.402-7.286,5.412-11.587c1.957,4.145,3.639,7.699,5.475,11.587
		C239.146,55.845,235.776,55.845,232.011,55.845z"/>
	<path fill-rule="evenodd" clip-rule="evenodd" fill="#FFFFFF" d="M162.851,67.661c-4.51-9.24-9.268-18.37-13.438-27.761
		c-1.766-3.975-3.955-5.605-8.232-5.029c-1.754,0.236-2.83,0.586-3.635,2.274c-3.916,8.208-7.973,16.349-11.958,24.525
		c-1.454,2.983-2.845,5.998-4.352,9.182c0.951,0.051,1.547,0.016,2.116,0.126c4.964,0.96,8.333-0.622,9.524-5.838
		c0.389-1.702,1.519-2.261,3.278-2.216c4.352,0.111,8.71,0.073,13.064,0.016c1.409-0.019,2.634,0.153,2.977,1.729
		c1.266,5.823,5.145,7.227,10.457,6.305c0.385-0.068,0.787-0.051,1.654-0.097C163.731,69.599,163.317,68.615,162.851,67.661z
		 M137.188,55.943c1.8-3.863,3.476-7.461,5.45-11.703c1.986,4.251,3.663,7.844,5.467,11.703
		C144.327,55.943,140.999,55.943,137.188,55.943z"/>
	<path fill-rule="evenodd" clip-rule="evenodd" fill="#FFFFFF" d="M110.291,22.126c-0.514-0.662-1-1.208,0.195-1.806
		c2.563-1.285,3.501-3.456,2.713-6.188c-0.855-2.965-3.351-3.71-6.028-3.874c-2.367-0.144-4.758,0.071-7.121-0.103
		c-2.049-0.151-2.516,0.712-2.461,2.571c0.11,3.758,0.033,7.521,0.033,11.282c0,1.463-0.351,2.914,2.088,2.939
		c2.529,0.026,1.908-1.54,2.046-2.926c0.086-0.864-0.608-2.193,0.903-2.417c1.129-0.167,2.402-0.369,3.224,0.88
		c0.38,0.577,0.904,1.066,1.233,1.667c1.387,2.528,3.453,3.319,6.615,2.388C112.457,24.906,111.373,23.516,110.291,22.126z
		 M105.544,18.374c-0.295,0.018-0.592,0.002-1.131,0.002c-1.745,0.28-2.767-0.143-2.792-2.591c-0.026-2.551,1.186-2.74,3.073-2.543
		c0.294,0.031,0.595,0.005,0.886,0.048c1.666,0.246,3.693,0.311,3.661,2.584C109.206,18.104,107.28,18.27,105.544,18.374z"/>
	<path fill-rule="evenodd" clip-rule="evenodd" fill="#FFFFFF" d="M189.343,22.239c-0.609-0.773-1.002-1.36,0.293-2.011
		c2.465-1.237,3.191-3.427,2.572-6.004c-0.662-2.748-2.93-3.685-5.359-3.903c-2.846-0.255-5.727-0.064-8.592-0.137
		c-1.363-0.034-1.641,0.667-1.631,1.836c0.031,4.348,0.031,8.696-0.002,13.044c-0.008,1.176,0.299,1.765,1.646,1.85
		c1.889,0.119,2.721-0.413,2.563-2.446c-0.072-0.934-0.691-2.379,0.713-2.814c1.486-0.461,2.945-0.155,3.801,1.438
		c0.184,0.343,0.531,0.6,0.713,0.944c1.328,2.523,3.346,3.457,6.67,2.523C191.495,24.982,190.421,23.608,189.343,22.239z
		 M183.636,18.363c-2.166,0.383-3.012-0.353-2.941-2.655c0.059-1.898,0.531-2.766,2.494-2.461c2.004,0.31,4.938-0.474,4.941,2.702
		C188.132,18.737,185.474,18.194,183.636,18.363z"/>
	<path fill-rule="evenodd" clip-rule="evenodd" fill="#FFFFFF" d="M165.704,10.421c-2.326-0.661-4.703-0.65-7.027-0.017
		c-3.863,1.054-6.473,4.216-6.604,7.849c-0.133,3.707,2.168,6.738,6.109,8.195c1.246,0.461,2.51,0.498,3.791,0.557
		c5.49,0.056,9.521-2.916,10.217-7.536C172.786,15.508,170.056,11.657,165.704,10.421z M162.128,23.852
		c-3.291-0.029-5.758-2.396-5.715-5.481c0.043-2.977,2.428-5.161,5.658-5.18c3.271-0.019,5.977,2.359,6.021,5.301
		C168.138,21.359,165.333,23.88,162.128,23.852z"/>
</g>
<g>
	<path fill="#FFFFFF" d="M65.769,82.216c0.616-0.106,1.588-0.187,2.577-0.187c1.41,0,2.317,0.2,2.998,0.652
		c0.567,0.347,0.907,0.88,0.907,1.586c0,0.865-0.697,1.625-1.847,1.971v0.027c1.037,0.213,2.252,0.919,2.252,2.251
		c0,0.772-0.373,1.358-0.924,1.798c-0.762,0.573-1.993,0.84-3.775,0.84c-0.973,0-1.718-0.054-2.188-0.106V82.216z M67.179,85.893
		h1.28c1.491,0,2.366-0.64,2.366-1.506c0-1.052-0.972-1.465-2.398-1.465c-0.648,0-1.021,0.04-1.248,0.08V85.893z M67.179,90.195
		c0.275,0.04,0.68,0.053,1.183,0.053c1.458,0,2.804-0.439,2.804-1.745c0-1.226-1.28-1.731-2.82-1.731h-1.167V90.195z"/>
	<path fill="#FFFFFF" d="M74.505,86.639c0-0.76-0.017-1.412-0.065-2.012h1.248l0.049,1.266h0.065
		c0.356-0.866,1.215-1.412,2.171-1.412c0.162,0,0.275,0.014,0.405,0.04v1.105c-0.146-0.026-0.292-0.04-0.486-0.04
		c-1.005,0-1.718,0.626-1.912,1.505c-0.033,0.16-0.065,0.347-0.065,0.547v3.437h-1.41V86.639z"/>
	<path fill="#FFFFFF" d="M86.369,89.315c0,0.666,0.016,1.253,0.064,1.759h-1.264l-0.081-1.053h-0.033
		c-0.373,0.52-1.199,1.199-2.593,1.199c-1.231,0-2.706-0.56-2.706-2.824v-3.77h1.426v3.57c0,1.226,0.454,2.051,1.75,2.051
		c0.956,0,1.621-0.546,1.88-1.065c0.081-0.173,0.129-0.387,0.129-0.6v-3.956h1.426V89.315z"/>
	<path fill="#FFFFFF" d="M88.542,89.875c0.421,0.227,1.167,0.467,1.88,0.467c1.037,0,1.523-0.427,1.523-0.959
		c0-0.56-0.405-0.866-1.458-1.186c-1.41-0.413-2.074-1.053-2.074-1.825c0-1.039,1.021-1.892,2.706-1.892
		c0.794,0,1.491,0.187,1.929,0.399l-0.357,0.853c-0.308-0.16-0.875-0.373-1.604-0.373c-0.843,0-1.313,0.399-1.313,0.879
		c0,0.533,0.47,0.773,1.491,1.093c1.361,0.426,2.058,0.985,2.058,1.945c0,1.132-1.07,1.931-2.933,1.931
		c-0.859,0-1.653-0.173-2.204-0.439L88.542,89.875z"/>
	<path fill="#FFFFFF" d="M100.745,90.834c-0.373,0.16-1.199,0.373-2.252,0.373c-2.366,0-3.905-1.318-3.905-3.29
		c0-1.984,1.653-3.423,4.213-3.423c0.843,0,1.588,0.173,1.977,0.333l-0.324,0.905c-0.34-0.16-0.875-0.307-1.653-0.307
		c-1.799,0-2.771,1.093-2.771,2.438c0,1.491,1.167,2.411,2.722,2.411c0.811,0,1.345-0.174,1.75-0.32L100.745,90.834z"/>
	<path fill="#FFFFFF" d="M106.759,91.074l-0.113-0.813h-0.049c-0.438,0.506-1.28,0.959-2.398,0.959
		c-1.588,0-2.398-0.919-2.398-1.852c0-1.559,1.685-2.411,4.715-2.397v-0.134c0-0.532-0.178-1.491-1.783-1.491
		c-0.729,0-1.491,0.187-2.042,0.479l-0.324-0.773c0.648-0.346,1.588-0.572,2.577-0.572c2.398,0,2.981,1.346,2.981,2.638v2.411
		c0,0.56,0.033,1.105,0.13,1.545H106.759z M106.548,87.784c-1.556-0.027-3.322,0.199-3.322,1.452c0,0.759,0.616,1.118,1.345,1.118
		c1.021,0,1.669-0.532,1.896-1.078c0.048-0.12,0.081-0.254,0.081-0.373V87.784z"/>
	<path fill="#FFFFFF" d="M114.961,81.084v13.32h-1.086v-13.32H114.961z"/>
	<path fill="#FFFFFF" d="M121.022,82.216c0.713-0.12,1.734-0.187,2.707-0.187c1.507,0,2.479,0.227,3.16,0.732
		c0.551,0.399,0.859,1.013,0.859,1.705c0,1.186-0.907,1.972-2.058,2.291v0.04c0.843,0.24,1.345,0.88,1.604,1.812
		c0.356,1.253,0.616,2.118,0.843,2.465h-1.458c-0.178-0.253-0.421-1.025-0.729-2.145c-0.324-1.239-0.907-1.705-2.188-1.745h-1.329
		v3.89h-1.41V82.216z M122.433,86.306h1.442c1.507,0,2.463-0.68,2.463-1.705c0-1.159-1.021-1.665-2.512-1.679
		c-0.681,0-1.167,0.053-1.394,0.106V86.306z"/>
	<path fill="#FFFFFF" d="M130.553,88.063c0.032,1.585,1.264,2.238,2.69,2.238c1.021,0,1.636-0.146,2.171-0.333l0.243,0.839
		c-0.502,0.187-1.361,0.399-2.609,0.399c-2.414,0-3.856-1.305-3.856-3.25c0-1.944,1.394-3.477,3.679-3.477
		c2.561,0,3.241,1.852,3.241,3.037c0,0.239-0.033,0.426-0.049,0.546H130.553z M134.734,87.225c0.017-0.746-0.373-1.905-1.977-1.905
		c-1.442,0-2.074,1.093-2.188,1.905H134.734z"/>
	<path fill="#FFFFFF" d="M137.684,89.875c0.422,0.227,1.167,0.467,1.88,0.467c1.037,0,1.523-0.427,1.523-0.959
		c0-0.56-0.405-0.866-1.459-1.186c-1.409-0.413-2.074-1.053-2.074-1.825c0-1.039,1.021-1.892,2.707-1.892
		c0.794,0,1.49,0.187,1.928,0.399l-0.356,0.853c-0.308-0.16-0.875-0.373-1.604-0.373c-0.842,0-1.313,0.399-1.313,0.879
		c0,0.533,0.471,0.773,1.491,1.093c1.361,0.426,2.058,0.985,2.058,1.945c0,1.132-1.069,1.931-2.933,1.931
		c-0.859,0-1.653-0.173-2.204-0.439L137.684,89.875z"/>
	<path fill="#FFFFFF" d="M145.091,88.063c0.033,1.585,1.265,2.238,2.69,2.238c1.021,0,1.637-0.146,2.172-0.333l0.242,0.839
		c-0.502,0.187-1.36,0.399-2.608,0.399c-2.415,0-3.856-1.305-3.856-3.25c0-1.944,1.394-3.477,3.678-3.477
		c2.561,0,3.241,1.852,3.241,3.037c0,0.239-0.032,0.426-0.049,0.546H145.091z M149.273,87.225c0.016-0.746-0.373-1.905-1.978-1.905
		c-1.442,0-2.074,1.093-2.188,1.905H149.273z"/>
	<path fill="#FFFFFF" d="M152.418,86.639c0-0.76-0.016-1.412-0.064-2.012h1.248l0.047,1.266h0.066
		c0.355-0.866,1.215-1.412,2.17-1.412c0.162,0,0.277,0.014,0.406,0.04v1.105c-0.146-0.026-0.291-0.04-0.486-0.04
		c-1.004,0-1.717,0.626-1.912,1.505c-0.033,0.16-0.064,0.347-0.064,0.547v3.437h-1.41V86.639z"/>
	<path fill="#FFFFFF" d="M158.674,84.627l1.539,3.623c0.26,0.586,0.471,1.119,0.633,1.652h0.049
		c0.178-0.533,0.404-1.066,0.664-1.652l1.523-3.623h1.49l-3.078,6.447h-1.361l-2.982-6.447H158.674z"/>
	<path fill="#FFFFFF" d="M170.197,91.074l-0.113-0.813h-0.049c-0.438,0.506-1.279,0.959-2.398,0.959
		c-1.588,0-2.398-0.919-2.398-1.852c0-1.559,1.686-2.411,4.717-2.397v-0.134c0-0.532-0.18-1.491-1.783-1.491
		c-0.729,0-1.49,0.187-2.043,0.479l-0.322-0.773c0.646-0.346,1.588-0.572,2.576-0.572c2.398,0,2.98,1.346,2.98,2.638v2.411
		c0,0.56,0.033,1.105,0.131,1.545H170.197z M169.986,87.784c-1.555-0.027-3.322,0.199-3.322,1.452c0,0.759,0.617,1.118,1.346,1.118
		c1.021,0,1.668-0.532,1.896-1.078c0.049-0.12,0.08-0.254,0.08-0.373V87.784z"/>
	<path fill="#FFFFFF" d="M178.398,81.084v13.32h-1.086v-13.32H178.398z"/>
	<path fill="#FFFFFF" d="M184.461,82.216c0.859-0.106,1.881-0.187,2.998-0.187c2.025,0,3.469,0.387,4.424,1.119
		c0.973,0.732,1.539,1.771,1.539,3.224c0,1.465-0.551,2.664-1.57,3.49c-1.021,0.839-2.707,1.292-4.83,1.292
		c-1.004,0-1.848-0.04-2.561-0.106V82.216z M185.871,90.155c0.357,0.053,0.875,0.066,1.426,0.066c3.014,0,4.65-1.386,4.65-3.81
		c0.018-2.118-1.441-3.464-4.424-3.464c-0.729,0-1.279,0.054-1.652,0.12V90.155z"/>
	<path fill="#FFFFFF" d="M196.795,82.815c0.016,0.399-0.34,0.719-0.908,0.719c-0.502,0-0.857-0.319-0.857-0.719
		c0-0.413,0.371-0.732,0.891-0.732C196.455,82.083,196.795,82.402,196.795,82.815z M195.207,91.074v-6.447h1.426v6.447H195.207z"/>
	<path fill="#FFFFFF" d="M198.805,89.875c0.422,0.227,1.168,0.467,1.881,0.467c1.037,0,1.523-0.427,1.523-0.959
		c0-0.56-0.406-0.866-1.459-1.186c-1.41-0.413-2.074-1.053-2.074-1.825c0-1.039,1.021-1.892,2.707-1.892
		c0.793,0,1.49,0.187,1.928,0.399l-0.357,0.853c-0.307-0.16-0.875-0.373-1.604-0.373c-0.842,0-1.313,0.399-1.313,0.879
		c0,0.533,0.471,0.773,1.49,1.093c1.361,0.426,2.059,0.985,2.059,1.945c0,1.132-1.07,1.931-2.934,1.931
		c-0.859,0-1.652-0.173-2.203-0.439L198.805,89.875z"/>
	<path fill="#FFFFFF" d="M205.564,91.074V85.52h-1.104v-0.893h1.104V84.32c0-0.905,0.242-1.731,0.906-2.251
		c0.535-0.427,1.248-0.6,1.912-0.6c0.502,0,0.939,0.094,1.217,0.187l-0.195,0.906c-0.211-0.08-0.502-0.146-0.908-0.146
		c-1.215,0-1.523,0.879-1.523,1.864v0.347h1.896v0.893h-1.896v5.555H205.564z"/>
	<path fill="#FFFFFF" d="M210.15,86.639c0-0.76-0.016-1.412-0.064-2.012h1.248l0.049,1.266h0.064
		c0.357-0.866,1.215-1.412,2.172-1.412c0.162,0,0.275,0.014,0.404,0.04v1.105c-0.145-0.026-0.291-0.04-0.486-0.04
		c-1.004,0-1.717,0.626-1.912,1.505c-0.031,0.16-0.064,0.347-0.064,0.547v3.437h-1.41V86.639z"/>
	<path fill="#FFFFFF" d="M222.014,89.315c0,0.666,0.016,1.253,0.064,1.759h-1.264l-0.08-1.053h-0.033
		c-0.373,0.52-1.199,1.199-2.592,1.199c-1.232,0-2.707-0.56-2.707-2.824v-3.77h1.426v3.57c0,1.226,0.453,2.051,1.75,2.051
		c0.957,0,1.621-0.546,1.881-1.065c0.08-0.173,0.129-0.387,0.129-0.6v-3.956h1.426V89.315z"/>
	<path fill="#FFFFFF" d="M226.1,82.775v1.852h2.041v0.893H226.1v3.477c0,0.799,0.275,1.252,1.068,1.252
		c0.373,0,0.648-0.04,0.828-0.08l0.064,0.88c-0.275,0.093-0.713,0.159-1.264,0.159c-0.666,0-1.199-0.173-1.541-0.492
		c-0.404-0.347-0.551-0.92-0.551-1.679V85.52h-1.215v-0.893h1.215v-1.545L226.1,82.775z"/>
	<path fill="#FFFFFF" d="M234.09,91.074l-0.113-0.813h-0.049c-0.438,0.506-1.279,0.959-2.398,0.959
		c-1.588,0-2.398-0.919-2.398-1.852c0-1.559,1.686-2.411,4.717-2.397v-0.134c0-0.532-0.18-1.491-1.783-1.491
		c-0.729,0-1.49,0.187-2.043,0.479l-0.322-0.773c0.646-0.346,1.588-0.572,2.576-0.572c2.398,0,2.98,1.346,2.98,2.638v2.411
		c0,0.56,0.033,1.105,0.131,1.545H234.09z M233.879,87.784c-1.555-0.027-3.322,0.199-3.322,1.452c0,0.759,0.617,1.118,1.346,1.118
		c1.021,0,1.668-0.532,1.896-1.078c0.049-0.12,0.08-0.254,0.08-0.373V87.784z"/>
</g>
</svg>
