<?xml version="1.0" encoding="utf-8"?>
<!-- Generator: Adobe Illustrator 16.0.0, SVG Export Plug-In . SVG Version: 6.00 Build 0)  -->
<!DOCTYPE svg PUBLIC "-//W3C//DTD SVG 1.1//EN" "http://www.w3.org/Graphics/SVG/1.1/DTD/svg11.dtd">
<svg version="1.1" id="Layer_1" xmlns="http://www.w3.org/2000/svg" xmlns:xlink="http://www.w3.org/1999/xlink" x="0px" y="0px"
	 width="300px" height="300px" viewBox="0 0 300 300" enable-background="new 0 0 300 300" xml:space="preserve">
<path fill="#662D91" d="M300,150c0,82.84-67.16,150-150,150c-1.31,0-2.61-0.02-3.91-0.05l-80.96-81.57l171.351-137l63.439,63.92
	C299.98,146.86,300,148.43,300,150z"/>
<path fill="#8156A3" d="M236.48,81.38l-171.351,137l80.96,81.57C65.06,297.88,0,231.53,0,150C0,67.16,67.16,0,150,0
	c81.27,0,147.44,64.63,149.92,145.3L236.48,81.38z"/>
<g>
	<path fill-rule="evenodd" clip-rule="evenodd" fill="#6C2874" d="M247.041,138.744c-0.175,3.191-1.848,5.118-4.708,6.369
		c-7.126,3.118-9.78,11.271-5.832,17.76c2.037,3.344,5.05,5.317,8.965,5.812c5.133,0.649,6.679,2.193,7.404,7.396
		c0.295,2.12,0.648,4.232,0.96,6.349c0.681,4.627-1.267,7.442-5.863,8.185c-8.889,1.435-17.796,2.766-26.692,4.154
		c-24.284,3.789-48.565,7.593-72.852,11.375c-22.315,3.475-44.635,6.928-66.954,10.393c-4.157,0.646-8.315,1.286-12.467,1.959
		c-4.192,0.682-7.284-1.456-7.998-5.638c-0.421-2.473-0.72-4.967-1.124-7.444c-0.695-4.264,0.496-6.523,4.422-8.274
		c7.565-3.375,9.999-12.377,5.073-18.886c-2.158-2.852-5.051-4.466-8.628-4.824c-4.396-0.441-6.31-2.285-6.911-6.635
		c-0.182-1.318-0.379-2.631-0.585-3.944c-0.62-3.949,0.636-6.239,4.351-7.908c5.975-2.686,8.904-8.59,7.29-14.689
		c-1.25-4.727-5.364-8.33-10.211-8.943c-5.323-0.675-6.774-2.132-7.533-7.511c-0.308-2.193-0.663-4.379-0.997-6.569
		c-0.619-4.062,1.332-7.032,5.376-7.713c8.077-1.361,16.18-2.57,24.273-3.835c21.513-3.361,43.025-6.726,64.542-10.074
		c23.264-3.62,46.532-7.219,69.798-10.833c6.93-1.076,13.86-2.148,20.784-3.261c4.438-0.713,7.465,1.458,8.156,5.946
		c0.359,2.334,0.677,4.675,1.05,7.007c0.714,4.438-0.426,6.587-4.508,8.426c-8.272,3.728-10.116,14.245-3.56,20.404
		c2.055,1.932,4.504,3.016,7.335,3.276c4.219,0.386,6.19,2.318,6.788,6.513C246.458,134.984,246.759,136.88,247.041,138.744z"/>
	<path fill-rule="evenodd" clip-rule="evenodd" fill="#963F98" d="M65.006,203.908c-0.267-1.547,1.07-1.688,1.998-2.167
		c6.802-3.499,10.329-9.07,10.26-16.712c-0.077-8.479-7.38-16.177-15.813-16.838c-1.522-0.12-1.967-0.785-2.404-2.242
		c-1.132-3.784-0.074-5.744,3.503-7.82c6.834-3.962,8.866-10.729,7.954-16.983c-1.148-7.876-6.717-13.542-13.986-14.997
		c-0.572-0.115-1.177-0.126-1.764-0.101c-1.393,0.062-2.037-0.727-2.228-1.958c-0.395-2.539-0.675-5.096-1.122-7.624
		c-0.239-1.349,0.502-1.755,1.526-1.912c10.878-1.658,21.766-3.252,32.638-4.944c9.784-1.52,19.547-3.177,29.33-4.705
		c9.132-1.427,18.284-2.733,27.418-4.149c7.974-1.234,15.931-2.574,23.902-3.817c8.118-1.266,16.249-2.45,24.368-3.709
		c8.772-1.362,17.537-2.762,26.304-4.159c4.998-0.796,9.99-1.627,14.989-2.422c1.13-0.181,1.778,0.226,1.948,1.491
		c0.33,2.469,0.735,4.933,1.242,7.372c0.354,1.713-0.771,2.127-1.933,2.704c-6.677,3.321-10.269,8.733-10.365,16.187
		c-0.116,8.895,7.053,16.622,15.915,17.398c1.417,0.124,2.168,0.659,2.237,2.146c0.05,1.093,0.086,2.258,0.481,3.25
		c0.783,1.958-0.313,2.553-1.787,3.274c-10.888,5.323-13.702,18.953-5.656,27.937c2.912,3.251,6.674,5.338,11.202,5.51
		c1.472,0.055,2.165,0.731,2.361,2.081c0.358,2.469,0.606,4.959,1.081,7.405c0.257,1.322-0.345,1.847-1.39,2.007
		c-8.051,1.231-16.11,2.391-24.16,3.622c-7.687,1.176-15.362,2.424-23.046,3.618c-8.482,1.319-16.969,2.597-25.449,3.923
		c-7.683,1.2-15.358,2.45-23.04,3.662c-7.243,1.145-14.493,2.257-21.737,3.403c-9.056,1.433-18.104,2.92-27.166,4.321
		c-9.135,1.413-18.285,2.739-27.423,4.13c-2.247,0.343-4.477,0.796-6.716,1.192c-0.911,0.161-1.944,0.27-2.159-0.896
		C65.804,209.575,65.435,206.736,65.006,203.908z"/>
	<path fill-rule="evenodd" clip-rule="evenodd" fill="#6C2874" d="M82.957,141.877c-0.227-3.23,1.112-5.406,4.164-6.54
		c5.052-1.877,6.944-5.812,7.03-10.902c0.055-3.256,2.094-5.742,5.429-6.263c9.058-1.419,18.136-2.717,27.198-4.113
		c7.103-1.094,14.191-2.288,21.293-3.393c8.988-1.398,17.982-2.75,26.973-4.128c5.003-0.767,10.009-1.519,15.003-2.334
		c2.669-0.436,5.227,0.7,6.448,3.066c0.438,0.846,0.728,1.77,1.105,2.647c1.408,3.259,3.863,5.149,7.411,5.484
		c3.604,0.34,6.004,2.458,6.564,6.036c1.937,12.392,3.858,24.786,5.756,37.184c0.378,2.464-1.096,5.305-3.628,6.271
		c-5.527,2.109-7.676,6.245-7.819,11.85c-0.078,3.039-2.122,5.11-5.251,5.605c-10.143,1.602-20.279,3.246-30.427,4.814
		c-12.831,1.983-25.675,3.883-38.505,5.865c-7.103,1.098-14.191,2.29-21.285,3.445c-3.302,0.538-6.163-0.906-7.209-4.081
		c-1.542-4.679-4.463-7.237-9.5-7.43c-2.272-0.086-4.421-2.225-4.813-4.592c-1.117-6.729-2.118-13.477-3.169-20.217
		c-0.802-5.146-1.617-10.288-2.415-15.435C83.166,143.776,83.074,142.824,82.957,141.877z"/>
	<path fill-rule="evenodd" clip-rule="evenodd" fill="#A4529F" d="M109.213,191.292c-0.735,0.136-1.108-0.636-1.491-1.637
		c-1.721-4.503-4.639-7.823-9.437-9.189c-0.142-0.04-0.271-0.126-0.412-0.16c-4.049-1.038-3.988-1.046-4.595-5.107
		c-1.639-10.96-3.305-21.916-5.053-32.859c-0.185-1.161-0.11-1.823,1.014-2.251c6.744-2.576,9.583-7.886,10.138-14.706
		c0.111-1.36,0.524-1.854,1.925-2.063c10.453-1.55,20.894-3.188,31.33-4.841c9.784-1.55,19.557-3.184,29.342-4.727
		c9.497-1.497,19.009-2.901,28.504-4.412c1.453-0.231,1.572,0.749,1.899,1.605c1.636,4.284,4.368,7.478,8.833,8.972
		c0.349,0.117,0.686,0.275,1.042,0.354c4.049,0.893,3.941,0.905,4.529,4.845c1.37,9.145,2.855,18.272,4.294,27.407
		c0.309,1.956,0.581,3.919,0.931,5.867c0.21,1.181-0.347,1.787-1.344,2.208c-6.391,2.695-9.58,7.576-9.651,14.454
		c-0.018,1.583-0.824,2.096-2.087,2.296c-5.943,0.946-11.892,1.872-17.841,2.783c-6.096,0.933-12.199,1.81-18.291,2.761
		c-8.121,1.27-16.232,2.6-24.352,3.882c-9.277,1.466-18.56,2.909-27.84,4.361C110.311,191.18,110.016,191.201,109.213,191.292z"/>
	<path fill-rule="evenodd" clip-rule="evenodd" fill="#6C2874" d="M150.146,124.719c13.945,0.006,25.155,11.345,25.146,25.435
		c-0.012,13.875-11.435,25.126-25.498,25.113c-13.842-0.014-25.068-11.469-25.051-25.563
		C124.759,135.982,136.216,124.714,150.146,124.719z"/>
	<path fill-rule="evenodd" clip-rule="evenodd" fill="#F6C168" d="M169.979,150.048c-0.014,11.021-8.953,19.909-20.022,19.908
		c-11.019-0.001-19.92-8.954-19.902-20.019c0.02-11.026,8.96-19.916,20.023-19.908C161.103,130.037,169.993,138.98,169.979,150.048z
		"/>
</g>
</svg>
