<?xml version="1.0" encoding="utf-8"?>
<!-- Generator: Adobe Illustrator 16.0.0, SVG Export Plug-In . SVG Version: 6.00 Build 0)  -->
<!DOCTYPE svg PUBLIC "-//W3C//DTD SVG 1.1//EN" "http://www.w3.org/Graphics/SVG/1.1/DTD/svg11.dtd">
<svg version="1.1" id="Layer_1" xmlns="http://www.w3.org/2000/svg" xmlns:xlink="http://www.w3.org/1999/xlink" x="0px" y="0px"
	 width="300px" height="300px" viewBox="0 0 300 300" enable-background="new 0 0 300 300" xml:space="preserve">
<radialGradient id="SVGID_1_" cx="212.6045" cy="206.7185" r="150" gradientUnits="userSpaceOnUse">
	<stop  offset="0" style="stop-color:#0BA4D8"/>
	<stop  offset="1" style="stop-color:#007CD7"/>
</radialGradient>
<circle fill="url(#SVGID_1_)" cx="150.563" cy="150" r="150"/>
<path fill="#FFFFFF" d="M155.221,282.416c-0.129-0.746-0.353-1.489-0.364-2.238c-0.018-1.128,0.827-1.318,1.744-1.36
	c0.953-0.043,1.697,0.153,1.704,1.318c0.003,0.76,0.003,1.521,0.005,2.28C157.28,282.416,156.25,282.416,155.221,282.416z"/>
<path fill="#FFFFFF" d="M18.756,156.251c1.227-0.405,2.618-1.303,3.473,0.365c0.356,0.694,0.575,1.947-0.507,2.448
	c-1.337,0.62-2.422,0.195-2.966-1.269C18.756,157.28,18.756,156.765,18.756,156.251z"/>
<path fill="#FFFFFF" d="M148.011,282.416c0.111-3.279,0.53-3.812,2.471-3.196c1.815,0.575,0.792,2.119,1.134,3.196
	C150.415,282.416,149.212,282.416,148.011,282.416z"/>
<path fill="#FFFFFF" d="M282.416,153.677c-0.589,0.034-1.178,0.073-1.767,0.101c-1.128,0.056-1.721-0.398-1.729-1.614
	c-0.009-1.229,0.583-1.654,1.722-1.588c0.589,0.034,1.183,0.009,1.773,0.011C282.416,151.616,282.416,152.646,282.416,153.677z"/>
<path fill="#FFFFFF" d="M157.795,18.756c0.018,0.584,0.054,1.169,0.048,1.752c-0.011,0.962-0.06,1.839-1.43,1.835
	c-1.313-0.003-1.813-0.581-1.724-1.833c0.041-0.583,0.013-1.17,0.017-1.754C155.735,18.756,156.766,18.756,157.795,18.756z"/>
<path fill="#FFFFFF" d="M18.756,143.376c0.792-1.263,2.041-1.366,3.131-0.786c0.837,0.445,0.699,1.685,0.233,2.318
	c-0.842,1.146-2.226,0.366-3.364,0.529C18.756,144.75,18.756,144.063,18.756,143.376z"/>
<path fill="#FFFFFF" d="M151.101,18.756c-0.319,1.079,0.845,2.847-1.171,3.123c-2.717,0.371-1.754-1.779-1.918-3.123
	C149.041,18.756,150.071,18.756,151.101,18.756z"/>
<path fill="#FFFFFF" d="M18.756,149.041c1.073,0.341,2.864-0.857,3.121,1.196c0.334,2.68-1.685,1.899-3.121,1.894
	C18.756,151.1,18.756,150.071,18.756,149.041z"/>
<path fill="#FFFFFF" d="M267.65,70.739c-0.22,5.829-0.488,12.322-0.688,18.82c-0.051,1.61-0.188,2.435-2.146,1.475
	c-5.913-2.9-11.91-5.627-17.866-8.438c-1.021-0.481-2.397-0.705-1.471-2.499c0.891-1.724,1.925-0.873,2.97-0.391
	c4.502,2.083,9.013,4.149,13.478,6.306c1.492,0.721,1.919,0.385,1.958-1.219c0.117-4.96,0.371-9.915,0.506-14.875
	c0.036-1.364,0.617-1.801,1.909-1.688C267.501,68.337,268.004,68.885,267.65,70.739z"/>
<path fill="#FFFFFF" d="M22.871,164.201c0.133,1.123-0.33,1.695-1.533,1.822c-1.495,0.159-1.688-0.844-1.859-1.875
	c-0.233-1.399,0.852-1.473,1.771-1.623C22.522,162.319,22.934,163.034,22.871,164.201z"/>
<path fill="#FFFFFF" d="M164.788,20.668c-0.35,0.93,0.02,2.284-1.639,2.157c-1.259-0.095-1.825-0.668-1.77-1.963
	c0.045-1.017,0.331-1.657,1.482-1.569C163.806,19.365,164.814,19.343,164.788,20.668z"/>
<path fill="#FFFFFF" d="M208.425,268.947c-1.126-0.327-1.528-1.308-1.533-2.138c-0.007-1.234,1.308-1.587,2.177-1.611
	c1.069-0.03,1.422,1.276,1.465,2.059C210.602,268.513,209.187,268.438,208.425,268.947z"/>
<path fill="#FFFFFF" d="M34.63,207.567c1.348,0.283,1.682,1.389,1.744,2.272c0.079,1.131-1.207,1.417-1.985,1.493
	c-1.304,0.129-1.52-1.231-1.611-2.093C32.652,208.047,34.031,208.139,34.63,207.567z"/>
<path fill="#FFFFFF" d="M63.152,244.976c0.843,0.432,1.784,0.979,1.787,1.918c0.003,0.991-0.71,2.144-1.764,2.062
	c-0.887-0.069-1.929-0.979-1.855-2.047C61.379,246.032,62.181,245.318,63.152,244.976z"/>
<path fill="#FFFFFF" d="M236.933,250.261c-1.172-0.298-1.871-1.17-2.025-1.946c-0.224-1.127,0.97-1.909,1.837-2.054
	c0.909-0.151,1.747,0.929,1.905,1.755C238.877,249.212,237.434,249.457,236.933,250.261z"/>
<path fill="#FFFFFF" d="M250.739,65.631c1.083,0.267,1.93,1.008,2.001,2.007c0.075,1.031-1.146,1.645-1.896,1.73
	c-1.052,0.121-1.893-1.021-1.988-1.904C248.76,66.554,249.864,66.045,250.739,65.631z"/>
<path fill="#FFFFFF" d="M49.331,71.048c-0.873-0.391-1.989-0.781-2.03-1.724c-0.041-0.946,0.698-2.154,1.682-2.168
	c0.875-0.013,2.034,0.774,2.048,1.879C51.041,69.943,50.229,70.643,49.331,71.048z"/>
<path fill="#FFFFFF" d="M68.341,249.532c0.824,0.477,2.035,0.797,1.951,1.783c-0.078,0.924-0.945,1.96-1.979,1.928
	c-0.836-0.024-1.941-0.71-1.921-1.701C66.413,250.518,67.316,249.844,68.341,249.532z"/>
<path fill="#FFFFFF" d="M75.621,45.826c-0.509,0.938-1.174,1.722-2.148,1.653c-1.144-0.082-1.854-1.154-1.782-2.117
	c0.066-0.881,1.234-1.603,2.034-1.583C74.761,43.803,75.116,45.015,75.621,45.826z"/>
<path fill="#FFFFFF" d="M73.684,257.635c-0.583-0.81-2.172-0.789-1.854-2.088c0.188-0.768,0.686-1.972,1.806-1.821
	c0.946,0.127,2.085,0.718,1.854,1.916C75.336,256.435,74.786,257.353,73.684,257.635z"/>
<path fill="#FFFFFF" d="M196.331,274.257c-1.659,0.118-1.556-1.158-1.762-1.927c-0.389-1.449,1.029-1.435,1.792-1.583
	c1.479-0.286,1.618,1.132,1.751,2.019C198.324,274.182,196.7,273.612,196.331,274.257z"/>
<path fill="#FFFFFF" d="M197.95,28.486c-0.559,0.761-0.263,2.253-1.693,1.901c-0.76-0.187-2.179-0.076-1.925-1.505
	c0.144-0.81,0.167-2.111,1.408-2.048C196.675,26.883,197.773,27.224,197.95,28.486z"/>
<path fill="#FFFFFF" d="M238.603,52.655c-0.319,1.094-0.818,2.123-1.701,2.206c-1.022,0.097-1.956-0.862-2.078-1.833
	c-0.113-0.888,0.68-1.903,1.579-2.034C237.524,50.827,237.968,52.011,238.603,52.655z"/>
<path fill="#FFFFFF" d="M190.312,272.805c1.279,0.178,1.272,1.37,1.324,2.117c0.1,1.417-1.331,1.446-2.212,1.517
	c-1.108,0.089-1.112-1.084-1.191-1.856C188.077,273.087,189.473,273.269,190.312,272.805z"/>
<path fill="#FFFFFF" d="M241.459,55.534c0.94,0.476,1.992,1.134,2.005,2.102c0.011,0.824-0.983,1.831-1.854,1.858
	c-1.006,0.032-1.954-0.968-1.979-1.937C239.607,56.672,240.665,56.094,241.459,55.534z"/>
<path fill="#FFFFFF" d="M264.441,216.779c-0.49,0.769-0.527,2.104-1.624,2.013c-0.864-0.071-2.175-0.532-2.109-1.743
	c0.045-0.837,0.562-1.976,1.681-1.918C263.274,215.177,264.142,215.707,264.441,216.779z"/>
<path fill="#FFFFFF" d="M28.778,102.387c0.688,0.506,2.141,0.255,1.915,1.582c-0.14,0.821-0.032,2.352-1.637,2.01
	c-0.811-0.172-2.144-0.22-1.836-1.596C27.395,103.601,27.415,102.399,28.778,102.387z"/>
<path fill="#FFFFFF" d="M55.681,64.008c-0.952,0.623-1.225,2.131-2.453,1.655c-0.73-0.282-1.925-0.994-1.538-2.03
	c0.295-0.791,0.945-2.051,2.168-1.632C54.652,62.274,55.286,63.094,55.681,64.008z"/>
<path fill="#FFFFFF" d="M226.237,254.702c1.027,0.306,1.7,1.132,1.733,1.993c0.046,1.167-1.29,1.738-2.075,1.744
	c-0.958,0.008-1.732-1.179-1.698-2.124C224.231,255.33,225.392,255.056,226.237,254.702z"/>
<path fill="#FFFFFF" d="M45.164,76.386c-0.83-0.427-1.987-0.772-1.959-1.747c0.028-0.934,0.666-2.112,1.84-2.057
	c0.889,0.041,1.867,0.799,1.822,1.794C46.828,75.249,46.151,76.042,45.164,76.386z"/>
<path fill="#FFFFFF" d="M163.53,278.332c1.054-0.119,1.435,0.433,1.489,1.498c0.068,1.338-0.619,1.848-1.801,1.987
	c-1.539,0.182-1.265-1.01-1.428-1.871C161.527,278.552,162.436,278.378,163.53,278.332z"/>
<path fill="#FFFFFF" d="M124.712,277.395c-0.704,0.516,0.295,2.271-1.488,2.066c-0.981-0.113-2.18-0.106-1.973-1.656
	c0.11-0.816,0.107-1.878,1.356-1.664C123.381,276.274,124.629,275.82,124.712,277.395z"/>
<path fill="#FFFFFF" d="M261.043,78.474c-0.605,1.121-1.472,1.833-2.419,1.818c-1.007-0.015-1.543-1.23-1.598-2.017
	c-0.07-1.001,1.071-1.529,1.937-1.657C260.324,76.418,260.139,78.036,261.043,78.474z"/>
<path fill="#FFFFFF" d="M271.774,200.516c-0.793-0.528-2.197-0.351-1.982-1.663c0.126-0.771,0.164-2.106,1.489-1.977
	c0.84,0.083,2.143,0.158,2.088,1.353C273.328,199.108,272.998,200.257,271.774,200.516z"/>
<path fill="#FFFFFF" d="M251.007,235.561c-0.857-0.619-2.151-0.869-2.081-1.986c0.055-0.825,0.92-1.857,1.813-1.839
	c0.913,0.021,2.091,0.645,2.048,1.807C252.752,234.457,251.834,235.031,251.007,235.561z"/>
<path fill="#FFFFFF" d="M281.957,158.942c-0.011,1.105-0.088,1.927-1.339,1.873c-1.23-0.054-1.849-0.557-1.83-1.879
	c0.018-1.179,0.414-1.71,1.654-1.627C281.664,157.392,282.106,157.991,281.957,158.942z"/>
<path fill="#FFFFFF" d="M204.509,270.22c-0.234,1.197-1.305,1.322-2.13,1.465c-1.359,0.236-1.364-1.114-1.547-1.88
	c-0.322-1.345,1.021-1.494,1.803-1.627C204.069,267.933,203.922,269.456,204.509,270.22z"/>
<path fill="#FFFFFF" d="M23.254,125.408c-1.05-0.109-2.159-0.088-1.701-1.374c0.26-0.73-0.276-2.325,1.573-1.929
	c1.084,0.231,2.033,0.426,1.772,1.858C24.71,124.99,24.359,125.818,23.254,125.408z"/>
<path fill="#FFFFFF" d="M214.327,35.269c0.826,0.571,2.098,0.656,2.02,1.805c-0.057,0.86-0.525,2.08-1.554,2.015
	c-0.841-0.054-2.192-0.45-2.039-1.762C212.852,36.493,213.291,35.545,214.327,35.269z"/>
<path fill="#FFFFFF" d="M202.736,33.1c-0.822-0.434-2.083-0.41-2.07-1.605c0.008-0.838,0.164-2.093,1.331-2.101
	c0.813-0.005,2.126,0.172,2.183,1.288C204.226,31.586,203.898,32.698,202.736,33.1z"/>
<path fill="#FFFFFF" d="M220.204,38.902c0.846,0.391,2.115,0.584,2.077,1.608c-0.033,0.871-0.678,2.131-1.813,2.04
	c-0.766-0.061-2.034-0.472-1.971-1.618C218.549,40.034,219.12,39.166,220.204,38.902z"/>
<path fill="#FFFFFF" d="M258.918,220.728c0.645,0.624,2.051,0.699,1.907,1.762c-0.115,0.843-0.577,2.184-1.817,2.023
	c-0.806-0.104-2.065-0.627-1.957-1.638C257.14,222.015,257.674,220.928,258.918,220.728z"/>
<path fill="#FFFFFF" d="M225.944,42.457c0.615,0.835,2.213,0.792,1.901,2.095c-0.182,0.757-0.636,1.996-1.777,1.814
	c-0.845-0.134-2.048-0.665-1.972-1.651C224.163,43.832,224.855,42.886,225.944,42.457z"/>
<path fill="#FFFFFF" d="M33.416,97.676c-0.464,0.801-0.335,2.182-1.518,2.116c-0.862-0.047-2.268-0.273-2.142-1.643
	c0.075-0.818,0.345-2.099,1.566-1.958C32.116,96.281,33.194,96.525,33.416,97.676z"/>
<path fill="#FFFFFF" d="M87.055,262.765c-0.6,0.855-0.611,2.276-1.873,2.131c-0.771-0.09-1.978-0.557-1.89-1.684
	c0.065-0.85,0.454-2.068,1.467-2.064C85.638,261.15,86.64,261.713,87.055,262.765z"/>
<path fill="#FFFFFF" d="M105.042,29.743c-0.178,1.138-1.244,1.219-2.044,1.374c-1.377,0.269-1.373-1.056-1.574-1.828
	c-0.364-1.393,1.013-1.443,1.763-1.603C104.66,27.375,104.515,28.854,105.042,29.743z"/>
<path fill="#FFFFFF" d="M143.198,278.824c1.062-0.062,1.688,0.287,1.544,1.47c-0.13,1.071-0.55,1.729-1.789,1.702
	c-1.21-0.025-1.671-0.526-1.632-1.728C141.365,278.924,142.167,278.748,143.198,278.824z"/>
<path fill="#FFFFFF" d="M40.789,78.035c1.014,0.407,2.197,0.709,2.279,1.631c0.081,0.908-0.524,2.139-1.639,2.189
	c-0.836,0.039-1.944-0.542-2-1.591C39.379,79.348,40.092,78.609,40.789,78.035z"/>
<path fill="#FFFFFF" d="M130.986,22.231c0.025,1.372-0.811,1.628-1.848,1.662c-1.365,0.044-1.417-1.08-1.57-1.928
	c-0.269-1.496,1.115-1.29,1.885-1.452C130.862,20.218,130.749,21.477,130.986,22.231z"/>
<path fill="#FFFFFF" d="M81.237,259.141c-0.334,0.934-0.69,2.073-1.592,2.178c-0.985,0.114-2.091-0.614-2.115-1.757
	c-0.018-0.854,0.523-1.966,1.573-1.959C79.98,257.611,80.758,258.303,81.237,259.141z"/>
<path fill="#FFFFFF" d="M174.767,23.489c0.134-1.54,0.584-2.296,1.797-2.096c0.804,0.132,1.913,0.248,1.648,1.429
	c-0.165,0.748,0.06,2.173-1.4,1.936C175.91,24.612,174.602,24.599,174.767,23.489z"/>
<path fill="#FFFFFF" d="M122.084,25.293c-1.225-0.207-1.129-1.388-1.219-2.157c-0.136-1.16,0.911-1.232,1.784-1.282
	c1.259-0.073,1.599,0.724,1.661,1.777C124.406,25.26,122.958,24.81,122.084,25.293z"/>
<path fill="#FFFFFF" d="M190.053,28.234c-0.839-0.393-2.198-0.156-2.106-1.449c0.056-0.769-0.034-2.196,1.282-2.094
	c0.803,0.063,2.319-0.102,2.152,1.469C191.296,26.971,191.321,28.111,190.053,28.234z"/>
<path fill="#FFFFFF" d="M109.339,28.915c-1.332-0.1-1.38-1.194-1.53-2.02c-0.254-1.402,1.023-1.332,1.833-1.522
	c1.699-0.399,1.475,1.212,1.613,1.974C111.499,28.701,109.985,28.37,109.339,28.915z"/>
<path fill="#FFFFFF" d="M98.837,32.095c-0.073,1.376-1.218,1.437-1.988,1.648c-1.367,0.375-1.451-1.017-1.631-1.736
	c-0.365-1.45,1.059-1.624,1.927-1.763C98.456,30.036,98.204,31.519,98.837,32.095z"/>
<path fill="#FFFFFF" d="M92.743,35.207c-0.271,1.098-1.227,1.456-2.098,1.498c-1.172,0.057-1.566-1.096-1.603-1.952
	c-0.05-1.163,1.142-1.464,2.004-1.519C92.237,33.16,92.33,34.369,92.743,35.207z"/>
<path fill="#FFFFFF" d="M78.92,43.796c-0.981-0.381-1.608-1.373-1.641-2.233c-0.037-0.952,1.12-1.516,2-1.567
	c1.123-0.065,1.58,1.049,1.629,1.914C80.97,42.981,79.863,43.291,78.92,43.796z"/>
<path fill="#FFFFFF" d="M233.375,48.66c-0.471,0.839-0.954,1.831-1.939,1.791c-0.917-0.036-1.865-0.845-1.829-1.767
	c0.039-0.967,0.822-2.016,1.938-1.889C232.39,46.893,233.122,47.673,233.375,48.66z"/>
<path fill="#FFFFFF" d="M60.27,58.887c-0.336,0.93-0.952,1.754-1.859,1.869c-1.017,0.129-1.808-0.828-1.907-1.666
	c-0.128-1.073,0.816-1.96,1.831-1.993C59.254,57.068,59.837,58.017,60.27,58.887z"/>
<path fill="#FFFFFF" d="M246.231,60.562c1.014,0.222,1.842,0.953,1.958,1.777c0.153,1.095-0.897,1.927-1.864,1.992
	c-0.911,0.062-1.752-0.876-1.822-1.785C244.427,61.552,245.443,61.07,246.231,60.562z"/>
<path fill="#FFFFFF" d="M280.404,172.602c0.012,1.037-0.261,1.806-1.592,1.638c-1.328-0.164-1.636-0.966-1.548-2.143
	c0.065-0.901,0.372-1.555,1.387-1.294C279.537,171.032,280.906,170.92,280.404,172.602z"/>
<path fill="#FFFFFF" d="M277.313,177.4c0.805,0.29,1.989,0.205,1.939,1.514c-0.033,0.903-0.181,2.021-1.447,1.971
	c-0.859-0.034-2.068-0.119-1.938-1.426C275.947,178.647,275.969,177.509,277.313,177.4z"/>
<path fill="#FFFFFF" d="M26.5,184.469c0.049,1.271-1.042,1.456-1.882,1.544c-1.571,0.161-1.361-1.343-1.475-2.175
	c-0.157-1.143,1.034-1.172,1.798-1.253C26.221,182.448,26.414,183.427,26.5,184.469z"/>
<path fill="#FFFFFF" d="M28.493,190.777c0.015,1.601-1.256,1.692-2.134,1.759c-1.301,0.098-1.209-1.279-1.289-2.036
	c-0.135-1.272,1.13-1.329,1.975-1.467C28.499,188.795,28.035,190.243,28.493,190.777z"/>
<path fill="#FFFFFF" d="M23.783,129.977c-0.308,1.123-0.385,2.171-1.881,2.102c-1.222-0.058-1.68-0.536-1.597-1.717
	c0.077-1.126,0.445-1.808,1.742-1.478C22.791,129.073,23.898,128.734,23.783,129.977z"/>
<path fill="#FFFFFF" d="M275.675,192.068c-0.485,0.601-0.027,2.039-1.352,1.957c-0.902-0.056-2.23-0.19-2.105-1.626
	c0.063-0.75,0.128-1.971,1.162-1.925C274.234,190.512,275.51,190.571,275.675,192.068z"/>
<path fill="#FFFFFF" d="M33.465,203.635c-0.115,1.174-1.176,1.409-1.979,1.54c-1.434,0.234-1.543-1.198-1.649-2.019
	c-0.159-1.236,1.171-1.348,1.974-1.461C33.082,201.516,33.037,202.813,33.465,203.635z"/>
<path fill="#FFFFFF" d="M268.484,202.882c0.78,0.661,2.311,0.351,2.177,1.764c-0.076,0.805-0.308,2.04-1.522,1.978
	c-0.871-0.046-2.02-0.352-2.006-1.511C267.141,204.278,267.445,203.31,268.484,202.882z"/>
<path fill="#FFFFFF" d="M63.129,56.234c-0.963-0.302-1.816-0.989-1.889-1.843c-0.091-1.063,0.887-1.942,1.887-1.959
	c0.912-0.017,1.743,0.92,1.773,1.839C64.933,55.242,63.951,55.749,63.129,56.234z"/>
<path fill="#FFFFFF" d="M37.981,213.556c1.116,0.254,1.568,1.261,1.603,2.064c0.051,1.215-1.241,1.678-2.139,1.677
	c-1.052-0.001-1.441-1.268-1.48-2.092C35.911,214.073,37.224,214.051,37.981,213.556z"/>
<path fill="#FFFFFF" d="M41.547,219.313c1.007,0.326,1.587,1.316,1.599,2.067c0.019,1.07-1.129,1.711-2.118,1.671
	c-1.051-0.041-1.559-1.168-1.508-2.028C39.578,220.026,40.652,219.672,41.547,219.313z"/>
<path fill="#FFFFFF" d="M47.068,227.007c-0.459,0.882-1.182,1.699-2.07,1.648c-1.084-0.062-1.816-1.151-1.705-2.142
	c0.103-0.918,1.2-1.599,2.083-1.521C46.317,225.078,46.707,226.135,47.068,227.007z"/>
<path fill="#FFFFFF" d="M256.999,228.172c-0.721,0.672-0.741,2.193-2.051,1.933c-0.831-0.167-1.893-0.876-1.675-1.918
	c0.164-0.776,0.632-1.976,1.792-1.77C255.904,226.567,256.752,227.116,256.999,228.172z"/>
<path fill="#FFFFFF" d="M49.357,230.148c0.948,0.448,1.641,1.224,1.684,2.146c0.05,1.056-0.975,1.812-1.849,1.775
	c-1.038-0.041-1.86-1.155-1.822-2.094C47.407,231.092,48.617,230.705,49.357,230.148z"/>
<path fill="#FFFFFF" d="M55.627,237.379c-0.549,0.89-1.181,1.974-2.188,1.91c-0.832-0.055-1.788-1.047-1.79-1.943
	c-0.003-0.94,0.987-1.697,1.938-1.734C54.607,235.57,55.087,236.574,55.627,237.379z"/>
<path fill="#FFFFFF" d="M246.38,236.633c0.89,0.575,1.939,1.09,1.825,2.048c-0.115,0.954-0.936,1.998-2.049,1.779
	c-0.811-0.158-1.807-0.958-1.637-1.972C244.666,237.6,245.562,237.039,246.38,236.633z"/>
<path fill="#FFFFFF" d="M58.266,240.268c0.989,0.487,1.956,1.062,1.927,1.979c-0.029,1.007-0.934,1.972-1.981,1.863
	c-0.827-0.086-1.781-0.906-1.697-1.918C56.593,241.244,57.558,240.781,58.266,240.268z"/>
<path fill="#FFFFFF" d="M243.589,243.641c-0.556,0.786-1.124,1.871-2.03,1.789c-0.951-0.085-1.952-0.988-1.732-2.117
	c0.162-0.833,0.882-1.892,1.931-1.649C242.596,241.859,243.292,242.668,243.589,243.641z"/>
<path fill="#FFFFFF" d="M37.603,83.828c0.612,0.763,2.208,0.624,1.852,2.047c-0.206,0.815-0.554,2.04-1.77,1.734
	c-0.768-0.195-2.045-0.467-1.73-1.751C36.152,85.047,36.453,84.066,37.603,83.828z"/>
<path fill="#FFFFFF" d="M22.341,169.25c1.383-0.09,1.272,1.15,1.401,1.935c0.224,1.361-0.966,1.391-1.858,1.491
	c-1.125,0.126-1.413-0.69-1.542-1.604C20.125,169.542,21.348,169.569,22.341,169.25z"/>
<path fill="#FFFFFF" d="M109.337,272.343c0.869,0.454,2.214,0.122,2.179,1.46c-0.021,0.847-0.045,2.145-1.245,2.139
	c-0.853-0.005-2.316-0.044-2.223-1.474C108.099,273.719,108.197,272.556,109.337,272.343z"/>
<path fill="#FFFFFF" d="M118.101,275.971c-0.5,0.562,0.018,1.991-1.417,1.876c-0.969-0.079-2.232-0.102-2.039-1.589
	c0.095-0.727,0.113-1.97,1.217-1.839C116.679,274.517,118.06,274.347,118.101,275.971z"/>
<path fill="#FFFFFF" d="M131.169,278.813c-0.242,1.012,0.044,2.135-1.336,1.959c-1.209-0.154-2.074-0.607-1.916-2.104
	c0.116-1.097,0.658-1.506,1.674-1.363C130.589,277.447,131.471,277.741,131.169,278.813z"/>
<path fill="#FFFFFF" d="M137.851,279.809c-0.158,0.958,0.018,2.013-1.54,1.744c-1.218-0.209-1.801-0.636-1.693-1.954
	c0.115-1.399,1.059-1.271,2.003-1.305C137.804,278.255,138.13,278.823,137.851,279.809z"/>
<path fill="#FFFFFF" d="M135.697,19.782c1.348-0.177,1.962,0.276,2.002,1.505c0.036,1.05-0.319,1.53-1.448,1.608
	c-1.615,0.114-1.842-0.947-1.967-2.084C134.143,19.541,135.211,19.903,135.697,19.782z"/>
<path fill="#FFFFFF" d="M170.022,20.301c0.719,0.074,1.788-0.083,1.496,1.088c-0.195,0.794,0.213,2.302-1.516,2.079
	c-0.896-0.115-1.967,0.049-1.899-1.407C168.16,20.809,168.708,20.161,170.022,20.301z"/>
<path fill="#FFFFFF" d="M231.556,254.47c-1.088-0.196-1.714-1.012-1.85-1.898c-0.163-1.075,0.85-1.769,1.713-1.866
	c1.02-0.116,1.749,0.911,1.875,1.768C233.445,253.51,232.321,253.927,231.556,254.47z"/>
<path fill="#FFFFFF" d="M278.292,165.539c-0.007-0.918,0.168-1.621,1.281-1.468c1.129,0.155,1.932,0.549,1.842,1.939
	c-0.067,1.014-0.308,1.644-1.487,1.539C278.622,167.431,278.119,166.737,278.292,165.539z"/>
<path fill="#FFFFFF" d="M222.509,260.378c-0.328,1.217-1.262,1.602-2.096,1.754c-1.221,0.227-1.565-0.994-1.68-1.782
	c-0.159-1.085,0.935-1.624,1.779-1.785C221.906,258.298,221.665,259.969,222.509,260.378z"/>
<path fill="#FFFFFF" d="M70.188,49.84c-0.298,0.991-1.076,1.637-1.958,1.707c-1.02,0.079-1.777-0.938-1.857-1.742
	c-0.115-1.155,1.159-1.773,2.022-1.851C69.296,47.873,69.806,48.957,70.188,49.84z"/>
<path fill="#FFFFFF" d="M216.477,263.896c-0.062,1.232-1.097,1.632-1.895,1.765c-1.203,0.198-1.475-1.028-1.614-1.872
	c-0.203-1.228,1.002-1.622,1.799-1.741C215.946,261.869,216.031,263.15,216.477,263.896z"/>
<path fill="#FFFFFF" d="M90.75,264.433c0.799,0.363,2.009,0.428,1.985,1.578c-0.018,0.83-0.315,2.099-1.355,2.102
	c-0.862,0.003-2.221-0.35-2.206-1.572C89.184,265.737,89.627,264.724,90.75,264.433z"/>
<path fill="#FFFFFF" d="M85.011,36.367c1.175,0.11,1.575,1.131,1.716,1.922c0.243,1.356-1.189,1.611-2.002,1.739
	c-1.116,0.179-1.435-1.08-1.536-1.893C83.045,36.978,84.228,36.8,85.011,36.367z"/>
<path fill="#FFFFFF" d="M98.981,269.063c-0.455,0.788-0.423,2.101-1.705,1.905c-0.8-0.122-2.111-0.195-1.93-1.492
	c0.115-0.822,0.37-2.05,1.623-1.908C97.8,267.662,98.889,267.808,98.981,269.063z"/>
<path fill="#FFFFFF" d="M210.501,33.882c-0.638,0.644-0.409,2.189-1.842,1.937c-0.811-0.143-2.02-0.398-1.829-1.642
	c0.129-0.838,0.402-2.037,1.606-1.861C209.228,32.432,210.273,32.673,210.501,33.882z"/>
<path fill="#FFFFFF" d="M105.209,271.667c-0.418,0.76-0.279,2.082-1.628,1.916c-0.86-0.104-2.058-0.261-1.861-1.605
	c0.115-0.784,0.251-1.898,1.403-1.804C103.986,270.245,105.055,270.385,105.209,271.667z"/>
<path fill="#FFFFFF" d="M28.498,110.393c-0.41,0.732-0.176,2.024-1.47,1.995c-0.868-0.019-2.02-0.155-2.012-1.395
	c0.006-0.861,0.129-2.043,1.379-1.998C27.223,109.023,28.287,109.14,28.498,110.393z"/>
<path fill="#FFFFFF" d="M26.444,117.286c-0.26,0.615-0.106,1.841-1.325,1.595c-0.796-0.162-2.373,0.195-2.045-1.488
	c0.155-0.797,0.186-1.977,1.596-1.833C25.681,115.663,26.52,115.903,26.444,117.286z"/>
<path fill="#FFFFFF" d="M277.654,185.689c-0.489,0.615-0.056,2.124-1.53,1.8c-0.787-0.173-2.042-0.129-1.907-1.523
	c0.103-1.072,0.438-2.073,1.836-1.828C276.859,184.279,277.775,184.457,277.654,185.689z"/>
<path fill="#FFFFFF" d="M30.917,197.486c-0.338,1.181-1.367,1.39-2.211,1.387c-1.215-0.006-1.414-1.278-1.444-2.091
	c-0.047-1.236,1.244-1.266,2.068-1.3C30.61,195.431,30.454,196.75,30.917,197.486z"/>
<path fill="#FFFFFF" d="M183.472,274.787c1.332-0.01,1.484,0.982,1.557,1.885c0.103,1.287-0.962,1.46-1.864,1.559
	c-1.393,0.153-1.334-1.12-1.499-1.907C181.356,274.86,182.841,275.277,183.472,274.787z"/>
<path fill="#FFFFFF" d="M117.638,25.185c0.102,1.502-1.16,1.583-2.046,1.649c-1.379,0.101-1.144-1.292-1.287-2.064
	c-0.228-1.221,0.958-1.202,1.709-1.316C117.268,23.264,117.573,24.15,117.638,25.185z"/>
<path fill="#FFFFFF" d="M176.828,276.302c1.389,0.047,1.521,0.89,1.558,1.771c0.063,1.42-0.971,1.677-2.019,1.702
	c-1.46,0.035-1.134-1.308-1.268-2.076C174.826,276.138,176.516,276.975,176.828,276.302z"/>
<path fill="#FFFFFF" d="M267.768,210.78c-0.486,0.771-0.483,2.091-1.658,1.976c-0.882-0.086-2.229-0.383-1.985-1.729
	c0.132-0.73,0.312-2.071,1.604-1.805C266.537,209.389,267.569,209.634,267.768,210.78z"/>
<path fill="#FFFFFF" d="M171.692,279.275c0.145,1.271-0.556,1.557-1.664,1.612c-1.584,0.076-1.484-1.113-1.585-2.034
	c-0.177-1.615,1.233-1.018,1.967-1.177C171.699,277.395,171.624,278.452,171.692,279.275z"/>
<path fill="#FFFFFF" d="M183.209,22.912c0.644,0.246,1.863,0.144,1.623,1.324c-0.157,0.779,0.169,2.376-1.516,2.04
	c-0.81-0.163-1.971-0.198-1.838-1.603C181.576,23.647,181.837,22.823,183.209,22.912z"/>
<path fill="#FFFFFF" d="M23.516,175.89c1.239,0.087,1.377,0.923,1.396,1.801c0.03,1.403-1.002,1.665-2.048,1.661
	c-1.412-0.008-1.155-1.352-1.246-2.104C21.449,175.848,22.941,176.386,23.516,175.89z"/>
<path fill="#FFFFFF" d="M21.095,138.749c-0.79-0.083-1.882,0.193-1.645-1.238c0.175-1.051,0.41-2.003,1.88-1.887
	c1.043,0.082,1.575,0.395,1.538,1.523C22.831,138.348,22.291,138.876,21.095,138.749z"/>
<path fill="#FFFFFF" d="M256.959,73.09c-0.479,0.901-1.244,1.658-2.178,1.589c-1.001-0.072-1.672-1.153-1.542-2.031
	c0.129-0.862,1.026-1.781,1.998-1.659C256.218,71.111,256.467,72.298,256.959,73.09z"/>
<path fill="#FFFFFF" d="M36.23,91.842c-0.479,0.604-0.328,1.988-1.627,1.738c-0.804-0.155-2.034-0.4-1.856-1.646
	c0.12-0.845,0.395-2.044,1.6-1.881C35.168,90.164,36.198,90.519,36.23,91.842z"/>
<path fill="#FFFFFF" d="M142.725,22.336c-1.329,0.108-1.474-0.772-1.469-1.792c0.003-1.17,0.776-1.313,1.698-1.349
	c1.35-0.052,1.449,0.803,1.447,1.822C144.398,22.192,143.697,22.411,142.725,22.336z"/>
<path fill="#FFFFFF" d="M150.576,48.886C92.52,48.899,49.025,96.048,48.967,150.469c-0.058,54.641,43.593,101.834,101.629,101.814
	c58.152-0.02,101.847-47.258,101.527-101.577C252.586,96.231,208.73,48.874,150.576,48.886z M228.975,91.226
	c10.251,13.577,16.723,28.736,19.004,45.646c0.435,3.222,0.774,6.444,0.971,9.687c0.097,1.602-0.176,2.757-2.166,2.471
	c-1.313-0.189-3.24,0.648-3.494-1.282c-0.272,1.726-1.049,1.729-4.197,1.73c-17.906,0.002-35.815-0.043-53.721,0.064
	c-2.305,0.014-2.816-0.64-2.842-2.853c-0.135-11.563-0.827-23.099-2.387-34.568c-0.154-1.14-0.098-1.891,1.338-2.211
	c14.605-3.267,28.197-8.853,40.278-17.839c0.084-0.062,0.195-0.085,0.309-0.107c-0.15-0.188-0.292-0.379-0.444-0.566
	C225.295,86.983,225.728,86.927,228.975,91.226z M168.919,53.885c18.276,3.604,34.382,11.578,48.107,24.248
	c1.886,1.74,3.734,3.503,5.487,5.386c1.2,1.288,0.917,2.02-0.326,2.763c-0.923,0.552-1.555,1.554-2.592,1.919
	c0.039,0.207,0.061,0.423,0.039,0.663c-3.288,3.477-7.556,5.503-11.655,7.742c-8.076,4.412-16.721,7.347-25.607,9.648
	c-2.221,0.575-3.065,0.165-3.4-2.257c-1.304-9.412-3.372-18.672-6.305-27.718c-1.636-5.044-3.552-9.983-6.142-14.637
	c-0.283-0.506-1.071-0.991-0.375-1.74c0.14-0.143,0.282-0.252,0.426-0.349c-0.349-0.058-0.693-0.128-1.044-0.182
	c-2.358-1.543-3.358-4.237-5.74-6.468C163.231,52.574,166.1,53.329,168.919,53.885z M176.78,149.51
	c-8.57-0.07-17.144-0.033-25.714-0.033c-8.315,0-16.629-0.074-24.942,0.05c-2.184,0.033-2.93-0.417-2.896-2.791
	c0.161-11.405,0.872-22.765,2.197-34.094c0.155-1.32,0.451-1.757,1.873-1.517c15.935,2.679,31.881,2.655,47.82,0.02
	c1.152-0.189,1.701-0.097,1.853,1.25c1.321,11.587,2.116,23.199,2.193,34.866C179.178,149.155,178.487,149.524,176.78,149.51z
	 M179.014,154.714c-0.092,11.664-0.842,23.28-2.195,34.864c-0.143,1.218-0.502,1.627-1.762,1.404
	c-12.395-2.188-24.868-2.492-37.381-1.388c-3.491,0.309-6.968,0.814-10.434,1.353c-1.293,0.201-1.802,0.018-1.969-1.423
	c-1.336-11.5-2.076-23.029-2.193-34.608c-0.021-2.07,0.762-2.37,2.546-2.356c8.485,0.075,16.972,0.034,25.457,0.035
	c8.57,0,17.143,0.032,25.714-0.028C178.418,152.552,179.027,152.957,179.014,154.714z M159.105,57.39
	c0.406,0.166,0.81,0.356,1.205,0.582c3.753,4.58,5.963,9.973,7.967,15.441c3.579,9.767,5.653,19.916,7.454,30.132
	c0.414,2.349-0.146,3.16-2.639,3.539c-15.138,2.303-30.233,2.235-45.334-0.229c-1.082-0.177-1.732-0.423-1.518-1.766
	c2.49-15.527,5.59-30.862,13.721-44.649c0.419-0.711,0.955-1.354,1.471-2.008c-0.036,0.001-0.071,0.002-0.107,0.004
	c0.274-0.428,0.518-0.879,0.826-1.279C147.288,50.495,154.12,50.671,159.105,57.39z M78.844,83.347
	c6.201-6.704,13.245-12.35,21.037-17.069c12.008-7.274,25.036-11.639,38.934-13.465c0.656-0.086,1.333-0.011,2.717-0.011
	c-2.296,2.066-3.34,4.532-5.366,6.163c0.529,0.463,0.034,0.892-0.165,1.255c-6.76,12.337-9.743,25.841-12.248,39.496
	c-0.124,0.674-0.245,1.346-0.369,2.019c-0.758,4.136-0.763,4.152-4.973,3.086c-12.127-3.073-23.487-7.877-33.78-15.063
	c-0.75-0.524-1.68-0.896-2.011-1.883c-0.155,0.153-0.31,0.307-0.465,0.461c-1.412-0.129-2.08-1.417-3.173-2.049
	C77.447,85.401,77.715,84.569,78.844,83.347z M52.261,145.53c1.262-20.929,8.363-39.657,21.287-56.184
	c1.229-1.573,2.249-1.778,3.652-0.265c0.647,0.698,1.527,1.174,2.1,1.962c0.22-0.06,0.458-0.098,0.717-0.109
	c4.756,3.037,9.394,6.257,14.47,8.785c8.251,4.111,16.907,7.055,25.863,9.12c1.521,0.351,1.967,0.848,1.758,2.376
	c-1.581,11.485-2.238,23.042-2.394,34.626c-0.027,2.111-0.584,2.707-2.728,2.695c-17.937-0.088-35.873-0.052-53.811-0.05
	c-4.2,0-4.2,0.008-4.383-4.041c-0.153-0.129-0.281-0.264-0.392-0.403c-0.024,0.289-0.046,0.578-0.073,0.867
	c-0.451,0.587-0.494,1.293-0.429,1.967c0.162,1.692-0.57,2.2-2.227,2.19C52.164,149.045,52.044,149.122,52.261,145.53z
	 M72.199,209.95c-10.263-13.572-16.72-28.739-19.001-45.648c-0.458-3.39-0.848-6.776-0.991-10.199
	c-0.082-1.945,1.029-2.108,2.436-1.943c1.323,0.157,3.366-0.849,3.246,1.882c-0.033,0.758-0.066,1.554,0.439,2.224
	c0.017,0.269,0.046,0.532,0.065,0.8c0.113-0.146,0.243-0.288,0.399-0.424c0.192-4.038,0.192-4.045,4.396-4.045
	c17.937-0.003,35.875,0.036,53.812-0.053c2.158-0.012,2.684,0.618,2.713,2.714c0.161,11.583,0.821,23.141,2.391,34.629
	c0.173,1.271,0.047,1.978-1.5,2.329c-14.439,3.281-27.932,8.744-39.884,17.665c-0.194,0.145-0.469,0.182-0.707,0.27
	c-0.255,0.004-0.482-0.036-0.695-0.097C75.856,214.214,75.396,214.18,72.199,209.95z M131.945,247.236
	c-19.528-3.864-36.348-12.911-50.626-26.744c-0.247-0.237-0.49-0.481-0.728-0.729c-3.583-3.729-3.369-4.68,1.563-6.93
	c0.324,0.343,0.653,0.678,0.98,1.016c-0.11-0.304-0.167-0.638-0.132-1.021c3.414-3.45,7.694-5.606,11.891-7.859
	c8.025-4.308,16.567-7.252,25.377-9.504c2.203-0.564,3.057-0.173,3.394,2.24c1.324,9.493,3.421,18.828,6.395,27.95
	c1.617,4.962,3.511,9.811,6.046,14.391c0.283,0.511,1.057,0.994,0.385,1.747c-0.135,0.139-0.273,0.244-0.413,0.34
	c2.042,1.588,3.086,4.057,5.312,6.154C137.83,248.545,134.868,247.812,131.945,247.236z M141.325,242.732
	c0.313,0.017,0.625,0.022,0.938,0.037c-0.03-0.017-0.061-0.027-0.09-0.044c-3.659-4.429-5.817-9.657-7.788-14.953
	c-3.717-9.994-5.854-20.388-7.661-30.866c-0.371-2.151,0.094-2.873,2.422-3.231c15.133-2.332,30.228-2.307,45.329,0.162
	c1.077,0.175,2.026,0.19,1.771,1.786c-2.48,15.438-5.576,30.683-13.586,44.424c-0.556,0.95-1.307,1.788-1.967,2.678
	c-0.425,0.325-0.866,0.573-1.319,0.768c-0.112,0.178-0.225,0.355-0.353,0.521C153.642,251.012,146.341,250.481,141.325,242.732z
	 M222.434,217.626c-7.26,8.031-15.786,14.442-25.265,19.611c-10.878,5.933-22.525,9.48-34.778,11.115
	c-0.664,0.09-1.351,0.012-2.772,0.012c2.523-2.217,3.5-4.965,5.912-6.565c0.116-0.02,0.23-0.045,0.347-0.064
	c0.053-0.165,0.168-0.329,0.252-0.482c6.765-12.232,9.745-25.652,12.313-39.202c0.144-0.756,0.23-1.522,0.373-2.277
	c0.833-4.391,0.852-4.447,5.279-3.299c12.015,3.12,23.312,7.862,33.519,15.022c0.636,0.446,1.412,0.77,1.833,1.468
	c1.442,0.483,2.315,1.79,3.501,2.64C224.129,216.453,222.937,217.07,222.434,217.626z M227.622,211.827
	c-1.228,1.569-2.249,1.785-3.656,0.274c-0.682-0.73-1.612-1.225-2.175-2.088c-4.593-2.945-9.097-6.029-13.998-8.472
	c-8.236-4.103-16.874-7.053-25.815-9.12c-1.43-0.33-2.077-0.692-1.854-2.303c1.616-11.635,2.284-23.345,2.419-35.08
	c0.023-2.065,0.806-2.325,2.572-2.319c17.991,0.053,35.982,0.029,53.976,0.025c3.097,0,3.898,0.003,4.184,1.646
	c-0.002-0.031-0.001-0.063-0.004-0.094c-0.163-1.694,0.573-2.199,2.228-2.191c3.511,0.019,3.628-0.058,3.412,3.534
	C247.655,176.573,240.537,195.295,227.622,211.827z"/>
</svg>
