<?xml version="1.0" encoding="utf-8"?>
<!-- Generator: Adobe Illustrator 24.3.0, SVG Export Plug-In . SVG Version: 6.00 Build 0)  -->
<svg version="1.1" id="Layer_1" xmlns="http://www.w3.org/2000/svg" xmlns:xlink="http://www.w3.org/1999/xlink" x="0px" y="0px"
	 viewBox="0 0 730 230" style="enable-background:new 0 0 730 230;" xml:space="preserve">
<style type="text/css">
	.st0{fill:url(#SVGID_1_);}
	.st1{fill:url(#SVGID_2_);}
	.st2{fill:url(#SVGID_3_);}
	.st3{fill:url(#SVGID_4_);}
	.st4{fill:url(#SVGID_5_);}
	.st5{fill:url(#SVGID_6_);}
	.st6{fill:url(#SVGID_7_);}
	.st7{fill:url(#SVGID_8_);}
	.st8{fill:url(#SVGID_9_);}
	.st9{fill:url(#SVGID_10_);}
	.st10{fill:url(#SVGID_11_);}
	.st11{fill:url(#SVGID_12_);}
	.st12{fill:url(#SVGID_13_);}
	.st13{fill:url(#SVGID_14_);}
	.st14{fill:url(#SVGID_15_);}
	.st15{fill:url(#SVGID_16_);}
	.st16{fill:url(#SVGID_17_);}
	.st17{fill:url(#SVGID_18_);}
	.st18{fill:url(#SVGID_19_);}
	.st19{fill:url(#SVGID_20_);}
	.st20{fill:url(#SVGID_21_);}
	.st21{fill:url(#SVGID_22_);}
	.st22{fill:url(#SVGID_23_);}
	.st23{fill:url(#SVGID_24_);}
	.st24{fill:url(#SVGID_25_);}
	.st25{fill:url(#SVGID_26_);}
	.st26{fill:url(#SVGID_27_);}
	.st27{fill:url(#SVGID_28_);}
	.st28{fill:url(#SVGID_29_);}
	.st29{fill:url(#SVGID_30_);}
	.st30{fill:url(#SVGID_31_);}
	.st31{fill:url(#SVGID_32_);}
	.st32{fill:url(#SVGID_33_);}
	.st33{fill:url(#SVGID_34_);}
	.st34{fill:url(#SVGID_35_);}
</style>
<g>
	<linearGradient id="SVGID_1_" gradientUnits="userSpaceOnUse" x1="62.5488" y1="-6.698" x2="65.89" y2="226.0674">
		<stop  offset="0" style="stop-color:#0E84AF"/>
		<stop  offset="1" style="stop-color:#15416F"/>
	</linearGradient>
	<path class="st0" d="M73.95,187.14c-20.58,0-37.51-5.58-50.31-16.57c-12.6-10.82-18.99-25.2-18.99-42.73
		c0-17.9,7.06-32.87,20.98-44.48C39.72,71.62,57.77,65.67,79.3,65.67c15.28,0,28.4,2.11,38.99,6.27c2,0.78,3.29,2.38,3.29,4.06v14.1
		c0,1.59-1.14,3.09-2.97,3.92c-0.93,0.42-2,0.65-3.08,0.65c-1.21,0-2.39-0.28-3.4-0.8c-9.62-5-21.26-7.54-34.59-7.54
		c-13.09,0-23.5,3.59-31.82,10.97c-8.58,7.6-12.74,17.3-12.74,29.65c0,12.77,3.84,22.41,11.75,29.47
		c7.64,6.83,17.84,10.16,31.16,10.16c7.14,0,13.6-0.91,19.2-2.7c0.95-0.3,1.59-1.18,1.59-2.17v-19.27c0-1.26-1.02-2.28-2.28-2.28
		H73.77c-3.33,0-6.05-2.05-6.05-4.57v-11.52c0-2.52,2.71-4.57,6.05-4.57h44.44c3.33,0,6.05,2.05,6.05,4.57v49.27
		c0,1.57-1.12,3.06-2.91,3.89C107.17,183.8,91.23,187.14,73.95,187.14z"/>
	<linearGradient id="SVGID_2_" gradientUnits="userSpaceOnUse" x1="174.4796" y1="-8.3047" x2="177.8207" y2="224.4607">
		<stop  offset="0" style="stop-color:#0E84AF"/>
		<stop  offset="1" style="stop-color:#15416F"/>
	</linearGradient>
	<path class="st1" d="M149.65,173.33c-3.33,0-6.05-2.05-6.05-4.57V84.04c0-2.52,2.71-4.57,6.05-4.57h52.31
		c3.33,0,6.05,2.05,6.05,4.57v8.98c0,2.52-2.71,4.57-6.05,4.57h-31.91c-1.26,0-2.28,1.02-2.28,2.28v14.49
		c0,1.26,1.02,2.28,2.28,2.28h28.89c3.33,0,6.05,2.05,6.05,4.57v8.92c0,2.52-2.71,4.57-6.05,4.57h-28.89
		c-1.26,0-2.28,1.02-2.28,2.28v15.96c0,1.26,1.02,2.28,2.28,2.28h34.21c3.33,0,6.05,2.05,6.05,4.57v8.98c0,2.52-2.71,4.57-6.05,4.57
		H149.65z"/>
	<linearGradient id="SVGID_3_" gradientUnits="userSpaceOnUse" x1="259.291" y1="-9.5221" x2="262.6322" y2="223.2433">
		<stop  offset="0" style="stop-color:#0E84AF"/>
		<stop  offset="1" style="stop-color:#15416F"/>
	</linearGradient>
	<path class="st2" d="M254.63,173.33c-3.33,0-6.05-2.05-6.05-4.57v-68.9c0-1.26-1.02-2.28-2.28-2.28h-21.35
		c-3.33,0-6.05-2.05-6.05-4.57v-8.98c0-2.52,2.71-4.57,6.05-4.57h71.5c3.33,0,6.05,2.05,6.05,4.57v8.98c0,2.52-2.71,4.57-6.05,4.57
		h-21.42c-1.26,0-2.28,1.02-2.28,2.28v68.9c0,2.52-2.71,4.57-6.05,4.57H254.63z"/>
	<linearGradient id="SVGID_4_" gradientUnits="userSpaceOnUse" x1="343.9576" y1="-10.7374" x2="347.2987" y2="222.028">
		<stop  offset="0" style="stop-color:#0E84AF"/>
		<stop  offset="1" style="stop-color:#15416F"/>
	</linearGradient>
	<path class="st3" d="M379.01,173.33c-2.57,0-4.86-1.25-5.72-3.1l-8.89-19.32c-0.37-0.81-1.18-1.33-2.07-1.33h-32.06
		c-0.91,0-1.73,0.54-2.1,1.38l-8.31,19.2c-0.82,1.9-3.13,3.18-5.75,3.18h-13.44c-2.08,0-3.99-0.8-5.11-2.15
		c-0.99-1.18-1.2-2.6-0.6-3.9l39.52-84.73c0.86-1.84,3.15-3.08,5.71-3.08h12.5c2.55,0,4.85,1.24,5.71,3.07l39.67,84.73
		c0.61,1.3,0.39,2.73-0.59,3.91c-1.13,1.35-3.04,2.15-5.11,2.15H379.01z M346.23,113.66c-0.9,0-1.72,0.53-2.08,1.36l-5.9,13.3
		c-0.31,0.7-0.25,1.52,0.17,2.17c0.42,0.65,1.14,1.04,1.91,1.04h11.86c0.77,0,1.49-0.39,1.92-1.04c0.42-0.65,0.48-1.47,0.17-2.18
		l-5.96-13.3C347.95,114.19,347.14,113.66,346.23,113.66C346.24,113.66,346.23,113.66,346.23,113.66z"/>
	<linearGradient id="SVGID_5_" gradientUnits="userSpaceOnUse" x1="461.4174" y1="-12.4234" x2="464.7586" y2="220.342">
		<stop  offset="0" style="stop-color:#0E84AF"/>
		<stop  offset="1" style="stop-color:#15416F"/>
	</linearGradient>
	<path class="st4" d="M486.44,173.33c-2.75,0-5.16-1.42-5.86-3.45l-15.12-44.16c-0.32-0.92-1.18-1.54-2.16-1.54h0
		c-0.97,0-1.84,0.62-2.16,1.54l-15.2,44.17c-0.7,2.03-3.1,3.44-5.86,3.44h-14.01c-2.73,0-5.13-1.4-5.84-3.41L390.06,85.2
		c-0.45-1.27-0.14-2.63,0.87-3.73c1.14-1.25,3-2,4.98-2h13.29c2.76,0,5.18,1.42,5.87,3.47l16.16,47.91
		c0.31,0.92,1.17,1.55,2.15,1.55c0,0,0.01,0,0.01,0c0.97,0,1.83-0.61,2.15-1.53l16.82-47.98c0.71-2.02,3.11-3.42,5.85-3.42h11.57
		c2.77,0,5.19,1.43,5.87,3.48l15.65,46.89c0.31,0.93,1.18,1.56,2.16,1.56c0,0,0.01,0,0.01,0c0.99,0,1.86-0.64,2.16-1.58l15.12-46.84
		c0.66-2.04,3.13-3.51,5.88-3.51h13.08c1.97,0,3.82,0.74,4.96,1.98c1,1.09,1.33,2.44,0.9,3.71l-29.1,84.73
		c-0.7,2.03-3.11,3.45-5.86,3.45H486.44z"/>
	<linearGradient id="SVGID_6_" gradientUnits="userSpaceOnUse" x1="576.3012" y1="-14.0724" x2="579.6423" y2="218.6929">
		<stop  offset="0" style="stop-color:#0E84AF"/>
		<stop  offset="1" style="stop-color:#15416F"/>
	</linearGradient>
	<path class="st5" d="M611.41,173.33c-2.57,0-4.87-1.24-5.72-3.1l-8.89-19.33c-0.37-0.81-1.18-1.33-2.07-1.33h-32.05
		c-0.91,0-1.73,0.54-2.1,1.38l-8.31,19.2c-0.82,1.9-3.13,3.18-5.75,3.18h-13.44c-2.08,0-3.99-0.8-5.11-2.15
		c-0.99-1.18-1.2-2.6-0.6-3.9l39.52-84.73c0.86-1.84,3.15-3.08,5.71-3.08h12.51c2.55,0,4.84,1.24,5.71,3.07l39.67,84.73
		c0.61,1.3,0.39,2.73-0.59,3.91c-1.12,1.35-3.04,2.15-5.11,2.15H611.41z M578.63,113.66c-0.9,0-1.72,0.53-2.08,1.36l-5.91,13.3
		c-0.31,0.71-0.25,1.53,0.17,2.17c0.42,0.65,1.14,1.04,1.92,1.04h11.86c0.77,0,1.5-0.39,1.92-1.04c0.42-0.65,0.48-1.47,0.17-2.17
		l-5.96-13.3C580.35,114.19,579.53,113.66,578.63,113.66C578.63,113.66,578.63,113.66,578.63,113.66z"/>
	<linearGradient id="SVGID_7_" gradientUnits="userSpaceOnUse" x1="666.2136" y1="-15.3631" x2="669.5547" y2="217.4023">
		<stop  offset="0" style="stop-color:#0E84AF"/>
		<stop  offset="1" style="stop-color:#15416F"/>
	</linearGradient>
	<path class="st6" d="M659.17,185.32c-3.34,0-6.05-2.05-6.05-4.57v-38.23c0-0.42-0.12-0.84-0.34-1.2l-41.6-67.37
		c-0.82-1.33-0.74-2.83,0.21-4.12c1.08-1.45,3.1-2.35,5.27-2.35h17.61c2.36,0,4.52,1.06,5.51,2.7l25.72,42.69
		c0.41,0.68,1.14,1.1,1.93,1.11c0.01,0,0.02,0,0.02,0c0.78,0,1.51-0.4,1.93-1.07l27-42.81c1.01-1.6,3.15-2.63,5.46-2.63h16.41
		c2.18,0,4.21,0.91,5.29,2.37c0.96,1.3,1.02,2.81,0.16,4.14l-42.66,67.04c-0.23,0.37-0.36,0.79-0.36,1.23v38.49
		c0,2.52-2.71,4.57-6.05,4.57H659.17z"/>
</g>
<g>
	<linearGradient id="SVGID_8_" gradientUnits="userSpaceOnUse" x1="197.0583" y1="-8.6288" x2="200.3994" y2="224.1366">
		<stop  offset="0" style="stop-color:#0E84AF"/>
		<stop  offset="1" style="stop-color:#15416F"/>
	</linearGradient>
	<path class="st7" d="M210.46,44.12c-0.79-1.06-1.51-1.98-2.15-2.78c-0.69-0.86-1.41-1.65-2.13-2.34c-0.2-0.2-0.41-0.39-0.62-0.57
		c0.2-0.09,0.39-0.18,0.59-0.28c1.85-0.9,3.46-2.01,4.79-3.3c1.34-1.3,2.38-2.8,3.11-4.45c0.72-1.64,1.08-3.45,1.08-5.39
		c0-2.47-0.54-4.68-1.6-6.58c-1.07-1.91-2.59-3.54-4.5-4.83c-1.87-1.26-4.09-2.22-6.6-2.83c-2.4-0.58-5.02-0.88-7.81-0.88h-17.11
		c-1.71,0-3.09,1.14-3.09,2.54v47.19c0,1.4,1.38,2.54,3.09,2.54h6.72c1.71,0,3.09-1.14,3.09-2.54V42.11h2.43
		c0.94,0,1.77,0.09,2.47,0.27c0.65,0.16,1.24,0.42,1.82,0.78c0.66,0.42,1.33,0.98,1.99,1.68c0.74,0.78,1.52,1.74,2.34,2.88
		l9.6,13.23c0.56,0.77,1.57,1.24,2.65,1.24h8c1.12,0,2.16-0.5,2.7-1.31c0.54-0.81,0.51-1.8-0.08-2.58L210.46,44.12z M187.29,20h6.11
		c2.98,0,5.2,0.51,6.59,1.5c1.3,0.93,1.91,2.2,1.91,3.99c0,1.05-0.21,1.99-0.63,2.8c-0.41,0.8-0.96,1.45-1.68,1.98
		c-0.74,0.55-1.61,0.97-2.65,1.28c-1.08,0.32-2.3,0.48-3.62,0.48h-6.03V20z"/>
	<linearGradient id="SVGID_9_" gradientUnits="userSpaceOnUse" x1="268.2693" y1="-9.6509" x2="271.6104" y2="223.1145">
		<stop  offset="0" style="stop-color:#0E84AF"/>
		<stop  offset="1" style="stop-color:#15416F"/>
	</linearGradient>
	<path class="st8" d="M284.42,52.1h-20.58V40.66h17.62c1.71,0,3.09-1.14,3.09-2.54v-4.97c0-1.4-1.38-2.54-3.09-2.54h-17.62V20h19.3
		c1.71,0,3.09-1.14,3.09-2.54v-5c0-1.4-1.38-2.54-3.09-2.54h-29.11c-1.71,0-3.09,1.14-3.09,2.54v47.19c0,1.4,1.38,2.54,3.09,2.54
		h30.39c1.71,0,3.09-1.14,3.09-2.54v-5C287.51,53.24,286.13,52.1,284.42,52.1z"/>
	<linearGradient id="SVGID_10_" gradientUnits="userSpaceOnUse" x1="336.33" y1="-10.6279" x2="339.6712" y2="222.1375">
		<stop  offset="0" style="stop-color:#0E84AF"/>
		<stop  offset="1" style="stop-color:#15416F"/>
	</linearGradient>
	<path class="st9" d="M352.26,37.52c-1.55-1.25-3.36-2.4-5.4-3.42c-1.9-0.95-3.95-1.88-6.08-2.74c-1.96-0.8-3.71-1.54-5.2-2.2
		c-1.35-0.6-2.49-1.21-3.4-1.83c-0.73-0.5-1.28-1.04-1.64-1.6c-0.32-0.51-0.48-1.17-0.48-1.97c0-0.79,0.19-1.41,0.57-1.89
		c0.47-0.59,1.06-1.05,1.82-1.43c0.84-0.42,1.84-0.73,2.95-0.92c1.25-0.22,2.52-0.32,3.77-0.32c4.64,0,8.43,0.82,11.28,2.44
		c0.53,0.3,1.14,0.45,1.76,0.45c0.49,0,0.98-0.1,1.43-0.29c1.02-0.44,1.66-1.31,1.66-2.25v-6.22c0-0.94-0.64-1.81-1.65-2.25
		c-3.06-1.33-7.58-1.97-13.79-1.97c-2.73,0-5.44,0.28-8.07,0.84c-2.71,0.57-5.18,1.47-7.33,2.65c-2.24,1.24-4.08,2.84-5.45,4.75
		c-1.43,1.98-2.15,4.31-2.15,6.91c0,2.12,0.47,4.02,1.38,5.66c0.89,1.58,2.12,3.01,3.66,4.25c1.45,1.17,3.16,2.24,5.09,3.19
		c1.79,0.88,3.74,1.77,5.79,2.62c1.88,0.78,3.63,1.53,5.25,2.23c1.47,0.64,2.74,1.31,3.79,1.99c0.9,0.58,1.59,1.22,2.08,1.88
		c0.4,0.55,0.59,1.21,0.59,2.03c0,2.05-1.04,2.93-1.82,3.41c-1.46,0.9-4.02,1.38-7.4,1.38c-1.02,0-2.17-0.09-3.4-0.26
		c-1.27-0.18-2.55-0.43-3.81-0.76c-1.23-0.32-2.42-0.71-3.53-1.18c-1.03-0.43-1.9-0.9-2.61-1.41c-0.58-0.42-1.31-0.64-2.05-0.64
		c-0.43,0-0.86,0.07-1.27,0.22c-1.11,0.41-1.82,1.32-1.82,2.32v6.52c0,0.84,0.51,1.63,1.35,2.1c0.99,0.56,2.22,1.03,3.74,1.44
		c1.36,0.37,2.81,0.69,4.3,0.94c1.47,0.24,2.93,0.43,4.35,0.56c1.46,0.13,2.67,0.2,3.7,0.2c2.93,0,5.77-0.25,8.43-0.74
		c2.81-0.51,5.33-1.37,7.51-2.54c2.29-1.23,4.13-2.85,5.48-4.81c1.37-1.99,2.06-4.4,2.06-7.16c0-2.14-0.52-4.09-1.54-5.8
		C355.2,40.32,353.89,38.84,352.26,37.52z"/>
	<linearGradient id="SVGID_11_" gradientUnits="userSpaceOnUse" x1="416.4795" y1="-11.7784" x2="419.8206" y2="220.987">
		<stop  offset="0" style="stop-color:#0E84AF"/>
		<stop  offset="1" style="stop-color:#15416F"/>
	</linearGradient>
	<path class="st10" d="M417.89,9.12c-9.45,0-17.07,2.56-22.64,7.61c-5.49,4.98-8.28,11.67-8.28,19.87c0,7.69,2.74,14.05,8.15,18.92
		c5.48,4.94,12.82,7.44,21.82,7.44c9.18,0,16.65-2.54,22.2-7.54c5.47-4.94,8.24-11.66,8.24-19.98c0-7.7-2.71-14.07-8.06-18.92
		C433.88,11.62,426.67,9.12,417.89,9.12z M416.93,52.92c-4.99,0-8.91-1.45-11.98-4.42c-3.2-3.1-4.76-7.15-4.76-12.39
		c0-5.23,1.6-9.29,4.89-12.42c3.17-3.02,7.21-4.48,12.34-4.48c5.28,0,9.27,1.38,12.2,4.21c3.01,2.91,4.54,7.22,4.54,12.8
		c0,5.41-1.57,9.61-4.66,12.5C426.45,51.54,422.34,52.92,416.93,52.92z"/>
	<linearGradient id="SVGID_12_" gradientUnits="userSpaceOnUse" x1="499.229" y1="-12.9662" x2="502.5702" y2="219.7992">
		<stop  offset="0" style="stop-color:#0E84AF"/>
		<stop  offset="1" style="stop-color:#15416F"/>
	</linearGradient>
	<path class="st11" d="M512.7,44.12c-0.79-1.06-1.51-1.98-2.15-2.78c-0.7-0.86-1.41-1.65-2.13-2.34c-0.2-0.2-0.41-0.39-0.62-0.57
		c0.2-0.09,0.39-0.18,0.59-0.27c1.85-0.9,3.46-2,4.79-3.29c1.34-1.3,2.38-2.8,3.11-4.45c0.72-1.64,1.08-3.45,1.08-5.39
		c0-2.46-0.54-4.68-1.6-6.58c-1.08-1.91-2.59-3.54-4.5-4.83c-1.87-1.26-4.1-2.22-6.6-2.83c-2.4-0.58-5.02-0.88-7.81-0.88h-17.11
		c-1.71,0-3.09,1.14-3.09,2.54v47.19c0,1.4,1.38,2.54,3.09,2.54h6.72c1.71,0,3.09-1.14,3.09-2.54V42.11h2.43
		c0.94,0,1.77,0.09,2.47,0.27c0.65,0.16,1.24,0.42,1.82,0.78c0.66,0.42,1.33,0.98,1.99,1.68c0.74,0.78,1.53,1.75,2.34,2.88
		l9.6,13.23c0.56,0.77,1.56,1.24,2.65,1.24h8c1.12,0,2.16-0.5,2.7-1.31c0.54-0.81,0.51-1.8-0.08-2.58L512.7,44.12z M489.53,20h6.11
		c2.98,0,5.2,0.51,6.59,1.5c1.3,0.93,1.91,2.2,1.91,3.98c0,1.05-0.21,1.99-0.63,2.8c-0.41,0.8-0.96,1.45-1.68,1.98
		c-0.74,0.55-1.6,0.97-2.65,1.28c-1.08,0.32-2.3,0.48-3.62,0.48h-6.03V20z"/>
	<linearGradient id="SVGID_13_" gradientUnits="userSpaceOnUse" x1="575.7431" y1="-14.0644" x2="579.0842" y2="218.701">
		<stop  offset="0" style="stop-color:#0E84AF"/>
		<stop  offset="1" style="stop-color:#15416F"/>
	</linearGradient>
	<path class="st12" d="M596.05,9.91h-39.79c-1.71,0-3.09,1.14-3.09,2.54v5c0,1.4,1.38,2.54,3.09,2.54h13.42v39.64
		c0,1.4,1.38,2.54,3.09,2.54h6.72c1.71,0,3.09-1.14,3.09-2.54V20h13.46c1.71,0,3.09-1.14,3.09-2.54v-5
		C599.14,11.05,597.76,9.91,596.05,9.91z"/>
</g>
<g>
	<linearGradient id="SVGID_14_" gradientUnits="userSpaceOnUse" x1="153.6544" y1="-8.0057" x2="156.9955" y2="224.7596">
		<stop  offset="0" style="stop-color:#0E84AF"/>
		<stop  offset="1" style="stop-color:#15416F"/>
	</linearGradient>
	<path class="st13" d="M166.41,205.55c0,2.41-0.82,4.27-2.46,5.55s-4.03,1.93-7.15,1.93h-9.65v-25.77h9.18
		c2.74,0,4.9,0.59,6.47,1.76s2.36,2.78,2.36,4.82c0,2.48-1.24,4.32-3.71,5.52c1.66,0.42,2.91,1.2,3.74,2.33
		S166.41,204.11,166.41,205.55z M150.55,198.06h5.73c1.89,0,3.28-0.3,4.17-0.91s1.34-1.61,1.34-3.01c0-1.27-0.43-2.22-1.3-2.86
		s-2.37-0.96-4.52-0.96h-5.41V198.06z M150.55,209.98h6.21c4.08,0,6.12-1.48,6.12-4.43c0-1.54-0.47-2.66-1.42-3.37
		s-2.66-1.06-5.14-1.06h-5.77V209.98z"/>
	<linearGradient id="SVGID_15_" gradientUnits="userSpaceOnUse" x1="178.0095" y1="-8.3553" x2="181.3506" y2="224.41">
		<stop  offset="0" style="stop-color:#0E84AF"/>
		<stop  offset="1" style="stop-color:#15416F"/>
	</linearGradient>
	<path class="st14" d="M185.3,210.66c-1.65,1.88-3.51,2.81-5.57,2.81c-4.21,0-6.31-2.3-6.31-6.89v-12.2h3.32v12.06
		c0,1.52,0.27,2.62,0.81,3.29s1.43,1,2.67,1c1.85,0,3.54-1,5.08-2.99v-13.36h3.3v18.65h-3.3V210.66z"/>
	<linearGradient id="SVGID_16_" gradientUnits="userSpaceOnUse" x1="199.5826" y1="-8.665" x2="202.9237" y2="224.1004">
		<stop  offset="0" style="stop-color:#0E84AF"/>
		<stop  offset="1" style="stop-color:#15416F"/>
	</linearGradient>
	<path class="st15" d="M202.94,213.48c-5.1,0-7.76-2-8-6.01h3.32c0.02,2.27,1.57,3.41,4.64,3.41c1.37,0,2.42-0.28,3.14-0.85
		s1.08-1.28,1.08-2.14c0-0.84-0.35-1.44-1.05-1.78s-2.15-0.79-4.35-1.34s-3.8-1.17-4.82-1.85s-1.52-1.88-1.52-3.59
		c0-1.55,0.63-2.83,1.89-3.84s2.94-1.52,5.05-1.52c4.89,0,7.38,1.74,7.49,5.22h-3.3c-0.12-1.76-1.44-2.64-3.96-2.64
		c-1.11,0-2.04,0.21-2.77,0.63s-1.1,1.04-1.1,1.85c0,0.73,0.28,1.25,0.84,1.57s1.97,0.76,4.23,1.3s3.93,1.18,5.03,1.91
		s1.64,1.98,1.64,3.76c0,1.7-0.68,3.11-2.03,4.23S205.23,213.48,202.94,213.48z"/>
	<linearGradient id="SVGID_17_" gradientUnits="userSpaceOnUse" x1="220.9751" y1="-8.9721" x2="224.3162" y2="223.7933">
		<stop  offset="0" style="stop-color:#0E84AF"/>
		<stop  offset="1" style="stop-color:#15416F"/>
	</linearGradient>
	<path class="st16" d="M224.61,213.48c-2.65,0-4.77-0.85-6.35-2.56s-2.38-4.1-2.38-7.2c0-3.11,0.79-5.51,2.38-7.21
		s3.71-2.55,6.35-2.55c2.04,0,3.74,0.52,5.11,1.55s2.17,2.52,2.42,4.46h-3.41c-0.05-1.11-0.47-1.96-1.26-2.55s-1.74-0.88-2.86-0.88
		c-1.58,0-2.87,0.6-3.85,1.8s-1.48,2.99-1.48,5.37c0,2.37,0.49,4.15,1.48,5.35s2.27,1.8,3.85,1.8c1.11,0,2.07-0.29,2.86-0.88
		s1.21-1.43,1.26-2.53h3.41c-0.25,1.95-1.05,3.43-2.42,4.46S226.65,213.48,224.61,213.48z"/>
	<linearGradient id="SVGID_18_" gradientUnits="userSpaceOnUse" x1="241.7759" y1="-9.2707" x2="245.1171" y2="223.4948">
		<stop  offset="0" style="stop-color:#0E84AF"/>
		<stop  offset="1" style="stop-color:#15416F"/>
	</linearGradient>
	<path class="st17" d="M249.63,211.12c-1.69,1.57-3.86,2.36-6.52,2.36c-1.85,0-3.38-0.5-4.57-1.5s-1.79-2.29-1.79-3.88
		c0-4.36,3.76-6.54,11.27-6.54h1.62c0-1.34-0.07-2.31-0.21-2.91s-0.53-1.1-1.18-1.5s-1.67-0.6-3.08-0.6c-2.95,0-4.48,1.05-4.57,3.16
		h-3.3c0.25-3.83,2.93-5.75,8.05-5.75c2.39,0,4.25,0.47,5.59,1.42s2,2.81,2,5.59v12.06h-3.3V211.12z M249.63,208.13V204h-2.27
		c-4.8,0-7.21,1.31-7.21,3.92c0,0.95,0.35,1.68,1.05,2.19s1.65,0.76,2.85,0.76c1.09,0,2.14-0.25,3.16-0.74
		S249.05,208.98,249.63,208.13z"/>
	<linearGradient id="SVGID_19_" gradientUnits="userSpaceOnUse" x1="272.1157" y1="-9.7062" x2="275.4568" y2="223.0592">
		<stop  offset="0" style="stop-color:#0E84AF"/>
		<stop  offset="1" style="stop-color:#15416F"/>
	</linearGradient>
	<path class="st18" d="M276.55,220.6h-2.74v-33.33h2.74V220.6z"/>
	<linearGradient id="SVGID_20_" gradientUnits="userSpaceOnUse" x1="305.3834" y1="-10.1837" x2="308.7245" y2="222.5817">
		<stop  offset="0" style="stop-color:#0E84AF"/>
		<stop  offset="1" style="stop-color:#15416F"/>
	</linearGradient>
	<path class="st19" d="M319.33,213.04h-3.69l-2.43-6.87c-0.43-1.22-1.15-2.21-2.16-2.99s-2.17-1.16-3.48-1.16h-6.31v11.02h-3.41
		v-25.77h11.41c1.99,0,3.62,0.19,4.89,0.58s2.3,1.2,3.09,2.44s1.2,2.64,1.2,4.2c0,1.78-0.52,3.27-1.55,4.46s-2.44,1.97-4.24,2.34
		v0.07c1.79,0.57,3.16,2.13,4.1,4.66L319.33,213.04z M301.26,198.96h7.61c2.12,0,3.66-0.33,4.61-1s1.43-1.82,1.43-3.46
		c0-2.93-1.84-4.39-5.52-4.39h-8.14V198.96z"/>
	<linearGradient id="SVGID_21_" gradientUnits="userSpaceOnUse" x1="330.6697" y1="-10.5466" x2="334.0109" y2="222.2188">
		<stop  offset="0" style="stop-color:#0E84AF"/>
		<stop  offset="1" style="stop-color:#15416F"/>
	</linearGradient>
	<path class="st20" d="M334.11,213.48c-2.74,0-4.95-0.86-6.61-2.58s-2.5-4.11-2.5-7.18c0-3.05,0.81-5.43,2.42-7.16
		s3.72-2.59,6.32-2.59c2.66,0,4.78,0.85,6.37,2.55s2.38,4.1,2.38,7.21v0.79h-14.04c0.14,2.16,0.74,3.76,1.78,4.8
		s2.34,1.56,3.88,1.56c1.16,0,2.21-0.3,3.14-0.89s1.42-1.43,1.47-2.52h3.43c-0.26,1.92-1.13,3.4-2.61,4.45
		S336.24,213.48,334.11,213.48z M338.99,201.91c-0.27-1.79-0.87-3.13-1.81-4.03s-2.09-1.34-3.45-1.34c-1.32,0-2.46,0.44-3.41,1.33
		s-1.55,2.23-1.81,4.03H338.99z"/>
	<linearGradient id="SVGID_22_" gradientUnits="userSpaceOnUse" x1="352.2452" y1="-10.8563" x2="355.5863" y2="221.9091">
		<stop  offset="0" style="stop-color:#0E84AF"/>
		<stop  offset="1" style="stop-color:#15416F"/>
	</linearGradient>
	<path class="st21" d="M355.63,213.48c-5.1,0-7.76-2-8-6.01h3.32c0.02,2.27,1.57,3.41,4.64,3.41c1.37,0,2.42-0.28,3.14-0.85
		s1.08-1.28,1.08-2.14c0-0.84-0.35-1.44-1.05-1.78s-2.15-0.79-4.35-1.34c-2.2-0.55-3.8-1.17-4.82-1.85s-1.52-1.88-1.52-3.59
		c0-1.55,0.63-2.83,1.89-3.84s2.94-1.52,5.05-1.52c4.89,0,7.38,1.74,7.49,5.22h-3.3c-0.12-1.76-1.44-2.64-3.96-2.64
		c-1.11,0-2.04,0.21-2.77,0.63c-0.73,0.42-1.1,1.04-1.1,1.85c0,0.73,0.28,1.25,0.84,1.57c0.56,0.32,1.97,0.76,4.23,1.3
		s3.93,1.18,5.03,1.91s1.64,1.98,1.64,3.76c0,1.7-0.68,3.11-2.03,4.23S357.92,213.48,355.63,213.48z"/>
	<linearGradient id="SVGID_23_" gradientUnits="userSpaceOnUse" x1="374.2271" y1="-11.1719" x2="377.5683" y2="221.5935">
		<stop  offset="0" style="stop-color:#0E84AF"/>
		<stop  offset="1" style="stop-color:#15416F"/>
	</linearGradient>
	<path class="st22" d="M377.67,213.48c-2.74,0-4.95-0.86-6.61-2.58c-1.66-1.72-2.5-4.11-2.5-7.18c0-3.05,0.81-5.43,2.42-7.16
		s3.72-2.59,6.32-2.59c2.66,0,4.78,0.85,6.37,2.55s2.38,4.1,2.38,7.21v0.79h-14.04c0.14,2.16,0.73,3.76,1.78,4.8
		s2.34,1.56,3.88,1.56c1.16,0,2.21-0.3,3.14-0.89s1.42-1.43,1.47-2.52h3.43c-0.26,1.92-1.13,3.4-2.61,4.45
		S379.81,213.48,377.67,213.48z M382.56,201.91c-0.27-1.79-0.87-3.13-1.81-4.03s-2.09-1.34-3.45-1.34c-1.32,0-2.46,0.44-3.41,1.33
		s-1.55,2.23-1.81,4.03H382.56z"/>
	<linearGradient id="SVGID_24_" gradientUnits="userSpaceOnUse" x1="394.2939" y1="-11.4599" x2="397.6351" y2="221.3055">
		<stop  offset="0" style="stop-color:#0E84AF"/>
		<stop  offset="1" style="stop-color:#15416F"/>
	</linearGradient>
	<path class="st23" d="M402.22,197.41c-0.47-0.14-1.14-0.21-2.02-0.21c-1.69,0-3.13,0.88-4.34,2.65v13.18h-3.32v-18.65h3.32v2.6
		c1.39-2.02,3.01-3.02,4.85-3.02c0.47,0,0.97,0.05,1.51,0.14V197.41z"/>
	<linearGradient id="SVGID_25_" gradientUnits="userSpaceOnUse" x1="410.896" y1="-11.6982" x2="414.2371" y2="221.0672">
		<stop  offset="0" style="stop-color:#0E84AF"/>
		<stop  offset="1" style="stop-color:#15416F"/>
	</linearGradient>
	<path class="st24" d="M422.38,194.39l-7.05,18.65h-2.95l-7.05-18.65h3.59l4.94,14.59l4.94-14.59H422.38z"/>
	<linearGradient id="SVGID_26_" gradientUnits="userSpaceOnUse" x1="431.9848" y1="-12.0009" x2="435.3259" y2="220.7645">
		<stop  offset="0" style="stop-color:#0E84AF"/>
		<stop  offset="1" style="stop-color:#15416F"/>
	</linearGradient>
	<path class="st25" d="M439.88,211.12c-1.69,1.57-3.86,2.36-6.52,2.36c-1.85,0-3.38-0.5-4.57-1.5s-1.79-2.29-1.79-3.88
		c0-4.36,3.76-6.54,11.27-6.54h1.62c0-1.34-0.07-2.31-0.21-2.91s-0.53-1.1-1.18-1.5s-1.67-0.6-3.08-0.6c-2.95,0-4.48,1.05-4.57,3.16
		h-3.3c0.25-3.83,2.93-5.75,8.05-5.75c2.39,0,4.25,0.47,5.59,1.42s2,2.81,2,5.59v12.06h-3.3V211.12z M439.88,208.13V204h-2.27
		c-4.8,0-7.21,1.31-7.21,3.92c0,0.95,0.35,1.68,1.05,2.19s1.65,0.76,2.85,0.76c1.09,0,2.14-0.25,3.16-0.74
		S439.3,208.98,439.88,208.13z"/>
	<linearGradient id="SVGID_27_" gradientUnits="userSpaceOnUse" x1="462.3246" y1="-12.4364" x2="465.6657" y2="220.329">
		<stop  offset="0" style="stop-color:#0E84AF"/>
		<stop  offset="1" style="stop-color:#15416F"/>
	</linearGradient>
	<path class="st26" d="M466.8,220.6h-2.74v-33.33h2.74V220.6z"/>
	<linearGradient id="SVGID_28_" gradientUnits="userSpaceOnUse" x1="495.5991" y1="-12.914" x2="498.9402" y2="219.8513">
		<stop  offset="0" style="stop-color:#0E84AF"/>
		<stop  offset="1" style="stop-color:#15416F"/>
	</linearGradient>
	<path class="st27" d="M488.1,187.27h8.17c8.75,0,13.13,4.25,13.13,12.74c0,8.68-4.38,13.03-13.13,13.03h-8.17V187.27z
		 M491.51,209.98h4.69c3.74,0,6.29-0.87,7.65-2.61s2.04-4.19,2.04-7.36c0-3.08-0.68-5.47-2.03-7.15s-3.91-2.53-7.66-2.53h-4.69
		V209.98z"/>
	<linearGradient id="SVGID_29_" gradientUnits="userSpaceOnUse" x1="515.0252" y1="-13.1929" x2="518.3663" y2="219.5725">
		<stop  offset="0" style="stop-color:#0E84AF"/>
		<stop  offset="1" style="stop-color:#15416F"/>
	</linearGradient>
	<path class="st28" d="M519.75,190.85h-3.32v-3.59h3.32V190.85z M519.75,213.04h-3.32v-18.65h3.32V213.04z"/>
	<linearGradient id="SVGID_30_" gradientUnits="userSpaceOnUse" x1="530.6432" y1="-13.4171" x2="533.9844" y2="219.3483">
		<stop  offset="0" style="stop-color:#0E84AF"/>
		<stop  offset="1" style="stop-color:#15416F"/>
	</linearGradient>
	<path class="st29" d="M534.07,213.48c-5.1,0-7.76-2-8-6.01h3.32c0.02,2.27,1.57,3.41,4.64,3.41c1.37,0,2.42-0.28,3.14-0.85
		s1.08-1.28,1.08-2.14c0-0.84-0.35-1.44-1.05-1.78s-2.15-0.79-4.35-1.34s-3.8-1.17-4.82-1.85s-1.52-1.88-1.52-3.59
		c0-1.55,0.63-2.83,1.89-3.84s2.94-1.52,5.05-1.52c4.89,0,7.38,1.74,7.49,5.22h-3.3c-0.12-1.76-1.44-2.64-3.96-2.64
		c-1.11,0-2.04,0.21-2.77,0.63s-1.1,1.04-1.1,1.85c0,0.73,0.28,1.25,0.84,1.57s1.97,0.76,4.23,1.3s3.93,1.18,5.03,1.91
		s1.64,1.98,1.64,3.76c0,1.7-0.68,3.11-2.03,4.23S536.35,213.48,534.07,213.48z"/>
	<linearGradient id="SVGID_31_" gradientUnits="userSpaceOnUse" x1="548.2855" y1="-13.6703" x2="551.6266" y2="219.0951">
		<stop  offset="0" style="stop-color:#0E84AF"/>
		<stop  offset="1" style="stop-color:#15416F"/>
	</linearGradient>
	<path class="st30" d="M552.06,196.99v16.05h-3.3v-16.05h-2.74v-2.6h2.74v-1.65c0-3.94,1.74-5.91,5.22-5.91
		c1.07,0,1.89,0.07,2.48,0.21v2.88c-0.66-0.12-1.32-0.18-2-0.18c-0.81,0-1.41,0.23-1.8,0.68s-0.59,1.23-0.59,2.35v1.62h3.53v2.6
		H552.06z"/>
	<linearGradient id="SVGID_32_" gradientUnits="userSpaceOnUse" x1="562.6743" y1="-13.8768" x2="566.0154" y2="218.8885">
		<stop  offset="0" style="stop-color:#0E84AF"/>
		<stop  offset="1" style="stop-color:#15416F"/>
	</linearGradient>
	<path class="st31" d="M570.64,197.41c-0.47-0.14-1.14-0.21-2.02-0.21c-1.69,0-3.13,0.88-4.34,2.65v13.18h-3.32v-18.65h3.32v2.6
		c1.39-2.02,3.01-3.02,4.85-3.02c0.47,0,0.97,0.05,1.51,0.14V197.41z"/>
	<linearGradient id="SVGID_33_" gradientUnits="userSpaceOnUse" x1="580.1556" y1="-14.1278" x2="583.4968" y2="218.6376">
		<stop  offset="0" style="stop-color:#0E84AF"/>
		<stop  offset="1" style="stop-color:#15416F"/>
	</linearGradient>
	<path class="st32" d="M587.53,210.66c-1.65,1.88-3.51,2.81-5.57,2.81c-4.21,0-6.31-2.3-6.31-6.89v-12.2h3.32v12.06
		c0,1.52,0.27,2.62,0.81,3.29s1.43,1,2.67,1c1.85,0,3.54-1,5.08-2.99v-13.36h3.3v18.65h-3.3V210.66z"/>
	<linearGradient id="SVGID_34_" gradientUnits="userSpaceOnUse" x1="598.0821" y1="-14.3851" x2="601.4232" y2="218.3803">
		<stop  offset="0" style="stop-color:#0E84AF"/>
		<stop  offset="1" style="stop-color:#15416F"/>
	</linearGradient>
	<path class="st33" d="M605.75,213.07c-0.73,0.14-1.52,0.21-2.37,0.21c-1.36,0-2.36-0.24-2.99-0.73s-1.03-1.11-1.18-1.87
		s-0.23-1.8-0.23-3.11v-10.58h-2.3v-2.6h2.3v-4.64h3.3v4.64h3.02v2.6h-3.02v10.76c0,1.28,0.16,2.09,0.48,2.43s0.76,0.52,1.33,0.52
		c0.57,0,1.12-0.05,1.65-0.14V213.07z"/>
	<linearGradient id="SVGID_35_" gradientUnits="userSpaceOnUse" x1="615.158" y1="-14.6302" x2="618.4991" y2="218.1352">
		<stop  offset="0" style="stop-color:#0E84AF"/>
		<stop  offset="1" style="stop-color:#15416F"/>
	</linearGradient>
	<path class="st34" d="M623.09,211.12c-1.69,1.57-3.86,2.36-6.52,2.36c-1.85,0-3.38-0.5-4.57-1.5s-1.79-2.29-1.79-3.88
		c0-4.36,3.76-6.54,11.27-6.54h1.62c0-1.34-0.07-2.31-0.21-2.91s-0.53-1.1-1.18-1.5s-1.67-0.6-3.08-0.6c-2.95,0-4.48,1.05-4.57,3.16
		h-3.3c0.25-3.83,2.93-5.75,8.05-5.75c2.39,0,4.25,0.47,5.59,1.42s2,2.81,2,5.59v12.06h-3.3V211.12z M623.09,208.13V204h-2.27
		c-4.8,0-7.21,1.31-7.21,3.92c0,0.95,0.35,1.68,1.05,2.19s1.65,0.76,2.85,0.76c1.09,0,2.14-0.25,3.16-0.74
		S622.51,208.98,623.09,208.13z"/>
</g>
</svg>
