<?xml version="1.0" encoding="utf-8"?>
<!-- Generator: Adobe Illustrator 16.0.0, SVG Export Plug-In . SVG Version: 6.00 Build 0)  -->
<!DOCTYPE svg PUBLIC "-//W3C//DTD SVG 1.1//EN" "http://www.w3.org/Graphics/SVG/1.1/DTD/svg11.dtd">
<svg version="1.1" id="Layer_1" xmlns="http://www.w3.org/2000/svg" xmlns:xlink="http://www.w3.org/1999/xlink" x="0px" y="0px"
	 width="100px" height="100px" viewBox="0 0 100 100" enable-background="new 0 0 100 100" xml:space="preserve">
<path fill-rule="evenodd" clip-rule="evenodd" fill="#0E0A0A" d="M84.96,55.817c-0.919,0-1.839,0-2.759,0v0.001H10.646v-0.001
	c-1.22,0-2.441,0-3.662,0c-0.492,0-0.813,0.264-0.816,0.654c-0.001,0.363,0.359,0.67,0.811,0.686c0.076,0.002,0.151,0,0.226,0
	c12.759-0.002,25.52-0.004,38.279-0.004c13.149,0,26.3,0.002,39.449,0.004c0.573,0,0.967-0.281,0.965-0.686
	C85.896,56.065,85.541,55.817,84.96,55.817z"/>
<g>
	<path fill-rule="evenodd" clip-rule="evenodd" fill="#0E0A0A" d="M64.777,83.162c-0.734,0.408-1.467,0.82-2.202,1.227
		c-1.376,0.762-2.401,0.504-3.211-0.824c-0.423-0.693-0.828-1.398-1.225-2.105c-0.349-0.623-0.822-1.105-1.469-1.414
		c-1.212-1.016-2.426-2.029-3.638-3.045c-0.301-0.25-0.599-0.504-0.899-0.752c-0.843-0.693-1.071-1.422-0.747-2.484
		c0.377-1.236,0.758-2.471,1.17-3.695c0.158-0.469,0.115-0.852-0.133-1.279c-1.557-2.676-3.105-5.357-4.618-8.059
		c-0.329-0.586-0.738-0.744-1.377-0.742C38.79,60.006,31.151,60,23.513,60c-3.056,0-4.6-1.555-4.604-4.613
		c-0.002-1.473-0.017-2.947-0.026-4.419c0.009-1.474,0.018-2.948,0.028-4.422c0.018-2.569,1.682-4.232,4.243-4.243
		c2.136-0.009,4.272-0.02,6.408-0.029c3.099,0.01,6.199,0.027,9.297,0.028c11.857,0.003,23.713,0.001,35.57,0.002
		c2.866,0,4.443,1.591,4.445,4.479c0.002,3.009,0.005,6.019-0.001,9.029c-0.006,2.588-1.634,4.207-4.236,4.209
		c-6.621,0.006-13.241,0-19.861,0.004c-1.13,0-1.15,0.035-0.597,0.99c0.783,1.354,1.597,2.691,2.345,4.064
		c0.302,0.553,0.666,0.773,1.291,0.709c2.211-0.23,4.432-0.377,6.636-0.654c2.246-0.283,3.077,0.41,3.24,2.689
		c0.171,2.367,0.432,4.727,0.718,7.08c0.107,0.885,0.746,1.557,1.223,2.279c0.929,2.111,0.708,2.764-1.287,3.902
		C67.147,81.766,65.965,82.467,64.777,83.162z M48.859,43.744c-8.604,0-17.208,0.001-25.811-0.001c-1.6,0-2.685,1.025-2.692,2.617
		c-0.015,3.188-0.014,6.378-0.001,9.566c0.006,1.549,1.064,2.627,2.598,2.629c7.762,0.006,15.523-0.006,23.285,0.006
		c0.488,0,0.745-0.078,0.86-0.635c0.213-1.037,0.943-1.643,1.95-1.904c1.285-0.332,2.409,0.197,3.158,1.629
		c0.375,0.721,0.82,0.924,1.609,0.92c6.919-0.033,13.838-0.016,20.757-0.021c1.834-0.002,2.853-1.02,2.855-2.844
		c0.005-2.979,0.002-5.957,0.001-8.935c-0.001-2.074-0.953-3.024-3.028-3.024C65.886,43.745,57.372,43.746,48.859,43.744z
		 M49.712,57.424c-0.457-0.014-0.825,0.164-1.064,0.555c-0.323,0.525-0.189,1.027,0.102,1.525c1.711,2.93,3.403,5.871,5.137,8.787
		c0.354,0.596,0.42,1.117,0.196,1.77c-0.437,1.275-0.778,2.584-1.196,3.865c-0.186,0.566-0.095,0.961,0.4,1.324
		c0.726,0.535,1.403,1.135,2.104,1.701c2.002,1.623,4.155,3.102,5.136,5.654c0.323,0.844,0.842,0.832,1.563,0.398
		c1.8-1.08,3.638-2.1,5.46-3.145c1.391-0.799,1.367-0.787,0.571-2.23c-0.43-0.777-1.09-1.453-1.184-2.393
		c-0.248-2.482-0.495-4.967-0.729-7.449c-0.115-1.23-0.267-1.326-1.533-1.205c-2.544,0.246-5.093,0.436-7.636,0.678
		c-0.658,0.063-1.024-0.156-1.355-0.748c-1.524-2.725-3.108-5.416-4.665-8.123C50.722,57.873,50.374,57.439,49.712,57.424z"/>
	<path fill-rule="evenodd" clip-rule="evenodd" fill="#7AD1ED" d="M48.859,43.745c8.513,0.001,17.027,0,25.541,0.001
		c2.075,0,3.027,0.951,3.028,3.024c0.001,2.978,0.004,5.956-0.001,8.935c-0.003,1.824-1.021,2.842-2.855,2.844
		c-6.919,0.006-13.838-0.012-20.757,0.021c-0.789,0.004-1.234-0.199-1.609-0.92c-0.749-1.432-1.874-1.961-3.158-1.629
		c-1.007,0.262-1.737,0.867-1.95,1.904c-0.115,0.557-0.372,0.635-0.86,0.635c-7.762-0.012-15.523,0-23.285-0.006
		c-1.534-0.002-2.592-1.08-2.598-2.629c-0.012-3.188-0.013-6.378,0.001-9.566c0.007-1.591,1.092-2.617,2.692-2.617
		C31.651,43.745,40.255,43.744,48.859,43.745z M32.998,51.092c0,1.143,0.011,2.285-0.004,3.43c-0.01,0.793,0.364,1.16,1.15,1.148
		c0.722-0.012,1.444-0.02,2.166,0c0.923,0.025,1.849-0.111,2.204-1.047c0.427-1.123,0.569-2.367-0.078-3.461
		c-0.274-0.464-0.381-0.661,0.001-1.108c0.618-0.724,0.44-1.603,0.092-2.382c-0.318-0.71-0.96-1.039-1.759-1.031
		c-0.872,0.009-1.746,0.03-2.616-0.005c-0.875-0.035-1.179,0.392-1.162,1.207C33.015,48.926,32.998,50.009,32.998,51.092z
		 M41.667,51.146c0,0.781-0.01,1.563,0.002,2.344c0.019,1.178,0.534,1.988,1.572,2.086c2.198,0.205,3.357,0.248,3.987-1.008
		c0.131-0.26,0.206-0.574,0.208-0.865c0.018-1.713,0.039-3.427-0.003-5.141c-0.029-1.161-0.811-1.884-1.959-1.916
		c-0.601-0.017-1.203-0.015-1.804-0.001c-1.188,0.025-1.953,0.768-1.997,1.976C41.643,49.461,41.667,50.304,41.667,51.146z
		 M50.337,51.084c0,0.811,0,1.623,0,2.434c0,0.061-0.003,0.121,0.001,0.18c0.08,1.279,0.865,1.91,2.313,1.965
		c2.462,0.096,3.297-0.271,3.43-1.902c0.14-1.73,0.066-3.484,0.021-5.227c-0.03-1.148-0.834-1.863-1.987-1.888
		c-0.57-0.012-1.142-0.009-1.713,0c-1.251,0.018-2.019,0.753-2.06,2.003C50.316,49.459,50.337,50.272,50.337,51.084z M60.706,49.847
		c-0.085-0.04-0.171-0.08-0.256-0.119c0-0.712,0.006-1.423-0.002-2.135c-0.006-0.508-0.209-0.938-0.763-0.912
		c-0.494,0.022-0.676,0.439-0.677,0.909c-0.002,2.343-0.001,4.688-0.002,7.03c0,0.5,0.163,0.977,0.697,0.984
		c0.597,0.01,0.751-0.49,0.748-1.021c-0.004-0.676-0.001-1.354-0.001-2.029c0.07-0.033,0.142-0.066,0.213-0.102
		c0.896,0.912,1.789,1.828,2.69,2.734c0.331,0.336,0.714,0.652,1.151,0.203c0.42-0.432,0.154-0.818-0.19-1.164
		c-0.873-0.869-1.731-1.754-2.623-2.604c-0.369-0.352-0.377-0.592-0.003-0.948c0.892-0.85,1.751-1.732,2.617-2.609
		c0.324-0.33,0.66-0.696,0.231-1.156c-0.484-0.519-0.862-0.137-1.208,0.217C62.451,48.029,61.58,48.939,60.706,49.847z"/>
	<path fill-rule="evenodd" clip-rule="evenodd" fill="#D9EDFA" d="M49.712,57.424c0.662,0.016,1.01,0.449,1.308,0.965
		c1.557,2.707,3.141,5.398,4.665,8.123c0.331,0.592,0.697,0.811,1.355,0.748c2.543-0.242,5.092-0.432,7.636-0.678
		c1.267-0.121,1.418-0.025,1.533,1.205c0.233,2.482,0.48,4.967,0.729,7.449c0.094,0.939,0.754,1.615,1.184,2.393
		c0.796,1.443,0.819,1.432-0.571,2.23c-1.822,1.045-3.66,2.064-5.46,3.145c-0.721,0.434-1.239,0.445-1.563-0.398
		c-0.98-2.553-3.134-4.031-5.136-5.654c-0.701-0.566-1.379-1.166-2.104-1.701c-0.495-0.363-0.586-0.758-0.4-1.324
		c0.418-1.281,0.76-2.59,1.196-3.865c0.224-0.652,0.157-1.174-0.196-1.77c-1.734-2.916-3.426-5.857-5.137-8.787
		c-0.291-0.498-0.425-1-0.102-1.525C48.887,57.588,49.255,57.41,49.712,57.424z"/>
	<path fill-rule="evenodd" clip-rule="evenodd" fill="#FDFDFC" d="M32.998,51.092c0-1.083,0.017-2.166-0.005-3.249
		c-0.017-0.815,0.288-1.242,1.162-1.207c0.871,0.035,1.744,0.014,2.616,0.005c0.798-0.008,1.441,0.32,1.759,1.031
		c0.348,0.779,0.526,1.658-0.092,2.382c-0.382,0.448-0.275,0.644-0.001,1.108c0.647,1.094,0.505,2.338,0.078,3.461
		c-0.355,0.936-1.281,1.072-2.204,1.047c-0.722-0.02-1.444-0.012-2.166,0c-0.786,0.012-1.161-0.355-1.15-1.148
		C33.008,53.377,32.998,52.234,32.998,51.092z M34.445,51.242c0,0.842,0.005,1.684-0.002,2.527
		c-0.003,0.342,0.067,0.598,0.483,0.592c0.632-0.008,1.264,0.002,1.895-0.02c0.209-0.006,0.486-0.078,0.473-0.326
		c-0.044-0.891,0.386-1.869-0.486-2.617c-0.617-0.532-0.69-1.09,0.012-1.634c0.141-0.11,0.266-0.249,0.371-0.393
		c0.235-0.323,0.187-0.704,0.088-1.039c-0.112-0.384-0.499-0.246-0.779-0.259c-0.45-0.02-0.905,0.025-1.354-0.01
		c-0.569-0.044-0.731,0.208-0.71,0.741C34.468,49.616,34.445,50.429,34.445,51.242z"/>
	<path fill-rule="evenodd" clip-rule="evenodd" fill="#FDFDFC" d="M41.667,51.146c0-0.842-0.024-1.685,0.006-2.525
		c0.044-1.208,0.808-1.951,1.997-1.976c0.601-0.013,1.203-0.015,1.804,0.001c1.149,0.032,1.931,0.755,1.959,1.916
		c0.042,1.713,0.021,3.428,0.003,5.141c-0.003,0.291-0.078,0.605-0.208,0.865c-0.63,1.256-1.789,1.213-3.987,1.008
		c-1.038-0.098-1.553-0.908-1.572-2.086C41.657,52.709,41.667,51.928,41.667,51.146z M43.112,51.08c0,0.359-0.009,0.723,0.001,1.082
		c0.07,2.436-0.516,2.01,2.187,2.074c0.574,0.014,0.719-0.242,0.708-0.762c-0.024-1.113-0.007-2.227-0.007-3.339
		c0-2.289,0.002-2.275-2.28-2.075c-0.47,0.042-0.625,0.226-0.614,0.672C43.127,49.515,43.113,50.297,43.112,51.08z"/>
	<path fill-rule="evenodd" clip-rule="evenodd" fill="#FDFDFC" d="M50.337,51.084c0-0.812-0.021-1.625,0.005-2.436
		c0.041-1.25,0.809-1.986,2.06-2.003c0.571-0.009,1.143-0.012,1.713,0c1.153,0.025,1.957,0.74,1.987,1.888
		c0.046,1.743,0.119,3.496-0.021,5.227c-0.133,1.631-0.968,1.998-3.43,1.902c-1.448-0.055-2.233-0.686-2.313-1.965
		c-0.004-0.059-0.001-0.119-0.001-0.18C50.337,52.707,50.337,51.895,50.337,51.084z M54.67,51.152c0-0.36,0-0.721,0-1.083
		c0.001-2.111,0.001-2.095-2.16-2.009c-0.533,0.021-0.752,0.178-0.736,0.736c0.032,1.113,0.008,2.227,0.01,3.34
		c0.001,2.27,0,2.258,2.251,2.1c0.457-0.031,0.65-0.182,0.64-0.645C54.654,52.779,54.668,51.965,54.67,51.152z"/>
	<path fill-rule="evenodd" clip-rule="evenodd" fill="#FDFDFC" d="M60.706,49.847c0.874-0.908,1.745-1.818,2.624-2.72
		c0.346-0.354,0.724-0.736,1.208-0.217c0.429,0.46,0.093,0.827-0.231,1.156c-0.866,0.876-1.726,1.759-2.617,2.609
		c-0.374,0.356-0.366,0.596,0.003,0.948c0.892,0.85,1.75,1.734,2.623,2.604c0.345,0.346,0.61,0.732,0.19,1.164
		c-0.438,0.449-0.82,0.133-1.151-0.203c-0.901-0.906-1.795-1.822-2.69-2.734c-0.071,0.035-0.143,0.068-0.213,0.102
		c0,0.676-0.003,1.354,0.001,2.029c0.003,0.531-0.151,1.031-0.748,1.021c-0.534-0.008-0.697-0.484-0.697-0.984
		c0.001-2.342,0-4.687,0.002-7.03c0.001-0.47,0.183-0.887,0.677-0.909c0.554-0.026,0.757,0.404,0.763,0.912
		c0.008,0.712,0.002,1.422,0.002,2.135C60.535,49.768,60.621,49.807,60.706,49.847z"/>
	<path fill-rule="evenodd" clip-rule="evenodd" fill="#7AD1ED" d="M34.445,51.242c0-0.813,0.023-1.626-0.008-2.437
		c-0.021-0.533,0.142-0.786,0.71-0.741c0.449,0.035,0.903-0.01,1.354,0.01c0.28,0.013,0.667-0.125,0.779,0.259
		c0.098,0.335,0.147,0.716-0.088,1.039c-0.105,0.145-0.23,0.283-0.371,0.393c-0.702,0.544-0.629,1.103-0.012,1.634
		c0.872,0.748,0.441,1.727,0.486,2.617c0.013,0.248-0.264,0.32-0.473,0.326c-0.631,0.021-1.263,0.012-1.895,0.02
		c-0.417,0.006-0.486-0.25-0.483-0.592C34.45,52.926,34.445,52.084,34.445,51.242z"/>
	<path fill-rule="evenodd" clip-rule="evenodd" fill="#7AD1ED" d="M43.113,51.08c0-0.783,0.014-1.565-0.004-2.347
		c-0.011-0.446,0.144-0.63,0.614-0.672c2.282-0.201,2.28-0.214,2.28,2.075c0,1.113-0.018,2.226,0.007,3.339
		c0.011,0.52-0.134,0.775-0.708,0.762c-2.703-0.064-2.117,0.361-2.187-2.074C43.104,51.803,43.112,51.439,43.113,51.08z"/>
	<path fill-rule="evenodd" clip-rule="evenodd" fill="#7AD1ED" d="M54.669,51.152c-0.001,0.813-0.015,1.627,0.005,2.439
		c0.011,0.463-0.183,0.613-0.64,0.645c-2.251,0.158-2.25,0.17-2.251-2.1c-0.002-1.113,0.022-2.228-0.01-3.34
		c-0.016-0.558,0.203-0.715,0.736-0.736c2.161-0.086,2.161-0.102,2.16,2.009C54.67,50.431,54.67,50.792,54.669,51.152z"/>
</g>
<path fill-rule="evenodd" clip-rule="evenodd" fill="#0E0A0A" d="M33.206,17.731c2.503-0.019,4.567,2.015,4.598,4.53
	c0.03,2.514-2.053,4.64-4.593,4.63c-2.636-0.011-4.542-2.164-4.582-4.517C28.586,19.823,30.725,17.675,33.206,17.731z
	 M30.262,20.358c-0.06,0.024-0.071,0.074-0.071,0.13c-0.146,0.151-0.231,0.331-0.266,0.537c-0.275,0.603-0.314,1.228-0.206,1.877
	c0.31,1.861,2.066,3.196,3.932,2.921c1.419-0.209,2.436-0.989,2.903-2.367c0.453-1.336,0.187-2.549-0.784-3.592
	c-0.275-0.328-0.619-0.563-1.003-0.745c-1.19-0.548-2.344-0.508-3.458,0.208c-0.146,0.073-0.294,0.142-0.384,0.29
	c-0.023,0.021-0.046,0.042-0.069,0.064c-0.152,0.072-0.253,0.194-0.33,0.339C30.394,20.099,30.321,20.224,30.262,20.358z"/>
<path fill-rule="evenodd" clip-rule="evenodd" fill="#0E0A0A" d="M82.249,67.196c-0.639,0.002-0.639,0.002-0.643,0.631
	c0,0.156,0.008,0.313-0.001,0.467c-0.019,0.301-0.237,0.533-0.517,0.561c-0.261,0.025-0.559-0.182-0.599-0.473
	c-0.042-0.307-0.036-0.622-0.023-0.933c0.008-0.205-0.049-0.272-0.259-0.257c-0.266,0.021-0.534,0.011-0.802,0.002
	c-0.335-0.012-0.561-0.25-0.558-0.572c0.003-0.307,0.251-0.56,0.575-0.568c0.277-0.009,0.557-0.011,0.835,0.001
	c0.159,0.007,0.214-0.042,0.206-0.204c-0.013-0.267-0.012-0.535-0.002-0.802c0.015-0.39,0.242-0.624,0.588-0.624
	c0.347,0,0.549,0.232,0.555,0.642c0.004,0.267,0.008,0.534-0.003,0.802c-0.006,0.148,0.048,0.19,0.189,0.186
	c0.268-0.009,0.535-0.004,0.803-0.002c0.389,0.004,0.652,0.248,0.65,0.6c-0.001,0.304-0.271,0.538-0.628,0.545
	C82.494,67.198,82.372,67.196,82.249,67.196z"/>
<path fill-rule="evenodd" clip-rule="evenodd" fill="#0E0A0A" d="M13.239,29.938c0-0.133-0.004-0.268,0.001-0.4
	c0.014-0.352,0.203-0.557,0.518-0.568c0.341-0.012,0.597,0.205,0.619,0.555c0.018,0.266,0.021,0.535-0.003,0.8
	c-0.021,0.234,0.072,0.277,0.277,0.264c0.233-0.016,0.467-0.008,0.701-0.002c0.363,0.006,0.631,0.252,0.636,0.576
	c0.006,0.352-0.214,0.568-0.615,0.586c-0.266,0.012-0.535,0.014-0.801-0.002c-0.172-0.01-0.204,0.059-0.198,0.209
	c0.01,0.268,0.012,0.535,0.002,0.801c-0.013,0.371-0.262,0.637-0.583,0.639c-0.334,0-0.55-0.248-0.555-0.646
	c-0.003-0.232-0.024-0.469,0.003-0.699c0.031-0.268-0.079-0.324-0.316-0.309c-0.254,0.018-0.512,0.016-0.767-0.002
	c-0.345-0.023-0.556-0.258-0.55-0.58c0.007-0.322,0.232-0.557,0.569-0.572c0.256-0.01,0.513-0.016,0.768,0.004
	c0.227,0.018,0.33-0.041,0.293-0.285c-0.018-0.121-0.003-0.244-0.003-0.367C13.237,29.938,13.238,29.938,13.239,29.938z"/>
<path fill-rule="evenodd" clip-rule="evenodd" fill="#0E0A0A" d="M25.37,70.014c-0.567-0.002-1.055-0.485-1.057-1.049
	c-0.002-0.588,0.489-1.084,1.069-1.083c0.54,0.001,1.034,0.496,1.046,1.047C26.44,69.529,25.966,70.015,25.37,70.014z"/>
<path fill-rule="evenodd" clip-rule="evenodd" fill="#0E0A0A" d="M64.539,27.867c-0.523,0-0.989-0.479-1.001-1.031
	c-0.013-0.551,0.497-1.074,1.053-1.082c0.54-0.008,1.079,0.523,1.078,1.063C65.667,27.42,65.187,27.867,64.539,27.867z"/>
<path fill-rule="evenodd" clip-rule="evenodd" fill="#D9EDFA" d="M35.77,19.865c0.971,1.042,1.236,2.256,0.784,3.592
	c-0.467,1.377-1.484,2.158-2.903,2.367c-1.865,0.275-3.622-1.06-3.932-2.921c-0.108-0.65-0.069-1.274,0.206-1.877l0.002,0.001
	c0.03,0.158-0.002,0.307-0.052,0.458c-0.147,0.437-0.146,0.88-0.054,1.327c0.142-0.516,0.327-1.009,0.646-1.432
	c0.592-0.784,1.307-1.407,2.306-1.625c0.77-0.168,1.537-0.269,2.292,0.056c0.14,0.06,0.269,0.107,0.406,0.008l0.006,0.005
	c0.021,0.2,0.189,0.216,0.33,0.268c0.009,0.004,0.019,0.008,0.029,0.012c-0.008-0.005-0.016-0.011-0.024-0.017
	c-0.024-0.066-0.047-0.132-0.071-0.198C35.75,19.881,35.76,19.873,35.77,19.865z"/>
<path fill-rule="evenodd" clip-rule="evenodd" fill="#FDFAD8" d="M31.309,19.328c1.114-0.716,2.268-0.755,3.458-0.208
	c-0.01,0.012-0.02,0.023-0.03,0.035c-0.13,0.038-0.238-0.041-0.349-0.079c-0.538-0.184-1.073-0.278-1.653-0.196
	c-0.506,0.072-0.922,0.36-1.403,0.476C31.324,19.347,31.316,19.337,31.309,19.328z"/>
<path fill-rule="evenodd" clip-rule="evenodd" fill="#FDFAD8" d="M34.767,19.12c0.384,0.182,0.728,0.417,1.003,0.745
	c-0.01,0.008-0.02,0.016-0.029,0.023c-0.088-0.021-0.175-0.043-0.263-0.065l-0.006-0.005c0.008-0.156-0.135-0.181-0.221-0.255
	c-0.166-0.143-0.396-0.205-0.514-0.408C34.747,19.143,34.756,19.132,34.767,19.12z"/>
<path fill-rule="evenodd" clip-rule="evenodd" fill="#FDFAD8" d="M29.925,21.025c0.034-0.206,0.12-0.386,0.266-0.537l0.003,0.003
	c-0.002,0.222-0.011,0.44-0.267,0.535L29.925,21.025z"/>
<path fill-rule="evenodd" clip-rule="evenodd" fill="#FDFAD8" d="M30.525,20.021c0.077-0.146,0.178-0.267,0.33-0.339l0.006,0.006
	c-0.022,0.2-0.179,0.266-0.333,0.335L30.525,20.021z"/>
<path fill-rule="evenodd" clip-rule="evenodd" fill="#FDFAD8" d="M30.925,19.618c0.089-0.148,0.238-0.217,0.384-0.29
	c0.007,0.01,0.015,0.019,0.022,0.028c-0.101,0.139-0.199,0.282-0.402,0.266L30.925,19.618z"/>
<path fill-rule="evenodd" clip-rule="evenodd" fill="#FDFAD8" d="M30.262,20.358c0.06-0.135,0.132-0.259,0.264-0.337l0.003,0.002
	C30.495,20.179,30.47,20.342,30.262,20.358L30.262,20.358z"/>
<path fill-rule="evenodd" clip-rule="evenodd" fill="#FDFAD8" d="M30.191,20.488c0-0.056,0.011-0.106,0.071-0.13v0
	c0.006,0.059,0.017,0.12-0.067,0.132L30.191,20.488z"/>
<path fill-rule="evenodd" clip-rule="evenodd" fill="#FDFAD8" d="M30.855,19.682c0.023-0.021,0.046-0.043,0.069-0.064l0.004,0.004
	c0.006,0.05-0.022,0.066-0.067,0.066L30.855,19.682z"/>
<path fill-rule="evenodd" clip-rule="evenodd" fill="#7AD1ED" d="M30.862,19.688c0.044,0,0.073-0.016,0.067-0.066
	c0.203,0.016,0.302-0.126,0.402-0.266c0.481-0.116,0.896-0.404,1.403-0.476c0.58-0.083,1.115,0.012,1.653,0.196
	c0.111,0.038,0.219,0.117,0.349,0.079c0.119,0.203,0.349,0.265,0.514,0.408c0.086,0.074,0.229,0.1,0.221,0.255
	c-0.138,0.099-0.267,0.052-0.406-0.008c-0.755-0.324-1.522-0.224-2.292-0.056c-0.999,0.218-1.713,0.841-2.306,1.625
	c-0.319,0.422-0.504,0.916-0.646,1.432c-0.092-0.447-0.093-0.89,0.054-1.327c0.05-0.15,0.082-0.299,0.052-0.458
	c0.256-0.095,0.265-0.313,0.267-0.535c0.084-0.013,0.074-0.074,0.067-0.132c0.208-0.017,0.233-0.18,0.267-0.335
	C30.683,19.954,30.839,19.888,30.862,19.688z"/>
<path fill-rule="evenodd" clip-rule="evenodd" fill="#F2777A" d="M35.478,19.823c0.088,0.022,0.175,0.044,0.263,0.065
	c0.024,0.066,0.047,0.132,0.071,0.198l-0.004,0.004C35.667,20.04,35.499,20.023,35.478,19.823z"/>
<path fill-rule="evenodd" clip-rule="evenodd" fill="#F2777A" d="M35.813,20.086c0.008,0.005,0.016,0.011,0.024,0.017
	c-0.01-0.004-0.02-0.008-0.029-0.012L35.813,20.086z"/>
<path fill-rule="evenodd" clip-rule="evenodd" fill="#0E0A0A" d="M88.515,55.817c0.167,0,0.333-0.002,0.5,0
	c0.412,0.006,0.692,0.26,0.705,0.637c0.012,0.346-0.267,0.676-0.627,0.695c-0.399,0.023-0.802,0.023-1.2,0.002
	c-0.354-0.02-0.644-0.365-0.627-0.701c0.018-0.354,0.309-0.625,0.682-0.633C88.137,55.813,88.325,55.817,88.515,55.817z"/>
<path fill-rule="evenodd" clip-rule="evenodd" fill="#0E0A0A" d="M91.947,56.481c-0.003,0.383-0.298,0.68-0.669,0.676
	c-0.358-0.004-0.671-0.332-0.662-0.695s0.297-0.645,0.663-0.645C91.667,55.819,91.949,56.101,91.947,56.481z"/>
</svg>
