<?xml version="1.0" encoding="utf-8"?>
<!-- Generator: Adobe Illustrator 16.0.0, SVG Export Plug-In . SVG Version: 6.00 Build 0)  -->
<!DOCTYPE svg PUBLIC "-//W3C//DTD SVG 1.1//EN" "http://www.w3.org/Graphics/SVG/1.1/DTD/svg11.dtd">
<svg version="1.1" id="Layer_1" xmlns="http://www.w3.org/2000/svg" xmlns:xlink="http://www.w3.org/1999/xlink" x="0px" y="0px"
	 width="100px" height="100px" viewBox="0 0 100 100" enable-background="new 0 0 100 100" xml:space="preserve">
<g>
	<path fill-rule="evenodd" clip-rule="evenodd" fill="#D9EDFA" d="M81.273,60.771c-0.073,2.521-0.979,4.789-2.163,6.963
		c-0.908,1.665-2.102,3.14-3.427,4.472c-1.93,1.939-4.133,3.552-6.551,4.853c-3.101,1.669-6.377,2.878-9.813,3.63
		c-1.955,0.429-3.936,0.704-5.938,0.865c-1.142,0.093-2.278,0.106-3.418,0.119c-3.888,0.043-7.703-0.502-11.443-1.532
		c-3.588-0.987-6.972-2.459-10.059-4.56c-3.414-2.323-6.278-5.161-8.116-8.916c-0.91-1.859-1.535-3.81-1.656-5.896
		c0.718-0.011,1.438-0.041,2.155-0.026c0.471,0.01,0.825-0.116,0.999-0.583c0.634,0,1.268,0,1.902,0
		c0.154,0.562,0.593,0.58,1.063,0.578c2.835-0.005,5.672,0.049,8.504-0.026c1.149-0.031,1.968,0.3,2.809,1.101
		c7.938,7.568,17.51,10.671,28.342,10.126c2.367-0.119,4.565-0.863,6.26-2.706c1.162-1.262,2.381-2.471,3.606-3.671
		c1.267-1.239,2.134-2.669,2.288-4.464c0.026-0.299,0.135-0.369,0.408-0.365C78.441,60.753,79.857,60.76,81.273,60.771z"/>
	<path fill-rule="evenodd" clip-rule="evenodd" fill="#0B0B0D" d="M81.273,60.771c-1.416-0.012-2.832-0.019-4.248-0.039
		c-0.273-0.004-0.382,0.066-0.408,0.365c-0.154,1.795-1.021,3.225-2.288,4.464c-1.226,1.2-2.444,2.409-3.606,3.671
		c-1.694,1.843-3.893,2.587-6.26,2.706c-10.832,0.545-20.405-2.558-28.342-10.126c-0.84-0.801-1.66-1.132-2.809-1.101
		c-2.833,0.075-5.669,0.021-8.504,0.026c-0.47,0.002-0.909-0.017-1.063-0.578c0.082-0.604,0.512-0.629,0.994-0.628
		c2.934,0.009,5.868,0.005,8.792,0.005c0.134-0.252-0.082-0.334-0.187-0.441c-5.703-5.825-8.896-12.854-10.055-20.874
		c-0.487-3.37-0.695-6.721,0.177-10.061c0.351-1.343,0.962-2.527,1.954-3.534c1.659-1.684,3.286-3.404,5.102-4.921
		c2.337-1.953,6.008-1.82,8.167,0.314c2.454,2.427,4.269,5.354,6.224,8.168c0.727,1.046,1.364,2.13,1.614,3.399
		c0.453,2.301,0.059,4.333-1.829,5.924c-1.617,1.364-3.186,2.783-4.809,4.138c-0.381,0.318-0.408,0.571-0.233,0.986
		c0.954,2.274,2.373,4.243,4.013,6.053c2.452,2.708,5.163,5.088,8.557,6.586c0.55,0.244,0.837,0.164,1.219-0.301
		c1.232-1.499,2.588-2.897,3.783-4.423c1.91-2.439,4.714-2.71,7.175-1.813c0.416,0.152,0.842,0.324,1.208,0.568
		c2.853,1.899,5.712,3.791,8.335,6.008c1.232,1.041,2.306,2.2,2.554,3.892c0.062,0.411,0.371,0.328,0.631,0.328
		c1.568,0.003,3.137,0.002,4.705,0.003c0.469,0,1.069-0.081,1.044,0.606c-0.023,0.649-0.612,0.59-1.087,0.595
		C81.62,60.739,81.447,60.76,81.273,60.771z M29.789,23.631c-0.718,0.735-1.354,1.474-2.079,2.108
		c-1.596,1.397-2.08,3.245-2.309,5.238c-0.308,2.676-0.017,5.315,0.471,7.934c0.939,5.037,2.482,9.841,5.563,14.04
		c2.248,3.063,4.823,5.812,7.686,8.304c7.177,6.25,15.643,8.634,24.99,8.29c1.999-0.073,3.84-0.727,5.215-2.339
		c0.499-0.585,1.071-1.11,1.637-1.635c0.314-0.293,0.324-0.438-0.061-0.701c-4.634-3.163-9.259-6.34-13.87-9.537
		c-0.396-0.274-0.57-0.194-0.831,0.128c-0.548,0.676-1.154,1.306-1.688,1.991c-0.524,0.674-1.142,0.771-1.914,0.522
		c-0.781-0.25-1.545-0.532-2.272-0.906c-3.987-2.054-7.199-5.019-9.936-8.523c-1.456-1.865-2.688-3.863-3.378-6.16
		c-0.234-0.78-0.148-1.39,0.524-1.913c0.648-0.502,1.231-1.087,1.879-1.588c0.408-0.315,0.473-0.531,0.151-0.994
		c-2.171-3.117-4.305-6.26-6.45-9.395C32.026,26.901,30.935,25.306,29.789,23.631z M44.254,33.258
		c0.026-1.15-0.322-2.069-0.847-2.928c-0.271-0.443-0.566-0.875-0.864-1.302c-1.689-2.423-3.285-4.92-5.336-7.066
		c-1.361-1.424-3.565-1.573-5.088-0.444c-0.439,0.326-0.465,0.544-0.148,1.001c3.048,4.41,6.067,8.839,9.095,13.263
		c0.701,1.024,0.684,1.004,1.643,0.23C43.637,35.263,44.37,34.434,44.254,33.258z M61.928,50.725
		c-0.502-0.015-0.993,0.038-1.458,0.241c-0.962,0.421-1.441,1.344-2.117,2.059c-0.228,0.241,0.095,0.328,0.234,0.424
		c4.685,3.228,9.375,6.446,14.054,9.682c0.341,0.235,0.5,0.144,0.722-0.136c0.668-0.847,0.88-1.814,0.827-2.863
		c-0.078-1.537-1.146-2.419-2.211-3.291c-2.327-1.911-4.836-3.57-7.322-5.261C63.843,51.027,62.93,50.71,61.928,50.725z"/>
	<path fill-rule="evenodd" clip-rule="evenodd" fill="#0B0B0D" d="M21.843,60.16c-0.174,0.467-0.527,0.593-0.999,0.583
		c-0.717-0.015-1.437,0.016-2.155,0.026c-0.322-0.014-0.646-0.008-0.966-0.045c-0.363-0.042-0.621-0.263-0.603-0.633
		c0.018-0.367,0.262-0.561,0.656-0.558c1.12,0.009,2.24,0.008,3.359,0C21.57,59.531,21.749,59.791,21.843,60.16z"/>
	<path fill-rule="evenodd" clip-rule="evenodd" fill="#D9EDFA" d="M62.376,71.003c-9.443,0-17.582-2.917-24.191-8.672
		c-3.006-2.618-5.664-5.491-7.899-8.536c-2.825-3.852-4.674-8.498-5.815-14.623c-0.619-3.32-0.769-5.898-0.486-8.358
		c0.235-2.039,0.749-4.364,2.786-6.148c0.445-0.39,0.871-0.843,1.321-1.322c0.221-0.234,0.445-0.472,0.677-0.709l1.215-1.244
		l5.861,8.567c1.624,2.377,3.248,4.754,4.893,7.117c0.745,1.071,0.582,2.142-0.449,2.937c-0.302,0.234-0.589,0.488-0.876,0.742
		c-0.328,0.289-0.656,0.578-1.001,0.845c-0.06,0.047-0.087,0.078-0.097,0.09c0.006,0.006,0.007,0.097,0.064,0.287
		c0.559,1.857,1.555,3.666,3.137,5.692c2.864,3.669,5.959,6.33,9.463,8.134c0.56,0.288,1.194,0.539,2.056,0.816
		c0.154,0.049,0.235,0.056,0.267,0.056c0.007-0.007,0.04-0.037,0.086-0.097c0.312-0.399,0.646-0.782,0.979-1.162
		c0.246-0.281,0.493-0.562,0.728-0.851c0.162-0.203,0.663-0.823,1.539-0.823c0.406,0,0.803,0.138,1.211,0.421
		c4.28,2.968,8.814,6.085,13.862,9.531c0.21,0.144,0.848,0.578,0.91,1.407c0.062,0.824-0.498,1.345-0.683,1.516l-0.09,0.084
		c-0.521,0.484-1.014,0.941-1.433,1.433c-1.522,1.786-3.625,2.741-6.247,2.838C63.563,70.992,62.969,71.003,62.376,71.003z"/>
	<path fill-rule="evenodd" clip-rule="evenodd" fill="#7AD1ED" d="M41.825,38c-0.971,0-1.459-0.714-1.932-1.405l-1.972-2.884
		c-2.369-3.465-4.737-6.929-7.124-10.381c-0.757-1.094-0.585-2.172,0.472-2.957c0.908-0.673,1.993-1.029,3.137-1.029
		c1.443,0,2.84,0.595,3.832,1.633c1.779,1.861,3.222,3.962,4.618,5.994c0.285,0.415,0.57,0.829,0.857,1.242
		c0.281,0.404,0.607,0.876,0.91,1.373c0.735,1.201,1.073,2.355,1.059,3.624c0.158,2.109-1.463,3.417-2.079,3.913l-0.061,0.049
		C42.968,37.634,42.516,38,41.825,38z"/>
	<path fill-rule="evenodd" clip-rule="evenodd" fill="#7AD1ED" d="M72.974,64.69c-0.393,0-0.768-0.128-1.145-0.389
		c-3.088-2.135-6.181-4.264-9.274-6.392l-4.738-3.262c-0.555-0.304-0.866-0.711-0.949-1.224c-0.047-0.289-0.05-0.852,0.449-1.38
		c0.168-0.179,0.321-0.373,0.477-0.567c0.489-0.614,1.1-1.378,2.104-1.818c0.561-0.245,1.174-0.363,1.877-0.363
		c0,0,0.198,0.003,0.2,0.003c1.243,0,2.407,0.371,3.482,1.101l0.809,0.549c2.209,1.497,4.493,3.045,6.618,4.79
		c1.166,0.956,2.619,2.146,2.729,4.32c0.075,1.489-0.307,2.773-1.133,3.82C74.321,64.08,73.838,64.69,72.974,64.69z"/>
	<path fill-rule="evenodd" clip-rule="evenodd" fill="#0E0A0A" d="M48.927,9.166c2.503-0.019,4.567,2.015,4.598,4.53
		c0.03,2.514-2.053,4.641-4.594,4.63c-2.636-0.011-4.542-2.164-4.581-4.517C44.307,11.257,46.445,9.11,48.927,9.166z M45.982,11.793
		c-0.06,0.024-0.071,0.074-0.07,0.13c-0.146,0.151-0.232,0.331-0.266,0.537c-0.275,0.603-0.314,1.228-0.207,1.878
		c0.311,1.861,2.067,3.195,3.933,2.92c1.418-0.209,2.436-0.988,2.902-2.366c0.453-1.336,0.188-2.55-0.783-3.592
		c-0.275-0.328-0.619-0.563-1.004-0.745c-1.189-0.548-2.344-0.508-3.458,0.208c-0.146,0.073-0.295,0.142-0.384,0.29
		c-0.023,0.021-0.046,0.042-0.069,0.064c-0.152,0.072-0.253,0.194-0.33,0.339C46.115,11.534,46.042,11.658,45.982,11.793z"/>
	<path fill-rule="evenodd" clip-rule="evenodd" fill="#D9EDFA" d="M51.491,11.3c0.971,1.042,1.236,2.256,0.783,3.592
		c-0.467,1.378-1.484,2.157-2.902,2.366c-1.865,0.275-3.622-1.059-3.933-2.92c-0.107-0.65-0.068-1.275,0.207-1.878l0.002,0.001
		c0.029,0.158-0.002,0.307-0.053,0.457c-0.146,0.438-0.146,0.881-0.054,1.327c0.142-0.516,0.327-1.009,0.646-1.432
		c0.593-0.784,1.307-1.407,2.306-1.625c0.771-0.168,1.536-0.269,2.292,0.056c0.14,0.06,0.269,0.107,0.406,0.008l0.006,0.005
		c0.021,0.2,0.189,0.216,0.33,0.268c0.01,0.004,0.02,0.008,0.029,0.012c-0.008-0.005-0.016-0.011-0.024-0.017
		c-0.024-0.066-0.048-0.132-0.071-0.198C51.472,11.315,51.481,11.308,51.491,11.3z"/>
	<path fill-rule="evenodd" clip-rule="evenodd" fill="#FDFAD8" d="M47.029,10.762c1.114-0.716,2.269-0.755,3.458-0.208
		c-0.01,0.012-0.02,0.023-0.03,0.035c-0.13,0.038-0.238-0.041-0.349-0.079c-0.539-0.184-1.074-0.278-1.654-0.196
		c-0.506,0.072-0.922,0.36-1.402,0.476C47.045,10.781,47.037,10.772,47.029,10.762z"/>
	<path fill-rule="evenodd" clip-rule="evenodd" fill="#FDFAD8" d="M50.487,10.555c0.385,0.182,0.729,0.417,1.004,0.745
		c-0.01,0.008-0.02,0.016-0.029,0.023c-0.088-0.021-0.176-0.043-0.264-0.065l-0.006-0.005c0.008-0.156-0.135-0.181-0.221-0.255
		c-0.166-0.143-0.396-0.205-0.515-0.408C50.468,10.578,50.478,10.566,50.487,10.555z"/>
	<path fill-rule="evenodd" clip-rule="evenodd" fill="#FDFAD8" d="M80.646,31.517c0.033-0.206,0.119-0.386,0.266-0.537l0.003,0.003
		c-0.002,0.223-0.011,0.44-0.267,0.535L80.646,31.517z"/>
	<path fill-rule="evenodd" clip-rule="evenodd" fill="#FDFAD8" d="M46.246,11.456c0.077-0.146,0.178-0.267,0.33-0.339l0.006,0.006
		c-0.021,0.2-0.179,0.266-0.332,0.335L46.246,11.456z"/>
	<path fill-rule="evenodd" clip-rule="evenodd" fill="#FDFAD8" d="M46.646,11.052c0.089-0.148,0.238-0.217,0.384-0.29
		c0.008,0.01,0.016,0.019,0.022,0.028c-0.101,0.139-0.199,0.282-0.402,0.266L46.646,11.052z"/>
	<path fill-rule="evenodd" clip-rule="evenodd" fill="#FDFAD8" d="M45.982,11.793c0.06-0.135,0.133-0.259,0.264-0.337l0.004,0.002
		C46.216,11.614,46.19,11.776,45.982,11.793L45.982,11.793z"/>
	<path fill-rule="evenodd" clip-rule="evenodd" fill="#FDFAD8" d="M80.912,30.979c-0.001-0.056,0.011-0.106,0.07-0.13v0
		c0.006,0.058,0.018,0.12-0.067,0.132L80.912,30.979z"/>
	<path fill-rule="evenodd" clip-rule="evenodd" fill="#FDFAD8" d="M46.576,11.116c0.023-0.021,0.046-0.043,0.069-0.064l0.004,0.004
		c0.006,0.05-0.022,0.066-0.067,0.066L46.576,11.116z"/>
	<path fill-rule="evenodd" clip-rule="evenodd" fill="#7AD1ED" d="M46.582,11.123c0.045,0,0.073-0.016,0.067-0.066
		c0.203,0.016,0.302-0.126,0.402-0.266c0.48-0.116,0.896-0.404,1.402-0.476c0.58-0.083,1.115,0.012,1.654,0.196
		c0.11,0.038,0.219,0.117,0.349,0.079c0.118,0.203,0.349,0.265,0.515,0.408c0.086,0.074,0.229,0.1,0.221,0.255
		c-0.138,0.099-0.267,0.052-0.406-0.008c-0.756-0.324-1.521-0.224-2.292-0.056c-0.999,0.218-1.713,0.84-2.306,1.625
		c-0.319,0.423-0.505,0.916-0.646,1.432c-0.092-0.446-0.093-0.89,0.054-1.327c0.051-0.15,0.082-0.299,0.053-0.457
		c0.256-0.095,0.265-0.313,0.267-0.535c0.085-0.013,0.073-0.074,0.067-0.132c0.208-0.017,0.233-0.18,0.268-0.335
		C46.403,11.388,46.561,11.323,46.582,11.123z"/>
	<path fill-rule="evenodd" clip-rule="evenodd" fill="#F2777A" d="M51.198,11.258c0.088,0.022,0.176,0.044,0.264,0.065
		c0.023,0.066,0.047,0.132,0.071,0.198l-0.005,0.004C51.388,11.474,51.22,11.458,51.198,11.258z"/>
	<path fill-rule="evenodd" clip-rule="evenodd" fill="#F2777A" d="M51.533,11.521c0.009,0.005,0.017,0.011,0.024,0.017
		c-0.01-0.004-0.02-0.008-0.029-0.012L51.533,11.521z"/>
	<path fill-rule="evenodd" clip-rule="evenodd" fill="#0E0A0A" d="M80.484,49.387c-0.639,0.002-0.639,0.002-0.643,0.631
		c0,0.156,0.008,0.313-0.001,0.467c-0.019,0.301-0.237,0.533-0.517,0.561c-0.261,0.025-0.559-0.182-0.599-0.473
		c-0.042-0.307-0.036-0.622-0.023-0.933c0.008-0.205-0.049-0.272-0.259-0.257c-0.266,0.021-0.534,0.011-0.802,0.002
		c-0.335-0.012-0.561-0.25-0.558-0.572c0.003-0.307,0.251-0.56,0.575-0.568c0.277-0.009,0.557-0.011,0.835,0.001
		c0.159,0.007,0.214-0.042,0.206-0.204c-0.013-0.267-0.012-0.535-0.002-0.802c0.015-0.39,0.242-0.624,0.588-0.624
		c0.347,0,0.549,0.232,0.555,0.642c0.004,0.267,0.008,0.534-0.003,0.802c-0.006,0.148,0.048,0.19,0.189,0.186
		c0.268-0.009,0.535-0.004,0.803-0.002c0.389,0.004,0.652,0.248,0.65,0.6c-0.001,0.304-0.271,0.538-0.628,0.545
		C80.729,49.389,80.607,49.387,80.484,49.387z"/>
	<path fill-rule="evenodd" clip-rule="evenodd" fill="#0E0A0A" d="M13.648,32.766c0-0.133-0.004-0.268,0.001-0.4
		c0.014-0.352,0.203-0.557,0.518-0.568c0.341-0.012,0.597,0.205,0.619,0.555c0.018,0.266,0.021,0.535-0.003,0.801
		c-0.021,0.234,0.072,0.277,0.277,0.264c0.233-0.016,0.467-0.008,0.701-0.002c0.363,0.006,0.631,0.252,0.636,0.576
		c0.006,0.352-0.214,0.568-0.615,0.586c-0.266,0.012-0.535,0.014-0.801-0.002c-0.172-0.01-0.204,0.059-0.198,0.209
		c0.01,0.268,0.012,0.535,0.002,0.801c-0.013,0.371-0.262,0.637-0.583,0.639c-0.334,0-0.55-0.248-0.555-0.646
		c-0.003-0.232-0.024-0.469,0.003-0.699c0.031-0.268-0.079-0.324-0.316-0.309c-0.254,0.018-0.512,0.016-0.767-0.002
		c-0.345-0.023-0.556-0.258-0.55-0.58c0.007-0.322,0.232-0.557,0.569-0.572c0.256-0.01,0.513-0.016,0.768,0.004
		c0.227,0.018,0.33-0.041,0.293-0.285c-0.018-0.121-0.003-0.244-0.003-0.367C13.646,32.766,13.647,32.766,13.648,32.766z"/>
	<path fill-rule="evenodd" clip-rule="evenodd" fill="#0E0A0A" d="M15.265,56.559c-0.567-0.002-1.055-0.485-1.057-1.049
		c-0.002-0.588,0.489-1.084,1.069-1.083c0.54,0.001,1.034,0.496,1.046,1.047C16.335,56.074,15.861,56.56,15.265,56.559z"/>
	<path fill-rule="evenodd" clip-rule="evenodd" fill="#0E0A0A" d="M74.328,24.852c-0.523,0-0.989-0.479-1.001-1.031
		c-0.013-0.551,0.497-1.074,1.053-1.082c0.54-0.008,1.079,0.523,1.078,1.063C75.456,24.404,74.976,24.852,74.328,24.852z"/>
	<path fill-rule="evenodd" clip-rule="evenodd" fill="#0E0A0A" d="M85.488,59.42c0.167,0,0.333-0.002,0.5,0
		c0.412,0.006,0.692,0.26,0.705,0.637c0.012,0.346-0.267,0.676-0.627,0.695c-0.399,0.023-0.802,0.023-1.2,0.002
		c-0.354-0.02-0.644-0.365-0.627-0.701c0.018-0.354,0.309-0.625,0.682-0.633C85.11,59.416,85.299,59.42,85.488,59.42z"/>
	<path fill-rule="evenodd" clip-rule="evenodd" fill="#0E0A0A" d="M88.921,60.084c-0.003,0.383-0.298,0.68-0.669,0.676
		c-0.358-0.004-0.671-0.332-0.662-0.695s0.297-0.645,0.663-0.645C88.641,59.422,88.923,59.703,88.921,60.084z"/>
</g>
</svg>
