<?xml version="1.0" encoding="utf-8"?>
<!-- Generator: Adobe Illustrator 16.0.0, SVG Export Plug-In . SVG Version: 6.00 Build 0)  -->
<!DOCTYPE svg PUBLIC "-//W3C//DTD SVG 1.1//EN" "http://www.w3.org/Graphics/SVG/1.1/DTD/svg11.dtd">
<svg version="1.1" id="Layer_1" xmlns="http://www.w3.org/2000/svg" xmlns:xlink="http://www.w3.org/1999/xlink" x="0px" y="0px"
	 width="100px" height="100px" viewBox="0 0 100 100" enable-background="new 0 0 100 100" xml:space="preserve">
<path fill-rule="evenodd" clip-rule="evenodd" fill="#0E0A0A" d="M10.581,75.817c0.612,0,1.226-0.002,1.839,0
	c0.445,0.002,0.718,0.248,0.723,0.648c0.004,0.387-0.309,0.688-0.738,0.689c-1.07,0.006-2.139,0.002-3.209,0.002
	c-0.178,0-0.357,0.012-0.534-0.004c-0.37-0.031-0.647-0.334-0.641-0.68c0.007-0.381,0.289-0.652,0.688-0.654
	C9.333,75.815,9.957,75.817,10.581,75.817z"/>
<path fill-rule="evenodd" clip-rule="evenodd" fill="#0E0A0A" d="M88.515,75.817c0.167,0,0.333-0.002,0.5,0
	c0.412,0.006,0.692,0.26,0.705,0.637c0.012,0.346-0.267,0.676-0.627,0.695c-0.399,0.023-0.802,0.023-1.2,0.002
	c-0.354-0.02-0.644-0.365-0.627-0.701c0.018-0.354,0.309-0.625,0.682-0.633C88.137,75.813,88.325,75.817,88.515,75.817z"/>
<path fill-rule="evenodd" clip-rule="evenodd" fill="#0E0A0A" d="M91.947,76.481c-0.003,0.383-0.298,0.68-0.669,0.676
	c-0.358-0.004-0.671-0.332-0.662-0.695s0.297-0.645,0.663-0.645C91.667,75.819,91.949,76.101,91.947,76.481z"/>
<path fill-rule="evenodd" clip-rule="evenodd" fill="#0E0A0A" d="M85.067,75.817c-0.814,0-1.629,0-2.443,0v0.001H19.249v-0.001
	c-1.081,0-2.162,0-3.243,0c-0.436,0-0.721,0.264-0.723,0.654c-0.001,0.363,0.318,0.67,0.718,0.686c0.067,0.002,0.134,0,0.2,0
	c11.301-0.002,22.603-0.004,33.903-0.004c11.646,0,23.293,0.002,34.939,0.004c0.508,0,0.856-0.281,0.854-0.686
	C85.896,76.065,85.582,75.817,85.067,75.817z"/>
<g>
	<path fill-rule="evenodd" clip-rule="evenodd" fill="#0E0A0A" d="M23.615,59.101c0-0.751,0-1.501,0-2.251
		c0-7.432,0.001-14.863,0.001-22.294c0-1.127-0.004-2.254,0-3.38c0.003-1.013,0.604-1.606,1.615-1.606
		c4.18,0,8.361-0.003,12.543,0.007c0.252,0,0.365-0.061,0.426-0.313c0.099-0.395,0.248-0.776,0.373-1.164
		c0.15-0.469,0.29-0.577,0.792-0.578c1.284-0.004,2.568-0.002,3.851-0.009c0.117,0,0.24,0.055,0.31-0.146
		c0.496-1.42,1.59-2.045,3.013-2.145c1.156-0.081,2.152,0.314,2.928,1.205c0.224,0.255,0.37,0.552,0.474,0.867
		c0.061,0.182,0.145,0.228,0.329,0.227c1.285-0.008,2.572-0.004,3.858-0.002c0.488,0,0.636,0.117,0.786,0.583
		c0.12,0.379,0.286,0.748,0.363,1.134c0.062,0.308,0.214,0.338,0.475,0.338c3.971-0.006,7.941-0.004,11.913-0.004
		c0.241,0,0.483-0.003,0.726,0c0.837,0.011,1.487,0.669,1.488,1.508c0.003,1.583,0,3.167,0,4.751c0,6.743,0.002,13.487,0.002,20.231
		c0,3.391,0.002,6.78-0.006,10.171c-0.002,0.247,0.05,0.351,0.308,0.43c3.005,0.931,5.318,2.751,6.911,5.468
		c1.427,2.432,1.897,5.062,1.486,7.833c-0.305,2.037-1.109,3.881-2.39,5.509c-1.655,2.103-3.765,3.533-6.353,4.224
		c-2.682,0.718-5.306,0.506-7.865-0.563c-0.08-0.032-0.157-0.078-0.235-0.12c-0.422-0.231-0.859-0.339-1.356-0.338
		c-6.299,0.017-12.598,0.015-18.897,0.015c-4.015,0-8.028-0.004-12.043-0.005c-1.375,0-2.751-0.043-4.123,0.014
		c-1.011,0.043-1.719-0.682-1.716-1.689c0.021-9.158,0.012-18.317,0.012-27.475C23.615,59.389,23.615,59.244,23.615,59.101z
		 M59.588,69.938c-0.115,0.104-0.229,0.209-0.343,0.313c-0.678-0.534-0.768-0.526-1.36,0.13c-0.014,0.017-0.029,0.032-0.046,0.047
		c-0.083,0.069-0.098,0.146-0.019,0.225c0.076,0.077,0.157,0.067,0.233-0.005c0.079-0.075,0.149-0.164,0.236-0.229
		c0.107-0.077,0.157-0.278,0.338-0.2c0.175,0.074,0.205,0.243,0.2,0.418c-0.217,0.269-0.435,0.539-0.651,0.809
		c-0.261-0.054-0.361-0.308-0.552-0.448c-0.079-0.061-0.132-0.21-0.268-0.104c-0.094,0.075-0.193,0.169-0.173,0.301
		c0.019,0.115,0.09,0.181,0.238,0.14c0.091-0.024,0.137,0.092,0.197,0.152c0.092,0.092,0.155,0.222,0.311,0.222
		c-0.52,0.856-1.048,1.705-1.392,2.657c-0.573,1.588-0.805,3.223-0.615,4.896c0.294,2.568,1.348,4.788,3.207,6.607
		c1.724,1.687,3.773,2.709,6.17,3.015c2.685,0.345,5.195-0.172,7.423-1.718c3.761-2.609,5.341-6.253,4.722-10.77
		c-0.374-2.725-1.743-4.957-3.881-6.699c-1.938-1.584-4.176-2.371-6.667-2.437c-1.329-0.035-2.617,0.219-3.872,0.65
		c-0.038-0.009-0.063,0.001-0.074,0.039c-0.042,0.006-0.086,0.012-0.13,0.016c-0.043-0.062-0.077-0.139-0.137-0.18
		c-0.276-0.195-0.261-0.362-0.006-0.578c0.146-0.123,0.376-0.216,0.351-0.476c0.265-0.077,0.524-0.182,0.796-0.222
		c0.314-0.048,0.392-0.19,0.392-0.5c-0.012-5.18-0.008-10.358-0.008-15.538c0-4.969,0-9.939,0-14.908c0-0.745,0-0.745-0.733-0.745
		c-2.029,0-4.061,0.005-6.09-0.005c-0.272-0.002-0.323,0.057-0.226,0.311c0.133,0.34,0.232,0.692,0.342,1.04
		c0.194,0.621-0.021,0.915-0.666,0.915c-2.239,0.001-4.478,0.001-6.716,0.001c-4.5,0-8.998,0-13.498-0.001
		c-0.599,0-0.826-0.307-0.65-0.876c0.14-0.451,0.289-0.9,0.445-1.385c-0.147,0-0.256,0-0.365,0c-2.141,0-4.282,0.007-6.423-0.006
		c-0.284-0.001-0.347,0.081-0.344,0.351c0.013,1.641,0.007,3.28,0.005,4.921c-0.004,3.915-0.014,7.829-0.014,11.743
		c0,4.381,0.012,8.76,0.014,13.14c0.003,6.032,0.003,12.064-0.006,18.098c-0.001,0.321,0.085,0.402,0.404,0.402
		c5.523-0.004,11.046,0.005,16.57,0.007c3.137,0,6.275-0.01,9.411-0.017c0.095,0,0.195,0.036,0.306-0.043
		c-1.332-2.775-1.557-5.654-0.754-8.647c-0.126,0-0.245,0-0.364,0c-4.504,0-9.007,0-13.51-0.002c-0.1,0-0.201,0.01-0.299-0.004
		c-0.446-0.064-0.673-0.544-0.427-0.899c0.141-0.205,0.351-0.238,0.586-0.238c1.874,0.005,3.749,0.001,5.624,0.002
		c2.848,0,5.701,0.003,8.551,0.007c0.172,0.003,0.27-0.047,0.346-0.223c0.101-0.233,0.14-0.508,0.37-0.673
		c-0.021,0.118-0.053,0.234-0.063,0.353c-0.023,0.294,0.146,0.475,0.444,0.484c0.263,0.006,0.432-0.146,0.43-0.387
		c-0.005-0.311-0.199-0.493-0.496-0.491c-0.109,0.001-0.202,0.102-0.315,0.041c-0.042-0.125,0.046-0.212,0.097-0.304
		c0.247-0.443,0.508-0.879,0.81-1.288c0.857-1.169,1.857-2.188,3.091-2.967c0.145,0.337,0.484,0.513,0.676,0.811
		c-0.074,0.151-0.218,0.213-0.354,0.284c-0.032-0.284-0.146-0.521-0.431-0.61c-0.267-0.083-0.468,0.084-0.65,0.247
		c-0.149,0.131-0.28,0.28-0.423,0.418c-0.083,0.081-0.072,0.149,0.001,0.227c0.074,0.079,0.143,0.098,0.225,0.014
		c0.124-0.126,0.251-0.251,0.375-0.375c0.115-0.113,0.246-0.241,0.394-0.082c0.123,0.134,0.057,0.268-0.07,0.402
		C59.725,69.626,59.528,69.716,59.588,69.938z M59.193,87.552c0.011-0.029,0.021-0.058,0.031-0.089
		c-0.896-0.721-1.685-1.543-2.318-2.499c-0.214-0.322-0.449-0.409-0.817-0.409c-3.735,0.014-7.471,0.008-11.206,0.008
		c-5.303,0-10.605,0-15.907,0.002c-0.691,0-0.828-0.139-0.828-0.844c0-2.403,0-4.809,0-7.216c0.001-4.467,0.001-8.934,0.001-13.4
		c0-3.517,0-7.03,0-10.545c0-4.415,0-8.83,0-13.245c0-1.629-0.002-3.259-0.001-4.887c0-0.553,0.182-0.735,0.74-0.737
		c0.488-0.002,0.976,0,1.464,0c2.042,0,4.083,0,6.123-0.001c0.148,0,0.301,0.037,0.367-0.179c0.256-0.836,0.523-1.669,0.796-2.5
		c0.081-0.244,0.005-0.312-0.239-0.308c-0.665,0.012-1.331,0.009-1.997,0.006c-3.381-0.017-6.763,0.036-10.144-0.027
		c-0.342-0.006-0.532,0.189-0.532,0.537c0.004,1.473,0.014,2.946,0.014,4.419c0.001,7.042,0,14.084,0,21.125
		c0,3.572,0,7.144,0,10.716c0,6.508,0,13.017,0.003,19.524c0,0.47,0.079,0.546,0.538,0.546c1.053,0.001,2.105,0.001,3.158,0.001
		c4.68-0.001,9.36-0.001,14.039-0.001c3.535,0,7.07,0,10.605,0.001c1.885,0,3.771,0.003,5.657,0.003
		C58.892,87.552,59.042,87.552,59.193,87.552z M68.747,48.572c0-4.291,0.001-8.584,0-12.875c0-1.509,0.001-3.018-0.003-4.526
		c-0.001-0.349-0.102-0.445-0.454-0.458c-0.089-0.004-0.178-0.004-0.266-0.004c-3.973,0-7.943,0.003-11.915-0.007
		c-0.311-0.001-0.328,0.105-0.246,0.35c0.243,0.736,0.502,1.468,0.707,2.215c0.095,0.35,0.258,0.435,0.601,0.433
		c2.463-0.014,4.926-0.009,7.388-0.005c0.628,0,0.779,0.161,0.779,0.793c0,1.827,0,3.655,0,5.483c0,4.123,0,8.247,0,12.37
		c0,4.502,0.003,9.003-0.005,13.503c-0.002,0.291,0.063,0.378,0.371,0.35c0.907-0.083,1.819-0.067,2.719,0.074
		c0.285,0.043,0.333-0.033,0.332-0.294c-0.011-1.84-0.007-3.681-0.008-5.521C68.747,56.492,68.747,52.532,68.747,48.572z
		 M56.244,35.956c-0.125-0.386-0.238-0.731-0.349-1.077c-0.632-1.98-1.267-3.961-1.894-5.944c-0.054-0.169-0.119-0.258-0.317-0.256
		c-1.141,0.009-2.28,0.007-3.423,0.001c-0.171,0-0.244,0.062-0.309,0.224c-0.139,0.349-0.3,0.687-0.566,0.969
		c-0.869,0.926-1.96,1.24-3.176,1.075c-1.272-0.173-2.23-0.821-2.677-2.084c-0.061-0.17-0.159-0.18-0.301-0.18
		c-1.136,0.002-2.274,0.005-3.411-0.003c-0.188-0.001-0.274,0.058-0.328,0.241c-0.157,0.53-0.334,1.054-0.503,1.581
		c-0.543,1.696-1.083,3.393-1.63,5.087c-0.12,0.371-0.132,0.368,0.269,0.368c4.079,0,8.157,0,12.234,0
		C51.972,35.956,54.08,35.956,56.244,35.956z M46.714,29.846c0.575,0.041,1.07-0.173,1.528-0.476c0.804-0.53,0.91-1.646,0.236-2.332
		c-0.867-0.883-2.529-0.906-3.444-0.049c-0.489,0.459-0.612,1.255-0.267,1.825C45.209,29.546,45.901,29.816,46.714,29.846z"/>
	<path fill-rule="evenodd" clip-rule="evenodd" fill="#D9EDFA" d="M60.094,68.177c-1.233,0.778-2.233,1.798-3.091,2.967
		c-0.302,0.409-0.563,0.845-0.81,1.288c-0.051,0.092-0.139,0.179-0.097,0.304h0.001c-0.23,0.165-0.27,0.439-0.37,0.673
		c-0.076,0.176-0.174,0.226-0.346,0.223c-2.851-0.004-5.703-0.007-8.551-0.007c-1.875-0.001-3.75,0.003-5.624-0.002
		c-0.235,0-0.445,0.033-0.586,0.238c-0.246,0.355-0.019,0.835,0.427,0.899c0.098,0.014,0.199,0.004,0.299,0.004
		c4.503,0.002,9.006,0.002,13.51,0.002c0.119,0,0.238,0,0.364,0c-0.803,2.993-0.578,5.872,0.754,8.647
		c-0.11,0.079-0.211,0.043-0.306,0.043c-3.136,0.007-6.273,0.017-9.411,0.017c-5.524-0.002-11.047-0.011-16.57-0.007
		c-0.319,0-0.405-0.081-0.404-0.402c0.01-6.033,0.01-12.065,0.006-18.098c-0.001-4.38-0.014-8.759-0.014-13.14
		c0-3.914,0.01-7.828,0.014-11.743c0.002-1.641,0.007-3.281-0.005-4.921c-0.003-0.27,0.06-0.352,0.344-0.351
		c2.141,0.013,4.282,0.007,6.423,0.006c0.109,0,0.218,0,0.365,0c-0.156,0.485-0.305,0.934-0.445,1.385
		c-0.176,0.569,0.051,0.876,0.65,0.876c4.5,0.001,8.998,0.001,13.498,0.001c2.238,0,4.477,0,6.716-0.001
		c0.646,0,0.86-0.294,0.666-0.915c-0.109-0.348-0.209-0.7-0.342-1.04c-0.098-0.253-0.047-0.313,0.226-0.311
		c2.029,0.011,4.061,0.005,6.09,0.005c0.733,0,0.733,0,0.733,0.745c0,4.969,0,9.938,0,14.908c0,5.18-0.004,10.358,0.008,15.538
		c0,0.31-0.077,0.452-0.392,0.5c-0.271,0.04-0.531,0.145-0.796,0.222c-0.459,0.155-0.925,0.295-1.344,0.55
		c-0.124,0.022-0.242,0.059-0.328,0.161C60.902,67.628,60.492,67.893,60.094,68.177z M59.517,48.867
		c-0.026-0.24-0.167-0.354-0.4-0.409c-0.271-0.065-0.543-0.04-0.814-0.039c-0.16,0.004-0.319,0.007-0.478,0.011
		c-0.101-0.006-0.199-0.018-0.298-0.018c-5.378-0.002-10.756,0-16.134,0c-0.132,0-0.265,0.011-0.398,0.016
		c-0.028,0.012-0.057,0.023-0.085,0.035c-0.323,0.08-0.415,0.32-0.375,0.607c0.042,0.304,0.253,0.451,0.556,0.467
		c0.056,0.004,0.111,0.001,0.167,0.001c5.645,0,11.291,0,16.936,0c0.299-0.001,0.599-0.007,0.897-0.011
		C59.446,49.414,59.564,49.229,59.517,48.867z M37.268,71.501c-0.098-0.162-0.26-0.188-0.425-0.188c-0.305-0.006-0.61,0-0.915,0.003
		c-0.518-0.003-1.035-0.01-1.552-0.006c-0.365,0.004-0.626,0.221-0.633,0.529c-0.008,0.352,0.006,0.705,0.011,1.056
		c-0.002,0.182-0.005,0.362-0.007,0.542c-0.002,0.987-0.009,1.974-0.005,2.961c0.002,0.461,0.215,0.67,0.675,0.671
		c1.474,0.004,2.948,0.005,4.422,0c0.449-0.001,0.659-0.204,0.663-0.646c0.007-0.754,0.007-1.507-0.001-2.262
		c-0.005-0.408-0.217-0.627-0.574-0.617c-0.341,0.008-0.536,0.225-0.539,0.617c-0.004,0.498-0.011,0.997,0.003,1.496
		c0.006,0.216-0.054,0.288-0.277,0.285c-0.986-0.012-1.973-0.012-2.959-0.003c-0.214,0.004-0.289-0.049-0.284-0.276
		c0.012-0.608-0.003-1.219-0.008-1.826c0-0.112,0-0.225,0-0.337c0.004-0.22,0.032-0.44,0.008-0.656
		c-0.034-0.313,0.049-0.478,0.394-0.415c0.402,0,0.802,0,1.203,0c0.155,0.003,0.31,0.017,0.463,0.004
		c0.241-0.02,0.41-0.151,0.491-0.382C37.495,71.835,37.474,71.641,37.268,71.501z M33.754,68.115
		c0.069,0.391,0.235,0.536,0.65,0.536c1.13,0.003,2.26-0.001,3.391-0.002c0.156-0.006,0.314-0.012,0.47-0.018
		c0.221,0.007,0.442,0.025,0.663,0.019c0.354-0.012,0.567-0.201,0.569-0.558c0.01-1.542,0.01-3.083,0-4.625
		c-0.002-0.366-0.227-0.556-0.6-0.558c-1.52-0.004-3.038-0.004-4.557,0.002c-0.375,0-0.597,0.223-0.598,0.603
		c-0.003,1.353,0.002,2.705,0.003,4.058C33.749,67.754,33.752,67.935,33.754,68.115z M33.762,47.201
		c-0.006,0.181-0.01,0.363-0.015,0.544c-0.002,1.118-0.004,2.237-0.005,3.356c0,0.557,0.205,0.766,0.754,0.766
		c1.418,0.002,2.836,0.002,4.255,0c0.559,0,0.751-0.199,0.751-0.764c0.001-1.418,0.001-2.836,0.002-4.254
		c0-0.578-0.177-0.762-0.75-0.762c-1.482,0.002-2.965,0.008-4.448,0.005c-0.121-0.001-0.213,0.044-0.304,0.107
		C33.63,46.463,33.744,46.844,33.762,47.201z M50.011,57.939c2.805,0,5.612,0,8.416,0c0.2,0,0.401,0.014,0.601-0.004
		c0.288-0.023,0.472-0.207,0.517-0.48c0.046-0.281-0.105-0.493-0.368-0.598c-0.109-0.045-0.238-0.051-0.358-0.051
		c-5.866-0.004-11.73-0.004-17.596-0.002c-0.108,0-0.222,0.016-0.325,0.049c-0.288,0.092-0.39,0.318-0.367,0.595
		c0.024,0.274,0.203,0.433,0.469,0.483c0.097,0.018,0.199,0.008,0.298,0.008C44.201,57.939,47.106,57.939,50.011,57.939z
		 M50.005,66.34c2.87,0,5.741,0,8.611-0.002c0.145,0,0.289-0.002,0.432-0.01c0.291-0.018,0.437-0.205,0.493-0.46
		c0.055-0.244-0.073-0.428-0.271-0.56c-0.168-0.112-0.362-0.09-0.547-0.09c-5.81-0.001-11.617-0.001-17.425,0.003
		c-0.142,0-0.293,0.003-0.425,0.048c-0.263,0.092-0.377,0.305-0.344,0.577c0.032,0.266,0.178,0.45,0.463,0.48
		c0.143,0.016,0.288,0.013,0.432,0.013C44.284,66.34,47.144,66.34,50.005,66.34z M36.625,60.195c0.765,0,1.53,0.003,2.295,0
		c0.356-0.003,0.571-0.191,0.579-0.547c0.014-0.798,0.014-1.596,0-2.395c-0.006-0.371-0.257-0.598-0.585-0.582
		c-0.317,0.016-0.518,0.241-0.523,0.604c-0.007,0.511-0.016,1.021,0,1.531c0.006,0.211-0.061,0.261-0.261,0.26
		c-0.998-0.01-1.996-0.014-2.994,0.001c-0.236,0.003-0.267-0.085-0.265-0.288c0.008-0.975,0.009-1.951-0.001-2.926
		c-0.002-0.219,0.058-0.285,0.281-0.277c0.554,0.018,1.108,0.016,1.662,0.007c0.382-0.006,0.646-0.254,0.646-0.575
		c0.001-0.26-0.269-0.572-0.654-0.559c-0.808,0.031-1.62,0.008-2.428,0.012c-0.425,0.002-0.633,0.205-0.634,0.628
		c-0.004,1.485-0.004,2.972,0,4.458c0,0.442,0.211,0.648,0.653,0.648C35.139,60.197,35.881,60.195,36.625,60.195z M35.852,56.693
		c-0.319,0.006-0.498,0.149-0.575,0.412c-0.085,0.286,0.031,0.506,0.274,0.646c0.285,0.168,0.587,0.305,0.875,0.468
		c0.444,0.253,0.733,0.185,1.018-0.234c0.449-0.656,0.901-1.311,1.358-1.963c0.394-0.562,0.8-1.113,1.192-1.675
		c0.245-0.351,0.212-0.734-0.061-0.918c-0.295-0.197-0.668-0.104-0.894,0.222c-0.717,1.036-1.447,2.062-2.145,3.11
		c-0.181,0.271-0.332,0.277-0.557,0.111C36.181,56.756,36.004,56.704,35.852,56.693z M35.949,73.598
		c-0.294-0.01-0.501,0.099-0.58,0.371c-0.082,0.28-0.036,0.526,0.253,0.68c0.273,0.144,0.54,0.305,0.817,0.442
		c0.484,0.242,0.699,0.185,1.007-0.255c0.832-1.187,1.66-2.375,2.492-3.563c0.083-0.119,0.152-0.244,0.19-0.386
		c0.067-0.254,0.007-0.46-0.224-0.602c-0.231-0.142-0.45-0.153-0.673,0.032c-0.15,0.126-0.217,0.302-0.329,0.448
		c-0.708,0.938-1.366,1.907-2.015,2.885c-0.133,0.199-0.263,0.242-0.466,0.127C36.269,73.694,36.121,73.584,35.949,73.598z"/>
	<path fill-rule="evenodd" clip-rule="evenodd" fill="#7AD1ED" d="M59.193,87.552c-0.151,0-0.302,0-0.452,0
		c-1.886,0-3.772-0.003-5.657-0.003c-3.535-0.001-7.07-0.001-10.605-0.001c-4.679,0-9.359,0-14.039,0.001
		c-1.052,0-2.105,0-3.158-0.001c-0.458,0-0.538-0.076-0.538-0.546c-0.003-6.508-0.003-13.017-0.003-19.524c0-3.572,0-7.144,0-10.716
		c0-7.041,0.001-14.083,0-21.125c0-1.473-0.009-2.946-0.014-4.419c0-0.347,0.189-0.543,0.532-0.537
		c3.381,0.063,6.763,0.01,10.144,0.027c0.666,0.003,1.332,0.006,1.997-0.006c0.244-0.004,0.32,0.063,0.239,0.308
		c-0.273,0.832-0.541,1.665-0.796,2.5c-0.066,0.216-0.219,0.179-0.367,0.179c-2.041,0.001-4.082,0.001-6.123,0.001
		c-0.488,0-0.976-0.002-1.464,0c-0.558,0.002-0.74,0.184-0.74,0.737c-0.001,1.628,0.001,3.258,0.001,4.887c0,4.415,0,8.83,0,13.245
		c0,3.515,0,7.028,0,10.545c0,4.467,0,8.934-0.001,13.4c0,2.407,0,4.813,0,7.216c0,0.705,0.137,0.844,0.828,0.844
		c5.302-0.002,10.604-0.002,15.907-0.002c3.735,0,7.47,0.006,11.206-0.008c0.368,0,0.604,0.087,0.817,0.409
		c0.634,0.956,1.423,1.778,2.318,2.499C59.214,87.494,59.204,87.522,59.193,87.552z"/>
	<path fill-rule="evenodd" clip-rule="evenodd" fill="#D9EDFA" d="M60.415,69.271c0.137-0.071,0.28-0.133,0.354-0.284
		c0.427-0.161,0.81-0.407,1.193-0.647c0.16-0.069,0.319-0.14,0.479-0.211c0.134-0.037,0.269-0.072,0.379-0.165
		c0.044-0.004,0.088-0.01,0.13-0.016c0.024-0.013,0.049-0.025,0.074-0.039c1.255-0.432,2.543-0.686,3.872-0.65
		c2.491,0.065,4.729,0.853,6.667,2.437c2.138,1.742,3.507,3.975,3.881,6.699c0.619,4.517-0.961,8.16-4.722,10.77
		c-2.228,1.546-4.738,2.063-7.423,1.718c-2.396-0.306-4.446-1.328-6.17-3.015c-1.859-1.819-2.913-4.039-3.207-6.607
		c-0.189-1.673,0.042-3.308,0.615-4.896c0.344-0.952,0.872-1.801,1.392-2.657c0.083-0.088,0.164-0.176,0.246-0.262
		c0.217-0.27,0.435-0.54,0.651-0.809c0.171-0.096,0.288-0.247,0.417-0.386c0.114-0.104,0.228-0.208,0.343-0.313
		C59.863,69.716,60.14,69.494,60.415,69.271z M66.162,81.093c0,0.787-0.013,1.574,0.007,2.361c0.006,0.282-0.085,0.335-0.337,0.278
		c-1.465-0.324-2.246-1.149-2.479-2.625c-0.051-0.315-0.288-0.521-0.597-0.509c-0.308,0.012-0.518,0.233-0.535,0.558
		c-0.017,0.291,0.032,0.574,0.107,0.854c0.378,1.431,1.876,2.653,3.534,2.869c0.241,0.031,0.332,0.114,0.306,0.352
		c-0.025,0.204,0.002,0.405,0.163,0.55c0.177,0.16,0.384,0.222,0.613,0.121c0.252-0.109,0.358-0.305,0.355-0.578
		c0-0.18-0.092-0.396,0.239-0.439c1.055-0.134,1.954-0.599,2.716-1.339c0.918-0.893,1.251-2.331,0.787-3.515
		c-0.56-1.423-1.679-2.174-3.105-2.53c-0.633-0.158-0.639-0.14-0.639-0.787c0-1.276-0.004-2.551,0.004-3.825
		c0.001-0.096-0.105-0.31,0.158-0.262c0.997,0.176,2.206,0.951,2.272,2.254c0.022,0.411,0.243,0.631,0.582,0.616
		c0.348-0.013,0.577-0.283,0.552-0.686c-0.018-0.275-0.059-0.549-0.154-0.813c-0.475-1.312-1.468-2.032-2.749-2.423
		c-0.201-0.062-0.451-0.039-0.601-0.157c-0.166-0.13-0.038-0.394-0.067-0.599c-0.039-0.275-0.255-0.499-0.518-0.517
		c-0.289-0.017-0.546,0.174-0.603,0.459c-0.019,0.098-0.025,0.201-0.009,0.297c0.047,0.289-0.071,0.394-0.355,0.437
		c-0.997,0.146-1.833,0.608-2.519,1.353c-0.951,1.027-1.065,2.663-0.273,3.808c0.697,1.008,1.687,1.542,2.86,1.752
		c0.262,0.046,0.29,0.142,0.287,0.357C66.156,79.539,66.162,80.317,66.162,81.093z"/>
	<path fill-rule="evenodd" clip-rule="evenodd" fill="#7AD1ED" d="M68.747,48.572c0,3.96,0,7.92,0,11.879
		c0.001,1.841-0.003,3.682,0.008,5.521c0.001,0.261-0.047,0.337-0.332,0.294c-0.899-0.142-1.812-0.157-2.719-0.074
		c-0.309,0.028-0.373-0.059-0.371-0.35c0.008-4.5,0.005-9.001,0.005-13.503c0-4.123,0-8.247,0-12.37c0-1.828,0-3.656,0-5.483
		c0-0.632-0.151-0.792-0.779-0.793c-2.462-0.003-4.925-0.009-7.388,0.005c-0.343,0.002-0.506-0.083-0.601-0.433
		c-0.205-0.747-0.464-1.479-0.707-2.215c-0.082-0.245-0.064-0.351,0.246-0.35c3.972,0.01,7.942,0.006,11.915,0.007
		c0.088,0,0.177,0,0.266,0.004c0.353,0.013,0.453,0.11,0.454,0.458c0.004,1.508,0.003,3.018,0.003,4.526
		C68.748,39.988,68.747,44.281,68.747,48.572z"/>
	<path fill-rule="evenodd" clip-rule="evenodd" fill="#D9EDFA" d="M56.244,35.956c-2.164,0-4.272,0-6.38,0
		c-4.077,0-8.155,0-12.234,0c-0.4,0-0.389,0.003-0.269-0.368c0.547-1.694,1.087-3.391,1.63-5.087
		c0.169-0.527,0.346-1.051,0.503-1.581c0.054-0.183,0.14-0.242,0.328-0.241c1.137,0.008,2.275,0.005,3.411,0.003
		c0.142,0,0.24,0.01,0.301,0.18c0.446,1.263,1.404,1.911,2.677,2.084c1.216,0.165,2.307-0.148,3.176-1.075
		c0.267-0.282,0.428-0.621,0.566-0.969c0.064-0.162,0.138-0.224,0.309-0.224c1.143,0.006,2.282,0.007,3.423-0.001
		c0.198-0.001,0.264,0.087,0.317,0.256c0.627,1.983,1.262,3.964,1.894,5.944C56.006,35.224,56.119,35.57,56.244,35.956z"/>
	<path fill-rule="evenodd" clip-rule="evenodd" fill="#D9EDFA" d="M46.714,29.846c-0.813-0.03-1.505-0.3-1.947-1.032
		c-0.345-0.57-0.222-1.365,0.267-1.825c0.916-0.857,2.577-0.834,3.444,0.049c0.674,0.686,0.567,1.802-0.236,2.332
		C47.785,29.672,47.29,29.887,46.714,29.846z"/>
	<path fill-rule="evenodd" clip-rule="evenodd" fill="#0E0A0A" d="M61.963,68.34c-0.384,0.24-0.767,0.486-1.193,0.647
		c-0.191-0.298-0.531-0.474-0.676-0.811c0.398-0.284,0.809-0.549,1.264-0.735c0.118,0.111,0.305,0.199,0.307,0.368
		C61.668,68.058,61.805,68.197,61.963,68.34z M60.961,68.517c0.145-0.134,0.356-0.241,0.364-0.464
		c0.007-0.146-0.11-0.318-0.296-0.269c-0.195,0.055-0.396,0.182-0.395,0.414C60.635,68.353,60.778,68.456,60.961,68.517z"/>
	<path fill-rule="evenodd" clip-rule="evenodd" fill="#0E0A0A" d="M60.415,69.271c-0.275,0.223-0.552,0.444-0.827,0.667
		c-0.06-0.223,0.137-0.313,0.247-0.427c0.127-0.135,0.193-0.269,0.07-0.402c-0.147-0.159-0.278-0.031-0.394,0.082
		c-0.124,0.124-0.251,0.249-0.375,0.375c-0.082,0.084-0.15,0.065-0.225-0.014c-0.073-0.077-0.084-0.146-0.001-0.227
		c0.143-0.138,0.273-0.287,0.423-0.418c0.183-0.163,0.384-0.33,0.65-0.247C60.27,68.75,60.383,68.987,60.415,69.271z"/>
	<path fill-rule="evenodd" clip-rule="evenodd" fill="#0E0A0A" d="M62.821,67.964c-0.11,0.093-0.245,0.128-0.379,0.165
		c-0.211-0.319-0.565-0.511-0.757-0.849c0.419-0.255,0.885-0.395,1.344-0.55c0.025,0.26-0.205,0.353-0.351,0.476
		c-0.255,0.216-0.271,0.383,0.006,0.578C62.744,67.825,62.778,67.902,62.821,67.964z"/>
	<path fill-rule="evenodd" clip-rule="evenodd" fill="#0E0A0A" d="M56.097,72.735c0.113,0.061,0.206-0.04,0.315-0.041
		c0.297-0.002,0.491,0.181,0.496,0.491c0.002,0.24-0.167,0.393-0.43,0.387c-0.298-0.01-0.468-0.19-0.444-0.484
		C56.045,72.97,56.076,72.854,56.097,72.735L56.097,72.735z"/>
	<path fill-rule="evenodd" clip-rule="evenodd" fill="#0E0A0A" d="M59.245,70.251c-0.129,0.139-0.246,0.29-0.417,0.386
		c0.005-0.175-0.025-0.344-0.2-0.418c-0.181-0.078-0.23,0.123-0.338,0.2c-0.087,0.064-0.157,0.153-0.236,0.229
		c-0.076,0.072-0.157,0.082-0.233,0.005c-0.079-0.079-0.064-0.155,0.019-0.225c0.017-0.015,0.032-0.03,0.046-0.047
		C58.478,69.725,58.567,69.717,59.245,70.251z"/>
	<path fill-rule="evenodd" clip-rule="evenodd" fill="#0E0A0A" d="M58.177,71.445c-0.082,0.086-0.163,0.174-0.246,0.262
		c-0.155,0-0.219-0.13-0.311-0.222c-0.061-0.061-0.106-0.177-0.197-0.152c-0.148,0.041-0.22-0.024-0.238-0.14
		c-0.021-0.132,0.079-0.226,0.173-0.301c0.136-0.105,0.188,0.044,0.268,0.104C57.815,71.138,57.916,71.392,58.177,71.445z"/>
	<path fill-rule="evenodd" clip-rule="evenodd" fill="#666767" d="M63.025,67.909c-0.025,0.014-0.05,0.026-0.074,0.039
		C62.963,67.91,62.987,67.9,63.025,67.909z"/>
	<path fill-rule="evenodd" clip-rule="evenodd" fill="#0E0A0A" d="M50.011,57.797c-2.904,0-5.81,0-8.714-0.001
		c-0.099,0-0.202,0.011-0.298-0.009c-0.266-0.049-0.445-0.207-0.469-0.482c-0.023-0.277,0.079-0.504,0.367-0.595
		c0.104-0.032,0.217-0.048,0.325-0.048c5.865-0.002,11.729-0.002,17.596,0c0.12,0,0.249,0.007,0.358,0.051
		c0.263,0.105,0.414,0.316,0.368,0.6c-0.045,0.272-0.229,0.455-0.517,0.479c-0.199,0.018-0.4,0.005-0.601,0.005
		C55.623,57.797,52.815,57.797,50.011,57.797z"/>
	<path fill-rule="evenodd" clip-rule="evenodd" fill="#0E0A0A" d="M33.762,47.201c-0.018-0.357-0.131-0.738,0.24-1.001
		c0.091-0.063,0.183-0.108,0.304-0.107c1.483,0.003,2.966-0.003,4.448-0.005c0.573,0,0.75,0.184,0.75,0.762
		c0,1.418,0,2.836-0.002,4.254c0,0.564-0.193,0.764-0.751,0.764c-1.419,0.002-2.837,0.002-4.255,0c-0.549,0-0.754-0.209-0.754-0.766
		c0.001-1.119,0.003-2.238,0.005-3.356c0.103-0.013,0.153,0.067,0.22,0.122c0.074,0.059,0.133,0.202,0.258,0.044
		c0.088-0.114,0.105-0.176-0.016-0.294C34.063,47.475,33.95,47.299,33.762,47.201z M34.876,48.939c0,0.521,0.006,1.042-0.003,1.563
		c-0.003,0.174,0.052,0.23,0.227,0.229c1.021-0.007,2.04-0.005,3.06-0.001c0.166,0.001,0.232-0.04,0.231-0.222
		c-0.008-1.021-0.007-2.04-0.001-3.061c0.001-0.171-0.052-0.228-0.229-0.228c-1.02,0.007-2.04,0.006-3.059-0.001
		c-0.17-0.002-0.232,0.044-0.229,0.224C34.884,47.941,34.876,48.441,34.876,48.939z"/>
	<path fill-rule="evenodd" clip-rule="evenodd" fill="#0E0A0A" d="M50.005,66.194c-2.861,0-5.721,0-8.581,0
		c-0.144,0-0.289,0.004-0.432-0.011c-0.286-0.03-0.431-0.215-0.463-0.481c-0.034-0.272,0.081-0.484,0.344-0.576
		c0.132-0.045,0.283-0.05,0.425-0.05c5.808-0.003,11.616-0.003,17.425-0.001c0.185,0,0.379-0.023,0.547,0.09
		c0.197,0.133,0.325,0.313,0.271,0.559c-0.057,0.255-0.202,0.444-0.493,0.461c-0.143,0.008-0.287,0.009-0.432,0.009
		C55.746,66.194,52.875,66.194,50.005,66.194z"/>
	<path fill-rule="evenodd" clip-rule="evenodd" fill="#0E0A0A" d="M59.09,49.527c-0.299,0.004-0.599,0.01-0.897,0.011
		c-5.645,0-11.291,0-16.936,0c-0.056,0-0.111,0.003-0.167-0.001c-0.302-0.016-0.514-0.163-0.556-0.467
		c-0.04-0.287,0.052-0.527,0.375-0.607c0.039,0.014,0.067,0.002,0.085-0.035c0.133-0.005,0.266-0.016,0.398-0.016
		c5.378,0,10.756-0.002,16.134,0c0.099,0,0.197,0.012,0.298,0.018C58.115,48.946,58.551,49.296,59.09,49.527z"/>
	<path fill-rule="evenodd" clip-rule="evenodd" fill="#0E0A0A" d="M36.625,60.195c-0.743,0-1.486,0.002-2.229,0
		c-0.442,0-0.652-0.206-0.653-0.648c-0.003-1.486-0.003-2.973,0-4.458c0.001-0.423,0.209-0.626,0.634-0.628
		c0.809-0.004,1.62,0.02,2.428-0.012c0.385-0.014,0.655,0.299,0.654,0.559c0,0.321-0.263,0.569-0.646,0.575
		c-0.554,0.009-1.108,0.011-1.662-0.007c-0.223-0.008-0.283,0.059-0.281,0.277c0.01,0.975,0.009,1.951,0.001,2.926
		c-0.002,0.203,0.029,0.291,0.265,0.288c0.998-0.015,1.996-0.011,2.994-0.001c0.2,0.001,0.267-0.049,0.261-0.26
		c-0.017-0.51-0.007-1.021,0-1.531c0.005-0.362,0.206-0.588,0.523-0.604c0.328-0.016,0.579,0.211,0.585,0.582
		c0.014,0.799,0.014,1.597,0,2.395c-0.007,0.355-0.222,0.544-0.579,0.547C38.155,60.198,37.389,60.195,36.625,60.195z"/>
	<path fill-rule="evenodd" clip-rule="evenodd" fill="#0E0A0A" d="M33.746,67.572c-0.001-1.353-0.006-2.705-0.003-4.058
		c0.001-0.38,0.223-0.603,0.598-0.603c1.519-0.006,3.038-0.006,4.557-0.002c0.374,0.002,0.598,0.191,0.6,0.558
		c0.01,1.542,0.01,3.083,0,4.625c-0.002,0.356-0.215,0.546-0.569,0.558c-0.221,0.007-0.442-0.012-0.663-0.019
		c-0.007-0.125-0.108-0.187-0.184-0.266c-0.271-0.273-0.543-0.547-0.814-0.822c0.242,0,0.485-0.001,0.727-0.001
		c0.068,0.058,0.136,0.054,0.204,0c0.041-0.003,0.082-0.006,0.124-0.007c0.014,0.021,0.028,0.04,0.042,0.061
		c0.007-0.034,0.015-0.067,0.022-0.101c0-1.064-0.004-2.128,0.003-3.191c0.001-0.192-0.031-0.27-0.25-0.266
		c-0.998,0.013-1.996,0.012-2.992,0c-0.219-0.003-0.279,0.059-0.277,0.276c0.008,0.864-0.004,1.729-0.008,2.593
		c-0.266,0.002-0.46,0.117-0.642,0.318C34.095,67.367,34,67.592,33.746,67.572z"/>
	<path fill-rule="evenodd" clip-rule="evenodd" fill="#0E0A0A" d="M34.863,73.836c0.005,0.607,0.02,1.218,0.008,1.826
		c-0.004,0.228,0.07,0.28,0.284,0.276c0.986-0.009,1.973-0.009,2.959,0.003c0.223,0.003,0.283-0.069,0.277-0.285
		c-0.014-0.499-0.007-0.998-0.003-1.496c0.003-0.393,0.198-0.609,0.539-0.617c0.357-0.01,0.569,0.209,0.574,0.617
		c0.008,0.755,0.008,1.508,0.001,2.262c-0.003,0.442-0.214,0.646-0.663,0.646c-1.474,0.005-2.949,0.004-4.422,0
		c-0.46-0.001-0.673-0.21-0.675-0.671c-0.004-0.987,0.003-1.974,0.005-2.961c0.096-0.022,0.178,0.006,0.235,0.082
		C34.207,73.819,34.516,73.878,34.863,73.836z"/>
	<path fill-rule="evenodd" clip-rule="evenodd" fill="#7AD1ED" d="M35.852,56.693c0.152,0.011,0.329,0.063,0.486,0.18
		c0.225,0.166,0.375,0.16,0.557-0.111c0.698-1.049,1.428-2.074,2.145-3.11c0.225-0.325,0.599-0.419,0.894-0.222
		c0.273,0.184,0.306,0.567,0.061,0.918c-0.392,0.562-0.798,1.113-1.192,1.675c-0.457,0.652-0.91,1.307-1.358,1.963
		c-0.285,0.419-0.574,0.487-1.018,0.234c-0.288-0.163-0.59-0.3-0.875-0.468c-0.243-0.141-0.359-0.36-0.274-0.646
		C35.354,56.843,35.533,56.699,35.852,56.693z"/>
	<path fill-rule="evenodd" clip-rule="evenodd" fill="#7AD1ED" d="M35.949,73.598c0.171-0.014,0.32,0.097,0.473,0.181
		c0.203,0.115,0.333,0.072,0.466-0.127c0.649-0.978,1.307-1.947,2.015-2.885c0.111-0.146,0.179-0.322,0.329-0.448
		c0.223-0.186,0.442-0.174,0.673-0.032c0.23,0.142,0.291,0.348,0.224,0.602c-0.038,0.142-0.106,0.267-0.19,0.386
		c-0.832,1.188-1.661,2.376-2.492,3.563c-0.308,0.439-0.523,0.497-1.007,0.255c-0.277-0.138-0.543-0.299-0.817-0.442
		c-0.289-0.153-0.334-0.399-0.253-0.68C35.448,73.696,35.655,73.588,35.949,73.598z"/>
	<path fill-rule="evenodd" clip-rule="evenodd" fill="#0E0A0A" d="M37.795,68.649c-1.131,0.001-2.261,0.005-3.391,0.002
		c-0.415,0-0.581-0.146-0.65-0.536c0.162-0.098,0.28-0.237,0.407-0.374c0.197-0.213,0.381-0.459,0.706-0.497
		c-0.014,0.188,0.025,0.328,0.263,0.296c0.024,0.043,0.049,0.044,0.073,0c0.531,0.003,1.062,0.004,1.591,0.004
		C37.078,67.958,37.529,68.219,37.795,68.649z"/>
	<path fill-rule="evenodd" clip-rule="evenodd" fill="#0E0A0A" d="M35.264,72.428c-0.345-0.063-0.428,0.103-0.394,0.415
		c0.024,0.216-0.004,0.437-0.008,0.656c-0.282,0.058-0.503-0.021-0.692-0.25c-0.114-0.138-0.225-0.299-0.416-0.354
		c-0.005-0.351-0.02-0.704-0.011-1.056c0.007-0.309,0.268-0.525,0.633-0.529c0.517-0.004,1.034,0.003,1.552,0.006
		c-0.028,0.195-0.194,0.294-0.324,0.4C35.371,71.905,35.271,72.141,35.264,72.428z"/>
	<path fill-rule="evenodd" clip-rule="evenodd" fill="#0E0A0A" d="M35.264,72.428c0.006-0.287,0.107-0.522,0.34-0.712
		c0.129-0.106,0.295-0.205,0.324-0.4c0.305-0.003,0.61-0.009,0.915-0.003c0.165,0,0.327,0.026,0.425,0.188
		c-0.254,0.321-0.614,0.549-0.801,0.927C36.066,72.428,35.666,72.428,35.264,72.428z"/>
	<path fill-rule="evenodd" clip-rule="evenodd" fill="#0E0A0A" d="M59.09,49.527c-0.539-0.231-0.975-0.581-1.266-1.098
		c0.158-0.004,0.317-0.007,0.478-0.011c0.299,0.675,0.697,0.822,1.215,0.448C59.564,49.229,59.446,49.414,59.09,49.527z"/>
	<path fill-rule="evenodd" clip-rule="evenodd" fill="#0E0A0A" d="M37.795,68.649c-0.266-0.431-0.718-0.691-1.001-1.105
		c0.158,0,0.314,0,0.473,0c0.271,0.275,0.544,0.549,0.814,0.822c0.076,0.079,0.177,0.141,0.184,0.266
		C38.109,68.638,37.952,68.644,37.795,68.649z"/>
	<path fill-rule="evenodd" clip-rule="evenodd" fill="#0E0A0A" d="M59.517,48.867c-0.518,0.374-0.916,0.227-1.215-0.448
		c0.271-0.001,0.543-0.026,0.814,0.039C59.35,48.514,59.49,48.627,59.517,48.867z"/>
	<path fill-rule="evenodd" clip-rule="evenodd" fill="#0E0A0A" d="M36.467,72.428c0.187-0.378,0.547-0.605,0.801-0.927
		c0.206,0.14,0.227,0.334,0.153,0.549c-0.081,0.23-0.25,0.362-0.491,0.382C36.777,72.444,36.622,72.431,36.467,72.428z"/>
	<path fill-rule="evenodd" clip-rule="evenodd" fill="#0E0A0A" d="M34.868,67.244c-0.325,0.038-0.509,0.284-0.706,0.497
		c-0.127,0.137-0.246,0.276-0.407,0.374c-0.002-0.181-0.006-0.361-0.008-0.543c0.253,0.02,0.349-0.205,0.475-0.346
		c0.182-0.201,0.376-0.316,0.642-0.318C34.864,67.019,34.866,67.131,34.868,67.244z"/>
	<path fill-rule="evenodd" clip-rule="evenodd" fill="#0E0A0A" d="M61.686,67.28c0.191,0.338,0.546,0.529,0.757,0.849
		c-0.16,0.071-0.319,0.142-0.479,0.211c-0.158-0.143-0.295-0.282-0.299-0.53c-0.002-0.169-0.188-0.257-0.307-0.368
		C61.443,67.339,61.562,67.303,61.686,67.28z"/>
	<path fill-rule="evenodd" clip-rule="evenodd" fill="#0E0A0A" d="M33.754,72.895c0.191,0.056,0.302,0.217,0.416,0.354
		c0.189,0.229,0.41,0.308,0.692,0.25c0,0.112,0,0.225,0,0.337c-0.347,0.042-0.656-0.017-0.881-0.317
		c-0.057-0.076-0.139-0.104-0.235-0.082C33.75,73.257,33.752,73.076,33.754,72.895z"/>
	<path fill-rule="evenodd" clip-rule="evenodd" fill="#0E0A0A" d="M33.762,47.201c0.188,0.098,0.301,0.273,0.447,0.416
		c0.122,0.118,0.104,0.18,0.016,0.294c-0.125,0.158-0.184,0.015-0.258-0.044c-0.067-0.055-0.118-0.135-0.22-0.122
		C33.752,47.564,33.756,47.382,33.762,47.201z"/>
	<path fill-rule="evenodd" clip-rule="evenodd" fill="#666767" d="M40.995,48.428c-0.018,0.037-0.046,0.049-0.085,0.035
		C40.938,48.451,40.967,48.439,40.995,48.428z"/>
	<path fill-rule="evenodd" clip-rule="evenodd" fill="#0E0A0A" d="M66.162,81.093c0-0.775-0.006-1.554,0.004-2.328
		c0.003-0.216-0.025-0.312-0.287-0.357c-1.174-0.21-2.163-0.744-2.86-1.752c-0.792-1.145-0.678-2.78,0.273-3.808
		c0.686-0.744,1.521-1.207,2.519-1.353c0.284-0.043,0.402-0.147,0.355-0.437c-0.017-0.096-0.01-0.199,0.009-0.297
		c0.057-0.285,0.313-0.476,0.603-0.459c0.263,0.018,0.479,0.241,0.518,0.517c0.029,0.205-0.099,0.469,0.067,0.599
		c0.149,0.118,0.399,0.096,0.601,0.157c1.281,0.391,2.274,1.111,2.749,2.423c0.096,0.264,0.137,0.537,0.154,0.813
		c0.025,0.402-0.204,0.673-0.552,0.686c-0.339,0.015-0.56-0.205-0.582-0.616c-0.066-1.303-1.275-2.078-2.272-2.254
		c-0.264-0.048-0.157,0.166-0.158,0.262c-0.008,1.274-0.004,2.549-0.004,3.825c0,0.647,0.006,0.629,0.639,0.787
		c1.427,0.356,2.546,1.107,3.105,2.53c0.464,1.184,0.131,2.622-0.787,3.515c-0.762,0.74-1.661,1.205-2.716,1.339
		c-0.331,0.044-0.239,0.26-0.239,0.439c0.003,0.273-0.104,0.469-0.355,0.578c-0.229,0.101-0.437,0.039-0.613-0.121
		c-0.161-0.145-0.188-0.346-0.163-0.55c0.026-0.237-0.064-0.32-0.306-0.352c-1.658-0.216-3.156-1.438-3.534-2.869
		c-0.075-0.279-0.124-0.563-0.107-0.854c0.018-0.324,0.228-0.546,0.535-0.558c0.309-0.012,0.546,0.193,0.597,0.509
		c0.233,1.476,1.015,2.301,2.479,2.625c0.252,0.057,0.343,0.004,0.337-0.278C66.149,82.667,66.162,81.88,66.162,81.093z
		 M67.298,81.133c0,0.777,0.018,1.553-0.007,2.329c-0.01,0.307,0.105,0.321,0.348,0.268c0.686-0.158,1.3-0.446,1.787-0.96
		c0.65-0.688,0.908-1.495,0.536-2.398c-0.446-1.081-1.359-1.573-2.447-1.813c-0.24-0.053-0.217,0.098-0.217,0.248
		C67.299,79.582,67.298,80.358,67.298,81.133z M66.162,74.959c0-0.719,0.003-1.439-0.002-2.158
		c-0.001-0.101,0.066-0.263-0.168-0.209c-0.566,0.133-1.104,0.319-1.549,0.707c-0.669,0.582-1.01,1.29-0.744,2.179
		c0.29,0.978,1.337,1.64,2.314,1.808c0.195,0.032,0.147-0.114,0.147-0.212C66.165,76.368,66.162,75.664,66.162,74.959z"/>
	<path fill-rule="evenodd" clip-rule="evenodd" fill="#0E0A0A" d="M60.961,68.517c-0.183-0.061-0.326-0.164-0.326-0.318
		c-0.002-0.232,0.199-0.359,0.395-0.414c0.186-0.05,0.303,0.123,0.296,0.269C61.317,68.275,61.105,68.383,60.961,68.517z"/>
	<path fill-rule="evenodd" clip-rule="evenodd" fill="#D9EDFA" d="M34.876,48.939c0-0.498,0.007-0.998-0.004-1.496
		c-0.003-0.18,0.059-0.226,0.229-0.224c1.019,0.007,2.04,0.008,3.059,0.001c0.177,0,0.23,0.057,0.229,0.228
		c-0.005,1.021-0.007,2.04,0.001,3.061c0.001,0.182-0.065,0.223-0.231,0.222c-1.021-0.004-2.04-0.006-3.06,0.001
		c-0.174,0.001-0.23-0.056-0.227-0.229C34.882,49.981,34.876,49.46,34.876,48.939z"/>
	<path fill-rule="evenodd" clip-rule="evenodd" fill="#D9EDFA" d="M34.868,67.244c-0.001-0.113-0.003-0.226-0.005-0.336
		c0.004-0.864,0.016-1.729,0.008-2.593c-0.002-0.218,0.059-0.279,0.277-0.276c0.996,0.012,1.994,0.013,2.992,0
		c0.219-0.004,0.251,0.073,0.25,0.266c-0.007,1.063-0.003,2.127-0.003,3.191c-0.022,0.014-0.043,0.026-0.065,0.04
		c-0.042,0.001-0.083,0.004-0.124,0.007c-0.067-0.035-0.136-0.03-0.204,0c-0.242,0-0.485,0.001-0.727,0.001
		c-0.158,0-0.315,0-0.473,0c-0.529,0-1.06-0.001-1.591-0.004c-0.024,0-0.049,0-0.073,0C34.893,67.572,34.854,67.432,34.868,67.244z"
		/>
	<path fill-rule="evenodd" clip-rule="evenodd" fill="#666767" d="M37.994,67.543c0.068-0.03,0.136-0.035,0.204,0
		C38.13,67.597,38.062,67.601,37.994,67.543z"/>
	<path fill-rule="evenodd" clip-rule="evenodd" fill="#666767" d="M38.322,67.536c0.021-0.014,0.043-0.026,0.065-0.04
		c-0.008,0.033-0.015,0.066-0.022,0.101C38.35,67.576,38.336,67.557,38.322,67.536z"/>
	<path fill-rule="evenodd" clip-rule="evenodd" fill="#666767" d="M35.13,67.54c0.024,0,0.049,0,0.073,0
		C35.179,67.584,35.155,67.583,35.13,67.54z"/>
	<path fill-rule="evenodd" clip-rule="evenodd" fill="#D9EDFA" d="M67.298,81.133c0-0.774,0.001-1.551,0-2.327
		c0-0.15-0.023-0.301,0.217-0.248c1.088,0.24,2.001,0.732,2.447,1.813c0.372,0.903,0.114,1.711-0.536,2.398
		c-0.487,0.514-1.102,0.802-1.787,0.96c-0.242,0.054-0.357,0.039-0.348-0.268C67.315,82.686,67.298,81.91,67.298,81.133z"/>
	<path fill-rule="evenodd" clip-rule="evenodd" fill="#D9EDFA" d="M66.162,74.959c0,0.705,0.003,1.409-0.001,2.114
		c0,0.098,0.048,0.244-0.147,0.212c-0.978-0.168-2.024-0.83-2.314-1.808c-0.266-0.889,0.075-1.597,0.744-2.179
		c0.445-0.388,0.982-0.574,1.549-0.707c0.234-0.054,0.167,0.108,0.168,0.209C66.165,73.52,66.162,74.24,66.162,74.959z"/>
	<path fill-rule="evenodd" clip-rule="evenodd" fill="#0E0A0A" d="M30.735,14.175c2.503-0.019,4.567,2.015,4.598,4.53
		c0.03,2.514-2.053,4.64-4.594,4.63c-2.635-0.011-4.542-2.164-4.582-4.517C26.115,16.267,28.255,14.12,30.735,14.175z
		 M27.791,16.803c-0.06,0.024-0.071,0.074-0.071,0.13c-0.145,0.151-0.23,0.331-0.266,0.537c-0.275,0.603-0.314,1.228-0.205,1.877
		c0.31,1.861,2.066,3.196,3.932,2.921c1.418-0.209,2.436-0.989,2.902-2.367c0.453-1.336,0.188-2.549-0.783-3.592
		c-0.275-0.328-0.619-0.563-1.004-0.745c-1.189-0.548-2.344-0.508-3.458,0.208c-0.146,0.073-0.294,0.142-0.384,0.29
		c-0.023,0.021-0.047,0.042-0.069,0.064c-0.151,0.072-0.253,0.194-0.33,0.339C27.923,16.543,27.851,16.668,27.791,16.803z"/>
	<path fill-rule="evenodd" clip-rule="evenodd" fill="#D9EDFA" d="M33.3,16.31c0.971,1.042,1.236,2.256,0.783,3.592
		c-0.467,1.377-1.484,2.158-2.902,2.367c-1.865,0.275-3.622-1.06-3.932-2.921c-0.109-0.65-0.07-1.274,0.205-1.877l0.002,0.001
		c0.03,0.158-0.002,0.307-0.052,0.458c-0.147,0.437-0.146,0.88-0.054,1.327c0.143-0.516,0.327-1.009,0.646-1.432
		c0.592-0.784,1.307-1.407,2.306-1.625c0.771-0.168,1.536-0.269,2.292,0.056c0.14,0.06,0.269,0.107,0.406,0.008l0.006,0.005
		c0.021,0.2,0.189,0.216,0.33,0.268c0.01,0.004,0.02,0.008,0.029,0.012c-0.008-0.005-0.016-0.011-0.024-0.017
		c-0.024-0.066-0.048-0.132-0.071-0.198C33.28,16.325,33.29,16.317,33.3,16.31z"/>
	<path fill-rule="evenodd" clip-rule="evenodd" fill="#FDFAD8" d="M28.838,15.772c1.114-0.716,2.269-0.755,3.458-0.208
		c-0.01,0.012-0.02,0.023-0.03,0.035c-0.13,0.038-0.238-0.041-0.349-0.079c-0.539-0.184-1.074-0.278-1.654-0.196
		c-0.506,0.072-0.922,0.36-1.402,0.476C28.853,15.791,28.845,15.782,28.838,15.772z"/>
	<path fill-rule="evenodd" clip-rule="evenodd" fill="#FDFAD8" d="M32.296,15.564c0.385,0.182,0.729,0.417,1.004,0.745
		c-0.01,0.008-0.02,0.016-0.029,0.023c-0.088-0.021-0.176-0.043-0.264-0.065l-0.006-0.005c0.008-0.156-0.135-0.181-0.221-0.255
		c-0.166-0.143-0.396-0.205-0.515-0.408C32.276,15.587,32.286,15.576,32.296,15.564z"/>
	<path fill-rule="evenodd" clip-rule="evenodd" fill="#FDFAD8" d="M27.454,17.47c0.035-0.206,0.121-0.386,0.266-0.537l0.004,0.003
		c-0.002,0.222-0.011,0.44-0.268,0.535L27.454,17.47z"/>
	<path fill-rule="evenodd" clip-rule="evenodd" fill="#FDFAD8" d="M28.055,16.465c0.077-0.146,0.179-0.267,0.33-0.339l0.007,0.006
		c-0.023,0.2-0.18,0.266-0.334,0.335L28.055,16.465z"/>
	<path fill-rule="evenodd" clip-rule="evenodd" fill="#FDFAD8" d="M28.454,16.062c0.09-0.148,0.238-0.217,0.384-0.29
		c0.007,0.01,0.015,0.019,0.022,0.028c-0.101,0.139-0.199,0.282-0.402,0.266L28.454,16.062z"/>
	<path fill-rule="evenodd" clip-rule="evenodd" fill="#FDFAD8" d="M27.791,16.803c0.06-0.135,0.132-0.259,0.264-0.337l0.003,0.002
		C28.024,16.624,27.999,16.786,27.791,16.803L27.791,16.803z"/>
	<path fill-rule="evenodd" clip-rule="evenodd" fill="#FDFAD8" d="M27.72,16.933c0-0.056,0.012-0.106,0.071-0.13v0
		c0.007,0.059,0.017,0.12-0.067,0.132L27.72,16.933z"/>
	<path fill-rule="evenodd" clip-rule="evenodd" fill="#FDFAD8" d="M28.385,16.126c0.022-0.021,0.046-0.043,0.069-0.064l0.004,0.004
		c0.006,0.05-0.022,0.066-0.066,0.066L28.385,16.126z"/>
	<path fill-rule="evenodd" clip-rule="evenodd" fill="#7AD1ED" d="M28.392,16.132c0.044,0,0.072-0.016,0.066-0.066
		c0.203,0.016,0.302-0.126,0.402-0.266c0.48-0.116,0.896-0.404,1.402-0.476c0.58-0.083,1.115,0.012,1.654,0.196
		c0.11,0.038,0.219,0.117,0.349,0.079c0.118,0.203,0.349,0.265,0.515,0.408c0.086,0.074,0.229,0.1,0.221,0.255
		c-0.138,0.099-0.267,0.052-0.406-0.008c-0.756-0.324-1.521-0.224-2.292-0.056c-0.999,0.218-1.714,0.841-2.306,1.625
		c-0.319,0.422-0.504,0.916-0.646,1.432c-0.092-0.447-0.094-0.89,0.054-1.327c0.05-0.15,0.082-0.299,0.052-0.458
		c0.257-0.095,0.266-0.313,0.268-0.535c0.084-0.013,0.074-0.074,0.067-0.132c0.208-0.017,0.233-0.18,0.267-0.335
		C28.212,16.398,28.368,16.333,28.392,16.132z"/>
	<path fill-rule="evenodd" clip-rule="evenodd" fill="#F2777A" d="M33.007,16.268c0.088,0.022,0.176,0.044,0.264,0.065
		c0.023,0.066,0.047,0.132,0.071,0.198l-0.005,0.004C33.196,16.484,33.028,16.467,33.007,16.268z"/>
	<path fill-rule="evenodd" clip-rule="evenodd" fill="#F2777A" d="M33.342,16.531c0.009,0.005,0.017,0.011,0.024,0.017
		c-0.01-0.004-0.02-0.008-0.029-0.012L33.342,16.531z"/>
</g>
<path fill-rule="evenodd" clip-rule="evenodd" fill="#0E0A0A" d="M81.669,61.606c-0.639,0.002-0.639,0.002-0.643,0.631
	c0,0.156,0.008,0.313-0.001,0.467c-0.019,0.301-0.237,0.533-0.517,0.561c-0.261,0.025-0.559-0.182-0.599-0.473
	c-0.042-0.307-0.036-0.622-0.023-0.933c0.008-0.205-0.049-0.272-0.259-0.257c-0.266,0.021-0.534,0.011-0.802,0.002
	c-0.335-0.012-0.561-0.25-0.558-0.572c0.003-0.307,0.251-0.56,0.575-0.568c0.277-0.009,0.557-0.011,0.835,0.001
	c0.159,0.007,0.214-0.042,0.206-0.204c-0.013-0.267-0.012-0.535-0.002-0.802c0.015-0.39,0.242-0.624,0.588-0.624
	c0.347,0,0.549,0.232,0.555,0.642c0.004,0.267,0.008,0.534-0.003,0.802c-0.006,0.148,0.048,0.19,0.189,0.186
	c0.268-0.009,0.535-0.004,0.803-0.002c0.389,0.004,0.652,0.248,0.65,0.6c-0.001,0.304-0.271,0.538-0.628,0.545
	C81.914,61.608,81.792,61.606,81.669,61.606z"/>
<path fill-rule="evenodd" clip-rule="evenodd" fill="#0E0A0A" d="M14.833,44.986c0-0.133-0.004-0.268,0.001-0.4
	c0.014-0.352,0.203-0.557,0.518-0.568c0.341-0.012,0.597,0.205,0.619,0.555c0.018,0.266,0.021,0.535-0.003,0.801
	c-0.021,0.234,0.072,0.277,0.277,0.264c0.233-0.016,0.467-0.008,0.701-0.002c0.363,0.006,0.631,0.252,0.636,0.577
	c0.006,0.352-0.214,0.568-0.615,0.586c-0.266,0.012-0.535,0.014-0.801-0.002c-0.172-0.01-0.204,0.059-0.198,0.209
	c0.01,0.268,0.012,0.535,0.002,0.801c-0.013,0.371-0.262,0.637-0.583,0.639c-0.334,0-0.55-0.248-0.555-0.646
	c-0.003-0.232-0.024-0.469,0.003-0.699c0.031-0.268-0.079-0.324-0.316-0.309c-0.254,0.018-0.512,0.016-0.767-0.002
	c-0.345-0.023-0.556-0.258-0.55-0.58c0.007-0.323,0.232-0.557,0.569-0.573c0.256-0.01,0.513-0.016,0.768,0.004
	c0.227,0.018,0.33-0.041,0.293-0.285c-0.018-0.121-0.003-0.244-0.003-0.367C14.831,44.986,14.832,44.986,14.833,44.986z"/>
<path fill-rule="evenodd" clip-rule="evenodd" fill="#0E0A0A" d="M16.449,68.778c-0.567-0.002-1.055-0.485-1.057-1.049
	c-0.002-0.588,0.489-1.084,1.069-1.083c0.54,0.001,1.034,0.496,1.046,1.047C17.52,68.294,17.045,68.779,16.449,68.778z"/>
<path fill-rule="evenodd" clip-rule="evenodd" fill="#0E0A0A" d="M75.513,37.071c-0.523,0-0.989-0.479-1.001-1.031
	c-0.013-0.551,0.497-1.074,1.053-1.082c0.54-0.008,1.079,0.523,1.078,1.063C76.641,36.624,76.16,37.071,75.513,37.071z"/>
</svg>
