<?xml version="1.0" encoding="utf-8"?>
<!-- Generator: Adobe Illustrator 16.0.0, SVG Export Plug-In . SVG Version: 6.00 Build 0)  -->
<!DOCTYPE svg PUBLIC "-//W3C//DTD SVG 1.1//EN" "http://www.w3.org/Graphics/SVG/1.1/DTD/svg11.dtd">
<svg version="1.1" id="Layer_1" xmlns="http://www.w3.org/2000/svg" xmlns:xlink="http://www.w3.org/1999/xlink" x="0px" y="0px"
	 width="100px" height="100px" viewBox="0 0 100 100" enable-background="new 0 0 100 100" xml:space="preserve">
<g>
	<path fill-rule="evenodd" clip-rule="evenodd" fill="#D9EDFA" d="M31.173,66.975c-0.17,0.186-0.383,0.219-0.626,0.205
		c-0.345-0.018-0.695-0.037-1.035,0.004c-0.575,0.068-0.884-0.266-1.199-0.662c-0.216-0.271-0.499-0.49-0.755-0.729
		c-0.277-0.258-0.557-0.518-0.825-0.781c-0.434-0.428-0.778-0.939-1.242-1.348c-0.197-0.172-0.338-0.408-0.506-0.613
		c-0.254-0.311-0.501-0.648-0.667-0.992c-0.146-0.301-0.354-0.553-0.529-0.814c-0.277-0.412-0.435-0.873-0.662-1.303
		c-0.158-0.299-0.286-0.615-0.365-0.947c-0.028-0.119-0.081-0.23-0.128-0.344c-0.242-0.572-0.395-1.17-0.549-1.773
		c-0.351-1.373-0.35-2.766-0.306-4.158c0.02-0.637-0.013-1.305,0.296-1.912c0.079-0.154,0.066-0.361,0.055-0.521
		c-0.033-0.5,0.206-0.941,0.353-1.363c0.277-0.797,0.617-1.584,0.908-2.379c0.248-0.68,0.686-1.248,0.932-1.918
		c0.08-0.215,0.277-0.362,0.388-0.571c0.205-0.388,0.444-0.76,0.697-1.117c0.102-0.146,0.281-0.224,0.39-0.388
		c0.122-0.185,0.272-0.342,0.284-0.581c0.003-0.061,0.038-0.154,0.083-0.172c0.442-0.177,0.548-0.662,0.875-0.959
		c0.32-0.292,0.62-0.626,0.938-0.937c0.301-0.292,0.59-0.606,0.896-0.892c0.261-0.243,0.559-0.45,0.828-0.692
		c0.238-0.214,0.525-0.39,0.784-0.584c0.54-0.405,1.131-0.701,1.733-0.984c0.634-0.299,1.276-0.587,1.946-0.792
		c0.46-0.142,0.916-0.313,1.406-0.354c0.24-0.02,0.499-0.049,0.708-0.154c0.217-0.109,0.426-0.1,0.645-0.107
		c0.688-0.022,1.376-0.038,2.063-0.071c0.292-0.014,0.574,0.046,0.861,0.073c0.3,0.028,0.123,0.278,0.184,0.418
		c0.009,0.101-0.021,0.194-0.046,0.292c-0.421,1.589-0.651,3.204-0.702,4.847c-0.027,0.884,0.138,0.978,0.988,0.973
		c2.827-0.019,5.654-0.02,8.482-0.025c0.127,0.064,0.258,0.045,0.39,0.017c2.168,0.001,4.335,0.001,6.502,0.001
		c0.287,0.031,0.574,0.04,0.861-0.006c0.163,0.068,0.091,0.212,0.091,0.321c0.003,4.882,0,9.765,0.007,14.646
		c0.001,0.246-0.048,0.314-0.305,0.314c-6.465-0.008-12.93-0.006-19.395-0.014c-0.33,0-0.531,0.109-0.692,0.4
		c-1.646,2.975-3.301,5.943-4.951,8.916C31.169,66.605,31.068,66.777,31.173,66.975z"/>
	<path fill-rule="evenodd" clip-rule="evenodd" fill="#D9EDFA" d="M73.423,34.687c0.091-0.04,0.2-0.118,0.275-0.021
		c0.198,0.252,0.511,0.333,0.748,0.534c0.421,0.357,0.812,0.739,1.204,1.125c0.416,0.408,0.863,0.788,1.208,1.256
		c0.312,0.423,0.623,0.848,0.929,1.275c0.488,0.683,0.853,1.434,1.277,2.149c0.348,0.584,0.634,1.218,0.813,1.885
		c0.123,0.457,0.241,0.93,0.394,1.359c0.313,0.881,0.368,1.774,0.504,2.674c0.188,1.244,0.055,2.48,0.095,3.719
		c0.011,0.33-0.134,0.662-0.193,0.996c-0.072,0.402-0.051,0.844-0.216,1.201c-0.204,0.441-0.116,0.969-0.46,1.352
		c-0.033,0.039-0.043,0.102-0.052,0.154c-0.118,0.695-0.484,1.293-0.727,1.936c-0.238,0.633-0.705,1.141-0.864,1.793
		c-0.045,0.188-0.208,0.248-0.294,0.389c-0.465,0.762-0.977,1.486-1.589,2.146c-0.217,0.234-0.562,0.428-0.572,0.838
		c-0.004,0.139-0.249,0.092-0.311,0.221c-0.168,0.348-0.491,0.584-0.773,0.779c-0.329,0.227-0.463,0.709-0.938,0.729
		c-0.16,0.381-0.593,0.475-0.82,0.771c-0.25,0.324-0.611,0.504-0.907,0.768c-0.196,0.176-0.413,0.377-0.624,0.494
		c-0.259,0.143-0.503,0.295-0.728,0.48c-0.243,0.201-0.531,0.344-0.74,0.588c-0.307,0.357-0.722,0.578-1.091,0.855
		c-0.105,0.078-0.238,0.041-0.358,0.041c-1.728,0.002-3.455,0-5.183,0.006c-0.117,0-0.28-0.078-0.336,0.117
		c-0.089,0-0.178,0-0.267,0c-0.042-0.129-0.083-0.258-0.124-0.389c0.005-0.195-0.065-0.361-0.166-0.529
		c-0.897-1.486-1.788-2.977-2.685-4.465c-0.073-0.121-0.112-0.207-0.012-0.352c1.573-2.254,3.138-4.516,4.704-6.773
		c1.356-1.959,2.711-3.918,4.069-5.875c0.147-0.211,0.242-0.426,0.121-0.678c-0.122-0.252-0.353-0.262-0.598-0.26
		c-1.281,0.006-2.563,0.008-3.844-0.002c-0.236-0.002-0.402,0.08-0.542,0.258c-1.734,2.195-3.47,4.391-5.206,6.584
		c-0.295,0.373-0.599,0.738-0.938,1.158c0-4.682,0-9.283,0.001-13.885c0-0.077-0.016-0.158,0.038-0.226
		c0.022,0.024,0.043,0.024,0.061-0.006c2.526,0.003,5.053,0.006,7.579,0.009c0.082,0.025,0.164,0.045,0.24-0.016
		c0.206-0.004,0.412-0.008,0.618-0.012c0.213,0.078,0.428,0.064,0.644,0.011c0.189-0.003,0.378-0.005,0.566-0.007
		c0.139,0.092,0.286,0.04,0.431,0.027c0.235-0.002,0.47-0.003,0.705-0.004c0.149,0.025,0.299,0.049,0.442-0.027
		c0.159,0,0.318,0.001,0.478,0.002l-0.004,0.016l0.02-0.003c0.171,0.063,0.341,0.061,0.512-0.001l0.02,0.006l-0.005-0.016
		c0.156,0.002,0.313,0.006,0.47,0.008c0.036,0.047,0.077,0.043,0.12,0.013c1.071,0.001,2.142,0.001,3.212,0.001l0.01,0.002
		c0.573-0.014,0.756-0.117,0.768-0.474c0.031-0.912-0.031-1.822-0.154-2.725C74.193,37.311,73.872,35.982,73.423,34.687z"/>
	<path fill-rule="evenodd" clip-rule="evenodd" fill="#0E0A0A" d="M62.827,67.297c0.089,0,0.178,0,0.267,0
		c2.14,0.004,4.279,0.008,6.419,0.01c5.628,0,11.257,0,16.885,0c0.515,0,0.829,0.248,0.831,0.654
		c0.002,0.404-0.347,0.686-0.854,0.686c-11.646-0.002-23.293-0.004-34.939-0.004c-11.301,0-22.602,0.002-33.903,0.004
		c-0.067,0-0.134,0.002-0.201,0c-0.399-0.016-0.719-0.322-0.717-0.686c0.002-0.391,0.287-0.654,0.723-0.654c2.73,0,5.461,0,8.192,0
		c1.96,0,3.92,0,5.939,0c-0.133-0.121-0.265-0.189-0.295-0.332c-0.104-0.197-0.004-0.369,0.086-0.531
		c1.65-2.973,3.306-5.941,4.951-8.916c0.161-0.291,0.362-0.4,0.692-0.4c6.465,0.008,12.93,0.006,19.395,0.014
		c0.257,0,0.306-0.068,0.305-0.314c-0.007-4.881-0.004-9.764-0.007-14.646c0-0.109,0.072-0.253-0.09-0.321
		c-0.287-0.02-0.575-0.032-0.862,0.006c-2.167,0-4.334,0-6.501-0.001c-0.129-0.005-0.26-0.011-0.391-0.017
		c-2.828,0.006-5.655,0.007-8.482,0.025c-0.85,0.005-1.015-0.089-0.988-0.973c0.051-1.644,0.281-3.258,0.702-4.847
		c0.026-0.097,0.056-0.19,0.046-0.292c0.715-2.175,1.653-4.237,3.042-6.074c2.724-3.603,6.233-5.978,10.702-6.863
		c0.842-0.167,1.689-0.256,2.544-0.284c0.239-0.008,0.295-0.097,0.286-0.319c-0.018-0.4-0.011-0.802-0.005-1.203
		c0.005-0.335,0.202-0.533,0.508-0.526c0.294,0.006,0.497,0.217,0.502,0.538c0.006,0.423,0.013,0.847-0.003,1.27
		c-0.009,0.209,0.063,0.258,0.263,0.266c2.181,0.092,4.251,0.636,6.217,1.576c2.708,1.294,4.926,3.178,6.706,5.588
		c1.124,1.523,1.989,3.18,2.632,4.957c0.449,1.295,0.771,2.624,0.955,3.981c0.123,0.902,0.186,1.813,0.154,2.725
		c-0.012,0.356-0.194,0.46-0.768,0.474c0.001,0-0.003-0.02-0.003-0.02l-0.007,0.018c-1.07,0-2.141,0-3.211-0.001
		c-0.037-0.034-0.078-0.034-0.121-0.013c-0.156-0.002-0.313-0.006-0.47-0.008l-0.014-0.006l-0.001,0.016
		c-0.171,0.062-0.341,0.063-0.512,0.002v-0.018l-0.016,0.004c-0.159-0.001-0.318-0.002-0.477-0.002
		c-0.147,0.009-0.296,0.018-0.443,0.027c-0.235,0.001-0.47,0.002-0.704,0.004c-0.144-0.01-0.287-0.019-0.432-0.027
		c-0.188,0.002-0.377,0.004-0.565,0.007c-0.215-0.004-0.43-0.007-0.645-0.011c-0.206,0.004-0.412,0.008-0.618,0.012
		c-0.079,0.006-0.159,0.011-0.24,0.016c-2.526-0.003-5.053-0.006-7.578-0.009c-0.022-0.024-0.044-0.026-0.062,0.006
		c-0.054,0.067-0.038,0.148-0.038,0.226c-0.001,4.602-0.001,9.204-0.001,13.885c0.339-0.42,0.643-0.785,0.938-1.158
		c1.736-2.193,3.472-4.389,5.206-6.584c0.14-0.178,0.306-0.26,0.542-0.258c1.281,0.01,2.563,0.008,3.844,0.002
		c0.245-0.002,0.476,0.008,0.598,0.26c0.121,0.252,0.026,0.467-0.121,0.678c-1.358,1.957-2.713,3.916-4.069,5.875
		c-1.566,2.258-3.131,4.52-4.704,6.773c-0.101,0.145-0.062,0.23,0.012,0.352c0.896,1.488,1.787,2.979,2.685,4.465
		c0.101,0.168,0.171,0.334,0.166,0.529c-0.063,0.152-0.156,0.283-0.391,0.389C62.547,67.297,62.687,67.297,62.827,67.297z
		 M61.459,66.598c-0.103-0.162-0.204-0.326-0.307-0.49c-0.694-1.16-1.389-2.32-2.082-3.482c-0.101-0.34-0.33-0.453-0.673-0.402
		c-0.164,0.023-0.336,0.02-0.501,0c-0.235-0.029-0.294,0.053-0.292,0.289c0.013,1.359,0.001,2.719,0.011,4.078
		c0.002,0.287-0.033,0.537-0.364,0.717c0.848,0,1.616,0,2.385,0c0.772,0,1.544,0,2.406,0c-0.334-0.197-0.412-0.479-0.577-0.695
		L61.459,66.598z M36.541,66.438L36.541,66.438c-0.232,0.26-0.29,0.637-0.626,0.85c7.016,0,13.991,0,20.992,0
		c-0.096-0.072-0.165-0.125-0.234-0.178c-0.075-0.131-0.077-0.273-0.077-0.42c0.002-1.371-0.011-2.742,0.009-4.113
		c0.004-0.301-0.074-0.359-0.363-0.359c-3.843,0.012-7.686,0.008-11.528,0.008c-1.851,0-3.701,0-5.551,0.002
		c-0.125,0-0.258-0.039-0.346,0.119c-0.668,1.211-1.344,2.416-2.018,3.623c-0.058,0.025-0.056,0.082-0.069,0.129
		c-0.061,0.023-0.064,0.08-0.079,0.131C36.594,66.287,36.543,66.35,36.541,66.438z M61.75,24.377
		c0.006-0.03,0.009-0.057-0.036-0.037c0.014,0.011,0.027,0.022,0.041,0.033c0.188,0.17,0.381,0.336,0.563,0.513
		c1.865,1.798,3.088,4.006,3.961,6.408c1.039,2.859,1.632,5.812,1.619,8.871c-0.001,0.227,0.019,0.482,0.126,0.668
		c0.042,0.075,0.347-0.001,0.532-0.008c0.033-0.001,0.067,0.005,0.101,0.005c1.537,0.001,3.073-0.002,4.61,0.006
		c0.196,0.001,0.271-0.035,0.257-0.255c-0.092-1.373-0.256-2.737-0.616-4.065c-0.714-2.626-1.921-5.007-3.683-7.089
		c-1.63-1.926-3.575-3.45-5.887-4.484C62.825,24.713,62.319,24.454,61.75,24.377z M32.517,66.293c0.923,0,1.801-0.004,2.678,0.004
		c0.167,0.002,0.257-0.053,0.337-0.197c0.805-1.439,1.629-2.869,2.417-4.318c0.229-0.42,0.497-0.592,0.988-0.59
		c3.942,0.02,7.884,0.012,11.827,0.012c2.585,0,5.17-0.004,7.755,0.008c0.253,0,0.395-0.078,0.535-0.283
		c1.918-2.785,3.845-5.564,5.769-8.346c0.823-1.189,1.646-2.379,2.49-3.6c-0.929,0-1.817,0.004-2.705-0.002
		c-0.137-0.002-0.188,0.074-0.259,0.164c-0.799,1.01-1.601,2.018-2.401,3.027c-1.472,1.854-2.952,3.699-4.408,5.564
		c-0.23,0.297-0.463,0.416-0.834,0.416c-6.285-0.01-12.569,0.002-18.854-0.02c-0.591-0.002-0.907,0.133-1.206,0.693
		C35.319,61.32,33.918,63.775,32.517,66.293z M56.927,40.819c0,0.005,0,0.01,0,0.015c1.036,0,2.072-0.009,3.108,0.006
		c0.267,0.004,0.327-0.077,0.322-0.333c-0.035-1.871-0.106-3.739-0.261-5.605c-0.208-2.517-0.52-5.017-1.146-7.468
		c-0.283-1.109-0.607-2.207-1.222-3.188c-0.563-0.901-1.025-0.902-1.6-0.014c-0.598,0.925-0.914,1.965-1.192,3.016
		c-0.459,1.733-0.738,3.498-0.956,5.275c-0.327,2.678-0.446,5.368-0.503,8.063c-0.005,0.194,0.054,0.239,0.24,0.237
		C54.787,40.814,55.857,40.819,56.927,40.819z M55.14,23.82c-0.28,0.115-0.514,0.206-0.742,0.308
		c-0.151,0.067-0.299,0.147-0.443,0.229c-1.908,1.08-3.203,2.737-4.215,4.62c-1.94,3.612-2.704,7.524-2.833,11.587
		c-0.007,0.225,0.06,0.268,0.272,0.266c1.647-0.009,3.294-0.011,4.941,0.003c0.268,0.002,0.35-0.045,0.348-0.333
		c-0.012-1.905,0.099-3.805,0.248-5.704c0.178-2.259,0.461-4.501,0.951-6.714C53.988,26.624,54.381,25.188,55.14,23.82z
		 M58.69,23.832c0.535,0.921,0.862,1.871,1.129,2.843c0.484,1.76,0.785,3.555,1.02,5.364s0.357,3.625,0.457,5.445
		c0.057,1.035,0.067,2.07,0.07,3.106c0.001,0.186,0.057,0.24,0.247,0.24c1.639-0.002,3.276,0.001,4.914,0.02
		c0.327,0.004,0.439-0.095,0.412-0.428c-0.065-0.828-0.125-1.655-0.216-2.482c-0.128-1.164-0.299-2.318-0.57-3.453
		c-0.646-2.701-1.637-5.26-3.337-7.491C61.743,25.588,60.459,24.438,58.69,23.832z M52.102,24.337
		c-0.271,0.088-0.451,0.143-0.627,0.206c-0.156,0.056-0.312,0.117-0.465,0.181c-2.694,1.139-4.949,2.854-6.754,5.159
		c-2.463,3.146-3.739,6.725-3.924,10.707c-0.009,0.198,0.045,0.242,0.232,0.242c1.693-0.004,3.386-0.002,5.08,0.002
		c0.16,0,0.221-0.022,0.227-0.214c0.023-0.734,0.054-1.469,0.124-2.2c0.186-1.915,0.515-3.804,1.077-5.65
		C48.043,29.576,49.497,26.668,52.102,24.337z"/>
	<path fill-rule="evenodd" clip-rule="evenodd" fill="#0E0A0A" d="M36.531,18.972c2.503-0.019,4.567,2.015,4.598,4.53
		c0.03,2.514-2.053,4.64-4.593,4.63c-2.636-0.011-4.542-2.164-4.582-4.517C31.911,21.064,34.05,18.917,36.531,18.972z M33.587,21.6
		c-0.06,0.024-0.071,0.074-0.071,0.13c-0.146,0.151-0.231,0.331-0.266,0.537c-0.275,0.603-0.314,1.228-0.206,1.877
		c0.31,1.861,2.066,3.196,3.932,2.921c1.419-0.209,2.436-0.989,2.903-2.367c0.453-1.336,0.187-2.549-0.784-3.592
		c-0.275-0.328-0.619-0.563-1.003-0.745c-1.19-0.548-2.344-0.508-3.458,0.208c-0.146,0.073-0.294,0.142-0.384,0.29
		c-0.023,0.021-0.046,0.042-0.069,0.064c-0.152,0.072-0.253,0.194-0.33,0.339C33.719,21.34,33.646,21.465,33.587,21.6z"/>
	<path fill-rule="evenodd" clip-rule="evenodd" fill="#0E0A0A" d="M84.841,57.273c-0.639,0.002-0.639,0.002-0.643,0.631
		c0,0.156,0.008,0.313-0.001,0.467c-0.019,0.301-0.237,0.533-0.517,0.561c-0.261,0.025-0.559-0.182-0.599-0.473
		c-0.042-0.307-0.036-0.622-0.023-0.933c0.008-0.205-0.049-0.272-0.259-0.257c-0.266,0.021-0.534,0.011-0.802,0.002
		c-0.335-0.012-0.561-0.25-0.558-0.572c0.003-0.307,0.251-0.56,0.575-0.568c0.277-0.009,0.557-0.011,0.835,0.001
		c0.159,0.007,0.214-0.042,0.206-0.204c-0.013-0.267-0.012-0.535-0.002-0.802c0.015-0.39,0.242-0.624,0.588-0.624
		c0.347,0,0.549,0.232,0.555,0.642c0.004,0.267,0.008,0.534-0.003,0.802c-0.006,0.148,0.048,0.19,0.189,0.186
		c0.268-0.009,0.535-0.004,0.803-0.002c0.389,0.004,0.652,0.248,0.65,0.6c-0.001,0.304-0.271,0.538-0.628,0.545
		C85.086,57.275,84.964,57.273,84.841,57.273z"/>
	<path fill-rule="evenodd" clip-rule="evenodd" fill="#0E0A0A" d="M18.004,40.653c0-0.133-0.004-0.268,0.001-0.4
		c0.014-0.352,0.203-0.557,0.518-0.568c0.341-0.012,0.597,0.205,0.619,0.555c0.018,0.266,0.021,0.535-0.003,0.801
		c-0.021,0.234,0.072,0.277,0.277,0.264c0.233-0.016,0.467-0.008,0.701-0.002c0.363,0.006,0.631,0.252,0.636,0.576
		c0.006,0.352-0.214,0.568-0.615,0.586c-0.266,0.012-0.535,0.014-0.801-0.002c-0.172-0.01-0.204,0.059-0.198,0.209
		c0.01,0.268,0.012,0.535,0.002,0.801c-0.013,0.371-0.262,0.637-0.583,0.639c-0.334,0-0.55-0.248-0.555-0.646
		c-0.003-0.232-0.024-0.469,0.003-0.699c0.031-0.268-0.079-0.324-0.316-0.309c-0.254,0.018-0.512,0.016-0.767-0.002
		c-0.345-0.023-0.556-0.258-0.55-0.58c0.007-0.322,0.232-0.557,0.569-0.572c0.256-0.01,0.513-0.016,0.768,0.004
		c0.227,0.018,0.33-0.041,0.293-0.285c-0.018-0.121-0.003-0.244-0.003-0.367C18.002,40.653,18.003,40.653,18.004,40.653z"/>
	<path fill-rule="evenodd" clip-rule="evenodd" fill="#0E0A0A" d="M11.911,67.307c0.613,0,1.226-0.002,1.838,0
		c0.445,0.002,0.718,0.248,0.723,0.648c0.004,0.387-0.308,0.688-0.738,0.689c-1.07,0.006-2.139,0.002-3.208,0.002
		c-0.178,0-0.358,0.012-0.535-0.004c-0.37-0.031-0.647-0.334-0.641-0.68c0.007-0.381,0.289-0.652,0.688-0.654
		C10.663,67.305,11.287,67.307,11.911,67.307z"/>
	<path fill-rule="evenodd" clip-rule="evenodd" fill="#0E0A0A" d="M19.621,64.445c-0.567-0.002-1.055-0.485-1.057-1.049
		c-0.002-0.588,0.489-1.084,1.069-1.083c0.54,0.001,1.034,0.496,1.046,1.047C20.691,63.961,20.217,64.446,19.621,64.445z"/>
	<path fill-rule="evenodd" clip-rule="evenodd" fill="#0E0A0A" d="M78.685,32.738c-0.523,0-0.989-0.479-1.001-1.031
		c-0.013-0.551,0.497-1.074,1.053-1.082c0.54-0.008,1.079,0.523,1.078,1.063C79.813,32.291,79.332,32.738,78.685,32.738z"/>
	<path fill-rule="evenodd" clip-rule="evenodd" fill="#0E0A0A" d="M89.845,67.307c0.167,0,0.333-0.002,0.5,0
		c0.412,0.006,0.692,0.26,0.705,0.637c0.012,0.346-0.267,0.676-0.627,0.695c-0.399,0.023-0.802,0.023-1.2,0.002
		c-0.354-0.02-0.644-0.365-0.627-0.701c0.018-0.354,0.309-0.625,0.682-0.633C89.467,67.303,89.655,67.307,89.845,67.307z"/>
	<path fill-rule="evenodd" clip-rule="evenodd" fill="#0E0A0A" d="M93.277,67.971c-0.003,0.383-0.298,0.68-0.669,0.676
		c-0.358-0.004-0.671-0.332-0.662-0.695s0.297-0.645,0.663-0.645C92.997,67.309,93.279,67.59,93.277,67.971z"/>
	<path fill-rule="evenodd" clip-rule="evenodd" fill="#2B77A4" d="M55.643,41.865c0.287-0.038,0.575-0.025,0.862-0.006
		C56.217,41.905,55.93,41.896,55.643,41.865z"/>
	<path fill-rule="evenodd" clip-rule="evenodd" fill="#2B77A4" d="M48.75,41.847c0.13,0.006,0.261,0.012,0.391,0.017
		C49.009,41.892,48.878,41.912,48.75,41.847z"/>
	<path fill-rule="evenodd" clip-rule="evenodd" fill="#FFFFFF" d="M62.827,67.297c-0.141,0-0.28,0-0.515,0
		c0.234-0.105,0.327-0.236,0.391-0.389C62.744,67.039,62.785,67.168,62.827,67.297z"/>
	<path fill-rule="evenodd" clip-rule="evenodd" fill="#2B77A4" d="M66.146,41.839c0.215,0.004,0.43,0.007,0.645,0.011
		C66.573,41.904,66.358,41.917,66.146,41.839z"/>
	<path fill-rule="evenodd" clip-rule="evenodd" fill="#2B77A4" d="M67.355,41.843c0.145,0.009,0.288,0.018,0.432,0.027
		C67.642,41.883,67.494,41.935,67.355,41.843z"/>
	<path fill-rule="evenodd" clip-rule="evenodd" fill="#2B77A4" d="M68.491,41.867c0.147-0.01,0.296-0.019,0.443-0.027
		C68.79,41.916,68.641,41.892,68.491,41.867z"/>
	<path fill-rule="evenodd" clip-rule="evenodd" fill="#2B77A4" d="M65.287,41.867c0.081-0.005,0.161-0.01,0.24-0.016
		C65.451,41.912,65.369,41.892,65.287,41.867z"/>
	<path fill-rule="evenodd" clip-rule="evenodd" fill="#2B77A4" d="M70.423,41.851c0.043-0.021,0.084-0.021,0.121,0.013
		C70.5,41.894,70.459,41.898,70.423,41.851z"/>
	<path fill-rule="evenodd" clip-rule="evenodd" fill="#2B77A4" d="M57.647,41.864c0.018-0.032,0.039-0.03,0.062-0.006
		C57.69,41.888,57.67,41.888,57.647,41.864z"/>
	<polygon fill-rule="evenodd" clip-rule="evenodd" fill="#2B77A4" points="69.411,41.841 69.427,41.837 69.427,41.855 
		69.407,41.857 	"/>
	<polygon fill-rule="evenodd" clip-rule="evenodd" fill="#2B77A4" points="69.938,41.853 69.939,41.837 69.953,41.843 
		69.958,41.859 	"/>
	<polygon fill-rule="evenodd" clip-rule="evenodd" fill="#2B77A4" points="73.755,41.865 73.762,41.847 73.765,41.867 	"/>
	<path fill-rule="evenodd" clip-rule="evenodd" fill="#E2EEF4" d="M32.517,66.293c1.401-2.518,2.802-4.973,4.128-7.467
		c0.298-0.561,0.615-0.695,1.206-0.693c6.285,0.021,12.569,0.01,18.854,0.02c0.371,0,0.604-0.119,0.834-0.416
		c1.456-1.865,2.937-3.711,4.408-5.564c0.801-1.01,1.603-2.018,2.401-3.027c0.07-0.09,0.122-0.166,0.259-0.164
		c0.888,0.006,1.776,0.002,2.705,0.002c-0.845,1.221-1.667,2.41-2.49,3.6c-1.924,2.781-3.851,5.561-5.769,8.346
		c-0.141,0.205-0.282,0.283-0.535,0.283c-2.585-0.012-5.17-0.008-7.755-0.008c-3.942,0-7.885,0.008-11.827-0.012
		c-0.491-0.002-0.759,0.17-0.988,0.59c-0.788,1.449-1.612,2.879-2.417,4.318c-0.081,0.145-0.17,0.199-0.337,0.197
		C34.318,66.289,33.44,66.293,32.517,66.293z"/>
	<path fill-rule="evenodd" clip-rule="evenodd" fill="#D9EDFA" d="M36.651,66.229c0.014-0.051,0.018-0.107,0.079-0.131
		c0.057-0.023,0.15-0.029,0.069-0.129c0.673-1.207,1.349-2.412,2.018-3.623c0.088-0.158,0.22-0.119,0.346-0.119
		c1.85-0.002,3.7-0.002,5.551-0.002c3.843,0,7.686,0.004,11.528-0.008c0.289,0,0.367,0.059,0.363,0.359
		c-0.02,1.371-0.007,2.742-0.009,4.113c0,0.146,0.002,0.289,0.077,0.42c-0.062,0.037-0.101,0.084-0.198,0.084
		c-1.487-0.014-2.976-0.018-4.465-0.018c-5.078,0-10.156,0-15.235,0c-0.078,0-0.156,0.002-0.234,0
		c-0.193-0.002-0.277-0.102-0.119-0.234c0.185-0.154,0.153-0.318,0.119-0.504l0,0C36.644,66.402,36.823,66.406,36.651,66.229z"/>
	<path fill-rule="evenodd" clip-rule="evenodd" fill="#7AD1ED" d="M56.927,40.819c-1.069,0-2.14-0.005-3.209,0.004
		c-0.187,0.002-0.245-0.043-0.24-0.237c0.057-2.695,0.176-5.384,0.503-8.063c0.218-1.778,0.497-3.542,0.956-5.275
		c0.278-1.051,0.595-2.091,1.192-3.016c0.574-0.889,1.036-0.887,1.6,0.014c0.614,0.981,0.938,2.079,1.222,3.188
		c0.627,2.452,0.938,4.952,1.146,7.468c0.154,1.866,0.226,3.734,0.261,5.605c0.005,0.256-0.056,0.337-0.322,0.333
		c-1.036-0.015-2.072-0.006-3.108-0.006C56.927,40.829,56.927,40.824,56.927,40.819z"/>
	<path fill-rule="evenodd" clip-rule="evenodd" fill="#D9EDFA" d="M55.14,23.82c-0.759,1.368-1.151,2.804-1.474,4.262
		c-0.49,2.213-0.773,4.455-0.951,6.714c-0.149,1.899-0.26,3.799-0.248,5.704c0.002,0.288-0.08,0.336-0.348,0.333
		c-1.646-0.014-3.294-0.012-4.941-0.003c-0.212,0.001-0.279-0.041-0.272-0.266c0.129-4.063,0.894-7.975,2.833-11.587
		c1.012-1.883,2.307-3.54,4.215-4.62c0.145-0.082,0.292-0.162,0.443-0.229C54.626,24.025,54.859,23.935,55.14,23.82z"/>
	<path fill-rule="evenodd" clip-rule="evenodd" fill="#D9EDFA" d="M58.69,23.832c1.769,0.606,3.053,1.756,4.126,3.164
		c1.7,2.231,2.691,4.79,3.337,7.491c0.271,1.135,0.442,2.289,0.57,3.453c0.091,0.827,0.15,1.654,0.216,2.482
		c0.027,0.333-0.085,0.432-0.412,0.428c-1.638-0.019-3.275-0.022-4.914-0.02c-0.19,0-0.246-0.054-0.247-0.24
		c-0.003-1.036-0.014-2.071-0.07-3.106c-0.1-1.82-0.223-3.636-0.457-5.445s-0.535-3.604-1.02-5.364
		C59.553,25.703,59.226,24.753,58.69,23.832z"/>
	<path fill-rule="evenodd" clip-rule="evenodd" fill="#7AD1ED" d="M52.102,24.337c-2.604,2.332-4.059,5.239-5.031,8.434
		c-0.562,1.846-0.891,3.735-1.077,5.65c-0.07,0.73-0.101,1.466-0.124,2.2c-0.006,0.192-0.067,0.214-0.227,0.214
		c-1.693-0.005-3.386-0.007-5.08-0.002c-0.187,0-0.241-0.043-0.232-0.242c0.185-3.982,1.461-7.561,3.924-10.707
		c1.805-2.306,4.06-4.02,6.754-5.159c0.153-0.064,0.309-0.125,0.465-0.181C51.65,24.48,51.83,24.425,52.102,24.337z"/>
	<path fill-rule="evenodd" clip-rule="evenodd" fill="#7AD1ED" d="M61.75,24.377c0.569,0.076,1.075,0.335,1.589,0.565
		c2.312,1.035,4.257,2.558,5.887,4.484c1.762,2.083,2.969,4.463,3.683,7.089c0.36,1.328,0.524,2.692,0.616,4.065
		c0.015,0.22-0.061,0.256-0.257,0.255c-1.537-0.008-3.073-0.005-4.61-0.006c-0.033,0-0.067-0.006-0.101-0.005
		c-0.186,0.007-0.49,0.083-0.532,0.008c-0.107-0.186-0.127-0.441-0.126-0.668c0.013-3.059-0.58-6.011-1.619-8.871
		c-0.873-2.402-2.096-4.61-3.961-6.408c-0.183-0.176-0.376-0.342-0.563-0.513L61.75,24.377z"/>
	<path fill-rule="evenodd" clip-rule="evenodd" fill="#D9EDFA" d="M59.07,62.625c0.693,1.162,1.388,2.322,2.082,3.482
		c0.04,0.203-0.097,0.516,0.307,0.49l0.006,0.014c-0.014,0.076-0.054,0.16-0.035,0.227c0.091,0.322-0.069,0.348-0.335,0.344
		c-0.889-0.014-1.778-0.006-2.667-0.006c-0.685,0-0.686,0-0.686-0.664c-0.001-1.268-0.002-2.535,0-3.801
		c0.001-0.42,0.109-0.451,0.499-0.346C58.522,62.441,58.796,62.533,59.07,62.625z"/>
	<path fill-rule="evenodd" clip-rule="evenodd" fill="#FFFFFF" d="M36.541,66.438c0.034,0.186,0.065,0.35-0.119,0.504
		c-0.158,0.133-0.074,0.232,0.119,0.234c0.078,0.002,0.156,0,0.234,0c5.079,0,10.157,0,15.235,0c1.489,0,2.978,0.004,4.465,0.018
		c0.098,0,0.137-0.047,0.198-0.084c0.069,0.053,0.139,0.105,0.234,0.178c-7.001,0-13.977,0-20.992,0
		C36.251,67.074,36.309,66.697,36.541,66.438z"/>
	<path fill-rule="evenodd" clip-rule="evenodd" fill="#FFFFFF" d="M59.07,62.625c-0.274-0.092-0.548-0.184-0.829-0.26
		c-0.39-0.105-0.498-0.074-0.499,0.346c-0.002,1.266-0.001,2.533,0,3.801c0,0.664,0.001,0.664,0.686,0.664
		c0.889,0,1.778-0.008,2.667,0.006c0.266,0.004,0.426-0.021,0.335-0.344c-0.019-0.066,0.021-0.15,0.035-0.227
		c0.165,0.217,0.243,0.498,0.577,0.695c-0.862,0-1.634,0-2.406,0c-0.769,0-1.537,0-2.385,0c0.331-0.18,0.366-0.43,0.364-0.717
		c-0.01-1.359,0.002-2.719-0.011-4.078c-0.002-0.236,0.057-0.318,0.292-0.289c0.165,0.02,0.337,0.023,0.501,0
		C58.74,62.172,58.97,62.285,59.07,62.625z"/>
	<path fill-rule="evenodd" clip-rule="evenodd" fill="#FFFFFF" d="M61.459,66.598c-0.403,0.025-0.267-0.287-0.307-0.49
		C61.255,66.271,61.356,66.436,61.459,66.598z"/>
	<path fill-rule="evenodd" clip-rule="evenodd" fill="#FFFFFF" d="M36.651,66.229c0.172,0.178-0.007,0.174-0.11,0.209
		C36.543,66.35,36.594,66.287,36.651,66.229z"/>
	<path fill-rule="evenodd" clip-rule="evenodd" fill="#FFFFFF" d="M36.799,65.969c0.081,0.1-0.012,0.105-0.069,0.129
		C36.743,66.051,36.741,65.994,36.799,65.969z"/>
	<path fill-rule="evenodd" clip-rule="evenodd" fill="#F2777A" d="M61.755,24.374c-0.014-0.011-0.027-0.022-0.041-0.033
		c0.045-0.02,0.042,0.007,0.036,0.037L61.755,24.374z"/>
	<path fill-rule="evenodd" clip-rule="evenodd" fill="#D9EDFA" d="M39.095,21.106c0.971,1.042,1.236,2.256,0.784,3.592
		c-0.467,1.377-1.484,2.158-2.903,2.367c-1.865,0.275-3.622-1.06-3.932-2.921c-0.108-0.65-0.069-1.274,0.206-1.877l0.002,0.001
		c0.03,0.158-0.002,0.307-0.052,0.458c-0.147,0.437-0.146,0.88-0.054,1.327c0.142-0.516,0.327-1.009,0.646-1.432
		c0.592-0.784,1.307-1.407,2.306-1.625c0.77-0.168,1.537-0.269,2.292,0.056c0.14,0.06,0.269,0.107,0.406,0.008l0.006,0.005
		c0.021,0.2,0.189,0.216,0.33,0.268c0.009,0.004,0.019,0.008,0.029,0.012c-0.008-0.005-0.016-0.011-0.024-0.017
		c-0.024-0.066-0.047-0.132-0.071-0.198C39.076,21.122,39.085,21.114,39.095,21.106z"/>
	<path fill-rule="evenodd" clip-rule="evenodd" fill="#FDFAD8" d="M34.634,20.569c1.114-0.716,2.268-0.755,3.458-0.208
		c-0.01,0.012-0.02,0.023-0.03,0.035c-0.13,0.038-0.238-0.041-0.349-0.079c-0.538-0.184-1.073-0.278-1.653-0.196
		c-0.506,0.072-0.922,0.36-1.403,0.476C34.649,20.588,34.641,20.579,34.634,20.569z"/>
	<path fill-rule="evenodd" clip-rule="evenodd" fill="#FDFAD8" d="M38.092,20.361c0.384,0.182,0.728,0.417,1.003,0.745
		c-0.01,0.008-0.02,0.016-0.029,0.023c-0.088-0.021-0.175-0.043-0.263-0.065l-0.006-0.005c0.008-0.156-0.135-0.181-0.221-0.255
		c-0.166-0.143-0.396-0.205-0.514-0.408C38.072,20.384,38.082,20.373,38.092,20.361z"/>
	<path fill-rule="evenodd" clip-rule="evenodd" fill="#FDFAD8" d="M33.25,22.267c0.034-0.206,0.12-0.386,0.266-0.537l0.003,0.003
		c-0.002,0.222-0.011,0.44-0.267,0.535L33.25,22.267z"/>
	<path fill-rule="evenodd" clip-rule="evenodd" fill="#FDFAD8" d="M33.851,21.262c0.077-0.146,0.178-0.267,0.33-0.339l0.006,0.006
		c-0.022,0.2-0.179,0.266-0.333,0.335L33.851,21.262z"/>
	<path fill-rule="evenodd" clip-rule="evenodd" fill="#FDFAD8" d="M34.25,20.859c0.089-0.148,0.238-0.217,0.384-0.29
		c0.007,0.01,0.015,0.019,0.022,0.028c-0.101,0.139-0.199,0.282-0.402,0.266L34.25,20.859z"/>
	<path fill-rule="evenodd" clip-rule="evenodd" fill="#FDFAD8" d="M33.587,21.6c0.06-0.135,0.132-0.259,0.264-0.337l0.003,0.002
		C33.82,21.42,33.795,21.583,33.587,21.6L33.587,21.6z"/>
	<path fill-rule="evenodd" clip-rule="evenodd" fill="#FDFAD8" d="M33.516,21.729c0-0.056,0.011-0.106,0.071-0.13v0
		c0.006,0.059,0.017,0.12-0.067,0.132L33.516,21.729z"/>
	<path fill-rule="evenodd" clip-rule="evenodd" fill="#FDFAD8" d="M34.181,20.923c0.023-0.021,0.046-0.043,0.069-0.064l0.004,0.004
		c0.006,0.05-0.022,0.066-0.067,0.066L34.181,20.923z"/>
	<path fill-rule="evenodd" clip-rule="evenodd" fill="#7AD1ED" d="M34.187,20.929c0.044,0,0.073-0.016,0.067-0.066
		c0.203,0.016,0.302-0.126,0.402-0.266c0.481-0.116,0.896-0.404,1.403-0.476c0.58-0.083,1.115,0.012,1.653,0.196
		c0.111,0.038,0.219,0.117,0.349,0.079c0.119,0.203,0.349,0.265,0.514,0.408c0.086,0.074,0.229,0.1,0.221,0.255
		c-0.138,0.099-0.267,0.052-0.406-0.008c-0.755-0.324-1.522-0.224-2.292-0.056c-0.999,0.218-1.713,0.841-2.306,1.625
		c-0.319,0.422-0.504,0.916-0.646,1.432c-0.092-0.447-0.093-0.89,0.054-1.327c0.05-0.15,0.082-0.299,0.052-0.458
		c0.256-0.095,0.265-0.313,0.267-0.535c0.084-0.013,0.074-0.074,0.067-0.132c0.208-0.017,0.233-0.18,0.267-0.335
		C34.008,21.195,34.165,21.129,34.187,20.929z"/>
	<path fill-rule="evenodd" clip-rule="evenodd" fill="#F2777A" d="M38.803,21.064c0.088,0.022,0.175,0.044,0.263,0.065
		c0.024,0.066,0.047,0.132,0.071,0.198l-0.004,0.004C38.992,21.281,38.824,21.264,38.803,21.064z"/>
	<path fill-rule="evenodd" clip-rule="evenodd" fill="#F2777A" d="M39.138,21.328c0.008,0.005,0.016,0.011,0.024,0.017
		c-0.01-0.004-0.02-0.008-0.029-0.012L39.138,21.328z"/>
</g>
</svg>
