<?xml version="1.0" encoding="utf-8"?>
<!-- Generator: Adobe Illustrator 16.0.0, SVG Export Plug-In . SVG Version: 6.00 Build 0)  -->
<!DOCTYPE svg PUBLIC "-//W3C//DTD SVG 1.1//EN" "http://www.w3.org/Graphics/SVG/1.1/DTD/svg11.dtd">
<svg version="1.1" id="Layer_1" xmlns="http://www.w3.org/2000/svg" xmlns:xlink="http://www.w3.org/1999/xlink" x="0px" y="0px"
	 width="100px" height="100px" viewBox="0 0 100 100" enable-background="new 0 0 100 100" xml:space="preserve">
<g>
	<path fill-rule="evenodd" clip-rule="evenodd" fill="#58A0D7" d="M13.255,70.988c0-11.021,0-22.042,0-33.064
		c0.311,0.089,0.252-0.177,0.303-0.324c0.802-2.3,3.163-4.146,5.881-4.003c0.914,0.048,1.833-0.005,2.748-0.011
		c0.347,0.006,0.694,0.019,1.04,0.019c9.116,0.001,18.229,0,27.346,0.001c1.461,0,2.922,0.014,4.384,0.021
		c-0.147,0.287-0.297,0.572-0.441,0.86c-5.312,10.62-10.625,21.239-15.937,31.858c-0.245,0.008-0.492,0.05-0.732,0.019
		c-0.614-0.083-0.816,0.162-0.774,0.771c0.051,0.731,0.015,1.466,0.016,2.199c-0.995,1.982-1.988,3.964-2.982,5.945
		c-4.885,0.009-9.772-0.037-14.656,0.049c-2.702,0.048-5.083-1.697-5.894-4.018C13.507,71.167,13.568,70.897,13.255,70.988z
		 M19.213,52.958c0,1.438-0.008,2.876,0.001,4.313c0.012,1.872,1.259,3.133,3.122,3.142c2.875,0.01,5.751,0.01,8.626,0
		c1.873-0.009,3.132-1.259,3.139-3.123c0.013-2.876,0.012-5.751,0.001-8.627c-0.007-1.877-1.256-3.131-3.122-3.139
		c-2.875-0.01-5.751-0.008-8.626,0c-1.875,0.007-3.127,1.256-3.14,3.122C19.206,50.083,19.213,51.521,19.213,52.958z M26.619,69.35
		c2.282,0,4.566-0.011,6.849,0.008c0.469,0.006,0.678-0.117,0.647-0.619c-0.037-0.597-0.035-1.194-0.001-1.788
		c0.025-0.466-0.162-0.588-0.605-0.585c-4.565,0.011-9.129,0.011-13.694,0c-0.436-0.003-0.636,0.108-0.609,0.58
		c0.032,0.569,0.043,1.146-0.003,1.713c-0.046,0.572,0.174,0.71,0.718,0.702C22.154,69.334,24.387,69.35,26.619,69.35z"/>
	<path fill-rule="evenodd" clip-rule="evenodd" fill="#B0BEC5" d="M22.188,33.586c0.063-1.335-0.12-2.677,0.125-4.008
		c0.519-2.808,2.87-4.829,5.716-4.904c0.224-0.007,0.447-0.003,0.67-0.003c16.498,0,32.995,0,49.491,0
		c3.256,0,5.09,1.251,6.294,4.287c0.039,0.094,0.024,0.34,0.261,0.182c0,1.489,0,2.979,0,4.468
		c-4.604,0.004-9.208,0.008-13.81,0.012c-5.327,0.003-10.652,0.007-15.979,0.011c-1.462-0.008-2.923-0.021-4.384-0.022
		c-9.116-0.001-18.229,0-27.346-0.001C22.882,33.605,22.535,33.592,22.188,33.586z"/>
	<path fill-rule="evenodd" clip-rule="evenodd" fill="#B0BEC5" d="M84.745,61.904c-0.337-0.112-0.245,0.188-0.294,0.321
		c-0.956,2.637-3.071,4.134-5.872,4.145c-0.917,0.003-1.832,0.003-2.749,0.003c-0.007-1.437-0.021-2.87-0.021-4.304
		c0.004-6.513,0.014-13.019,0.021-19.528c2.971,0,5.942,0,8.915,0C84.745,48.996,84.745,55.45,84.745,61.904z"/>
	<path fill-rule="evenodd" clip-rule="evenodd" fill="#465B65" d="M84.745,42.541c-2.973,0-5.944,0-8.915,0
		c-0.007-0.992-0.029-1.986-0.019-2.978c0.015-1.314-0.402-2.477-1.156-3.537c-0.923-1.297-2.248-1.965-3.72-2.408
		c4.602-0.004,9.205-0.008,13.81-0.012C84.745,36.584,84.745,39.563,84.745,42.541z"/>
	<path fill-rule="evenodd" clip-rule="evenodd" fill="#488FCC" d="M70.936,33.618c1.472,0.443,2.797,1.111,3.72,2.408
		c0.754,1.061,1.171,2.223,1.156,3.537c-0.011,0.992,0.012,1.986,0.019,2.978c-0.007,6.509-0.017,13.016-0.021,19.528
		c-0.001,1.434,0.014,2.867,0.021,4.304c-0.112,1.404,0.117,2.819-0.164,4.222c-0.515,2.588-2.936,4.697-5.568,4.7
		c-11.923,0.021-23.847,0.011-35.77,0.011c-0.075,0-0.147-0.016-0.221-0.024c0.994-1.981,1.987-3.963,2.982-5.945
		c4.291,0.006,8.579,0.014,12.87,0.009c0.638,0,1.469,0.271,1.868-0.114c0.438-0.424,0.071-1.272,0.159-1.927
		c0.094-0.726-0.128-0.96-0.911-0.955c-4.165,0.038-8.331,0.006-12.496-0.002c5.312-10.619,10.625-21.239,15.937-31.858
		c0.145-0.288,0.294-0.573,0.441-0.86C60.283,33.625,65.608,33.621,70.936,33.618z M62.355,69.35c2.279,0,4.561-0.016,6.842,0.011
		c0.523,0.008,0.702-0.151,0.662-0.67c-0.04-0.543-0.047-1.094,0.002-1.637c0.053-0.574-0.174-0.699-0.715-0.694
		c-3.148,0.024-6.295,0.011-9.445,0.011c-1.387,0-2.775,0.019-4.163-0.008c-0.461-0.011-0.614,0.139-0.589,0.594
		c0.033,0.593,0.039,1.191-0.001,1.784c-0.033,0.503,0.167,0.623,0.64,0.617C57.844,69.339,60.1,69.35,62.355,69.35z"/>
	<path fill-rule="evenodd" clip-rule="evenodd" fill="#EDEFF1" d="M19.213,52.958c0-1.438-0.008-2.875,0.001-4.313
		c0.013-1.866,1.265-3.115,3.14-3.122c2.875-0.008,5.751-0.01,8.626,0c1.866,0.008,3.115,1.262,3.122,3.139
		c0.01,2.876,0.012,5.751-0.001,8.627c-0.007,1.864-1.266,3.114-3.139,3.123c-2.875,0.01-5.751,0.01-8.626,0
		c-1.862-0.009-3.11-1.27-3.122-3.142C19.206,55.834,19.213,54.396,19.213,52.958z"/>
	<path fill-rule="evenodd" clip-rule="evenodd" fill="#EDEFF1" d="M26.619,69.35c-2.232,0-4.465-0.016-6.698,0.011
		c-0.544,0.008-0.765-0.13-0.718-0.702c0.046-0.566,0.035-1.144,0.003-1.713c-0.027-0.472,0.173-0.583,0.609-0.58
		c4.565,0.011,9.129,0.011,13.694,0c0.443-0.003,0.63,0.119,0.605,0.585c-0.033,0.594-0.036,1.191,0.001,1.788
		c0.031,0.502-0.178,0.625-0.647,0.619C31.185,69.339,28.901,69.35,26.619,69.35z"/>
	<path fill-rule="evenodd" clip-rule="evenodd" fill="#EDEFF1" d="M38.579,66.347c4.166,0.008,8.331,0.04,12.496,0.002
		c0.783-0.005,1.005,0.229,0.911,0.955c-0.088,0.654,0.279,1.503-0.159,1.927c-0.399,0.385-1.23,0.114-1.868,0.114
		c-4.291,0.005-8.579-0.003-12.87-0.009c-0.001-0.733,0.035-1.468-0.016-2.199c-0.042-0.609,0.16-0.854,0.774-0.771
		C38.087,66.396,38.334,66.354,38.579,66.347z"/>
	<path fill-rule="evenodd" clip-rule="evenodd" fill="#EDEFF1" d="M62.355,69.35c-2.256,0-4.512-0.011-6.768,0.008
		c-0.473,0.006-0.673-0.114-0.64-0.617c0.04-0.593,0.034-1.191,0.001-1.784c-0.025-0.455,0.128-0.604,0.589-0.594
		c1.388,0.026,2.776,0.008,4.163,0.008c3.15,0,6.297,0.014,9.445-0.011c0.541-0.005,0.768,0.12,0.715,0.694
		c-0.049,0.543-0.042,1.094-0.002,1.637c0.04,0.519-0.139,0.678-0.662,0.67C66.916,69.334,64.635,69.35,62.355,69.35z"/>
</g>
<g>
	<path fill-rule="evenodd" clip-rule="evenodd" fill="#ED795A" d="M17.774,77.912c1.179,0,2.148,0.961,2.141,2.129
		c-0.008,1.225-0.947,2.158-2.167,2.155c-1.194-0.004-2.119-0.936-2.119-2.131C15.632,78.841,16.552,77.915,17.774,77.912z
		 M19.036,80.041c-0.005-0.726-0.574-1.285-1.291-1.275c-0.716,0.009-1.286,0.596-1.271,1.305c0.016,0.721,0.583,1.273,1.306,1.28
		C18.481,81.354,19.041,80.77,19.036,80.041z"/>
	<path fill-rule="evenodd" clip-rule="evenodd" fill="#31B8C6" d="M15.693,11.757c-0.008-1.215,0.867-2.119,2.053-2.12
		c1.194-0.001,2.098,0.866,2.106,2.021c0.009,1.175-0.874,2.086-2.03,2.097C16.612,13.767,15.702,12.914,15.693,11.757z
		 M17.76,10.459c-0.671,0.002-1.251,0.569-1.247,1.218c0.006,0.684,0.593,1.265,1.267,1.254c0.683-0.008,1.252-0.569,1.245-1.22
		C19.015,11.017,18.45,10.455,17.76,10.459z"/>
	<path fill-rule="evenodd" clip-rule="evenodd" fill="#365887" d="M5.972,53.447c-0.99-0.021-1.815-0.859-1.782-1.857
		c0.036-1.101,0.78-1.857,1.857-1.883c1.07-0.022,1.937,0.89,1.875,1.966C7.864,52.663,7.078,53.528,5.972,53.447z M7.228,51.585
		c-0.002-0.66-0.493-1.148-1.159-1.151c-0.658-0.002-1.186,0.5-1.194,1.134c-0.009,0.653,0.536,1.194,1.198,1.188
		C6.713,52.748,7.23,52.226,7.228,51.585z"/>
	<path fill-rule="evenodd" clip-rule="evenodd" fill="#365887" d="M3.112,64.645c0.231-0.011,0.362,0.092,0.419,0.267
		c0.063,0.19,0.128,0.383,0.14,0.58c0.027,0.442,0.271,0.628,0.685,0.66c0.167,0.014,0.339,0.027,0.499,0.076
		c0.192,0.06,0.302,0.201,0.298,0.422c-0.004,0.206-0.157,0.305-0.305,0.367c-0.152,0.063-0.329,0.075-0.496,0.087
		c-0.48,0.039-0.697,0.293-0.678,0.769c0.004,0.114,0.011,0.225-0.051,0.342c-0.113,0.218-0.243,0.446-0.5,0.439
		c-0.267-0.004-0.274-0.296-0.351-0.488c-0.031-0.078-0.028-0.165-0.04-0.25c-0.081-0.66-0.171-0.74-0.847-0.844
		c-0.233-0.034-0.524,0.051-0.632-0.291c-0.093-0.296-0.052-0.503,0.28-0.571c0.132-0.025,0.269-0.044,0.403-0.044
		c0.52,0.003,0.764-0.24,0.8-0.768C2.757,65.112,2.681,64.711,3.112,64.645z"/>
	<path fill-rule="evenodd" clip-rule="evenodd" fill="#31B8C6" d="M62.858,3.283c-0.032,0.26-0.177,0.42-0.431,0.422
		c-0.695,0.005-1.069,0.313-1.08,1.038c-0.004,0.248-0.135,0.473-0.436,0.47C60.591,5.211,60.45,4.954,60.46,4.7
		c0.027-0.714-0.341-0.969-0.989-0.983C59.204,3.71,59,3.566,58.992,3.287C58.981,3,59.189,2.862,59.454,2.848
		c0.647-0.04,1.05-0.277,1.003-1.023c-0.016-0.26,0.18-0.49,0.493-0.473c0.287,0.018,0.38,0.222,0.416,0.49
		c0.116,0.834,0.12,0.845,0.969,1.01C62.607,2.905,62.833,2.958,62.858,3.283z"/>
	<path fill-rule="evenodd" clip-rule="evenodd" fill="#31B8C6" d="M96.394,80.057c0.923,0,1.605,0.653,1.606,1.544
		c0.001,0.885-0.7,1.614-1.555,1.616c-0.926,0.005-1.642-0.688-1.641-1.585C94.808,80.745,95.501,80.057,96.394,80.057z
		 M97.331,81.637c-0.007-0.553-0.385-0.956-0.907-0.961c-0.54-0.005-0.965,0.425-0.962,0.968c0.006,0.541,0.381,0.899,0.951,0.901
		C96.994,82.548,97.337,82.208,97.331,81.637z"/>
	<path fill-rule="evenodd" clip-rule="evenodd" fill="#31B8C6" d="M97.959,45.552c-0.008,0.327-0.232,0.389-0.49,0.356
		c-0.45-0.056-0.611,0.163-0.624,0.578c-0.007,0.245-0.065,0.512-0.37,0.509c-0.328-0.003-0.394-0.266-0.403-0.542
		c-0.012-0.373-0.132-0.626-0.583-0.558c-0.103,0.014-0.219-0.084-0.332-0.09c-0.242-0.014-0.325-0.152-0.32-0.367
		c0.005-0.211,0.166-0.312,0.33-0.313c0.582-0.004,0.931-0.221,0.951-0.852c0.007-0.188,0.147-0.365,0.364-0.362
		c0.242,0.005,0.363,0.19,0.36,0.411c-0.004,0.531,0.25,0.775,0.771,0.785C97.891,45.114,98.003,45.276,97.959,45.552z"/>
	<path fill-rule="evenodd" clip-rule="evenodd" fill="#31B8C6" d="M80.063,15.742c-0.061,0.239-0.238,0.354-0.448,0.354
		c-0.462,0.005-0.687,0.204-0.681,0.674c0.004,0.221-0.107,0.419-0.342,0.436c-0.283,0.02-0.36-0.203-0.376-0.441
		c-0.029-0.469-0.239-0.722-0.742-0.65c-0.251,0.036-0.382-0.109-0.428-0.33c-0.053-0.265,0.137-0.414,0.342-0.405
		c0.62,0.026,0.824-0.302,0.856-0.856c0.011-0.177,0.166-0.293,0.358-0.3c0.206-0.009,0.28,0.181,0.28,0.304
		c0.008,0.583,0.308,0.847,0.86,0.889C79.94,15.432,80.04,15.557,80.063,15.742z"/>
	<path fill-rule="evenodd" clip-rule="evenodd" fill="#D4EEF9" d="M53.705,15.618c0.21-0.23,0.449-0.426,0.715-0.587
		C54.507,15.62,54.156,15.68,53.705,15.618z"/>
	<path fill-rule="evenodd" clip-rule="evenodd" fill="#D4EEF9" d="M54.56,14.917c0.025-0.075,0.078-0.114,0.156-0.122
		C54.692,14.875,54.636,14.906,54.56,14.917z"/>
	<path fill-rule="evenodd" clip-rule="evenodd" fill="#D4EEF9" d="M53.59,15.716c0.035-0.03,0.073-0.063,0.108-0.093
		C53.663,15.653,53.625,15.686,53.59,15.716z"/>
	<path fill-rule="evenodd" clip-rule="evenodd" fill="#D4EEF9" d="M54.447,15.005c0.021-0.019,0.043-0.038,0.064-0.058
		C54.5,14.978,54.478,14.997,54.447,15.005z"/>
</g>
</svg>
