<?xml version="1.0" encoding="utf-8"?>
<!-- Generator: Adobe Illustrator 16.0.0, SVG Export Plug-In . SVG Version: 6.00 Build 0)  -->
<!DOCTYPE svg PUBLIC "-//W3C//DTD SVG 1.1//EN" "http://www.w3.org/Graphics/SVG/1.1/DTD/svg11.dtd">
<svg version="1.1" id="Layer_1" xmlns="http://www.w3.org/2000/svg" xmlns:xlink="http://www.w3.org/1999/xlink" x="0px" y="0px"
	 width="100px" height="100px" viewBox="0 0 100 100" enable-background="new 0 0 100 100" xml:space="preserve">
<g>
	<path fill-rule="evenodd" clip-rule="evenodd" fill="#ED795A" d="M18.563,78.161c1.179,0,2.148,0.961,2.141,2.129
		c-0.008,1.225-0.947,2.158-2.167,2.155c-1.194-0.004-2.119-0.936-2.119-2.131C16.421,79.09,17.341,78.164,18.563,78.161z
		 M19.825,80.29c-0.005-0.726-0.574-1.285-1.291-1.275c-0.716,0.009-1.286,0.596-1.271,1.305c0.016,0.721,0.583,1.273,1.306,1.28
		C19.27,81.604,19.83,81.019,19.825,80.29z"/>
	<path fill-rule="evenodd" clip-rule="evenodd" fill="#31B8C6" d="M16.482,12.006c-0.008-1.215,0.867-2.119,2.053-2.12
		c1.194-0.001,2.098,0.866,2.106,2.021c0.009,1.175-0.874,2.086-2.03,2.097C17.401,14.016,16.491,13.163,16.482,12.006z
		 M18.549,10.708c-0.671,0.002-1.251,0.569-1.247,1.218c0.006,0.684,0.593,1.265,1.267,1.254c0.683-0.008,1.252-0.569,1.245-1.22
		C19.804,11.266,19.239,10.704,18.549,10.708z"/>
	<path fill-rule="evenodd" clip-rule="evenodd" fill="#365887" d="M6.761,53.696c-0.99-0.021-1.815-0.859-1.782-1.857
		c0.036-1.101,0.78-1.857,1.857-1.883c1.07-0.022,1.937,0.89,1.875,1.966C8.653,52.912,7.867,53.777,6.761,53.696z M8.017,51.834
		c-0.002-0.66-0.493-1.148-1.159-1.151c-0.658-0.002-1.186,0.5-1.194,1.134c-0.009,0.653,0.536,1.194,1.198,1.188
		C7.502,52.997,8.019,52.475,8.017,51.834z"/>
	<path fill-rule="evenodd" clip-rule="evenodd" fill="#365887" d="M3.901,64.894c0.231-0.011,0.362,0.092,0.419,0.267
		c0.063,0.19,0.128,0.383,0.14,0.58c0.027,0.442,0.271,0.628,0.685,0.66c0.167,0.014,0.339,0.027,0.499,0.076
		c0.192,0.06,0.302,0.201,0.298,0.422c-0.004,0.206-0.157,0.305-0.305,0.367c-0.152,0.063-0.329,0.075-0.496,0.087
		c-0.48,0.039-0.697,0.293-0.678,0.769c0.004,0.114,0.011,0.225-0.051,0.342c-0.113,0.218-0.243,0.446-0.5,0.439
		c-0.267-0.004-0.274-0.296-0.351-0.488c-0.031-0.078-0.028-0.165-0.04-0.25c-0.081-0.66-0.171-0.74-0.847-0.844
		c-0.233-0.034-0.524,0.051-0.632-0.291c-0.093-0.296-0.052-0.503,0.28-0.571c0.132-0.025,0.269-0.044,0.403-0.044
		c0.52,0.003,0.764-0.24,0.8-0.768C3.546,65.361,3.47,64.96,3.901,64.894z"/>
	<path fill-rule="evenodd" clip-rule="evenodd" fill="#31B8C6" d="M63.647,3.532c-0.032,0.26-0.177,0.42-0.431,0.422
		c-0.695,0.005-1.069,0.313-1.08,1.038c-0.004,0.248-0.135,0.473-0.436,0.47c-0.321-0.002-0.462-0.259-0.452-0.514
		c0.027-0.714-0.341-0.969-0.989-0.983c-0.267-0.006-0.471-0.15-0.479-0.43c-0.011-0.287,0.197-0.425,0.462-0.439
		c0.647-0.04,1.05-0.277,1.003-1.023c-0.016-0.26,0.18-0.49,0.493-0.473c0.287,0.018,0.38,0.222,0.416,0.49
		c0.116,0.834,0.12,0.845,0.969,1.01C63.396,3.154,63.622,3.207,63.647,3.532z"/>
	<path fill-rule="evenodd" clip-rule="evenodd" fill="#31B8C6" d="M97.183,80.306c0.923,0,1.605,0.653,1.606,1.544
		c0.001,0.885-0.7,1.614-1.555,1.616c-0.926,0.005-1.642-0.688-1.641-1.585C95.597,80.994,96.29,80.306,97.183,80.306z
		 M98.12,81.886c-0.007-0.553-0.385-0.956-0.907-0.961c-0.54-0.005-0.965,0.425-0.962,0.968c0.006,0.541,0.381,0.899,0.951,0.901
		C97.783,82.797,98.126,82.457,98.12,81.886z"/>
	<path fill-rule="evenodd" clip-rule="evenodd" fill="#31B8C6" d="M98.748,45.801c-0.008,0.327-0.232,0.389-0.49,0.356
		c-0.45-0.056-0.611,0.163-0.624,0.578c-0.007,0.245-0.065,0.512-0.37,0.509c-0.328-0.003-0.394-0.266-0.403-0.542
		c-0.012-0.373-0.132-0.626-0.583-0.558c-0.103,0.014-0.219-0.084-0.332-0.09c-0.242-0.014-0.325-0.152-0.32-0.367
		c0.005-0.211,0.166-0.312,0.33-0.313c0.582-0.004,0.931-0.221,0.951-0.852c0.007-0.188,0.147-0.365,0.364-0.362
		c0.242,0.005,0.363,0.19,0.36,0.411c-0.004,0.531,0.25,0.775,0.771,0.785C98.68,45.363,98.792,45.525,98.748,45.801z"/>
	<path fill-rule="evenodd" clip-rule="evenodd" fill="#31B8C6" d="M80.852,15.991c-0.061,0.239-0.238,0.354-0.448,0.354
		c-0.462,0.005-0.687,0.204-0.681,0.674c0.004,0.221-0.107,0.419-0.342,0.436c-0.283,0.02-0.36-0.203-0.376-0.441
		c-0.029-0.469-0.239-0.722-0.742-0.65c-0.251,0.036-0.382-0.109-0.428-0.33c-0.053-0.265,0.137-0.414,0.342-0.405
		c0.62,0.026,0.824-0.302,0.856-0.856c0.011-0.177,0.166-0.293,0.358-0.3c0.206-0.009,0.28,0.181,0.28,0.304
		c0.008,0.583,0.308,0.847,0.86,0.889C80.729,15.681,80.829,15.806,80.852,15.991z"/>
	<path fill-rule="evenodd" clip-rule="evenodd" fill="#D4EEF9" d="M54.494,15.867c0.21-0.23,0.449-0.426,0.715-0.587
		C55.296,15.869,54.945,15.929,54.494,15.867z"/>
	<path fill-rule="evenodd" clip-rule="evenodd" fill="#D4EEF9" d="M55.349,15.167c0.025-0.075,0.078-0.114,0.156-0.122
		C55.481,15.125,55.425,15.155,55.349,15.167z"/>
	<path fill-rule="evenodd" clip-rule="evenodd" fill="#D4EEF9" d="M54.379,15.965c0.035-0.03,0.073-0.063,0.108-0.093
		C54.452,15.902,54.414,15.935,54.379,15.965z"/>
	<path fill-rule="evenodd" clip-rule="evenodd" fill="#D4EEF9" d="M55.236,15.254c0.021-0.019,0.043-0.038,0.064-0.058
		C55.289,15.227,55.267,15.246,55.236,15.254z"/>
</g>
<g>
	<path fill-rule="evenodd" clip-rule="evenodd" fill="#58A0D7" d="M49.677,22.909c8.873,0,17.745,0,26.617,0
		c1.582,0,2.249,0.675,2.249,2.271c-0.003,4.911-0.005,9.822-0.005,14.732c-0.002,0.791,0.005,0.773-0.74,0.583
		C71.945,39,66.112,38.951,60.306,40.739c-0.96,0.296-1.885,0.687-2.772,1.157c-0.288,0.152-0.406,0.193-0.487-0.212
		c-0.439-2.199-1.79-3.616-3.875-4.358c-0.738-0.262-1.49-0.49-2.243-0.706c-0.287-0.082-0.422-0.191-0.419-0.517
		c0.017-1.716,0.019-3.432,0.007-5.148c-0.003-0.41,0.144-0.406,0.456-0.272c1.035,0.442,1.632,1.235,1.946,2.293
		c0.32,1.081,0.922,1.51,1.952,1.451c0.981-0.057,1.739-0.987,1.604-1.967c-0.285-2.083-2.14-3.975-4.405-4.496
		c-0.143-0.033-0.284-0.065-0.427-0.092c-1.125-0.214-1.125-0.214-1.123-1.334c0.001-0.274,0.009-0.548,0-0.821
		c-0.018-0.549-0.372-0.931-0.861-0.939c-0.489-0.007-0.856,0.359-0.883,0.922c-0.022,0.492-0.046,0.989,0,1.478
		c0.044,0.46-0.154,0.598-0.565,0.642c-0.896,0.094-1.753,0.343-2.557,0.753c-1.856,0.946-2.833,2.484-2.923,4.548
		c-0.13,2.981,0.937,4.628,3.696,5.779c0.638,0.267,1.3,0.479,1.961,0.684c0.294,0.091,0.393,0.226,0.39,0.539
		c-0.018,1.935-0.022,3.87-0.008,5.806c0.004,0.455-0.141,0.479-0.505,0.313c-0.903-0.413-1.581-1.042-1.96-1.965
		c-0.221-0.54-0.403-1.095-0.613-1.64c-0.326-0.847-1.074-1.249-2.025-1.096c-0.828,0.132-1.507,0.867-1.501,1.706
		c0.015,2.179,1.177,3.697,2.898,4.858c0.938,0.633,1.996,0.979,3.116,1.109c0.422,0.05,0.656,0.162,0.603,0.666
		c-0.057,0.523-0.069,1.065,0.01,1.584c0.061,0.4-0.07,0.372-0.355,0.329c-1.897-0.283-3.803-0.456-5.725-0.404
		c-4.034,0.107-7.954,0.716-11.578,2.629c-0.225,0.118-0.456,0.108-0.692,0.108c-2.482-0.002-4.965-0.004-7.449-0.007
		c-1.536-0.001-2.243-0.702-2.241-2.244c0.009-7.758,0.023-15.516,0.036-23.274c0.002-1.224-0.004-2.446,0.005-3.67
		c0.011-1.311,0.726-2.015,2.048-2.015c8.945-0.002,17.891-0.001,26.836-0.001C49.677,22.912,49.677,22.91,49.677,22.909z
		 M26.629,52.266c1.13,0,2.26,0,3.39,0c0.695,0,0.695-0.002,0.66-0.675c-0.005-0.091-0.009-0.183-0.021-0.272
		c-0.495-3.896-3.619-6.841-7.546-7.134c-0.386-0.029-0.509,0.091-0.507,0.476c0.01,2.388,0.009,4.774-0.007,7.162
		c-0.003,0.371,0.13,0.456,0.477,0.45C24.26,52.255,25.445,52.266,26.629,52.266z M22.607,28.819c0.001,0,0.003,0,0.005,0
		c0,0.985,0,1.97,0,2.954c0,1.113,0.001,1.113,1.1,0.998c3.655-0.384,6.826-3.778,6.975-7.45c0.015-0.367-0.02-0.559-0.478-0.554
		c-2.37,0.024-4.741,0.02-7.112,0.005c-0.378-0.002-0.506,0.106-0.499,0.492C22.62,26.448,22.607,27.634,22.607,28.819z
		 M72.626,24.778c0,0.001,0,0.002,0,0.003c-1.187,0-2.372,0.014-3.559-0.008c-0.39-0.008-0.497,0.113-0.477,0.498
		c0.205,3.992,3.65,7.405,7.655,7.581c0.346,0.015,0.438-0.096,0.437-0.429c-0.008-2.39-0.008-4.781,0.01-7.171
		c0.003-0.397-0.139-0.487-0.508-0.48C74.998,24.791,73.813,24.778,72.626,24.778z"/>
	<path fill-rule="evenodd" clip-rule="evenodd" fill="#488FCC" d="M43.6,68.986c-4.034-0.047-7.768-0.566-11.264-2.238
		c-1.445-0.691-2.759-1.562-3.769-2.838c-1.361-1.724-1.403-3.798-0.088-5.556c1.321-1.763,3.175-2.773,5.171-3.532
		c3.671-1.396,7.49-1.819,11.395-1.606c2.991,0.162,5.896,0.704,8.663,1.89c1.384,0.594,2.674,1.343,3.753,2.412
		c2.305,2.284,2.234,5.082-0.17,7.27c-1.558,1.418-3.416,2.286-5.391,2.929C48.725,68.75,46.662,68.888,43.6,68.986z"/>
	<path fill-rule="evenodd" clip-rule="evenodd" fill="#465B65" d="M70.313,41.19c2.852,0.024,6.453,0.548,9.856,2.086
		c1.339,0.606,2.578,1.365,3.598,2.44c2.027,2.139,2.002,4.706-0.072,6.8c-1.568,1.583-3.514,2.531-5.608,3.168
		c-6.427,1.95-12.797,1.817-19.064-0.688c-1.481-0.593-2.826-1.439-3.921-2.631c-1.932-2.101-1.913-4.586,0.064-6.639
		c1.615-1.677,3.663-2.614,5.835-3.308C63.752,41.541,66.584,41.187,70.313,41.19z"/>
	<path fill-rule="evenodd" clip-rule="evenodd" fill="#58A0D7" d="M43.305,74.856c-3.646-0.009-7.2-0.513-10.557-2.023
		c-1.544-0.694-2.979-1.559-4.064-2.896c-0.956-1.177-1.424-2.493-1.032-4.023c0.073-0.283,0.12-0.504,0.459-0.166
		c2.174,2.156,4.887,3.262,7.806,3.948c3.109,0.73,6.262,1.037,9.45,0.847c4.466-0.267,8.671-1.377,12.368-4.025
		c0.281-0.201,0.567-0.409,0.801-0.66c0.318-0.346,0.424-0.194,0.502,0.155c0.354,1.583-0.17,2.916-1.199,4.084
		c-1.522,1.727-3.535,2.67-5.65,3.418C49.625,74.421,46.621,74.86,43.305,74.856z"/>
	<path fill-rule="evenodd" clip-rule="evenodd" fill="#488FCC" d="M27.794,71.519c2.274,1.986,4.917,3.252,7.803,4.022
		c3.513,0.938,7.088,1.064,10.696,0.772c2.58-0.209,5.087-0.712,7.495-1.674c1.746-0.697,3.339-1.644,4.703-2.944
		c0.331-0.316,0.433-0.239,0.53,0.156c0.332,1.338,0,2.536-0.778,3.622c-1.169,1.629-2.826,2.621-4.629,3.374
		c-3.917,1.632-8.019,2.085-12.225,1.837c-2.843-0.167-5.609-0.688-8.243-1.794c-1.818-0.765-3.505-1.736-4.699-3.372
		c-0.775-1.063-1.129-2.239-0.829-3.559C27.652,71.808,27.667,71.642,27.794,71.519z"/>
	<path fill-rule="evenodd" clip-rule="evenodd" fill="#B0BEC5" d="M59.441,56.959c2.041,0.713,4.05,1.139,6.092,1.384
		c5.947,0.714,11.681,0.153,16.984-2.9c0.885-0.509,1.737-1.072,2.497-1.873c0.34,0.952,0.345,1.854,0.028,2.753
		c-0.521,1.483-1.604,2.507-2.87,3.343c-2.224,1.467-4.7,2.299-7.309,2.739c-4.503,0.761-8.969,0.64-13.386-0.596
		c-0.4-0.112-0.582-0.246-0.572-0.725C60.938,59.577,60.391,58.242,59.441,56.959z"/>
	<path fill-rule="evenodd" clip-rule="evenodd" fill="#465B65" d="M84.995,59.394c0.494,1.424,0.3,2.677-0.449,3.848
		c-0.914,1.43-2.257,2.363-3.731,3.12c-2.448,1.257-5.079,1.904-7.791,2.199c-3.858,0.421-7.683,0.203-11.442-0.839
		c-0.498-0.139-0.703-0.324-0.668-0.873c0.058-0.885-0.167-1.745-0.557-2.536c-0.199-0.401,0.032-0.657,0.16-0.959
		c0.074-0.175,0.216-0.063,0.327-0.029c3.375,1.033,6.833,1.272,10.337,1.104c3.64-0.175,7.162-0.829,10.43-2.534
		C82.844,61.25,83.954,60.429,84.995,59.394z"/>
	<path fill-rule="evenodd" clip-rule="evenodd" fill="#B0BEC5" d="M84.997,65.28c0.472,1.357,0.316,2.575-0.383,3.732
		c-0.827,1.374-2.066,2.292-3.439,3.044c-2.331,1.278-4.857,1.962-7.473,2.307c-4.147,0.546-8.255,0.347-12.299-0.813
		c-0.386-0.111-0.521-0.251-0.49-0.659c0.072-0.944-0.128-1.85-0.557-2.696c-0.117-0.229-0.132-0.43-0.042-0.674
		c0.12-0.332,0.254-0.428,0.638-0.31c3.969,1.22,8.022,1.372,12.125,0.948c2.775-0.287,5.458-0.891,7.987-2.095
		C82.509,67.378,83.818,66.5,84.997,65.28z"/>
	<path fill-rule="evenodd" clip-rule="evenodd" fill="#3B9CD7" d="M50.515,43.342c0-0.894,0.013-1.788-0.006-2.681
		c-0.008-0.35,0.075-0.478,0.425-0.318c0.266,0.121,0.546,0.21,0.809,0.333c1.385,0.65,1.987,1.533,1.902,2.774
		c-0.091,1.341-0.936,2.415-2.26,2.872c-0.869,0.3-0.869,0.3-0.869-0.627C50.516,44.911,50.516,44.127,50.515,43.342z"/>
	<path fill-rule="evenodd" clip-rule="evenodd" fill="#3B9CD7" d="M48.769,33.248c0,0.782,0.004,1.565-0.002,2.347
		c-0.001,0.164,0.061,0.423-0.266,0.29c-1.673-0.682-2.593-1.412-2.169-3.45c0.172-0.826,1.28-1.74,2.153-1.89
		c0.309-0.054,0.285,0.111,0.284,0.3c0,0.019-0.001,0.037-0.001,0.055C48.768,31.683,48.768,32.465,48.769,33.248z"/>
	<path fill-rule="evenodd" clip-rule="evenodd" fill="#3B9CD7" d="M53.173,52.905c-0.955-0.262-1.824-0.499-2.694-0.737
		c-0.107-0.029-0.24-0.064-0.158-0.207c0.387-0.666,0.12-1.392,0.205-2.084c0.024-0.198-0.122-0.488,0.169-0.566
		c0.363-0.098,0.745-0.134,1.122-0.171c0.087-0.008,0.097,0.139,0.098,0.228C51.939,50.656,52.37,51.81,53.173,52.905z"/>
	<path fill-rule="evenodd" clip-rule="evenodd" fill="#FDFEFE" d="M26.629,52.266c-1.185,0-2.369-0.011-3.554,0.007
		c-0.346,0.006-0.479-0.079-0.477-0.45c0.016-2.388,0.017-4.774,0.007-7.162c-0.001-0.385,0.121-0.504,0.507-0.476
		c3.927,0.292,7.051,3.238,7.546,7.134c0.012,0.09,0.016,0.182,0.021,0.272c0.035,0.673,0.035,0.675-0.66,0.675
		C28.89,52.266,27.76,52.266,26.629,52.266z"/>
	<path fill-rule="evenodd" clip-rule="evenodd" fill="#FDFEFE" d="M22.607,28.819c0-1.185,0.013-2.371-0.008-3.556
		c-0.007-0.386,0.121-0.494,0.499-0.492c2.371,0.014,4.742,0.019,7.112-0.005c0.458-0.004,0.492,0.187,0.478,0.554
		c-0.149,3.672-3.32,7.066-6.975,7.45c-1.099,0.116-1.1,0.116-1.1-0.998c0-0.984,0-1.969,0-2.954
		C22.61,28.819,22.608,28.819,22.607,28.819z"/>
	<path fill-rule="evenodd" clip-rule="evenodd" fill="#FDFEFE" d="M72.626,24.778c1.187,0,2.372,0.013,3.559-0.008
		c0.369-0.006,0.511,0.083,0.508,0.48c-0.018,2.39-0.018,4.781-0.01,7.171c0.002,0.333-0.091,0.444-0.437,0.429
		c-4.005-0.176-7.45-3.589-7.655-7.581c-0.021-0.384,0.087-0.505,0.477-0.498c1.187,0.022,2.372,0.008,3.559,0.008
		C72.626,24.78,72.626,24.779,72.626,24.778z"/>
</g>
</svg>
