<?xml version="1.0" encoding="utf-8"?>
<!-- Generator: Adobe Illustrator 16.0.0, SVG Export Plug-In . SVG Version: 6.00 Build 0)  -->
<!DOCTYPE svg PUBLIC "-//W3C//DTD SVG 1.1//EN" "http://www.w3.org/Graphics/SVG/1.1/DTD/svg11.dtd">
<svg version="1.1" id="Layer_1" xmlns="http://www.w3.org/2000/svg" xmlns:xlink="http://www.w3.org/1999/xlink" x="0px" y="0px"
	 width="100px" height="100px" viewBox="0 0 100 100" enable-background="new 0 0 100 100" xml:space="preserve">
<g>
	<path fill-rule="evenodd" clip-rule="evenodd" fill="#ED795A" d="M17.774,77.912c1.179,0,2.148,0.961,2.141,2.129
		c-0.008,1.225-0.947,2.158-2.167,2.155c-1.194-0.004-2.119-0.936-2.119-2.131C15.632,78.841,16.552,77.915,17.774,77.912z
		 M19.036,80.041c-0.005-0.726-0.574-1.285-1.291-1.275c-0.716,0.009-1.286,0.596-1.271,1.305c0.016,0.721,0.583,1.273,1.306,1.28
		C18.481,81.354,19.041,80.77,19.036,80.041z"/>
	<path fill-rule="evenodd" clip-rule="evenodd" fill="#31B8C6" d="M15.693,11.757c-0.008-1.215,0.867-2.119,2.053-2.12
		c1.194-0.001,2.098,0.866,2.106,2.021c0.009,1.175-0.874,2.086-2.03,2.097C16.612,13.767,15.702,12.914,15.693,11.757z
		 M17.76,10.459c-0.671,0.002-1.251,0.569-1.247,1.218c0.006,0.684,0.593,1.265,1.267,1.254c0.683-0.008,1.252-0.569,1.245-1.22
		C19.015,11.017,18.45,10.455,17.76,10.459z"/>
	<path fill-rule="evenodd" clip-rule="evenodd" fill="#365887" d="M5.972,53.447c-0.99-0.021-1.815-0.859-1.782-1.857
		c0.036-1.101,0.78-1.857,1.857-1.883c1.07-0.022,1.937,0.89,1.875,1.966C7.864,52.663,7.078,53.528,5.972,53.447z M7.228,51.585
		c-0.002-0.66-0.493-1.148-1.159-1.151c-0.658-0.002-1.186,0.5-1.194,1.134c-0.009,0.653,0.536,1.194,1.198,1.188
		C6.713,52.748,7.23,52.226,7.228,51.585z"/>
	<path fill-rule="evenodd" clip-rule="evenodd" fill="#365887" d="M3.112,64.645c0.231-0.011,0.362,0.092,0.419,0.267
		c0.063,0.19,0.128,0.383,0.14,0.58c0.027,0.442,0.271,0.628,0.685,0.66c0.167,0.014,0.339,0.027,0.499,0.076
		c0.192,0.06,0.302,0.201,0.298,0.422c-0.004,0.206-0.157,0.305-0.305,0.367c-0.152,0.063-0.329,0.075-0.496,0.087
		c-0.48,0.039-0.697,0.293-0.678,0.769c0.004,0.114,0.011,0.225-0.051,0.342c-0.113,0.218-0.243,0.446-0.5,0.439
		c-0.267-0.004-0.274-0.296-0.351-0.488c-0.031-0.078-0.028-0.165-0.04-0.25c-0.081-0.66-0.171-0.74-0.847-0.844
		c-0.233-0.034-0.524,0.051-0.632-0.291c-0.093-0.296-0.052-0.503,0.28-0.571c0.132-0.025,0.269-0.044,0.403-0.044
		c0.52,0.003,0.764-0.24,0.8-0.768C2.757,65.112,2.681,64.711,3.112,64.645z"/>
	<path fill-rule="evenodd" clip-rule="evenodd" fill="#31B8C6" d="M62.858,3.283c-0.032,0.26-0.177,0.42-0.431,0.422
		c-0.695,0.005-1.069,0.313-1.08,1.038c-0.004,0.248-0.135,0.473-0.436,0.47C60.591,5.211,60.45,4.954,60.46,4.7
		c0.027-0.714-0.341-0.969-0.989-0.983C59.204,3.71,59,3.566,58.992,3.287C58.981,3,59.189,2.862,59.454,2.848
		c0.647-0.04,1.05-0.277,1.003-1.023c-0.016-0.26,0.18-0.49,0.493-0.473c0.287,0.018,0.38,0.222,0.416,0.49
		c0.116,0.834,0.12,0.845,0.969,1.01C62.607,2.905,62.833,2.958,62.858,3.283z"/>
	<path fill-rule="evenodd" clip-rule="evenodd" fill="#31B8C6" d="M96.394,80.057c0.923,0,1.605,0.653,1.606,1.544
		c0.001,0.885-0.7,1.614-1.555,1.616c-0.926,0.005-1.642-0.688-1.641-1.585C94.808,80.745,95.501,80.057,96.394,80.057z
		 M97.331,81.637c-0.007-0.553-0.385-0.956-0.907-0.961c-0.54-0.005-0.965,0.425-0.962,0.968c0.006,0.541,0.381,0.899,0.951,0.901
		C96.994,82.548,97.337,82.208,97.331,81.637z"/>
	<path fill-rule="evenodd" clip-rule="evenodd" fill="#31B8C6" d="M97.959,45.552c-0.008,0.327-0.232,0.389-0.49,0.356
		c-0.45-0.056-0.611,0.163-0.624,0.578c-0.007,0.245-0.065,0.512-0.37,0.509c-0.328-0.003-0.394-0.266-0.403-0.542
		c-0.012-0.373-0.132-0.626-0.583-0.558c-0.103,0.014-0.219-0.084-0.332-0.09c-0.242-0.014-0.325-0.152-0.32-0.367
		c0.005-0.211,0.166-0.312,0.33-0.313c0.582-0.004,0.931-0.221,0.951-0.852c0.007-0.188,0.147-0.365,0.364-0.362
		c0.242,0.005,0.363,0.19,0.36,0.411c-0.004,0.531,0.25,0.775,0.771,0.785C97.891,45.114,98.003,45.276,97.959,45.552z"/>
	<path fill-rule="evenodd" clip-rule="evenodd" fill="#31B8C6" d="M80.063,15.742c-0.061,0.239-0.238,0.354-0.448,0.354
		c-0.462,0.005-0.687,0.204-0.681,0.674c0.004,0.221-0.107,0.419-0.342,0.436c-0.283,0.02-0.36-0.203-0.376-0.441
		c-0.029-0.469-0.239-0.722-0.742-0.65c-0.251,0.036-0.382-0.109-0.428-0.33c-0.053-0.265,0.137-0.414,0.342-0.405
		c0.62,0.026,0.824-0.302,0.856-0.856c0.011-0.177,0.166-0.293,0.358-0.3c0.206-0.009,0.28,0.181,0.28,0.304
		c0.008,0.583,0.308,0.847,0.86,0.889C79.94,15.432,80.04,15.557,80.063,15.742z"/>
	<path fill-rule="evenodd" clip-rule="evenodd" fill="#D4EEF9" d="M53.705,15.618c0.21-0.23,0.449-0.426,0.715-0.587
		C54.507,15.62,54.156,15.68,53.705,15.618z"/>
	<path fill-rule="evenodd" clip-rule="evenodd" fill="#D4EEF9" d="M54.56,14.917c0.025-0.075,0.078-0.114,0.156-0.122
		C54.692,14.875,54.636,14.906,54.56,14.917z"/>
	<path fill-rule="evenodd" clip-rule="evenodd" fill="#D4EEF9" d="M53.59,15.716c0.035-0.03,0.073-0.063,0.108-0.093
		C53.663,15.653,53.625,15.686,53.59,15.716z"/>
	<path fill-rule="evenodd" clip-rule="evenodd" fill="#D4EEF9" d="M54.447,15.005c0.021-0.019,0.043-0.038,0.064-0.058
		C54.5,14.978,54.478,14.997,54.447,15.005z"/>
</g>
<g>
	<path fill-rule="evenodd" clip-rule="evenodd" fill="#B0BEC5" d="M51.254,12.783c2.65,0,5.299,0,7.949,0
		c0.912,0,1.369,0.467,1.369,1.389c-0.002,2.875,0,5.749-0.008,8.623c0,0.239,0.063,0.369,0.285,0.485
		c2.26,1.177,4.23,2.724,5.924,4.632c2.535,2.86,4.154,6.172,4.863,9.918c0.426,2.251,0.463,4.521,0.107,6.793
		c-0.551,3.526-1.885,6.716-4.068,9.541c-1.818,2.352-4.035,4.24-6.664,5.627c-0.328,0.176-0.461,0.35-0.451,0.74
		c0.031,1.303,0.02,2.611,0.004,3.916c-0.004,0.283,0.049,0.375,0.359,0.371c1.621-0.018,3.244,0,4.863-0.012
		c0.508-0.006,0.9,0.156,1.146,0.604c0.258,0.469,0.17,0.904-0.141,1.318c-1.492,1.984-2.979,3.973-4.471,5.955
		c-2.289,3.045-4.584,6.084-6.875,9.129c-1.066,1.416-2.125,2.84-3.193,4.252c-0.572,0.76-1.448,0.752-2.019-0.01
		c-2.587-3.443-5.172-6.893-7.76-10.336c-2.257-3-4.517-6.002-6.781-8.996c-0.308-0.408-0.379-0.838-0.15-1.287
		c0.23-0.447,0.616-0.635,1.131-0.629c1.622,0.014,3.244,0,4.865,0.014c0.295,0.002,0.404-0.063,0.399-0.381
		c-0.02-1.383-0.02-2.77-0.01-4.154c0.001-0.205-0.073-0.295-0.243-0.383c-2.257-1.16-4.227-2.697-5.912-4.59
		c-2.326-2.611-3.908-5.618-4.708-9.032c-0.388-1.659-0.579-3.337-0.545-5.039c0.086-4.248,1.351-8.116,3.803-11.582
		c1.915-2.707,4.356-4.828,7.294-6.369c0.23-0.121,0.312-0.248,0.311-0.51c-0.011-2.874-0.005-5.748-0.006-8.622
		c-0.001-0.914,0.458-1.376,1.382-1.376C45.954,12.783,48.604,12.783,51.254,12.783z M57.658,74.945L57.658,74.945
		c0.115-0.078,0.201-0.18,0.238-0.318l-0.002,0.002c1.014-1.264,1.975-2.566,2.93-3.877h-0.002c0.182-0.191,0.348-0.398,0.475-0.635
		l-0.002,0.004c0.752-0.982,1.502-1.965,2.289-2.994c-1.365,0-2.662,0.002-3.959,0c-0.979,0-1.414-0.43-1.414-1.4
		c-0.002-1.408-0.018-2.816,0.008-4.227c0.008-0.387-0.088-0.428-0.424-0.313c-1.795,0.617-3.639,0.967-5.535,1.033
		c-1.021,0.004-2.042,0.016-3.06-0.07c-0.692-0.035-1.373-0.135-2.046-0.303c-0.555-0.139-1.119-0.238-1.679-0.355h-0.002
		c-0.366-0.195-0.772-0.275-1.188-0.432c0,0.127,0,0.23,0,0.334c0,1.434-0.016,2.869,0.007,4.305
		c0.013,0.781-0.394,1.471-1.409,1.438c-1.197-0.039-2.396-0.016-3.595-0.014c-0.105,0-0.227-0.045-0.345,0.055
		c0.64,0.791,1.189,1.635,1.858,2.391l0-0.002c0.073,0.229,0.249,0.381,0.397,0.555l-0.001-0.004c0.371,0.523,0.71,1.07,1.184,1.512
		l-0.003-0.008c0.262,0.537,0.657,0.977,1.036,1.428l-0.002-0.002c0.356,0.559,0.754,1.082,1.188,1.582l-0.001-0.002
		c0.061,0.168,0.164,0.305,0.317,0.4l-0.003-0.002c0.367,0.598,0.788,1.154,1.268,1.664l-0.004-0.004
		c0.188,0.426,0.507,0.756,0.796,1.107h0.001c0.316,0.42,0.632,0.844,0.949,1.266h0c0.159,0.213,0.317,0.422,0.476,0.635
		l-0.002-0.004c0.081,0.113,0.162,0.23,0.243,0.346c0.833,1.115,1.668,2.229,2.498,3.346c0.088,0.119,0.123,0.137,0.221,0.004
		c0.828-1.117,1.664-2.232,2.498-3.346c0.082-0.117,0.162-0.232,0.244-0.35l-0.002,0.004c0.129-0.145,0.268-0.279,0.322-0.475
		l-0.006,0.002c0.113,0.004,0.123-0.09,0.158-0.162l0,0c0.346-0.4,0.664-0.822,0.949-1.266h0.002
		c0.117-0.076,0.17-0.201,0.236-0.318l0,0c0.23-0.232,0.432-0.482,0.559-0.787l-0.002,0.002c0.314-0.258,0.537-0.588,0.715-0.953
		l-0.004,0.004c0.254-0.186,0.422-0.438,0.555-0.715l-0.004,0.004C57.639,75.033,57.65,74.99,57.658,74.945z M57.336,21.784
		c0.057,0.098,0.158,0.058,0.24,0.079l-0.002-0.002c0.201,0.079,0.402,0.159,0.623,0.245c0.008-0.085,0.014-0.136,0.014-0.186
		c0-2.16-0.004-4.32,0.006-6.479c0.002-0.235-0.041-0.307-0.295-0.307c-4.451,0.009-8.902,0.01-13.354,0
		c-0.262-0.001-0.292,0.09-0.291,0.312c0.01,1.198,0.005,2.397,0.005,3.595c0,1.01,0,2.021,0,3.065
		c0.238-0.089,0.442-0.165,0.647-0.24l0.024,0.004l0.019-0.018c0.089-0.016,0.181-0.023,0.268-0.047
		c1.557-0.43,3.132-0.768,4.75-0.867c1.582-0.097,3.146,0,4.708,0.254C55.594,21.336,56.457,21.591,57.336,21.784L57.336,21.784z
		 M32.835,42.146c0.035,0.411,0.08,0.949,0.127,1.486c0.049,0.551,0.128,1.097,0.252,1.637c1.405,6.139,4.985,10.521,10.704,13.123
		c3.103,1.41,6.381,1.795,9.762,1.373c2.609-0.328,5.031-1.219,7.256-2.572c1.609-0.977,3.043-2.209,4.262-3.668
		c2.104-2.514,3.611-5.316,4.15-8.584c0.279-1.69,0.375-3.378,0.201-5.1c-0.166-1.667-0.52-3.269-1.117-4.82
		c-1.217-3.167-3.184-5.792-5.854-7.88c-2.305-1.806-4.9-2.999-7.783-3.555c-0.861-0.166-1.725-0.246-2.609-0.26
		c-0.518-0.009-1.049-0.031-1.572-0.057c-0.905-0.045-1.802,0.077-2.688,0.259c-0.642,0.131-1.295,0.235-1.91,0.449
		c-0.62,0.216-1.247,0.408-1.852,0.695c-0.759,0.358-1.532,0.688-2.253,1.114c-3.072,1.811-5.425,4.312-7.063,7.476
		C33.426,36.004,32.787,38.934,32.835,42.146z"/>
	<path fill-rule="evenodd" clip-rule="evenodd" fill="#5E6263" d="M32.826,15.5c0,0.527,0.01,1.054-0.002,1.581
		c-0.014,0.628-0.471,1.073-1.103,1.093c-0.628,0.02-1.178-0.443-1.19-1.062c-0.022-1.08-0.019-2.161-0.001-3.24
		c0.01-0.585,0.563-1.088,1.139-1.088c0.645,0,1.145,0.488,1.16,1.136c0.006,0.264,0.001,0.527,0.001,0.791
		c0.001,0.263,0,0.526,0,0.79C32.828,15.5,32.827,15.5,32.826,15.5z"/>
	<path fill-rule="evenodd" clip-rule="evenodd" fill="#5E6263" d="M71.98,22.159c0,0.512,0.004,1.025-0.002,1.538
		c-0.009,0.656-0.504,1.162-1.132,1.169c-0.626,0.006-1.165-0.531-1.17-1.186c-0.007-1.025-0.008-2.051,0-3.077
		c0.006-0.659,0.497-1.099,1.154-1.129c0.574-0.027,1.164,0.544,1.141,1.148c-0.019,0.512-0.004,1.025-0.004,1.538
		C71.972,22.159,71.977,22.159,71.98,22.159z"/>
	<path fill-rule="evenodd" clip-rule="evenodd" fill="#5E6263" d="M69.677,15.235c0-0.263-0.005-0.526,0.002-0.789
		c0.016-0.648,0.519-1.139,1.155-1.133c0.634,0.005,1.136,0.504,1.145,1.152c0.008,0.512,0.006,1.025,0.001,1.537
		c-0.008,0.651-0.534,1.18-1.167,1.18c-0.625,0-1.126-0.508-1.137-1.16c-0.004-0.263-0.002-0.525-0.002-0.788
		C69.676,15.235,69.676,15.235,69.677,15.235z"/>
	<path fill-rule="evenodd" clip-rule="evenodd" fill="#5E6263" d="M32.828,22.415c0.001,0.264,0.006,0.528,0,0.791
		c-0.016,0.653-0.476,1.109-1.119,1.116c-0.66,0.007-1.168-0.458-1.184-1.104c-0.012-0.527-0.01-1.055,0-1.581
		c0.013-0.654,0.516-1.148,1.152-1.146c0.666,0.003,1.132,0.46,1.15,1.134C32.833,21.887,32.828,22.152,32.828,22.415z"/>
	<path fill-rule="evenodd" clip-rule="evenodd" fill="#488FCC" d="M69.556,39.845c-0.167-1.668-0.521-3.27-1.117-4.828
		c-0.165-0.42-0.342-0.84-0.529-1.237L52.477,41.79c-0.166,0.276-0.332,0.552-0.497,0.829c-0.453,0.751-0.862,1.558-1.337,2.298
		c-1.116,1.746-2.144,3.557-3.237,5.314c-0.475,0.784-1.414,0.873-1.955,0.198c-0.321-0.397-0.309-0.96,0.022-1.513
		c0.674-1.116,1.359-2.231,2.032-3.358c0.343-0.574,0.685-1.149,1.039-1.723l-13.257,6.882c1.9,3.358,4.784,5.922,8.64,7.678
		c3.104,1.413,6.374,1.801,9.755,1.369c2.618-0.32,5.037-1.215,7.257-2.573c1.614-0.973,3.05-2.209,4.265-3.668
		c2.1-2.508,3.613-5.313,4.153-8.583C69.632,43.248,69.732,41.568,69.556,39.845z M59.215,50.859
		c-2.496-0.099-4.364-2.22-4.221-4.607c0.144-2.497,2.243-4.375,4.619-4.209c2.529,0.177,4.396,2.287,4.208,4.75
		C63.645,49.147,61.523,51.014,59.215,50.859z"/>
	<path fill-rule="evenodd" clip-rule="evenodd" fill="#78B8E0" d="M54.707,38.1c-0.739,1.226-1.479,2.452-2.23,3.689l15.433-8.009
		c-1.227-2.618-3.017-4.828-5.325-6.64c-2.309-1.8-4.904-2.994-7.788-3.557c-0.862-0.166-1.723-0.243-2.607-0.254
		c-0.52-0.011-1.049-0.033-1.568-0.066c-0.906-0.044-1.801,0.077-2.695,0.265c-0.641,0.133-1.293,0.232-1.9,0.453
		c-0.619,0.21-1.248,0.409-1.856,0.685c-0.762,0.365-1.535,0.696-2.254,1.115c-3.071,1.812-5.424,4.32-7.059,7.479
		c-1.425,2.74-2.066,5.679-2.022,8.882c0.044,0.42,0.089,0.95,0.133,1.491c0.044,0.552,0.132,1.094,0.254,1.635
		c0.452,2,1.137,3.822,2.065,5.446l13.257-6.882c2.188-3.635,4.375-7.281,6.563-10.915c0.232-0.386,0.563-0.618,1.226-0.618
		c0.708,0,1.271,0.928,0.807,1.734C56.343,35.404,55.525,36.741,54.707,38.1z M43.063,41.104c-2.519-0.033-4.441-2.01-4.385-4.552
		c0.055-2.309,2.021-4.396,4.684-4.252c2.276,0.132,4.176,1.999,4.165,4.474C47.504,39.183,45.472,41.149,43.063,41.104z"/>
	<path fill-rule="evenodd" clip-rule="evenodd" fill="#FFFFFF" d="M49.204,62.15c-0.576,0.184-1.135-0.016-1.692-0.104
		c-0.616-0.093-1.22-0.262-1.829-0.397c-0.093-0.02-0.176-0.052-0.205-0.157c0.56,0.118,1.124,0.218,1.679,0.356
		C47.832,62.017,48.512,62.116,49.204,62.15z"/>
	<path fill-rule="evenodd" clip-rule="evenodd" fill="#B0BEC5" d="M58.221,15.44c0.002-0.235-0.041-0.307-0.294-0.307
		c-4.451,0.009-8.903,0.01-13.354,0c-0.262-0.001-0.292,0.09-0.291,0.312c0.01,1.198,0.005,2.397,0.005,3.595
		c0,1.01,0,2.021,0,3.065c0.238-0.089,0.442-0.165,0.647-0.24l0.024,0.004l0.019-0.018c0.089-0.016,0.181-0.023,0.268-0.047
		c1.557-0.43,3.132-0.768,4.75-0.867c1.581-0.097,3.146,0,4.709,0.254c0.893,0.145,1.756,0.4,2.635,0.593l0,0
		c0.056,0.098,0.157,0.058,0.239,0.079v-0.001c0.201,0.079,0.402,0.158,0.622,0.244c0.007-0.085,0.014-0.136,0.014-0.186
		C58.216,19.759,58.211,17.6,58.221,15.44z M57.579,21.861c0.068-0.004,0.127-0.007,0.181-0.011
		C57.706,21.854,57.647,21.856,57.579,21.861z M58.037,21.782c0.087-0.068,0.089-0.205,0.089-0.506
		C58.126,21.577,58.124,21.714,58.037,21.782z"/>
	<path fill-rule="evenodd" clip-rule="evenodd" fill="#FFFFFF" d="M56.333,32.304c0.708-0.007,1.271,0.927,0.805,1.731
		c-0.79,1.365-1.617,2.71-2.431,4.062c-0.906,1.507-1.814,3.012-2.725,4.517c-0.461,0.76-0.865,1.56-1.34,2.303
		c-1.119,1.749-2.143,3.553-3.234,5.316c-0.483,0.781-1.42,0.864-1.954,0.2c-0.319-0.397-0.314-0.968,0.017-1.514
		c0.678-1.122,1.359-2.241,2.035-3.364c2.534-4.212,5.066-8.425,7.599-12.638C55.339,32.528,55.665,32.299,56.333,32.304z"/>
	<path fill-rule="evenodd" clip-rule="evenodd" fill="#FFFFFF" d="M59.214,50.854c-2.499-0.095-4.366-2.22-4.222-4.598
		c0.151-2.503,2.244-4.375,4.621-4.21c2.529,0.175,4.396,2.281,4.209,4.75C63.644,49.15,61.521,51.019,59.214,50.854z
		 M59.229,44.469c-1.198-0.126-2.001,1.203-1.915,2.165c0.089,1.002,1.033,2.006,2.25,1.901c1.108-0.096,2.041-1.083,1.944-2.139
		C61.394,45.141,60.614,44.392,59.229,44.469z"/>
	<path fill-rule="evenodd" clip-rule="evenodd" fill="#FFFFFF" d="M43.066,41.108c-2.527-0.04-4.44-2.011-4.386-4.556
		c0.049-2.309,2.016-4.396,4.68-4.247c2.279,0.126,4.179,2,4.161,4.469C47.503,39.185,45.473,41.146,43.066,41.108z M45.189,36.735
		c0.027-1.132-0.897-2.092-2.049-2.131c-1.125-0.038-2.139,0.918-2.147,2.082c-0.008,1.184,0.912,2.047,2.013,2.097
		C44.241,38.84,45.16,37.952,45.189,36.735z"/>
	<path fill-rule="evenodd" clip-rule="evenodd" fill="#B0BEC5" d="M61.302,70.118c0.75-0.981,1.501-1.961,2.286-2.99
		c-1.364,0-2.661,0.002-3.959,0c-0.979,0-1.413-0.43-1.414-1.4c-0.001-1.409-0.018-2.817,0.009-4.227
		c0.007-0.387-0.089-0.428-0.425-0.313c-1.794,0.617-3.639,0.967-5.535,1.034c-1.021,0.004-2.041,0.015-3.06-0.071
		c-0.576,0.184-1.135-0.016-1.692-0.104c-0.616-0.093-1.22-0.262-1.829-0.397c-0.093-0.02-0.176-0.052-0.205-0.157h-0.002
		c-0.366-0.194-0.772-0.274-1.188-0.432c0,0.127,0,0.231,0,0.335c0,1.433-0.016,2.869,0.007,4.304
		c0.013,0.781-0.394,1.472-1.409,1.438c-1.197-0.039-2.396-0.016-3.595-0.013c-0.105,0-0.227-0.046-0.345,0.054
		c0.64,0.792,1.189,1.636,1.858,2.389l0,0c0.073,0.229,0.249,0.38,0.396,0.552l0,0c0.371,0.522,0.709,1.068,1.182,1.509
		c0.262,0.532,0.655,0.971,1.032,1.42l0,0c0.356,0.557,0.753,1.083,1.187,1.581l0,0c0.06,0.168,0.163,0.305,0.315,0.397
		c0.366,0.598,0.785,1.151,1.263,1.663c0.188,0.423,0.507,0.753,0.796,1.104h0.001c0.316,0.421,0.632,0.844,0.949,1.267h0
		c0.158,0.21,0.316,0.421,0.474,0.63h0c0.081,0.114,0.162,0.231,0.243,0.346c0.833,1.115,1.668,2.229,2.498,3.347
		c0.088,0.118,0.124,0.136,0.222,0.004c0.828-1.117,1.664-2.233,2.497-3.347c0.082-0.116,0.163-0.232,0.244-0.35l0,0
		c0.128-0.14,0.267-0.275,0.319-0.468c0.108,0,0.119-0.091,0.153-0.162h0.001c0.345-0.401,0.663-0.822,0.949-1.267h0.001
		c0.118-0.075,0.17-0.2,0.236-0.317h0.001c0.229-0.23,0.432-0.482,0.559-0.787c0.313-0.261,0.534-0.589,0.712-0.949
		c0.251-0.186,0.418-0.436,0.55-0.71c0.058,0.002,0.069-0.039,0.078-0.084c0.115-0.078,0.201-0.18,0.237-0.317l0,0
		c1.014-1.265,1.974-2.567,2.929-3.875l0,0C61.01,70.559,61.175,70.354,61.302,70.118L61.302,70.118z M44.919,75.025
		c0.032,0.015,0.069,0.023,0.099,0.038C44.989,75.049,44.951,75.04,44.919,75.025z"/>
	<path fill-rule="evenodd" clip-rule="evenodd" fill="#488FCC" d="M59.229,44.469c1.386-0.077,2.165,0.672,2.279,1.926
		c0.097,1.056-0.836,2.043-1.944,2.139c-1.217,0.105-2.161-0.898-2.25-1.901C57.228,45.671,58.03,44.342,59.229,44.469z"/>
	<path fill-rule="evenodd" clip-rule="evenodd" fill="#78B8E0" d="M45.189,36.735c-0.029,1.216-0.948,2.104-2.183,2.048
		c-1.101-0.05-2.021-0.913-2.013-2.097c0.008-1.164,1.022-2.12,2.147-2.082C44.292,34.643,45.216,35.604,45.189,36.735z"/>
	<line fill="none" x1="52.477" y1="41.79" x2="48.543" y2="43.833"/>
</g>
</svg>
