<?xml version="1.0" encoding="utf-8"?>
<!-- Generator: Adobe Illustrator 16.0.0, SVG Export Plug-In . SVG Version: 6.00 Build 0)  -->
<!DOCTYPE svg PUBLIC "-//W3C//DTD SVG 1.1//EN" "http://www.w3.org/Graphics/SVG/1.1/DTD/svg11.dtd">
<svg version="1.1" id="Layer_1" xmlns="http://www.w3.org/2000/svg" xmlns:xlink="http://www.w3.org/1999/xlink" x="0px" y="0px"
	 width="100px" height="100px" viewBox="0 0 100 100" enable-background="new 0 0 100 100" xml:space="preserve">
<g>
	<path fill-rule="evenodd" clip-rule="evenodd" fill="#365887" d="M53.688,46.159c-0.116,1.397-0.234,2.793-0.349,4.191
		c-0.029,0.33-0.048,0.661-0.075,1.042c0.668-0.332,1.301-0.662,1.947-0.963c3.071-1.428,6.312-2.208,9.667-2.533
		c3.151-0.305,6.299-0.266,9.435,0.18c1.354,0.193,2.688,0.482,4.012,0.841c2.738,0.74,5.278,1.884,7.633,3.455
		c2.354,1.573,4.344,3.526,6.001,5.82c0.032,0.046,0.074,0.086,0.112,0.129c0.004,0.066,0.029,0.118,0.091,0.149l0.015,0.021
		c0.021,0.024,0.042,0.048,0.064,0.073l0.011,0.015c0.101,0.229,0.231,0.437,0.409,0.614c0.495,0.879,1.024,1.741,1.354,2.705
		c0.331,0.97,0.613,1.944,0.557,2.985c-0.013,0.216,0.023,0.433,0.037,0.649c0,0.055,0,0.108-0.002,0.164
		c-0.006,0.089-0.013,0.179-0.021,0.269c-0.093,0.161-0.087,0.338-0.075,0.515c-0.007,0.057-0.014,0.117-0.023,0.177
		c-0.103,0.321-0.204,0.639-0.307,0.96c-0.476,1.178-1.319,2.044-2.391,2.675c-0.321,0.189-0.731,0.241-1.108,0.315
		c-0.222,0.045-0.271,0.143-0.268,0.349c0.007,1.243,0.009,2.485-0.004,3.728c-0.002,0.25,0.081,0.302,0.316,0.324
		c1.834,0.166,3.076,1.531,3.089,3.379c0.003,0.462,0.003,0.925,0,1.388s0.014,0.927-0.026,1.386
		c-0.039,0.444-0.187,0.867-0.452,1.305c1.367,0,2.663-0.005,3.958,0.005c0.355,0.003,0.827-0.161,1.036,0.072
		c0.175,0.196,0.056,0.657,0.064,1c0.005,0.159,0.005,0.317,0.008,0.478c-0.188,0.007-0.376,0.022-0.563,0.022
		c-2.066,0.004-4.134,0.007-6.202,0.009c-0.033-0.036-0.068-0.071-0.103-0.108c-0.021-0.11-0.052-0.055-0.085-0.005
		c-0.028-0.006-0.057,0-0.082,0.012c-0.099-0.01-0.192,0.005-0.273,0.07c-0.052,0.004-0.106,0.013-0.16,0.018
		c-5.098,0.002-10.196,0.005-15.292,0.007c-0.463,0-0.923,0.018-1.385,0.024c-0.058,0-0.114,0-0.173,0c-0.026,0-0.053,0-0.079,0.003
		c-0.178-0.037-0.355-0.037-0.533,0c-0.114-0.01-0.229-0.027-0.345-0.027c-10.737-0.002-21.476-0.005-32.215-0.005
		c-7.438-0.002-14.877,0-22.315,0.003c-0.006-0.495-0.028-0.993-0.005-1.484c0.008-0.167,0.208-0.088,0.316-0.088
		c1.694-0.005,3.387-0.002,5.081-0.005c0.538,0,0.532-0.002,0.479-0.555c-0.056-0.589-0.084-1.183-0.151-1.772
		c-0.071-0.635-0.192-1.261-0.25-1.897c-0.035-0.391,0.036-0.794,0.008-1.187c-0.178-2.424-0.372-4.847-0.56-7.269
		c-0.196-2.539-0.386-5.077-0.59-7.615c-0.063-0.781-0.23-1.559-0.235-2.337c-0.006-1.399-0.187-2.782-0.274-4.175
		c-0.048-0.764-0.124-1.526-0.188-2.29c0.008-0.266,0.024-0.53-0.069-0.785c-0.199-1.424-0.12-2.872-0.325-4.292
		c-0.09-0.629-0.087-1.253-0.12-1.88c-0.014-0.261-0.099-0.339-0.362-0.336c-1.1,0.014-2.201-0.009-3.299,0.013
		c-0.336,0.007-0.404-0.1-0.401-0.415c0.015-1.896,0.001-3.792,0.009-5.688c0.003-1.128,0.354-2.104,1.299-2.795
		c0.461-0.338,0.99-0.519,1.549-0.57c0.574-0.054,1.201,0.082,1.719-0.103c0.518-0.184,0.859-0.746,1.341-1.071
		c1.627-1.101,3.446-1.743,5.329-2.226c1.824-0.469,3.678-0.759,5.555-0.879c0.388-0.026,0.531-0.133,0.528-0.56
		c-0.021-3.068-0.005-6.136-0.02-9.205c-0.002-0.341,0.108-0.558,0.364-0.764c1.316-1.061,2.622-2.134,3.929-3.205
		c1.272-1.042,2.542-2.087,3.813-3.131c2.081-1.708,4.162-3.417,6.243-5.126c0.42-0.346,0.855-0.677,1.258-1.043
		c0.227-0.208,0.339-0.147,0.509,0.062c1.002,1.235,2.009,2.466,3.03,3.685c0.182,0.217,0.09,0.295-0.077,0.431
		c-1.255,1.022-2.502,2.052-3.75,3.083c-0.089,0.073-0.168,0.157-0.251,0.234c-0.067,0.007-0.112,0.041-0.133,0.104
		c-0.022-0.004-0.036,0.005-0.042,0.025c-0.019,0.018-0.037,0.034-0.055,0.05l-0.022,0.022c-0.227,0.137-0.431,0.303-0.609,0.5
		l-0.006,0.004c-0.031,0.026-0.063,0.054-0.093,0.079c-1.287,1.049-2.575,2.097-3.861,3.147c-1.498,1.222-2.99,2.448-4.492,3.665
		c-0.242,0.195-0.343,0.402-0.34,0.73c0.017,2.243,0.019,4.487-0.006,6.729c-0.004,0.375,0.154,0.495,0.454,0.483
		c0.426-0.015,0.879-0.018,1.267,0.052c0.835,0.15,1.679,0.249,2.512,0.412c1.811,0.355,3.593,0.823,5.28,1.573
		c1.078,0.48,2.119,1.066,2.934,1.959c0.147,0.162,0.299,0.246,0.525,0.233c0.302-0.018,0.607-0.006,0.911,0.001
		c1.401,0.029,2.519,0.539,3.145,1.872c0.09,0.229,0.181,0.458,0.27,0.686c0.01,0.176,0.02,0.351,0.028,0.525
		c-0.004,0.173-0.012,0.347-0.012,0.52c-0.006,1.967-0.009,3.932-0.012,5.899c-1.245,0.007-2.49,0.014-3.734,0.022
		C53.849,46.092,53.739,46.017,53.688,46.159z M75.935,76.592c0.652-0.484,1.437-0.726,2.124-1.146
		c0.557-0.339,1.142-0.469,1.806-0.463c2.821,0.03,5.644,0.008,8.464,0.02c0.383,0.003,0.494-0.104,0.484-0.489
		c-0.028-1.13-0.02-2.258-0.006-3.388c0.003-0.283-0.046-0.396-0.372-0.396c-12.083,0.009-24.165,0.009-36.249,0.002
		c-0.343,0-0.441,0.104-0.458,0.438c-0.063,1.111-0.129,2.224-0.252,3.327c-0.047,0.42,0.048,0.513,0.448,0.507
		c2.156-0.015,4.313-0.005,6.468-0.005c0.173,0,0.34-0.007,0.506,0.08c0.958,0.5,1.922,0.989,2.882,1.484
		c-0.054,0.016-0.11,0.042-0.165,0.042c-3.284-0.005-6.568-0.007-9.852-0.022c-0.342-0.002-0.479,0.088-0.503,0.445
		c-0.11,1.646-0.233,3.29-0.377,4.931c-0.035,0.392,0.047,0.511,0.465,0.511c8.528-0.016,17.056-0.011,25.584-0.011
		c4.486,0,8.971,0.003,13.455,0c1.053-0.002,1.802-0.674,1.838-1.676c0.03-0.837,0.026-1.679,0-2.519
		c-0.028-0.913-0.717-1.602-1.622-1.668c-0.174-0.014-0.348-0.004-0.52-0.004C85.366,76.592,80.65,76.592,75.935,76.592z
		 M51.91,68.767c-0.025,0.114-0.101,0.234,0.017,0.343c0.073,0.008,0.145,0.016,0.217,0.024c0.087,0.009,0.173,0.022,0.259,0.022
		c5.267,0,10.533,0,15.798-0.002c0.101,0,0.2-0.012,0.301-0.021c0.214-0.002,0.427-0.002,0.64-0.002c0.034,0,0.07,0,0.106,0
		c0.216-0.005,0.434-0.01,0.649-0.01c6.276-0.002,12.553-0.002,18.828-0.002h-0.003c0.162,0.002,0.322,0.002,0.483,0.005
		c0.272,0.027,0.548,0.081,0.82-0.014c1.84-0.261,2.731-1.596,2.939-3.068c0.275-1.957-0.32-3.742-1.321-5.404
		c-2.333-3.879-5.57-6.762-9.655-8.69c-2.878-1.36-5.925-2.117-9.085-2.438c-4.027-0.41-8.028-0.267-11.985,0.647
		c-2.652,0.613-5.158,1.596-7.482,3.027c-0.188,0.115-0.345,0.216-0.363,0.484c-0.13,1.86-0.28,3.721-0.426,5.58
		C52.402,62.421,52.157,65.593,51.91,68.767z M26.413,45.288c-0.005,0.086-0.027,0.176-0.012,0.258
		c0.081,0.449-0.108,0.564-0.542,0.543c-0.75-0.036-1.505-0.008-2.257-0.012c-0.191-0.002-0.344,0-0.316,0.269
		c0.046,0.46,0.067,0.923,0.104,1.384c0.188,2.333,0.382,4.665,0.566,6.997c0.134,1.714,0.229,3.433,0.386,5.143
		c0.26,2.835,0.375,5.679,0.65,8.512c0.197,2.023,0.313,4.059,0.473,6.087c0.194,2.477,0.404,4.95,0.58,7.431
		c0.031,0.438,0.147,0.576,0.606,0.574c7.352-0.018,14.703-0.013,22.054-0.016c0.087,0,0.174-0.005,0.261,0
		c0.202,0.011,0.284-0.089,0.298-0.283c0.053-0.706,0.115-1.41,0.168-2.116c0.121-1.599,0.232-3.197,0.357-4.797
		c0.16-2.029,0.336-4.056,0.495-6.087c0.109-1.412,0.193-2.825,0.303-4.237c0.186-2.39,0.386-4.777,0.573-7.168
		c0.135-1.7,0.254-3.399,0.386-5.1c0.158-2.031,0.315-4.062,0.49-6.091c0.032-0.387-0.061-0.509-0.479-0.507
		c-4.877,0.015-9.754,0.008-14.631,0.007c-0.816,0-0.816-0.001-0.874-0.781c-0.018-0.799-0.018-0.8,0.77-0.8
		c6.265-0.002,12.528-0.007,18.793,0.003c0.377,0.002,0.492-0.084,0.485-0.475c-0.023-1.475-0.016-2.951-0.006-4.427
		c0.003-0.36-0.138-0.619-0.382-0.875c-0.491-0.516-1.112-0.562-1.758-0.563c-9.129-0.001-18.257-0.002-27.387-0.003
		c-1.837,0-3.675-0.012-5.511,0.011c-1.22,0.014-1.793,0.625-1.796,1.841c-0.003,1.331,0.014,2.663-0.01,3.993
		c-0.007,0.386,0.078,0.513,0.49,0.508c1.938-0.024,3.876-0.012,5.815-0.012C26.358,44.498,26.358,44.498,26.413,45.288z
		 M24.874,36.52c8.581,0,17.042,0,25.599,0c-1.164-0.739-2.358-1.17-3.572-1.526c-2.296-0.675-4.654-1.027-7.04-1.139
		c-3.7-0.174-7.372,0.03-10.967,1.012C27.528,35.238,26.189,35.692,24.874,36.52z"/>
	<path fill-rule="evenodd" clip-rule="evenodd" fill="#D4EEF9" d="M68.753,35.926c-2.62,0-5.238,0-7.857-0.001
		c-0.797,0-1.594-0.025-2.39-0.006c-1.87,0.046-3.231-0.864-4.31-2.286c-1.04-1.37-1.15-2.944-0.815-4.551
		c0.229-1.095,0.769-2.101,1.657-2.781c0.968-0.742,2.017-1.394,3.349-1.342c0.913,0.036,1.818,0.027,2.653,0.475
		c0.246,0.131,0.434,0.035,0.584-0.192c0.574-0.863,1.927-1.415,2.967-1.184c0.372,0.084,0.445-0.04,0.474-0.378
		c0.086-1.007,0.523-1.85,1.128-2.666c0.656-0.885,1.529-1.429,2.479-1.838c0.992-0.427,2.063-0.466,3.139-0.25
		c1.451,0.291,2.661,1.001,3.57,2.153c0.652,0.829,1.019,1.825,1.115,2.874c0.042,0.448,0.261,0.525,0.581,0.573
		c1.611,0.243,2.853,1.087,3.756,2.406c1.202,1.759,1.323,3.659,0.503,5.606c-0.669,1.588-1.844,2.635-3.512,3.146
		c-0.477,0.146-0.946,0.225-1.431,0.227c-2.547,0.009-5.093,0.004-7.641,0.004C68.753,35.918,68.753,35.922,68.753,35.926z"/>
	<path fill-rule="evenodd" clip-rule="evenodd" fill="#D4EEF9" d="M16.38,29.833c-2.286,0-4.571,0.006-6.856-0.003
		c-0.489-0.002-1.014,0.048-1.457-0.11c-0.814-0.292-1.581-0.694-2.175-1.384C5.001,27.3,4.72,26.098,4.885,24.795
		c0.162-1.284,0.72-2.339,1.864-3.09c1.452-0.954,2.925-0.927,4.465-0.34c0.136,0.052,0.204,0.019,0.288-0.088
		c0.634-0.81,1.472-1.156,2.49-1.078c0.223,0.016,0.328-0.044,0.36-0.299c0.101-0.781,0.371-1.552,0.914-2.085
		c0.694-0.681,1.369-1.427,2.436-1.646c0.867-0.178,1.688-0.21,2.54,0.012c1.057,0.277,1.85,0.911,2.515,1.745
		c0.458,0.576,0.707,1.239,0.79,1.962c0.05,0.444,0.271,0.669,0.711,0.751c0.962,0.18,1.782,0.643,2.439,1.37
		c0.566,0.626,0.977,1.336,1.108,2.19c0.394,2.559-0.534,3.901-2.417,5.146c-0.538,0.357-1.232,0.477-1.891,0.484
		C21.124,29.847,18.752,29.834,16.38,29.833z"/>
	<path fill-rule="evenodd" clip-rule="evenodd" fill="#D4EEF9" d="M31.433,16.98c-1.345,0-2.691,0-4.036,0.001
		c-1.061,0-1.882-0.474-2.493-1.309c-0.516-0.706-0.355-2.148,0.206-2.962c0.506-0.736,1.244-0.993,2.041-1.164
		c0.362-0.077,0.693,0.14,1.024,0.255c0.312,0.107,0.55,0.034,0.732-0.195c0.27-0.338,0.609-0.479,1.024-0.439
		c0.27,0.027,0.38-0.077,0.434-0.34c0.245-1.217,1.075-1.902,2.215-2.149c1.217-0.262,2.198,0.267,2.934,1.229
		c0.253,0.332,0.338,0.76,0.431,1.167c0.034,0.153,0.073,0.295,0.24,0.319c0.392,0.057,0.746,0.247,1.061,0.438
		c0.644,0.39,1.127,0.993,1.216,1.75c0.162,1.371-0.161,2.368-1.48,3.126c-0.433,0.247-0.914,0.261-1.381,0.267
		c-1.389,0.022-2.777,0.008-4.167,0.008C31.433,16.981,31.433,16.981,31.433,16.98z"/>
	<path fill-rule="evenodd" clip-rule="evenodd" fill="#365887" d="M83.203,88.559c-0.001,0.405-0.016,0.808,0,1.213
		c0.01,0.245-0.065,0.336-0.317,0.326c-0.447-0.016-0.896-0.002-1.346-0.002c-9.272,0-18.545-0.003-27.817,0.009
		c-0.374,0-0.521-0.069-0.476-0.469c0.041-0.355,0.005-0.722,0.003-1.085c0.156-0.013,0.314-0.035,0.473-0.035
		c9.077,0,18.154-0.002,27.231,0.004C81.705,88.52,82.456,88.464,83.203,88.559z"/>
	<path fill-rule="evenodd" clip-rule="evenodd" fill="#365887" d="M49.25,88.536c0.001,0.391-0.025,0.783,0.008,1.172
		c0.032,0.352-0.126,0.395-0.424,0.393c-1.649-0.013-3.297-0.005-4.946-0.005c-2.286,0-4.571-0.005-6.856,0
		c-0.304,0.002-0.524,0.034-0.388-0.419c0.102-0.338-0.129-0.711-0.048-1.076c0.008-0.034,0.049-0.064,0.076-0.097
		c2.978,0.002,5.958,0.005,8.937,0.012C46.822,88.516,48.037,88.528,49.25,88.536z"/>
	<path fill-rule="evenodd" clip-rule="evenodd" fill="#365887" d="M33.968,88.521c0.003,0.403-0.018,0.809,0.016,1.209
		c0.029,0.335-0.129,0.343-0.398,0.374c-1.058,0.135-2.109-0.076-3.166-0.014c-0.487,0.027-0.98-0.016-1.469,0.014
		c-0.302,0.016-0.367-0.097-0.355-0.369c0.018-0.389-0.004-0.779-0.008-1.167c0.119-0.069,0.251-0.053,0.379-0.053
		C30.634,88.516,32.301,88.521,33.968,88.521z"/>
	<path fill-rule="evenodd" clip-rule="evenodd" fill="#ED795A" d="M16.745,61.534c1.003-0.001,1.83,0.818,1.823,1.812
		c-0.007,1.044-0.806,1.839-1.845,1.836c-1.017-0.003-1.805-0.797-1.804-1.813C14.92,62.324,15.704,61.535,16.745,61.534z
		 M17.819,63.347c-0.004-0.617-0.489-1.095-1.1-1.086c-0.61,0.007-1.095,0.507-1.082,1.111c0.014,0.613,0.496,1.084,1.112,1.09
		C17.347,64.466,17.823,63.968,17.819,63.347z"/>
	<path fill-rule="evenodd" clip-rule="evenodd" fill="#31B8C6" d="M1.145,43.176c-0.007-1.035,0.738-1.805,1.748-1.806
		c1.017-0.001,1.787,0.737,1.794,1.721c0.007,1-0.744,1.777-1.729,1.786C1.928,44.887,1.153,44.161,1.145,43.176z M2.905,42.07
		c-0.572,0.002-1.066,0.485-1.062,1.038c0.005,0.582,0.505,1.077,1.079,1.068c0.582-0.007,1.066-0.484,1.06-1.04
		C3.974,42.545,3.493,42.067,2.905,42.07z"/>
	<path fill-rule="evenodd" clip-rule="evenodd" fill="#365887" d="M11.88,54.417c-0.843-0.019-1.545-0.733-1.518-1.583
		c0.03-0.937,0.665-1.582,1.582-1.603c0.911-0.02,1.65,0.758,1.597,1.673C13.492,53.749,12.823,54.485,11.88,54.417z M12.95,52.83
		c-0.002-0.563-0.42-0.979-0.987-0.98c-0.56-0.002-1.01,0.426-1.017,0.965c-0.008,0.558,0.457,1.018,1.021,1.013
		C12.512,53.821,12.952,53.376,12.95,52.83z"/>
	<path fill-rule="evenodd" clip-rule="evenodd" fill="#365887" d="M3.314,63.477c0.197-0.009,0.308,0.078,0.357,0.227
		c0.054,0.162,0.109,0.327,0.119,0.495c0.023,0.376,0.23,0.535,0.583,0.563c0.143,0.012,0.289,0.022,0.425,0.063
		c0.163,0.051,0.257,0.172,0.254,0.359c-0.003,0.176-0.134,0.261-0.26,0.313c-0.129,0.056-0.28,0.065-0.422,0.074
		c-0.409,0.033-0.593,0.25-0.578,0.655c0.003,0.097,0.01,0.191-0.043,0.29c-0.097,0.187-0.207,0.381-0.426,0.376
		c-0.228-0.005-0.233-0.252-0.299-0.416C2.998,66.409,3,66.334,2.991,66.262C2.922,65.7,2.845,65.631,2.27,65.544
		c-0.198-0.03-0.447,0.042-0.538-0.249c-0.079-0.252-0.044-0.428,0.239-0.485c0.112-0.022,0.229-0.038,0.343-0.037
		c0.443,0.001,0.65-0.205,0.682-0.655C3.012,63.875,2.947,63.533,3.314,63.477z"/>
	<path fill-rule="evenodd" clip-rule="evenodd" fill="#D4EEF9" d="M18.599,84.043c7.438-0.003,14.877-0.005,22.315-0.003
		c10.739,0,21.478,0.003,32.215,0.005c0.115,0,0.23,0.018,0.345,0.027c-0.149,0.085-0.313,0.045-0.469,0.045
		c-17.94,0.002-35.881,0.002-53.822-0.003C18.989,84.114,18.778,84.189,18.599,84.043z"/>
	<path fill-rule="evenodd" clip-rule="evenodd" fill="#31B8C6" d="M56.964,6.998c-0.027,0.222-0.15,0.357-0.367,0.359
		c-0.592,0.004-0.91,0.267-0.92,0.884c-0.003,0.211-0.114,0.403-0.37,0.4c-0.274-0.002-0.394-0.221-0.386-0.438
		c0.023-0.608-0.29-0.825-0.842-0.837c-0.228-0.005-0.401-0.128-0.408-0.366c-0.009-0.245,0.168-0.362,0.394-0.374
		c0.552-0.034,0.895-0.236,0.854-0.871c-0.014-0.222,0.152-0.417,0.42-0.403c0.244,0.015,0.323,0.189,0.354,0.417
		c0.099,0.71,0.102,0.719,0.824,0.86C56.75,6.676,56.942,6.721,56.964,6.998z"/>
	<path fill-rule="evenodd" clip-rule="evenodd" fill="#31B8C6" d="M88.243,40.162c0.786,0,1.367,0.558,1.368,1.315
		c0.001,0.753-0.596,1.375-1.324,1.377c-0.788,0.003-1.397-0.587-1.396-1.351C86.893,40.748,87.483,40.163,88.243,40.162z
		 M89.042,41.507c-0.006-0.47-0.328-0.813-0.772-0.817c-0.46-0.005-0.822,0.36-0.819,0.823c0.005,0.461,0.324,0.766,0.81,0.768
		C88.755,42.284,89.047,41.994,89.042,41.507z"/>
	<path fill-rule="evenodd" clip-rule="evenodd" fill="#31B8C6" d="M93.44,29.088c-0.006,0.278-0.197,0.331-0.417,0.303
		c-0.384-0.047-0.521,0.139-0.531,0.493c-0.006,0.209-0.056,0.436-0.315,0.434c-0.279-0.003-0.335-0.226-0.344-0.462
		c-0.01-0.318-0.112-0.534-0.496-0.476c-0.088,0.012-0.187-0.07-0.283-0.076c-0.206-0.012-0.276-0.129-0.272-0.312
		c0.004-0.181,0.142-0.266,0.281-0.267c0.495-0.003,0.792-0.188,0.81-0.726c0.006-0.16,0.126-0.311,0.311-0.308
		c0.206,0.004,0.31,0.163,0.307,0.35c-0.003,0.453,0.213,0.66,0.657,0.669C93.383,28.716,93.479,28.854,93.44,29.088z"/>
	<path fill-rule="evenodd" clip-rule="evenodd" fill="#31B8C6" d="M69.038,4.748c-0.052,0.203-0.203,0.301-0.382,0.302
		c-0.394,0.004-0.585,0.174-0.58,0.574c0.004,0.188-0.091,0.357-0.291,0.372c-0.241,0.017-0.307-0.173-0.32-0.375
		c-0.024-0.4-0.203-0.615-0.632-0.554c-0.214,0.03-0.325-0.093-0.364-0.281C66.424,4.56,66.585,4.433,66.76,4.44
		c0.528,0.022,0.702-0.257,0.729-0.729c0.009-0.151,0.142-0.25,0.306-0.256c0.175-0.008,0.238,0.154,0.238,0.259
		c0.007,0.497,0.262,0.721,0.732,0.757C68.934,4.484,69.019,4.59,69.038,4.748z"/>
	<path fill-rule="evenodd" clip-rule="evenodd" fill="#D4EEF9" d="M83.203,88.559c-0.747-0.095-1.498-0.039-2.249-0.039
		c-9.077-0.006-18.154-0.004-27.231-0.004c-0.158,0-0.316,0.022-0.473,0.035c0.116-0.164,0.292-0.094,0.439-0.094
		c9.693-0.005,19.387-0.005,29.08,0C82.915,88.457,83.092,88.38,83.203,88.559z"/>
	<path fill-rule="evenodd" clip-rule="evenodd" fill="#D4EEF9" d="M74.259,84.069c0.462-0.007,0.922-0.024,1.385-0.024
		c5.096-0.002,10.194-0.005,15.292-0.007c-0.164,0.139-0.361,0.074-0.541,0.074c-5.001,0.005-10.001,0.005-15.001,0.007
		c-0.273,0-0.546-0.022-0.814,0.072C74.468,84.229,74.311,84.252,74.259,84.069z"/>
	<path fill-rule="evenodd" clip-rule="evenodd" fill="#D4EEF9" d="M49.25,88.536c-1.213-0.008-2.428-0.021-3.642-0.021
		c-2.979-0.007-5.959-0.01-8.937-0.012c0.132-0.09,0.281-0.05,0.422-0.05c3.903-0.002,7.806-0.002,11.708,0.003
		C48.953,88.457,49.122,88.395,49.25,88.536z"/>
	<path fill-rule="evenodd" clip-rule="evenodd" fill="#D4EEF9" d="M91.639,84.052c2.068-0.002,4.136-0.005,6.202-0.009
		c0.187,0,0.374-0.016,0.563-0.022c-0.076,0.124-0.2,0.097-0.313,0.097c-2.069,0.002-4.139,0-6.208,0
		C91.796,84.117,91.707,84.122,91.639,84.052z"/>
	<path fill-rule="evenodd" clip-rule="evenodd" fill="#D4EEF9" d="M57.672,46.072c0.003-1.967,0.006-3.932,0.012-5.899
		c0-0.173,0.008-0.346,0.012-0.52c0.093,0.095,0.067,0.216,0.067,0.33c0.001,1.91,0.001,3.82-0.001,5.729
		C57.762,45.838,57.804,45.978,57.672,46.072z"/>
	<path fill-rule="evenodd" clip-rule="evenodd" fill="#D4EEF9" d="M33.968,88.521c-1.667,0-3.334-0.006-5-0.006
		c-0.127,0-0.26-0.017-0.379,0.053c0.046-0.121,0.151-0.116,0.252-0.116c1.644,0,3.287,0,4.931,0.005
		C33.837,88.457,33.902,88.499,33.968,88.521z"/>
	<path fill-rule="evenodd" clip-rule="evenodd" fill="#D4EEF9" d="M94.181,67.618c0.103-0.321,0.204-0.639,0.307-0.96
		C94.694,67.107,94.588,67.443,94.181,67.618z"/>
	<path fill-rule="evenodd" clip-rule="evenodd" fill="#D4EEF9" d="M92.661,59.194c-0.178-0.178-0.309-0.385-0.409-0.614
		C92.793,58.635,92.919,58.822,92.661,59.194z"/>
	<path fill-rule="evenodd" clip-rule="evenodd" fill="#D4EEF9" d="M57.667,39.129c-0.089-0.228-0.18-0.457-0.27-0.686
		c0.203,0.047,0.536,0.494,0.462,0.639C57.841,39.122,57.734,39.115,57.667,39.129z"/>
	<path fill-rule="evenodd" clip-rule="evenodd" fill="#D4EEF9" d="M49.169,17.502c0.178-0.196,0.382-0.362,0.609-0.5
		C49.852,17.504,49.553,17.555,49.169,17.502z"/>
	<path fill-rule="evenodd" clip-rule="evenodd" fill="#D4EEF9" d="M22.16,52.584c0.093,0.255,0.077,0.52,0.069,0.785
		C22.085,53.117,22.17,52.846,22.16,52.584z"/>
	<path fill-rule="evenodd" clip-rule="evenodd" fill="#D4EEF9" d="M94.511,66.481c-0.012-0.177-0.018-0.354,0.075-0.515
		C94.572,66.141,94.645,66.324,94.511,66.481z"/>
	<path fill-rule="evenodd" clip-rule="evenodd" fill="#D4EEF9" d="M53.688,46.159c0.051-0.143,0.16-0.067,0.249-0.065
		C53.871,46.176,53.777,46.159,53.688,46.159z"/>
	<path fill-rule="evenodd" clip-rule="evenodd" fill="#D4EEF9" d="M91.096,84.021c0.081-0.065,0.175-0.08,0.273-0.07
		C91.296,84.045,91.197,84.033,91.096,84.021z"/>
	<path fill-rule="evenodd" clip-rule="evenodd" fill="#D4EEF9" d="M92.162,58.471c-0.062-0.031-0.087-0.083-0.091-0.149
		C92.102,58.371,92.133,58.421,92.162,58.471z"/>
	<path fill-rule="evenodd" clip-rule="evenodd" fill="#D4EEF9" d="M49.897,16.906c0.021-0.063,0.065-0.097,0.133-0.104
		C50.01,16.87,49.96,16.896,49.897,16.906z"/>
	<path fill-rule="evenodd" clip-rule="evenodd" fill="#D4EEF9" d="M94.606,65.698c0.002-0.056,0.002-0.109,0.002-0.164
		C94.679,65.589,94.681,65.643,94.606,65.698z"/>
	<path fill-rule="evenodd" clip-rule="evenodd" fill="#D4EEF9" d="M74.007,84.072c0.026-0.003,0.053-0.003,0.079-0.003
		C74.06,84.069,74.033,84.069,74.007,84.072z"/>
	<path fill-rule="evenodd" clip-rule="evenodd" fill="#D4EEF9" d="M49.07,17.586c0.03-0.025,0.062-0.053,0.093-0.079
		C49.132,17.533,49.101,17.561,49.07,17.586z"/>
	<path fill-rule="evenodd" clip-rule="evenodd" fill="#D4EEF9" d="M49.8,16.981c0.019-0.016,0.037-0.032,0.055-0.05
		C49.845,16.958,49.827,16.973,49.8,16.981z"/>
	<path fill-rule="evenodd" clip-rule="evenodd" fill="#D4EEF9" d="M92.241,58.565c-0.022-0.025-0.044-0.049-0.064-0.073
		C92.197,58.517,92.219,58.54,92.241,58.565z"/>
	<path fill-rule="evenodd" clip-rule="evenodd" fill="#D4EEF9" d="M91.451,83.938c0.033-0.05,0.064-0.105,0.085,0.005
		C91.508,83.945,91.479,83.943,91.451,83.938z"/>
	<path fill-rule="evenodd" clip-rule="evenodd" fill="#87CDDF" d="M36.053,45.298c0.058,0.78,0.058,0.781,0.874,0.781
		c4.877,0.001,9.754,0.007,14.631-0.007c0.418-0.002,0.511,0.12,0.479,0.507c-0.175,2.03-0.332,4.061-0.49,6.091
		c-0.132,1.7-0.251,3.399-0.386,5.1c-0.188,2.391-0.387,4.778-0.573,7.168c-0.109,1.412-0.194,2.825-0.303,4.237
		c-0.159,2.031-0.335,4.058-0.495,6.087c-0.125,1.6-0.236,3.198-0.357,4.797c-0.053,0.706-0.115,1.41-0.168,2.116
		c-0.014,0.194-0.097,0.294-0.298,0.283c-0.086-0.005-0.174,0-0.261,0c-7.351,0.003-14.703-0.002-22.054,0.016
		c-0.459,0.002-0.576-0.137-0.606-0.574c-0.176-2.48-0.386-4.954-0.58-7.431c-0.159-2.028-0.276-4.063-0.473-6.087
		c-0.276-2.833-0.39-5.677-0.65-8.512c-0.157-1.71-0.252-3.429-0.386-5.143c-0.184-2.332-0.377-4.664-0.566-6.997
		c-0.038-0.46-0.058-0.923-0.104-1.384c-0.028-0.269,0.125-0.271,0.316-0.269c0.752,0.003,1.507-0.024,2.257,0.012
		c0.433,0.021,0.623-0.095,0.542-0.543c-0.015-0.083,0.007-0.172,0.012-0.258c0.497,0.115,0.993,0.079,1.488-0.002
		c0.019,0.112,0.069,0.231,0.05,0.337c-0.065,0.407,0.128,0.486,0.487,0.463c0.431-0.028,0.866-0.007,1.299-0.007
		c0.742-0.001,0.742-0.001,0.727-0.765c0.513-0.083,1.042,0.085,1.549-0.099c0.007,0.143,0.03,0.288,0.014,0.429
		c-0.037,0.324,0.063,0.47,0.418,0.442c0.385-0.03,0.774-0.007,1.161-0.007c0.875,0,0.875-0.001,0.907-0.852
		C35.021,45.375,35.542,45.257,36.053,45.298z M37.984,68.323c1.81,0.033,3.929-0.298,5.95-1.116
		c1.838-0.74,3.493-1.753,4.504-3.548c0.856-1.519,0.846-3.071,0.002-4.588c-0.856-1.54-2.235-2.507-3.789-3.241
		c-1.771-0.838-3.654-1.244-5.599-1.383c-2.329-0.166-4.629,0.033-6.844,0.78c-1.624,0.546-3.14,1.326-4.357,2.586
		c-1.606,1.661-2.033,3.833-0.98,5.725c0.771,1.385,1.946,2.403,3.377,3.13C32.57,67.844,35.036,68.323,37.984,68.323z"/>
	<path fill-rule="evenodd" clip-rule="evenodd" fill="#FDD19D" d="M52.144,69.134c-0.072-0.009-0.144-0.017-0.216-0.024
		c-0.005-0.113-0.012-0.229-0.018-0.343c0.247-3.174,0.492-6.346,0.736-9.518c0.146-1.859,0.296-3.72,0.426-5.58
		c0.019-0.269,0.175-0.369,0.363-0.484c2.324-1.432,4.83-2.414,7.482-3.027c3.957-0.914,7.958-1.058,11.985-0.647
		c3.16,0.321,6.207,1.079,9.085,2.438c4.085,1.929,7.322,4.812,9.655,8.69c1.001,1.662,1.597,3.447,1.321,5.404
		c-0.208,1.473-1.1,2.808-2.938,3.068c-0.273,0.006-0.549,0.009-0.821,0.014c-0.161-0.003-0.321-0.003-0.483-0.005h0.003
		c-6.275,0-12.552,0-18.828,0.002c-0.216,0-0.434,0.005-0.649,0.01c-0.034,0-0.071,0-0.106,0c-0.213,0-0.426,0-0.64,0.002
		c-0.171-0.009-0.345-0.026-0.516-0.026c-4.588-0.003-9.175-0.003-13.762,0C53.53,69.107,52.836,69.125,52.144,69.134z
		 M55.109,63.089c0.783-0.002,1.407-0.624,1.401-1.396c-0.007-0.783-0.624-1.376-1.426-1.37c-0.768,0.007-1.373,0.609-1.379,1.372
		C53.701,62.473,54.324,63.093,55.109,63.089z M59.958,55.541c-0.824-0.014-1.455,0.576-1.462,1.37
		c-0.008,0.749,0.61,1.38,1.365,1.391c0.802,0.013,1.424-0.597,1.434-1.408C61.304,56.154,60.712,55.557,59.958,55.541z
		 M83.895,60.317c-0.795-0.011-1.435,0.581-1.456,1.346c-0.021,0.771,0.598,1.415,1.374,1.435c0.811,0.019,1.463-0.606,1.457-1.396
		C85.265,60.938,84.657,60.33,83.895,60.317z M64.673,63.089c0.794,0.004,1.41-0.604,1.407-1.388
		c-0.002-0.769-0.61-1.378-1.374-1.378c-0.822-0.001-1.392,0.567-1.391,1.388C63.316,62.509,63.885,63.085,64.673,63.089z
		 M70.876,56.902c-0.002-0.801-0.587-1.367-1.409-1.367c-0.782,0.002-1.361,0.582-1.363,1.367c-0.004,0.786,0.616,1.417,1.389,1.411
		C70.284,58.307,70.879,57.701,70.876,56.902z M79.062,55.534c-0.828,0.004-1.41,0.591-1.401,1.416
		c0.008,0.766,0.647,1.375,1.43,1.363c0.767-0.013,1.349-0.613,1.349-1.395C80.438,56.09,79.882,55.53,79.062,55.534z
		 M74.292,60.317c-0.795-0.006-1.402,0.581-1.417,1.366c-0.012,0.802,0.605,1.415,1.423,1.414c0.772-0.002,1.353-0.588,1.357-1.371
		C75.659,60.929,75.075,60.323,74.292,60.317z"/>
	<path fill-rule="evenodd" clip-rule="evenodd" fill="#D4EEF9" d="M27.901,45.285c-0.496,0.082-0.992,0.118-1.488,0.002
		c-0.055-0.79-0.055-0.79-0.856-0.79c-1.938,0-3.877-0.012-5.815,0.012c-0.412,0.005-0.497-0.122-0.49-0.508
		c0.024-1.331,0.007-2.662,0.01-3.993c0.002-1.216,0.576-1.827,1.796-1.841c1.836-0.022,3.674-0.011,5.511-0.011
		c9.13,0.001,18.258,0.002,27.387,0.003c0.646,0.001,1.267,0.048,1.758,0.563c0.244,0.256,0.385,0.515,0.382,0.875
		c-0.01,1.476-0.018,2.952,0.006,4.427c0.007,0.391-0.108,0.477-0.485,0.475c-6.265-0.01-12.529-0.005-18.793-0.003
		c-0.788,0-0.788,0.001-0.77,0.8c-0.511-0.041-1.032,0.077-1.54-0.071c0-0.16-0.006-0.317,0.001-0.475
		c0.008-0.176-0.052-0.261-0.245-0.257c-0.745,0.017-1.492,0.023-2.237,0.033c-0.097,0.156-0.066,0.319-0.023,0.481
		c0,0.07,0.002,0.138,0.003,0.206c-0.506,0.184-1.036,0.016-1.549,0.099c-0.103-0.127-0.066-0.28-0.05-0.413
		c0.035-0.307-0.045-0.436-0.388-0.412c-0.499,0.033-1.003,0.01-1.505,0.01c-0.66-0.001-0.66-0.003-0.632,0.658
		C27.891,45.2,27.897,45.243,27.901,45.285z"/>
	<path fill-rule="evenodd" clip-rule="evenodd" fill="#FDD19D" d="M75.935,76.592c4.716,0,9.432,0,14.148,0
		c0.172,0,0.346-0.01,0.52,0.004c0.905,0.066,1.594,0.755,1.622,1.668c0.026,0.84,0.03,1.682,0,2.519
		c-0.036,1.002-0.785,1.674-1.838,1.676c-4.484,0.003-8.969,0-13.455,0c-8.528,0-17.056-0.005-25.584,0.011
		c-0.418,0-0.5-0.119-0.465-0.511c0.144-1.641,0.267-3.284,0.377-4.931c0.023-0.357,0.161-0.447,0.503-0.445
		c3.283,0.016,6.567,0.018,9.852,0.022c0.055,0,0.111-0.026,0.165-0.042c2.26,1.055,4.461,2.226,6.682,3.356
		c0.27,0.137,0.5,0.202,0.767,0.051c1.313-0.749,2.677-1.397,4.027-2.074C74.142,77.453,74.996,76.934,75.935,76.592z"/>
	<path fill-rule="evenodd" clip-rule="evenodd" fill="#ED795A" d="M75.935,76.592c-0.938,0.342-1.793,0.861-2.68,1.304
		c-1.351,0.677-2.714,1.325-4.027,2.074c-0.267,0.151-0.497,0.086-0.767-0.051c-2.221-1.131-4.422-2.302-6.682-3.356
		c-0.96-0.495-1.924-0.984-2.882-1.484c-0.166-0.087-0.333-0.08-0.506-0.08c-2.155,0-4.312-0.01-6.468,0.005
		c-0.4,0.006-0.495-0.087-0.448-0.507c0.123-1.104,0.189-2.216,0.252-3.327c0.017-0.333,0.115-0.438,0.458-0.438
		c12.084,0.007,24.166,0.007,36.249-0.002c0.326,0,0.375,0.113,0.372,0.396c-0.014,1.13-0.022,2.258,0.006,3.388
		c0.01,0.385-0.102,0.492-0.484,0.489c-2.82-0.012-5.643,0.011-8.464-0.02c-0.664-0.006-1.249,0.124-1.806,0.463
		C77.371,75.866,76.587,76.107,75.935,76.592z"/>
	<path fill-rule="evenodd" clip-rule="evenodd" fill="#87CDDF" d="M24.874,36.52c1.315-0.828,2.654-1.282,4.021-1.654
		c3.595-0.981,7.267-1.186,10.967-1.012c2.386,0.112,4.744,0.464,7.04,1.139c1.214,0.356,2.408,0.788,3.572,1.526
		C41.916,36.52,33.455,36.52,24.874,36.52z"/>
	<path fill-rule="evenodd" clip-rule="evenodd" fill="#31B8C6" d="M52.144,69.134c0.692-0.009,1.387-0.026,2.08-0.026
		c4.587-0.003,9.174-0.003,13.762,0c0.171,0,0.345,0.018,0.516,0.026c-0.101,0.009-0.2,0.021-0.301,0.021
		c-5.265,0.002-10.531,0.002-15.798,0.002C52.316,69.156,52.23,69.143,52.144,69.134z"/>
	<path fill-rule="evenodd" clip-rule="evenodd" fill="#31B8C6" d="M89.205,69.125c0.272-0.005,0.548-0.008,0.821-0.014
		C89.753,69.206,89.478,69.152,89.205,69.125z"/>
	<path fill-rule="evenodd" clip-rule="evenodd" fill="#31B8C6" d="M51.91,68.767c0.006,0.114,0.013,0.229,0.018,0.343
		C51.81,69.001,51.885,68.881,51.91,68.767z"/>
	<path fill-rule="evenodd" clip-rule="evenodd" fill="#31B8C6" d="M69.141,69.132c0.035,0,0.072,0,0.106,0
		C69.211,69.132,69.175,69.132,69.141,69.132z"/>
	<path fill-rule="evenodd" clip-rule="evenodd" fill="#31B8C6" d="M88.725,69.12h-0.003H88.725z"/>
	<path fill-rule="evenodd" clip-rule="evenodd" fill="#365887" d="M37.984,68.323c-2.948,0-5.414-0.479-7.735-1.655
		c-1.432-0.727-2.606-1.745-3.377-3.13c-1.053-1.892-0.626-4.063,0.98-5.725c1.217-1.26,2.733-2.04,4.357-2.586
		c2.215-0.747,4.515-0.946,6.844-0.78c1.945,0.139,3.829,0.545,5.599,1.383c1.554,0.734,2.932,1.701,3.789,3.241
		c0.843,1.517,0.854,3.069-0.002,4.588c-1.012,1.795-2.667,2.808-4.504,3.548C41.913,68.025,39.794,68.356,37.984,68.323z
		 M37.402,66.747c1.391-0.01,2.542-0.107,3.677-0.353c1.846-0.398,3.58-1.05,5.011-2.336c1.803-1.622,1.803-3.747,0.009-5.38
		c-0.659-0.6-1.397-1.079-2.213-1.433c-3.278-1.42-6.662-1.593-10.11-0.788c-1.724,0.403-3.328,1.076-4.631,2.326
		c-1.188,1.14-1.737,2.706-0.679,4.379c0.452,0.715,1.085,1.199,1.758,1.633C32.478,66.245,35.008,66.685,37.402,66.747z"/>
	<path fill-rule="evenodd" clip-rule="evenodd" fill="#365887" d="M27.901,45.285c-0.004-0.042-0.01-0.085-0.012-0.128
		c-0.028-0.661-0.028-0.659,0.632-0.658c0.502,0,1.006,0.023,1.505-0.01c0.343-0.024,0.423,0.104,0.388,0.412
		c-0.016,0.133-0.052,0.286,0.05,0.413c0.015,0.764,0.015,0.764-0.727,0.765c-0.434,0-0.868-0.021-1.299,0.007
		c-0.358,0.023-0.552-0.056-0.487-0.463C27.97,45.516,27.92,45.397,27.901,45.285z"/>
	<path fill-rule="evenodd" clip-rule="evenodd" fill="#365887" d="M32.014,45.215c-0.001-0.068-0.003-0.136-0.003-0.205
		c0.007-0.161,0.015-0.321,0.023-0.482c0.746-0.01,1.492-0.016,2.237-0.033c0.192-0.004,0.253,0.081,0.245,0.257
		c-0.008,0.158-0.001,0.315-0.001,0.475c-0.032,0.851-0.032,0.852-0.907,0.852c-0.387,0-0.776-0.023-1.161,0.007
		c-0.356,0.028-0.456-0.118-0.418-0.442C32.043,45.503,32.021,45.358,32.014,45.215z"/>
	<path fill-rule="evenodd" clip-rule="evenodd" fill="#ED795A" d="M55.109,63.089c-0.785,0.004-1.408-0.616-1.403-1.395
		c0.006-0.763,0.611-1.365,1.379-1.372c0.802-0.006,1.419,0.587,1.426,1.37C56.517,62.465,55.893,63.087,55.109,63.089z"/>
	<path fill-rule="evenodd" clip-rule="evenodd" fill="#ED795A" d="M59.958,55.541c0.754,0.016,1.346,0.613,1.337,1.353
		c-0.01,0.812-0.632,1.421-1.434,1.408c-0.755-0.011-1.373-0.642-1.365-1.391C58.503,56.117,59.134,55.527,59.958,55.541z"/>
	<path fill-rule="evenodd" clip-rule="evenodd" fill="#ED795A" d="M83.895,60.317c0.763,0.013,1.37,0.621,1.375,1.385
		c0.006,0.789-0.646,1.414-1.457,1.396c-0.776-0.02-1.396-0.664-1.374-1.435C82.46,60.898,83.1,60.307,83.895,60.317z"/>
	<path fill-rule="evenodd" clip-rule="evenodd" fill="#ED795A" d="M64.673,63.089c-0.788-0.004-1.356-0.58-1.357-1.378
		c-0.001-0.82,0.568-1.389,1.391-1.388c0.764,0,1.372,0.609,1.374,1.378C66.083,62.485,65.467,63.093,64.673,63.089z"/>
	<path fill-rule="evenodd" clip-rule="evenodd" fill="#ED795A" d="M70.876,56.902c0.003,0.799-0.592,1.404-1.384,1.411
		c-0.772,0.006-1.393-0.625-1.389-1.411c0.002-0.785,0.581-1.365,1.363-1.367C70.289,55.535,70.874,56.102,70.876,56.902z"/>
	<path fill-rule="evenodd" clip-rule="evenodd" fill="#ED795A" d="M79.062,55.534c0.82-0.004,1.377,0.556,1.377,1.385
		c0,0.781-0.582,1.382-1.349,1.395c-0.782,0.012-1.422-0.598-1.43-1.363C77.651,56.125,78.233,55.538,79.062,55.534z"/>
	<path fill-rule="evenodd" clip-rule="evenodd" fill="#ED795A" d="M74.292,60.317c0.783,0.006,1.367,0.611,1.363,1.409
		c-0.005,0.783-0.585,1.369-1.357,1.371c-0.817,0.001-1.435-0.612-1.423-1.414C72.89,60.898,73.497,60.312,74.292,60.317z"/>
	<path fill-rule="evenodd" clip-rule="evenodd" fill="#31B8C6" d="M32.033,44.528c-0.008,0.161-0.016,0.322-0.023,0.482
		C31.967,44.848,31.937,44.685,32.033,44.528z"/>
	<path fill-rule="evenodd" clip-rule="evenodd" fill="#FDD19D" d="M37.402,66.747c-2.394-0.063-4.925-0.502-7.177-1.951
		c-0.673-0.434-1.307-0.918-1.758-1.633c-1.058-1.673-0.509-3.239,0.679-4.379c1.303-1.25,2.908-1.923,4.631-2.326
		c3.448-0.805,6.832-0.632,10.11,0.788c0.815,0.354,1.554,0.833,2.213,1.433c1.794,1.633,1.794,3.758-0.009,5.38
		c-1.432,1.286-3.166,1.938-5.011,2.336C39.944,66.64,38.793,66.737,37.402,66.747z"/>
</g>
</svg>
