<?xml version="1.0" encoding="utf-8"?>
<!-- Generator: Adobe Illustrator 16.0.0, SVG Export Plug-In . SVG Version: 6.00 Build 0)  -->
<!DOCTYPE svg PUBLIC "-//W3C//DTD SVG 1.1//EN" "http://www.w3.org/Graphics/SVG/1.1/DTD/svg11.dtd">
<svg version="1.1" id="Layer_1" xmlns="http://www.w3.org/2000/svg" xmlns:xlink="http://www.w3.org/1999/xlink" x="0px" y="0px"
	 width="100px" height="100px" viewBox="0 0 100 100" enable-background="new 0 0 100 100" xml:space="preserve">
<g>
	<path fill-rule="evenodd" clip-rule="evenodd" fill="#ED795A" d="M17.774,85.912c1.179,0,2.148,0.961,2.141,2.129
		c-0.008,1.225-0.947,2.158-2.167,2.155c-1.194-0.004-2.119-0.936-2.119-2.131C15.632,86.841,16.552,85.915,17.774,85.912z
		 M19.036,88.041c-0.005-0.726-0.574-1.285-1.291-1.275c-0.716,0.009-1.286,0.596-1.271,1.305c0.016,0.721,0.583,1.273,1.306,1.28
		C18.481,89.354,19.041,88.77,19.036,88.041z"/>
	<path fill-rule="evenodd" clip-rule="evenodd" fill="#31B8C6" d="M15.693,19.757c-0.008-1.215,0.867-2.119,2.053-2.12
		c1.194-0.001,2.098,0.866,2.106,2.021c0.009,1.175-0.874,2.086-2.03,2.097C16.612,21.767,15.702,20.914,15.693,19.757z
		 M17.76,18.459c-0.671,0.002-1.251,0.569-1.247,1.218c0.006,0.684,0.593,1.265,1.267,1.254c0.683-0.008,1.252-0.569,1.245-1.22
		C19.015,19.017,18.45,18.455,17.76,18.459z"/>
	<path fill-rule="evenodd" clip-rule="evenodd" fill="#365887" d="M5.972,61.447c-0.99-0.021-1.815-0.859-1.782-1.857
		c0.036-1.101,0.78-1.857,1.857-1.883c1.07-0.022,1.937,0.89,1.875,1.966C7.864,60.663,7.078,61.528,5.972,61.447z M7.228,59.585
		c-0.002-0.66-0.493-1.148-1.159-1.151c-0.658-0.002-1.186,0.5-1.194,1.134c-0.009,0.653,0.536,1.194,1.198,1.188
		C6.713,60.748,7.23,60.226,7.228,59.585z"/>
	<path fill-rule="evenodd" clip-rule="evenodd" fill="#365887" d="M3.112,72.645c0.231-0.011,0.362,0.092,0.419,0.267
		c0.063,0.19,0.128,0.383,0.14,0.58c0.027,0.442,0.271,0.628,0.685,0.66c0.167,0.014,0.339,0.027,0.499,0.076
		c0.192,0.06,0.302,0.201,0.298,0.422c-0.004,0.206-0.157,0.305-0.305,0.367c-0.152,0.063-0.329,0.075-0.496,0.087
		c-0.48,0.039-0.697,0.293-0.678,0.769c0.004,0.114,0.011,0.225-0.051,0.342c-0.113,0.218-0.243,0.446-0.5,0.439
		c-0.267-0.004-0.274-0.296-0.351-0.488c-0.031-0.078-0.028-0.165-0.04-0.25c-0.081-0.66-0.171-0.74-0.847-0.844
		c-0.233-0.034-0.524,0.051-0.632-0.291c-0.093-0.296-0.052-0.503,0.28-0.571c0.132-0.025,0.269-0.044,0.403-0.044
		c0.52,0.003,0.764-0.24,0.8-0.768C2.757,73.112,2.681,72.711,3.112,72.645z"/>
	<path fill-rule="evenodd" clip-rule="evenodd" fill="#31B8C6" d="M62.858,11.283c-0.032,0.26-0.177,0.42-0.431,0.422
		c-0.695,0.005-1.069,0.313-1.08,1.038c-0.004,0.248-0.135,0.473-0.436,0.47c-0.321-0.002-0.462-0.259-0.452-0.514
		c0.027-0.714-0.341-0.969-0.989-0.983c-0.267-0.006-0.471-0.15-0.479-0.43c-0.011-0.287,0.197-0.425,0.462-0.439
		c0.647-0.04,1.05-0.277,1.003-1.023c-0.016-0.26,0.18-0.49,0.493-0.473c0.287,0.018,0.38,0.222,0.416,0.49
		c0.116,0.834,0.12,0.845,0.969,1.01C62.607,10.905,62.833,10.958,62.858,11.283z"/>
	<path fill-rule="evenodd" clip-rule="evenodd" fill="#31B8C6" d="M96.394,88.057c0.923,0,1.605,0.653,1.606,1.544
		c0.001,0.885-0.7,1.614-1.555,1.616c-0.926,0.005-1.642-0.688-1.641-1.585C94.808,88.745,95.501,88.057,96.394,88.057z
		 M97.331,89.637c-0.007-0.553-0.385-0.956-0.907-0.961c-0.54-0.005-0.965,0.425-0.962,0.968c0.006,0.541,0.381,0.899,0.951,0.901
		C96.994,90.548,97.337,90.208,97.331,89.637z"/>
	<path fill-rule="evenodd" clip-rule="evenodd" fill="#31B8C6" d="M97.959,53.552c-0.008,0.327-0.232,0.389-0.49,0.356
		c-0.45-0.056-0.611,0.163-0.624,0.578c-0.007,0.245-0.065,0.512-0.37,0.509c-0.328-0.003-0.394-0.266-0.403-0.542
		c-0.012-0.373-0.132-0.626-0.583-0.558c-0.103,0.014-0.219-0.084-0.332-0.09c-0.242-0.014-0.325-0.152-0.32-0.367
		c0.005-0.211,0.166-0.312,0.33-0.313c0.582-0.004,0.931-0.221,0.951-0.852c0.007-0.188,0.147-0.365,0.364-0.362
		c0.242,0.005,0.363,0.19,0.36,0.411c-0.004,0.531,0.25,0.775,0.771,0.785C97.891,53.114,98.003,53.276,97.959,53.552z"/>
	<path fill-rule="evenodd" clip-rule="evenodd" fill="#31B8C6" d="M80.063,23.742c-0.061,0.239-0.238,0.354-0.448,0.354
		c-0.462,0.005-0.687,0.204-0.681,0.674c0.004,0.221-0.107,0.419-0.342,0.436c-0.283,0.02-0.36-0.203-0.376-0.441
		c-0.029-0.469-0.239-0.722-0.742-0.65c-0.251,0.036-0.382-0.109-0.428-0.33c-0.053-0.265,0.137-0.414,0.342-0.405
		c0.62,0.026,0.824-0.302,0.856-0.856c0.011-0.177,0.166-0.293,0.358-0.3c0.206-0.009,0.28,0.181,0.28,0.304
		c0.008,0.583,0.308,0.847,0.86,0.889C79.94,23.432,80.04,23.557,80.063,23.742z"/>
	<path fill-rule="evenodd" clip-rule="evenodd" fill="#D4EEF9" d="M53.705,23.618c0.21-0.23,0.449-0.426,0.715-0.587
		C54.507,23.62,54.156,23.68,53.705,23.618z"/>
	<path fill-rule="evenodd" clip-rule="evenodd" fill="#D4EEF9" d="M54.56,22.917c0.025-0.075,0.078-0.114,0.156-0.122
		C54.692,22.875,54.636,22.906,54.56,22.917z"/>
	<path fill-rule="evenodd" clip-rule="evenodd" fill="#D4EEF9" d="M53.59,23.716c0.035-0.03,0.073-0.063,0.108-0.093
		C53.663,23.653,53.625,23.686,53.59,23.716z"/>
	<path fill-rule="evenodd" clip-rule="evenodd" fill="#D4EEF9" d="M54.447,23.005c0.021-0.019,0.043-0.038,0.064-0.058
		C54.5,22.978,54.478,22.997,54.447,23.005z"/>
</g>
<g>
	<path fill-rule="evenodd" clip-rule="evenodd" fill="#FCD7B2" d="M80.657,48.109c-0.604,1.271-1.17,2.562-1.819,3.809
		c-0.673,1.293-1.716,1.686-2.756,1.135c-1.008-0.535-1.233-1.639-0.566-2.937c2.479-4.822,3.769-9.923,3.636-15.36
		c-0.088-3.607-2.293-6.599-5.514-7.497c-4.73-1.319-9.56,2.227-9.468,7.129c0.042,2.267,0.572,4.524,0.867,6.787
		c0.085,0.651,0.338,1.395,0.121,1.941c-0.235,0.593-0.893,1.351-1.429,1.404c-0.62,0.061-1.782-0.453-1.894-0.915
		c-1.036-4.266-2.422-8.594-0.805-12.974c1.57-4.253,4.751-6.7,9.281-7.324c0.284-0.039,0.561-0.137,0.841-0.208
		c0.333,0,0.667,0,1,0c0.646,0.119,1.291,0.232,1.935,0.359c1.356,0.266,6.687,3.955,7.986,9.17
		C83.384,37.884,81.76,44.419,80.657,48.109z"/>
	<path fill-rule="evenodd" clip-rule="evenodd" fill="#F8B44C" d="M58.393,33.363c0.176,1.762,0.306,3.163,0.458,4.561
		c0.115,1.059,0.232,2.041-0.246,3.129c-0.982,2.238,0.039,4.891,2.143,6.17c2.068,1.258,4.899,0.844,6.497-0.952
		c1.705-1.915,1.974-4.82,0.219-6.606c-1.604-1.632-1.313-3.528-1.646-5.699c1.688,0.288,3.217,0.412,4.643,0.864
		c0.529,0.168,1.09,1.073,1.167,1.7c0.5,4.045,0.969,8.099,1.248,12.164c0.188,2.732,0.09,5.486,0.016,8.228
		c-0.016,0.548-0.383,1.201-0.786,1.607c-8.936,8.982-17.892,17.945-26.864,26.892c-1.97,1.965-4.44,1.96-6.42-0.008
		c-6.029-5.995-12.042-12.007-18.036-18.036c-1.886-1.897-1.904-4.247-0.145-6.251c0.22-0.251,0.458-0.484,0.694-0.72
		c8.634-8.637,17.278-17.263,25.89-25.92c0.77-0.772,1.588-1.135,2.647-1.128C52.734,33.374,55.599,33.363,58.393,33.363z
		 M54.348,50.373c-0.195,0.182-0.38,0.301-0.494,0.468c-0.955,1.401-1.951,1.551-3.595,0.797c-3.443-1.58-7.303,0.404-7.694,3.974
		c-0.174,1.589,0.531,3.304,0.977,4.923c0.318,1.152,1.028,2.21,1.252,3.37c0.127,0.65-0.173,1.692-0.659,2.065
		c-0.48,0.369-1.52,0.332-2.162,0.081c-0.73-0.285-1.428-0.905-1.896-1.556c-0.934-1.298-1.701-2.715-2.604-4.192
		c-0.708,0.408-1.504,0.92-2.346,1.339c-0.755,0.376-0.957,0.839-0.509,1.575c0.816,1.341,1.617,2.691,2.463,4.101
		c-0.627,0.664-1.329,1.405-1.839,1.946c0.775,0.854,1.458,1.605,2.297,2.528c0.682-0.837,1.365-1.676,2.032-2.494
		c0.568,0.327,0.917,0.547,1.282,0.735c1.526,0.789,3.139,1.144,4.823,0.687c3.304-0.897,5.079-4.087,4.056-7.4
		c-0.524-1.701-1.31-3.319-1.909-5c-0.309-0.866-0.548-1.854,0.38-2.506c0.992-0.698,1.987-0.283,2.698,0.475
		c0.902,0.96,1.66,2.061,2.43,3.138c0.293,0.41,0.444,0.922,0.678,1.424c1.138-0.665,2.172-1.269,3.433-2.006
		c-0.896-1.445-1.738-2.804-2.634-4.249c0.544-0.573,1.194-1.258,1.794-1.89C55.839,51.917,55.128,51.18,54.348,50.373z"/>
	<path fill-rule="evenodd" clip-rule="evenodd" fill="#ED795A" d="M54.348,50.373c0.78,0.807,1.491,1.544,2.252,2.333
		c-0.6,0.632-1.25,1.316-1.794,1.89c0.896,1.445,1.738,2.804,2.634,4.249c-1.261,0.737-2.295,1.341-3.433,2.006
		c-0.233-0.502-0.385-1.014-0.678-1.424c-0.77-1.077-1.527-2.178-2.43-3.138c-0.711-0.758-1.706-1.173-2.698-0.475
		c-0.928,0.651-0.688,1.64-0.38,2.506c0.6,1.681,1.385,3.299,1.909,5c1.023,3.313-0.752,6.503-4.056,7.4
		c-1.684,0.457-3.296,0.103-4.823-0.687c-0.365-0.188-0.714-0.408-1.282-0.735c-0.667,0.818-1.35,1.657-2.032,2.494
		c-0.839-0.923-1.522-1.675-2.297-2.528c0.511-0.541,1.212-1.282,1.839-1.946c-0.846-1.409-1.646-2.76-2.463-4.101
		c-0.448-0.736-0.246-1.199,0.509-1.575c0.842-0.419,1.638-0.931,2.346-1.339c0.903,1.478,1.67,2.895,2.604,4.192
		c0.468,0.65,1.166,1.271,1.896,1.556c0.642,0.251,1.682,0.288,2.162-0.081c0.486-0.373,0.786-1.415,0.659-2.065
		c-0.224-1.16-0.935-2.218-1.252-3.37c-0.445-1.619-1.151-3.334-0.977-4.923c0.391-3.569,4.25-5.553,7.694-3.974
		c1.644,0.754,2.64,0.604,3.595-0.797C53.968,50.673,54.152,50.554,54.348,50.373z"/>
</g>
</svg>
