<?xml version="1.0" encoding="utf-8"?>
<!-- Generator: Adobe Illustrator 16.0.0, SVG Export Plug-In . SVG Version: 6.00 Build 0)  -->
<!DOCTYPE svg PUBLIC "-//W3C//DTD SVG 1.1//EN" "http://www.w3.org/Graphics/SVG/1.1/DTD/svg11.dtd">
<svg version="1.1" id="Layer_1" xmlns="http://www.w3.org/2000/svg" xmlns:xlink="http://www.w3.org/1999/xlink" x="0px" y="0px"
	 width="100px" height="100px" viewBox="0 0 100 100" enable-background="new 0 0 100 100" xml:space="preserve">
<g>
	<g>
		<g>
			<path fill-rule="evenodd" clip-rule="evenodd" fill="#0D0D0B" d="M91.095,67.736c-0.219,0.01-0.439,0.004-0.658,0.004
				c-1.186,0-2.37-0.001-3.556-0.001v0.001H65.227c-0.627,0.039-1.34,0.21-1.834,0h-1.945c-0.002,0.505,0.002,1.009,0,1.515h1.943
				c0.07-0.012,0.147-0.02,0.241-0.019c8.733,0.023,17.468,0.018,26.201,0.02c0.063,0,0.122,0.023,0.184,0.037
				c0.375-0.016,0.749-0.025,1.123-0.047c0.484-0.023,0.899-0.215,0.909-0.744C92.058,67.912,91.637,67.717,91.095,67.736z"/>
			<path fill-rule="evenodd" clip-rule="evenodd" fill="#0D0D0B" d="M25.631,69.255h2.516c2.821-0.001,5.642-0.006,8.462-0.028
				c0.173-0.002,0.313,0.009,0.439,0.028h2.247c-0.067-0.159-0.09-0.37-0.055-0.665c0.033-0.28,0.043-0.565,0.047-0.85h-2.226
				c-0.104,0.014-0.219,0.022-0.357,0.021c-2.358-0.017-4.717-0.019-7.075-0.021h-7.124v-0.007c-1.217,0-2.434,0.001-3.651-0.001
				c-0.605,0-1.147,0.031-1.25,0.791c0.19,0.713,0.745,0.732,1.336,0.73C21.171,69.252,23.401,69.254,25.631,69.255L25.631,69.255z"
				/>
		</g>
		<path fill-rule="evenodd" clip-rule="evenodd" fill="#CEEAF7" d="M39.422,83.591c3.693-0.01,23.515-14.367,24.185-14.363
			c8.733,0.023,17.468,0.018,26.201,0.02c0.063,0,0.122,0.023,0.184,0.037c-0.213,4.129-1.868,7.709-4.196,11.029
			c-1.421,2.029-3.239,3.693-5.014,5.395c-0.162,0.154-0.324,0.293-0.563,0.305c-0.194-0.273-0.423-0.154-0.667-0.074
			c-1.269,0.428-2.563,0.764-3.854,1.113c-3.374,0.918-6.823,1.357-10.292,1.557c-3.957,0.225-7.915-0.061-11.811-0.771
			C48.725,86.946,43.958,85.636,39.422,83.591z"/>
		<path fill-rule="evenodd" clip-rule="evenodd" fill="#B8E3F9" d="M53.597,87.837c3.896,0.711,7.854,0.996,11.811,0.771
			c3.469-0.199,6.918-0.639,10.292-1.557c1.291-0.35,2.585-0.686,3.854-1.113c0.244-0.08,0.473-0.199,0.667,0.074
			c-1.653,1.547-3.581,2.695-5.547,3.775c-4.862,2.668-10.085,4.307-15.541,5.189c-3.86,0.625-7.771,0.834-11.664,0.574
			c-7.058-0.473-13.855-2.061-20.17-5.373c-2.856-1.502-5.518-3.287-7.885-5.492c-0.181-0.168-0.323-0.377-0.483-0.566
			c0.058-0.422-0.128-0.797-0.23-1.186c-0.232-0.893-0.261-1.795-0.001-2.676c0.966-3.273,4.433-4.781,7.586-3.254
			c1.599,0.777,3.125,1.699,4.692,2.541c1.128,0.605,2.273,1.182,3.406,1.779c0.279,0.145,0.766,0.266,0.17,0.652
			C33.661,81.978,48.725,86.946,53.597,87.837z"/>
		<path fill-rule="evenodd" clip-rule="evenodd" fill="#CEEAF7" d="M40.75,84.847c-11.125-3.905-3.491-1.93-9.773-5.301
			c-1.568-0.842-3.093-1.764-4.692-2.541c-3.153-1.527-6.62-0.02-7.586,3.254c-0.26,0.881-0.231,1.783,0.001,2.676
			c0.102,0.389,0.289,0.764,0.23,1.186c-1.966-1.625-3.458-3.648-4.748-5.814c-1.656-2.777-2.747-5.762-2.965-9.023
			c0.905-0.014,1.811-0.051,2.715-0.033c0.593,0.014,1.042-0.141,1.256-0.736c0.798,0,1.595,0.002,2.393,0.002
			c0.19,0.713,0.745,0.732,1.336,0.73c2.336-0.002,49.203,0.675,53.958,4.13c2.734,1.987-24.38,10.979-24.375,11.472
			C48.508,85.554,41.501,84.862,40.75,84.847z"/>
		<path fill-rule="evenodd" clip-rule="evenodd" fill="#0D0D0B" d="M15.206,68.714c-0.214,0.596-0.663,0.75-1.256,0.736
			c-0.904-0.018-1.81,0.02-2.715,0.033c-0.405-0.016-0.814-0.008-1.216-0.055c-0.457-0.055-0.781-0.334-0.758-0.801
			c0.023-0.459,0.331-0.703,0.826-0.701c1.409,0.012,2.818,0.012,4.227,0.002C14.861,67.925,15.086,68.251,15.206,68.714z"/>
	</g>
</g>
<g>
	<path fill-rule="evenodd" clip-rule="evenodd" fill="#180D0D" d="M48.245,36.191c4.759,0,9.517,0,14.274,0
		c1.797,0,3.592-0.01,5.389,0.003c1.678,0.013,3.008,0.692,3.947,2.108c2.084,3.139,4.174,6.271,6.266,9.405
		c0.646,0.968,0.988,2.019,0.982,3.193c-0.014,3.405,0,6.811-0.006,10.215c-0.006,3.002-2.359,5.364-5.361,5.392
		c-0.654,0.007-1.311,0.005-1.965,0c-0.867-0.004-1.299-0.386-1.445-1.249c-0.529-3.092-2.244-5.117-5.334-5.884
		c-3.443-0.853-7.123,1.278-8.107,4.921c-0.07,0.256-0.125,0.522-0.154,0.798c-0.078,0.796-0.752,1.402-1.607,1.407
		c-3.422,0.019-6.847,0.018-10.271,0c-0.866-0.004-1.421-0.544-1.579-1.425c-0.61-3.399-3.095-5.683-6.373-5.907
		c-3.498-0.239-6.469,2.047-7.194,5.507c-0.009,0.041-0.008,0.084-0.016,0.125c-0.321,1.646-0.862,1.981-2.493,1.544
		c-1.833-0.49-3.201-2.253-3.202-4.146c-0.003-7.146,0.026-14.294-0.018-21.44c-0.015-2.429,1.871-4.575,4.602-4.571
		C35.135,36.199,41.69,36.191,48.245,36.191z M64.182,56.355c0.104-0.505,0.012-1.013,0.02-1.52
		c-0.002-0.976-0.004-1.951-0.008-2.926c0.025-0.032,0.033-0.068,0.025-0.108c0.195-0.168,0.387-0.317,0.666-0.15
		c0.242,0.144,0.24,0.363,0.242,0.596c0.002,0.521,0.01,1.043,0.018,1.564c-0.07,0.387-0.064,0.774,0.004,1.16
		c-0.006,1.043-0.012,2.086-0.025,3.13c-0.004,0.253,0.098,0.367,0.348,0.434c2.389,0.631,4.07,2.113,5.15,4.312
		c0.285,0.706,0.521,1.43,0.592,2.19c0.037,0.38,0.217,0.51,0.574,0.504c0.594-0.011,1.186,0.003,1.777,0.001
		c2.725-0.005,4.625-1.889,4.631-4.606c0.008-3.319-0.002-6.64,0.004-9.96c0.002-0.978-0.262-1.865-0.803-2.676
		c-2.008-3.003-4.068-5.972-5.992-9.025c-1.063-1.685-2.471-2.326-4.375-2.092c-1.787-0.01-3.576-0.024-5.363-0.026
		c-8.188-0.009-16.375-0.013-24.564-0.019c-0.19-0.111-0.367-0.045-0.542,0.042c-0.382-0.053-0.764-0.055-1.146,0.006
		c-0.084-0.004-0.167-0.008-0.251-0.013c-2.343-0.002-4.686-0.042-7.027,0.005c-1.544,0.029-2.857,1.197-3.134,2.729
		c-0.226,1.251-0.094,2.521-0.08,3.785c0,1.422,0,2.843,0,4.266c-0.003,0.104-0.007,0.21-0.011,0.314
		c-0.023,0.019-0.023,0.038-0.003,0.058c0.003,0.103,0.007,0.205,0.01,0.308c-0.023,0.03-0.023,0.06,0,0.09
		c0,0.098,0.001,0.195,0.001,0.294c-0.009,1.225-0.025,2.449-0.026,3.673c-0.003,3.106-0.018,6.212,0.007,9.318
		c0.016,1.927,1.465,3.49,3.198,3.521c0.253,0.005,0.549,0.047,0.581-0.317c0.095-1.065,0.478-2.04,0.896-3.007
		c0.079-0.097,0.167-0.188,0.236-0.291c1.591-2.422,3.819-3.671,6.732-3.664c0.092-0.007,0.184-0.015,0.275-0.021
		c1.002,0.047,1.946,0.337,2.878,0.682c0.253,0.263,0.598,0.369,0.911,0.528c1.2,0.761,2.093,1.806,2.797,3.026
		c0.354,0.812,0.652,1.638,0.782,2.521c0.055,0.372,0.31,0.542,0.668,0.544c1.944,0.007,3.888,0.003,5.832,0.012
		c0.269,0.001,0.375-0.086,0.369-0.364c-0.02-0.909-0.021-1.816-0.029-2.725c0.01-0.253,0.031-0.506,0.031-0.758
		c0.004-3.104,0.004-6.208,0.002-9.313c0-0.378,0.021-0.804,0.49-0.804c0.463-0.001,0.496,0.415,0.49,0.799
		c-0.01,0.803-0.004,1.605-0.002,2.408c0.008,2.554,0.018,5.108,0.025,7.663c-0.008,0.885-0.016,1.769-0.025,2.652
		c-0.002,0.218-0.014,0.436,0.303,0.434c0.945-0.003,1.891,0.005,2.836-0.007c0.375-0.004,0.582-0.25,0.629-0.595
		c0.113-0.841,0.41-1.625,0.723-2.405c0.504-0.775,0.996-1.56,1.699-2.186c1.078-0.96,2.303-1.632,3.715-1.951
		c0.168,0.01,0.338,0.021,0.506,0.029c0.502-0.142,1.016-0.186,1.537-0.173c0.09,0.011,0.188,0.027,0.182-0.115
		c0.063-0.167,0.051-0.335-0.002-0.502c0.105-0.341,0.117-0.683,0.002-1.024C64.174,56.525,64.178,56.44,64.182,56.355z"/>
	<path fill-rule="evenodd" clip-rule="evenodd" fill="#180D0D" d="M42.061,66.232c0.011,3.129-2.465,5.705-5.613,5.694
		c-3.204-0.011-5.693-2.457-5.678-5.687c0.014-3.095,2.313-5.6,5.609-5.636C39.82,60.568,42.081,63.366,42.061,66.232z
		 M36.424,70.966c2.624-0.004,4.682-2.068,4.711-4.661c0.029-2.6-2.146-4.777-4.746-4.772c-2.371,0.004-4.689,2.06-4.7,4.711
		C31.677,68.932,34.073,71.102,36.424,70.966z"/>
	<path fill-rule="evenodd" clip-rule="evenodd" fill="#180D0D" d="M57.889,66.236c-0.104-2.614,2.037-5.65,5.656-5.631
		c3.375,0.019,5.633,2.686,5.635,5.663c0,3.007-2.326,5.636-5.635,5.654C60.035,71.942,57.758,68.978,57.889,66.236z M63.525,70.966
		c2.592,0.006,4.764-2.108,4.734-4.685c-0.033-2.684-2.186-4.767-4.746-4.736c-2.609,0.03-4.715,2.092-4.729,4.689
		C58.773,68.862,60.875,70.96,63.525,70.966z"/>
	<path fill-rule="evenodd" clip-rule="evenodd" fill="#B8E3F9" d="M68.168,39.101c-0.209-0.74-0.783-1.264-1.139-1.918
		c1.904-0.234,3.313,0.407,4.375,2.092c1.924,3.054,3.984,6.022,5.992,9.025c0.541,0.811,0.805,1.698,0.803,2.676
		c-0.006,3.32,0.004,6.641-0.004,9.96c-0.006,2.718-1.906,4.602-4.631,4.606c-0.592,0.002-1.184-0.012-1.777-0.001
		c-0.357,0.006-0.537-0.124-0.574-0.504c-0.07-0.761-0.307-1.484-0.592-2.19c1.625-0.544,2.986-2.487,2.916-4.232
		c-0.111-2.737-0.033-5.481-0.033-8.222c0.002-0.037,0.002-0.075-0.002-0.112c1.25-0.186,1.695-1.146,1.02-2.209
		c-1.564-2.459-3.133-4.913-4.689-7.377c-0.352-0.556-0.813-0.961-1.404-1.228C68.426,39.285,68.332,39.169,68.168,39.101z
		 M75.525,55.205c0-0.994-0.004-1.988,0.004-2.982c0.002-0.338-0.102-0.629-0.455-0.644c-0.391-0.016-0.529,0.288-0.531,0.647
		c-0.002,1.967-0.01,3.935-0.002,5.901c0,0.327,0.072,0.67,0.502,0.669c0.434-0.003,0.482-0.333,0.484-0.673
		C75.527,57.151,75.527,56.178,75.525,55.205z"/>
	<path fill-rule="evenodd" clip-rule="evenodd" fill="#B8E3F9" d="M44.437,62.707c0.29-0.508,0.847-0.334,1.223-0.339
		c1.547-0.021,3.102-0.171,4.645,0.074c0.243,0.038,0.487-0.185,0.725,0.014c0.008,0.908,0.01,1.815,0.029,2.725
		c0.006,0.278-0.1,0.365-0.369,0.364c-1.944-0.009-3.888-0.005-5.832-0.012c-0.358-0.002-0.613-0.172-0.668-0.544
		c-0.13-0.883-0.428-1.709-0.782-2.521c0.43-0.293,0.686,0.146,1.023,0.244c0.019,0.017,0.037,0.032,0.056,0.049
		C44.47,62.744,44.453,62.726,44.437,62.707z"/>
	<path fill-rule="evenodd" clip-rule="evenodd" fill="#B8E3F9" d="M24.922,49.021c0.153,0.209,0.081,0.45,0.082,0.675
		c0.004,3.905,0.013,7.811-0.008,11.716c-0.003,0.523,0.158,0.63,0.669,0.69c1.306,0.152,2.61,0.054,3.914,0.107
		c-0.418,0.967-0.801,1.941-0.896,3.007c-0.032,0.364-0.328,0.322-0.581,0.317c-1.733-0.031-3.183-1.595-3.198-3.521
		c-0.025-3.106-0.011-6.212-0.007-9.318C24.896,51.47,24.913,50.245,24.922,49.021z"/>
	<path fill-rule="evenodd" clip-rule="evenodd" fill="#B8E3F9" d="M52.066,62.452c0.463-0.23,0.957-0.103,1.436-0.115
		c0.803-0.021,1.605-0.01,2.41-0.003c0.221,0.002,0.479-0.071,0.619,0.197c-0.313,0.78-0.609,1.564-0.723,2.405
		c-0.047,0.345-0.254,0.591-0.629,0.595c-0.945,0.012-1.891,0.004-2.836,0.007c-0.316,0.002-0.305-0.216-0.303-0.434
		C52.051,64.221,52.059,63.337,52.066,62.452z"/>
	<path fill-rule="evenodd" clip-rule="evenodd" fill="#EA5857" d="M24.923,43.691c0.139,1.422,0.139,2.844,0,4.266
		C24.923,46.534,24.923,45.113,24.923,43.691z"/>
	<path fill-rule="evenodd" clip-rule="evenodd" fill="#EB7A7C" d="M37.102,37.138c-0.07,0.099-0.126,0.213-0.213,0.293
		c-0.108,0.098-0.205,0.326-0.384,0.187c-0.167-0.128,0.014-0.292,0.056-0.438C36.735,37.093,36.912,37.026,37.102,37.138z"/>
	<path fill-rule="evenodd" clip-rule="evenodd" fill="#F06B6C" d="M63.602,55.98c0.322-0.074,0.4,0.229,0.58,0.375
		c-0.004,0.085-0.008,0.17-0.012,0.254C63.822,56.544,63.645,56.323,63.602,55.98z"/>
	<path fill-rule="evenodd" clip-rule="evenodd" fill="#EB7A7C" d="M35.415,37.186c0.01,0.07,0.038,0.198,0.028,0.202
		c-0.182,0.054-0.217-0.101-0.279-0.215C35.248,37.178,35.331,37.182,35.415,37.186z"/>
	<path fill-rule="evenodd" clip-rule="evenodd" fill="#EB7A7C" d="M63.988,58.251c0.061-0.038,0.119-0.076,0.182-0.115
		C64.176,58.278,64.078,58.262,63.988,58.251z"/>
	<path fill-rule="evenodd" clip-rule="evenodd" fill="#EA5857" d="M24.92,48.637c0.012,0.021,0.025,0.043,0.034,0.065
		c0.001,0.004-0.021,0.017-0.033,0.024C24.896,48.696,24.896,48.667,24.92,48.637z"/>
	<path fill-rule="evenodd" clip-rule="evenodd" fill="#EA5857" d="M24.913,48.271l0.04,0.03c0,0-0.042,0.028-0.042,0.027
		C24.889,48.31,24.89,48.29,24.913,48.271z"/>
	<path fill-rule="evenodd" clip-rule="evenodd" fill="#EB7A7C" d="M64.193,51.91c-0.006-0.028-0.016-0.056-0.016-0.085
		c0-0.008,0.025-0.016,0.041-0.024C64.227,51.842,64.219,51.878,64.193,51.91z"/>
	<path fill-rule="evenodd" clip-rule="evenodd" fill="#F9DD83" d="M36.424,70.966c-2.351,0.136-4.747-2.034-4.735-4.723
		c0.011-2.651,2.329-4.707,4.7-4.711c2.6-0.005,4.775,2.173,4.746,4.772C41.106,68.897,39.048,70.962,36.424,70.966z M36.442,63.593
		c-1.559-0.001-2.759,1.146-2.75,2.661c0.009,1.579,1.313,2.764,2.791,2.703c1.481-0.06,2.624-1.155,2.633-2.649
		C39.126,64.73,38.007,63.595,36.442,63.593z"/>
	<path fill-rule="evenodd" clip-rule="evenodd" fill="#F9DD83" d="M63.525,70.966c-2.65-0.006-4.752-2.104-4.74-4.731
		c0.014-2.598,2.119-4.659,4.729-4.689c2.561-0.03,4.713,2.053,4.746,4.736C68.289,68.857,66.117,70.972,63.525,70.966z
		 M63.492,68.943c1.297,0.115,2.74-0.919,2.748-2.663c0.008-1.785-1.457-2.679-2.652-2.714c-1.613-0.048-2.787,1.349-2.783,2.648
		C60.811,67.762,61.955,68.938,63.492,68.943z"/>
	<path fill-rule="evenodd" clip-rule="evenodd" fill="#180D0D" d="M63.348,49.118c-0.211,0.624-0.596,1.057-1.277,1.164
		c-3.041-0.01-6.082-0.02-9.121-0.029c-0.332-0.204-0.676-0.394-0.869-0.756c-0.123-1.117-0.047-2.238-0.045-3.357
		c0.004-2.007-0.07-4.016,0.039-6.022c0.357-0.576,0.883-0.771,1.551-0.768c2.643,0.018,5.289,0.029,7.932-0.005
		c0.896-0.012,1.514,0.273,1.795,1.151C63.352,43.37,63.35,46.244,63.348,49.118z M57.633,40.28c0-0.005,0-0.01,0-0.015
		c-1.332,0-2.662,0.012-3.992-0.005c-0.49-0.006-0.717,0.13-0.711,0.683c0.025,2.575,0.025,5.151,0.006,7.726
		c-0.004,0.503,0.17,0.668,0.658,0.665c2.703-0.013,5.406-0.013,8.109,0.002c0.498,0.002,0.65-0.18,0.646-0.675
		c-0.021-2.577-0.021-5.154,0-7.731c0.004-0.509-0.184-0.662-0.662-0.656C60.336,40.291,58.984,40.28,57.633,40.28z"/>
	<path fill-rule="evenodd" clip-rule="evenodd" fill="#180D0D" d="M40.507,50.281c-0.966-0.368-1.163-0.65-1.164-1.687
		c-0.001-2.527,0.02-5.054-0.012-7.58c-0.01-0.822,0.293-1.365,1.048-1.664c1.564-0.002,3.128-0.003,4.693-0.005
		c1.303,0.004,2.607,0.034,3.91,0.001c0.813-0.021,1.377,0.266,1.682,1.027c-0.004,0.316-0.008,0.634-0.01,0.95
		c-0.01,2.681-0.02,5.363-0.028,8.045c-0.201,0.444-0.571,0.702-0.995,0.9C46.59,50.273,43.549,50.277,40.507,50.281z
		 M45.046,40.273c0-0.002,0-0.004,0-0.008c-1.354,0-2.707,0.012-4.06-0.005c-0.532-0.006-0.755,0.182-0.75,0.743
		c0.022,2.537,0.025,5.074,0.003,7.611c-0.004,0.569,0.225,0.734,0.752,0.731c2.685-0.013,5.37-0.013,8.055,0.001
		c0.512,0.002,0.717-0.182,0.713-0.707c-0.017-2.559-0.017-5.117,0-7.675c0.004-0.53-0.209-0.706-0.719-0.698
		C47.71,40.287,46.377,40.273,45.046,40.273z"/>
	<path fill-rule="evenodd" clip-rule="evenodd" fill="#180D0D" d="M28.191,50.272c-0.8-0.306-1.058-0.892-1.046-1.733
		c0.037-2.554,0.012-5.109,0.014-7.664c0.001-1.018,0.485-1.514,1.504-1.517c2.767-0.006,5.534,0.007,8.3-0.008
		c0.758-0.004,1.223,0.358,1.507,1.021c0.005,2.874,0.01,5.748,0.016,8.622c-0.075,0.648-0.478,1.028-1.045,1.272
		c-1.729,0.006-3.459,0.011-5.188,0.017c-0.3-0.065-0.599-0.067-0.898-0.002C30.3,50.277,29.246,50.274,28.191,50.272z
		 M32.775,40.272c0-0.003,0-0.005,0-0.007c-1.332,0-2.664,0.01-3.996-0.005c-0.49-0.005-0.733,0.145-0.729,0.69
		c0.02,2.577,0.021,5.155,0.005,7.732c-0.003,0.512,0.214,0.663,0.683,0.662c2.706-0.01,5.412-0.012,8.118,0.001
		c0.517,0.002,0.712-0.2,0.708-0.718c-0.015-2.536-0.017-5.073,0.001-7.61c0.004-0.542-0.177-0.764-0.733-0.754
		C35.48,40.288,34.127,40.272,32.775,40.272z"/>
	<path fill-rule="evenodd" clip-rule="evenodd" fill="#180D0D" d="M68.428,39.467c0.592,0.267,1.053,0.672,1.404,1.228
		c1.557,2.464,3.125,4.918,4.689,7.377c0.676,1.063,0.23,2.023-1.02,2.209c-2.615-0.008-5.232-0.015-7.85-0.021
		c-0.313,0-0.627,0.014-0.898-0.189c-0.393-0.337-0.553-0.756-0.549-1.283c0.016-2.644,0.021-5.287-0.002-7.932
		c-0.006-0.729,0.266-1.209,0.934-1.476C66.234,39.363,67.336,39.268,68.428,39.467z M65.127,44.787c0.002,0,0.004,0,0.006,0
		c0,1.289,0.025,2.578-0.014,3.864c-0.016,0.56,0.215,0.685,0.709,0.683c2.449-0.014,4.898-0.005,7.348-0.008
		c0.244-0.001,0.535,0.071,0.68-0.209c0.125-0.246-0.074-0.436-0.195-0.626c-1.283-2.021-2.559-4.045-3.855-6.057
		c-1.406-2.182-0.943-2.19-3.893-2.168c-0.043,0-0.086,0.003-0.127-0.001c-0.479-0.038-0.68,0.148-0.668,0.658
		C65.146,42.211,65.127,43.5,65.127,44.787z"/>
	<path fill-rule="evenodd" clip-rule="evenodd" fill="#180D0D" d="M68.275,52.936c0.422,0,0.844,0.002,1.266,0
		c0.324-0.002,0.543,0.13,0.535,0.476c-0.01,0.318-0.236,0.421-0.523,0.421c-0.865,0.001-1.73,0-2.596,0.002
		c-0.305,0.001-0.514-0.157-0.512-0.442c0.002-0.273,0.186-0.46,0.498-0.457C67.387,52.939,67.832,52.936,68.275,52.936z"/>
	<path fill-rule="evenodd" clip-rule="evenodd" fill="#180D0D" d="M55.148,53.836c-0.422,0-0.844-0.003-1.266,0.002
		c-0.293,0.003-0.523-0.115-0.537-0.413c-0.016-0.324,0.197-0.49,0.527-0.489c0.865,0,1.732,0.001,2.6-0.002
		c0.309,0,0.498,0.176,0.508,0.45c0.01,0.291-0.197,0.45-0.5,0.45C56.037,53.835,55.594,53.834,55.148,53.836z"/>
	<path fill-rule="evenodd" clip-rule="evenodd" fill="#EB7A7C" d="M40.507,50.281c3.042-0.004,6.083-0.008,9.124-0.012
		c-0.41,0.253-0.86,0.08-1.29,0.118c-0.293,0.026-0.594,0.033-0.886,0c-0.975-0.112-1.834,0.04-2.427,1.183
		c0.087-0.553,0.087-0.553,0.614-1.111c-0.274-0.121-0.543-0.062-0.8-0.063c-1.245-0.006-2.49,0-3.735-0.005
		C40.904,50.39,40.68,50.462,40.507,50.281z"/>
	<path fill-rule="evenodd" clip-rule="evenodd" fill="#EB7A7C" d="M50.626,49.369c0.009-2.682,0.019-5.364,0.028-8.045
		c0.002-0.316,0.006-0.634,0.01-0.95c0.184,0.172,0.111,0.396,0.112,0.6c0.007,1.142-0.003,2.283,0.008,3.425
		c0.002,0.253-0.115,0.559,0.254,0.703c0.143,0.056,0.141,0.235,0.018,0.309c-0.38,0.227-0.268,0.589-0.272,0.912
		c-0.012,0.824,0.001,1.648-0.008,2.473C50.775,48.993,50.863,49.228,50.626,49.369z"/>
	<path fill-rule="evenodd" clip-rule="evenodd" fill="#EB7A7C" d="M52.074,40.117c-0.109,2.007-0.035,4.016-0.039,6.022
		c-0.002,1.119-0.078,2.24,0.045,3.357c-0.166-0.081-0.154-0.234-0.154-0.382c0-2.87,0-5.74,0.002-8.61
		C51.928,40.357,51.916,40.204,52.074,40.117z"/>
	<path fill-rule="evenodd" clip-rule="evenodd" fill="#EB7A7C" d="M52.949,50.253c3.039,0.01,6.08,0.02,9.121,0.029
		c-0.152,0.166-0.354,0.109-0.535,0.109c-2.668,0.002-5.338,0.004-8.006-0.002C53.33,50.39,53.102,50.471,52.949,50.253z"/>
	<path fill-rule="evenodd" clip-rule="evenodd" fill="#EB7A7C" d="M64.754,50.07c0.271,0.203,0.586,0.189,0.898,0.189
		c2.617,0.006,5.234,0.013,7.85,0.021c0.004,0.037,0.004,0.075,0.002,0.112c-2.713,0.001-5.426,0.003-8.137-0.004
		C65.127,50.387,64.777,50.522,64.754,50.07z"/>
	<path fill-rule="evenodd" clip-rule="evenodd" fill="#EB7A7C" d="M38.486,48.993c-0.005-2.874-0.011-5.748-0.016-8.622
		c0.159,0.126,0.121,0.305,0.121,0.469c0.001,2.559,0.001,5.117,0,7.676C38.591,48.681,38.629,48.858,38.486,48.993z"/>
	<path fill-rule="evenodd" clip-rule="evenodd" fill="#EB7A7C" d="M63.348,49.118c0.002-2.874,0.004-5.748,0.004-8.622
		c0.176,0.146,0.121,0.347,0.121,0.529c0.002,2.522,0.002,5.045,0,7.567C63.473,48.773,63.531,48.977,63.348,49.118z"/>
	<path fill-rule="evenodd" clip-rule="evenodd" fill="#EB7A7C" d="M32.253,50.282c1.729-0.006,3.459-0.011,5.188-0.017
		c-0.067,0.095-0.164,0.126-0.274,0.126c-1.564,0-3.129,0-4.693-0.008C32.4,50.384,32.326,50.317,32.253,50.282z"/>
	<path fill-rule="evenodd" clip-rule="evenodd" fill="#EB7A7C" d="M45.073,39.346c-1.564,0.002-3.129,0.003-4.693,0.005
		c0.184-0.211,0.43-0.115,0.648-0.121c1.25-0.041,2.503,0.064,3.752-0.059C44.937,39.155,45.01,39.229,45.073,39.346z"/>
	<path fill-rule="evenodd" clip-rule="evenodd" fill="#EB7A7C" d="M68.428,39.467c-1.092-0.199-2.193-0.104-3.291-0.087
		c0.188-0.268,0.465-0.133,0.703-0.15c0.775-0.054,1.563,0.104,2.328-0.129C68.332,39.169,68.426,39.285,68.428,39.467z"/>
	<path fill-rule="evenodd" clip-rule="evenodd" fill="#EB7A7C" d="M28.191,50.272c1.054,0.002,2.109,0.005,3.163,0.008
		C30.3,50.457,29.245,50.478,28.191,50.272z"/>
	<path fill-rule="evenodd" clip-rule="evenodd" fill="#EB7A7C" d="M44.728,51.697c-0.032,0.04-0.07,0.117-0.131,0.155
		c-0.055,0.034-0.128-0.021-0.109-0.085c0.021-0.068,0.076-0.14,0.135-0.181C44.674,51.551,44.732,51.584,44.728,51.697z"/>
	<path fill-rule="evenodd" clip-rule="evenodd" fill="#EB7A7C" d="M43.895,52.43c-0.012,0.016-0.024,0.03-0.036,0.045
		c-0.009-0.017-0.027-0.034-0.025-0.051c0.001-0.016,0.022-0.03,0.034-0.045C43.876,52.396,43.885,52.413,43.895,52.43z"/>
	<path fill-rule="evenodd" clip-rule="evenodd" fill="#EB7A7C" d="M36.218,38.031c-0.015,0.007-0.03,0.013-0.045,0.019
		c-0.005-0.022-0.009-0.046-0.014-0.068c0.017,0.003,0.036,0.001,0.049,0.011C36.217,37.998,36.215,38.019,36.218,38.031z"/>
	<path fill-rule="evenodd" clip-rule="evenodd" fill="#EB7A7C" d="M35.672,37.701c-0.017-0.019-0.033-0.037-0.05-0.055
		c0.012,0.003,0.026,0.003,0.033,0.009c0.01,0.013,0.014,0.029,0.02,0.043L35.672,37.701z"/>
	<path fill-rule="evenodd" clip-rule="evenodd" fill="#EB7A7C" d="M35.675,37.698c0.018,0.019,0.035,0.035,0.052,0.053
		c-0.011-0.002-0.026-0.002-0.033-0.009c-0.01-0.011-0.015-0.027-0.022-0.041L35.675,37.698z"/>
	<path fill-rule="evenodd" clip-rule="evenodd" fill="#180D0D" d="M75.525,55.205c0.002,0.973,0.002,1.946,0.002,2.919
		c-0.002,0.34-0.051,0.67-0.484,0.673c-0.43,0.001-0.502-0.342-0.502-0.669c-0.008-1.967,0-3.935,0.002-5.901
		c0.002-0.359,0.141-0.663,0.531-0.647c0.354,0.015,0.457,0.306,0.455,0.644C75.521,53.217,75.525,54.211,75.525,55.205z"/>
	<path fill-rule="evenodd" clip-rule="evenodd" fill="#F06B6C" d="M44.437,62.707c0.017,0.019,0.034,0.037,0.05,0.055
		c-0.019-0.017-0.037-0.032-0.056-0.049L44.437,62.707z"/>
	<path fill-rule="evenodd" clip-rule="evenodd" fill="#CEEAF7" d="M73.537,58.614c-0.111-2.737-0.033-5.481-0.033-8.222
		c-2.713,0.001-5.426,0.003-8.137-0.004c-0.24-0.002-0.59,0.134-0.613-0.318c-0.393-0.337-0.553-0.756-0.549-1.283
		c0.016-2.644,0.021-5.287-0.002-7.932c-0.006-0.729,0.266-1.209,0.934-1.476c0.188-0.268,0.465-0.133,0.703-0.15
		c0.775-0.054,1.563,0.104,2.328-0.129c-0.209-0.74-0.783-1.264-1.139-1.918c-1.787-0.01-3.576-0.024-5.363-0.026
		c-8.188-0.009-16.375-0.013-24.564-0.019c-0.07,0.099-0.126,0.213-0.213,0.293c-0.108,0.098-0.205,0.326-0.384,0.187
		c-0.167-0.128,0.014-0.292,0.056-0.438c-0.382-0.053-0.764-0.055-1.146,0.006c0.01,0.07,0.038,0.198,0.028,0.202
		c-0.182,0.054-0.217-0.101-0.279-0.215c-2.343-0.002-4.686-0.042-7.027,0.005c-1.544,0.029-2.857,1.197-3.134,2.729
		c-0.226,1.251-0.094,2.521-0.08,3.785c0.139,1.422,0.139,2.844,0,4.266c-0.003,0.104-0.007,0.21-0.011,0.314l0.04,0.03
		c0,0-0.042,0.028-0.042,0.027c0.003,0.103,0.007,0.205,0.01,0.308c0.012,0.021,0.025,0.043,0.034,0.065
		c0.001,0.004-0.021,0.017-0.033,0.024c0,0.098,0.001,0.195,0.001,0.294c0.153,0.209,0.081,0.45,0.082,0.675
		c0.004,3.905,0.013,7.811-0.008,11.716c-0.003,0.523,0.158,0.63,0.669,0.69c1.306,0.152,2.61,0.054,3.914,0.107
		c0.079-0.097,0.167-0.188,0.236-0.291c1.591-2.422,3.819-3.671,6.732-3.664c0-0.079,0.024-0.172,0.017-0.245
		c0.007,0.073-0.016,0.166-0.017,0.245c0.092-0.007,0.184-0.015,0.275-0.021c1.002,0.047,1.946,0.337,2.878,0.682
		c0.253,0.263,0.598,0.369,0.911,0.528c1.2,0.761,2.094,1.806,2.797,3.026c0.43-0.293,0.686,0.146,1.023,0.244l0.005-0.006
		c0.29-0.508,0.847-0.334,1.223-0.339c1.547-0.021,3.102-0.171,4.645,0.074c0.243,0.038,0.487-0.185,0.725,0.014
		c0.01-0.253,0.031-0.506,0.031-0.758c0.004-3.104,0.004-6.208,0.002-9.313c0-0.378,0.021-0.804,0.49-0.804
		c0.463-0.001,0.496,0.415,0.49,0.799c-0.01,0.803-0.004,1.605-0.002,2.408c0.008,2.554,0.018,5.108,0.025,7.663
		c0.463-0.23,0.957-0.103,1.436-0.115c0.803-0.021,1.605-0.01,2.41-0.003c0.221,0.002,0.479-0.071,0.619,0.197
		c0.504-0.775,0.996-1.56,1.699-2.186c1.078-0.96,2.303-1.632,3.715-1.951c0.168,0.01,0.338,0.021,0.506,0.029
		c0.502-0.142,1.016-0.186,1.537-0.173c0.061-0.038,0.119-0.076,0.182-0.115c0.063-0.167,0.051-0.335-0.002-0.502
		c0.105-0.341,0.117-0.683,0.002-1.024c-0.348-0.065-0.523-0.286-0.568-0.628c0.002,0,0.002,0,0.002,0V55.98
		c0.322-0.074,0.398,0.229,0.578,0.375c0.104-0.505,0.012-1.013,0.02-1.52c-0.002-0.976-0.004-1.951-0.008-2.926
		c-0.006-0.028-0.016-0.056-0.016-0.085c0-0.008,0.025-0.016,0.041-0.024c0.195-0.167,0.387-0.316,0.666-0.149
		c0.242,0.144,0.24,0.363,0.242,0.596c0.002,0.521,0.01,1.043,0.018,1.564c-0.07,0.387-0.064,0.774,0.004,1.16
		c-0.006,1.043-0.012,2.086-0.025,3.13c-0.004,0.253,0.098,0.367,0.348,0.434c2.389,0.631,4.07,2.113,5.15,4.312
		C72.246,62.303,73.607,60.359,73.537,58.614z M36.208,37.992c0.008,0.006,0.007,0.026,0.01,0.039
		c-0.015,0.007-0.03,0.013-0.045,0.019c-0.005-0.022-0.009-0.046-0.014-0.068C36.176,37.984,36.196,37.982,36.208,37.992z
		 M35.655,37.655c0.01,0.013,0.014,0.029,0.02,0.043c0.018,0.019,0.035,0.035,0.052,0.053c-0.011-0.002-0.026-0.002-0.033-0.009
		c-0.01-0.011-0.015-0.027-0.022-0.041c-0.017-0.019-0.033-0.037-0.05-0.055C35.634,37.649,35.648,37.649,35.655,37.655z
		 M32.253,50.282c-0.3-0.065-0.599-0.067-0.898-0.002c-1.055,0.177-2.109,0.197-3.163-0.008c-0.8-0.306-1.058-0.892-1.046-1.733
		c0.037-2.554,0.012-5.109,0.014-7.664c0.001-1.018,0.485-1.514,1.504-1.517c2.767-0.006,5.534,0.007,8.3-0.008
		c0.758-0.004,1.223,0.358,1.507,1.021c0.159,0.126,0.121,0.305,0.121,0.469c0.001,2.559,0.001,5.117,0,7.676
		c0,0.165,0.038,0.343-0.105,0.478c-0.075,0.648-0.478,1.028-1.045,1.272c-0.067,0.095-0.164,0.126-0.274,0.126
		c-1.564,0-3.129,0-4.693-0.008C32.4,50.384,32.326,50.317,32.253,50.282z M43.858,52.475c-0.009-0.017-0.027-0.034-0.025-0.051
		c0.001-0.016,0.022-0.03,0.034-0.045c0.009,0.018,0.018,0.034,0.027,0.051C43.882,52.445,43.871,52.46,43.858,52.475z
		 M44.596,51.853c-0.055,0.034-0.128-0.021-0.109-0.085c0.021-0.068,0.076-0.14,0.135-0.181c0.052-0.036,0.11-0.003,0.106,0.11
		C44.695,51.737,44.658,51.814,44.596,51.853z M51.057,45.41c-0.38,0.227-0.268,0.589-0.272,0.912
		c-0.012,0.824,0.001,1.648-0.008,2.473c-0.002,0.198,0.086,0.433-0.15,0.574c-0.201,0.444-0.571,0.702-0.995,0.9
		c-0.41,0.253-0.86,0.08-1.29,0.118c-0.293,0.026-0.594,0.033-0.886,0c-0.975-0.112-1.834,0.04-2.427,1.183
		c0.087-0.553,0.087-0.553,0.614-1.111c-0.274-0.121-0.543-0.062-0.8-0.063c-1.245-0.006-2.49,0-3.735-0.005
		c-0.203-0.001-0.427,0.071-0.6-0.109c-0.966-0.368-1.163-0.65-1.164-1.687c-0.001-2.527,0.02-5.054-0.012-7.58
		c-0.01-0.822,0.293-1.365,1.048-1.664c0.184-0.211,0.43-0.115,0.648-0.121c1.25-0.041,2.503,0.064,3.752-0.059
		c0.156-0.016,0.23,0.059,0.292,0.175c1.303,0.004,2.607,0.034,3.91,0.001c0.813-0.021,1.377,0.266,1.682,1.027
		c0.184,0.172,0.111,0.396,0.112,0.6c0.007,1.142-0.003,2.283,0.008,3.425c0.002,0.253-0.115,0.559,0.254,0.703
		C51.182,45.157,51.18,45.337,51.057,45.41z M63.529,55.67c0.002,0.025,0.006,0.053,0.01,0.08
		C63.535,55.723,63.531,55.695,63.529,55.67z M56.48,53.834c-0.443,0.001-0.887,0-1.332,0c-0.422,0.002-0.844-0.001-1.266,0.004
		c-0.293,0.003-0.523-0.115-0.537-0.413c-0.016-0.324,0.197-0.49,0.527-0.489c0.865,0,1.732,0.001,2.6-0.002
		c0.309,0,0.498,0.176,0.508,0.45C56.99,53.675,56.783,53.834,56.48,53.834z M53.529,50.39c-0.199,0-0.428,0.081-0.58-0.137
		c-0.332-0.204-0.676-0.394-0.869-0.756c-0.166-0.081-0.154-0.234-0.154-0.382c0-2.87,0-5.74,0.002-8.61
		c0-0.147-0.012-0.301,0.146-0.388c0.357-0.576,0.883-0.771,1.551-0.768c2.643,0.018,5.289,0.029,7.932-0.005
		c0.896-0.012,1.514,0.273,1.795,1.151c0.176,0.146,0.121,0.347,0.121,0.529c0.002,2.522,0.002,5.045,0,7.567
		c0,0.181,0.059,0.384-0.125,0.525c-0.211,0.624-0.596,1.057-1.277,1.164c-0.152,0.166-0.354,0.109-0.535,0.109
		C58.867,50.394,56.197,50.396,53.529,50.39z M62.363,56.756c0.279-0.472,0.59-0.866,1.232-0.775
		C62.953,55.89,62.643,56.284,62.363,56.756z M63.566,55.87c0.006,0.028,0.018,0.057,0.027,0.086
		C63.584,55.927,63.572,55.898,63.566,55.87z M63.541,55.767c0.006,0.026,0.012,0.055,0.02,0.083
		C63.553,55.821,63.547,55.793,63.541,55.767z M63.697,55.197c0.016-0.018,0.033-0.035,0.049-0.052
		C63.73,55.162,63.713,55.18,63.697,55.197z M63.529,55.658c0-0.027,0-0.054,0.002-0.079C63.529,55.604,63.529,55.631,63.529,55.658
		z M63.531,55.577c0.002-0.028,0.006-0.056,0.012-0.083C63.537,55.521,63.533,55.549,63.531,55.577z M63.543,55.492
		c0.025-0.108,0.076-0.201,0.146-0.285C63.619,55.291,63.568,55.384,63.543,55.492z M63.756,55.138
		c0.018-0.017,0.035-0.034,0.055-0.05C63.791,55.104,63.773,55.121,63.756,55.138z M63.832,55.069
		c0.016-0.012,0.031-0.024,0.049-0.036C63.863,55.045,63.848,55.058,63.832,55.069z M64.107,54.888
		c0.002-0.001,0.006-0.003,0.008-0.005C64.113,54.885,64.109,54.887,64.107,54.888z M69.553,53.832c-0.865,0.001-1.73,0-2.596,0.002
		c-0.305,0.001-0.514-0.157-0.512-0.442c0.002-0.273,0.186-0.46,0.498-0.457c0.443,0.005,0.889,0.001,1.332,0.001
		c0.422,0,0.844,0.002,1.266,0c0.324-0.002,0.543,0.13,0.535,0.476C70.066,53.729,69.84,53.832,69.553,53.832z"/>
	<path fill-rule="evenodd" clip-rule="evenodd" fill="#180D0D" d="M36.442,63.593c1.565,0.002,2.685,1.138,2.675,2.715
		c-0.01,1.494-1.152,2.59-2.633,2.649c-1.479,0.061-2.782-1.124-2.791-2.703C33.683,64.739,34.883,63.592,36.442,63.593z
		 M36.425,64.488c-1.034-0.004-1.788,0.752-1.785,1.786c0.003,1.01,0.74,1.759,1.739,1.767c1.018,0.009,1.825-0.762,1.834-1.752
		C38.223,65.285,37.436,64.492,36.425,64.488z"/>
	<path fill-rule="evenodd" clip-rule="evenodd" fill="#180D0D" d="M63.492,68.943c-1.537-0.006-2.682-1.182-2.688-2.729
		c-0.004-1.3,1.17-2.696,2.783-2.648c1.195,0.035,2.66,0.929,2.652,2.714C66.232,68.024,64.789,69.059,63.492,68.943z
		 M63.471,68.041c1.066,0.011,1.855-0.754,1.844-1.788c-0.012-0.996-0.76-1.752-1.746-1.765c-1.035-0.013-1.873,0.795-1.863,1.793
		C61.717,67.232,62.518,68.031,63.471,68.041z"/>
	<path fill-rule="evenodd" clip-rule="evenodd" fill="#FDFDFD" d="M57.633,40.28c1.352,0,2.703,0.011,4.055-0.007
		c0.479-0.006,0.666,0.147,0.662,0.656c-0.021,2.577-0.021,5.154,0,7.731c0.004,0.495-0.148,0.677-0.646,0.675
		c-2.703-0.015-5.406-0.015-8.109-0.002c-0.488,0.003-0.662-0.162-0.658-0.665c0.02-2.574,0.02-5.15-0.006-7.726
		c-0.006-0.553,0.221-0.688,0.711-0.683c1.33,0.017,2.66,0.005,3.992,0.005C57.633,40.271,57.633,40.275,57.633,40.28z"/>
	<path fill-rule="evenodd" clip-rule="evenodd" fill="#FDFDFD" d="M45.046,40.273c1.332,0,2.664,0.014,3.995-0.006
		c0.51-0.008,0.723,0.168,0.719,0.698c-0.017,2.558-0.017,5.116,0,7.675c0.003,0.525-0.202,0.709-0.713,0.707
		c-2.685-0.014-5.37-0.014-8.055-0.001c-0.527,0.003-0.756-0.162-0.752-0.731c0.021-2.537,0.019-5.074-0.003-7.611
		c-0.005-0.562,0.219-0.749,0.75-0.743c1.353,0.017,2.706,0.005,4.06,0.005C45.046,40.27,45.046,40.271,45.046,40.273z"/>
	<path fill-rule="evenodd" clip-rule="evenodd" fill="#FDFDFD" d="M32.775,40.272c1.353,0,2.706,0.016,4.058-0.008
		c0.556-0.01,0.737,0.212,0.733,0.754c-0.018,2.537-0.016,5.074-0.001,7.61c0.003,0.518-0.191,0.72-0.708,0.718
		c-2.706-0.013-5.412-0.011-8.118-0.001c-0.468,0.001-0.686-0.15-0.683-0.662c0.016-2.577,0.015-5.155-0.005-7.732
		c-0.004-0.546,0.238-0.695,0.729-0.69c1.332,0.015,2.664,0.005,3.996,0.005C32.775,40.268,32.775,40.27,32.775,40.272z"/>
	<path fill-rule="evenodd" clip-rule="evenodd" fill="#FDFDFD" d="M65.127,44.787c0-1.287,0.02-2.576-0.01-3.863
		c-0.012-0.51,0.189-0.696,0.668-0.658c0.041,0.004,0.084,0.001,0.127,0.001c2.949-0.022,2.486-0.014,3.893,2.168
		c1.297,2.012,2.572,4.036,3.855,6.057c0.121,0.19,0.32,0.38,0.195,0.626c-0.145,0.28-0.436,0.208-0.68,0.209
		c-2.449,0.003-4.898-0.006-7.348,0.008c-0.494,0.002-0.725-0.123-0.709-0.683c0.039-1.286,0.014-2.575,0.014-3.864
		C65.131,44.787,65.129,44.787,65.127,44.787z"/>
	<path fill-rule="evenodd" clip-rule="evenodd" fill="#FDFDFD" d="M36.425,64.488c1.011,0.004,1.798,0.797,1.789,1.801
		c-0.01,0.99-0.817,1.761-1.834,1.752c-0.999-0.008-1.736-0.757-1.739-1.767C34.637,65.24,35.391,64.484,36.425,64.488z"/>
	<path fill-rule="evenodd" clip-rule="evenodd" fill="#FDFDFD" d="M63.471,68.041c-0.953-0.01-1.754-0.809-1.766-1.76
		c-0.01-0.998,0.828-1.806,1.863-1.793c0.986,0.013,1.734,0.769,1.746,1.765C65.326,67.287,64.537,68.052,63.471,68.041z"/>
</g>
<path fill-rule="evenodd" clip-rule="evenodd" fill="#D4EEF9" d="M72.083,35.834c-2.62,0-5.238,0-7.857-0.001
	c-0.797,0-1.594-0.024-2.39-0.006c-1.87,0.046-3.231-0.864-4.31-2.286c-1.04-1.37-1.15-2.944-0.815-4.551
	c0.229-1.095,0.769-2.101,1.657-2.781c0.968-0.742,2.017-1.394,3.349-1.342c0.913,0.036,1.818,0.027,2.653,0.475
	c0.246,0.131,0.434,0.035,0.584-0.192c0.574-0.863,1.927-1.415,2.967-1.184c0.372,0.084,0.445-0.04,0.474-0.378
	c0.086-1.007,0.523-1.85,1.128-2.666c0.656-0.885,1.529-1.429,2.479-1.838c0.992-0.427,2.063-0.466,3.139-0.25
	c1.451,0.291,2.661,1.001,3.57,2.153c0.652,0.829,1.019,1.825,1.115,2.874c0.042,0.448,0.261,0.525,0.581,0.573
	c1.611,0.243,2.853,1.087,3.756,2.406c1.202,1.759,1.323,3.659,0.503,5.606c-0.669,1.588-1.844,2.636-3.512,3.146
	c-0.477,0.146-0.946,0.225-1.431,0.227c-2.547,0.009-5.093,0.004-7.641,0.004C72.083,35.826,72.083,35.83,72.083,35.834z"/>
<path fill-rule="evenodd" clip-rule="evenodd" fill="#D4EEF9" d="M19.71,29.742c-2.286,0-4.571,0.006-6.856-0.003
	c-0.489-0.002-1.014,0.048-1.457-0.11c-0.814-0.292-1.581-0.694-2.175-1.384c-0.891-1.036-1.172-2.238-1.007-3.541
	c0.162-1.284,0.72-2.339,1.864-3.09c1.452-0.954,2.925-0.927,4.465-0.34c0.136,0.052,0.204,0.019,0.288-0.088
	c0.634-0.81,1.472-1.156,2.49-1.078c0.223,0.016,0.328-0.044,0.36-0.299c0.101-0.781,0.371-1.552,0.914-2.085
	c0.694-0.681,1.369-1.427,2.436-1.646c0.867-0.178,1.688-0.21,2.54,0.012c1.057,0.277,1.85,0.911,2.515,1.745
	c0.458,0.576,0.707,1.239,0.79,1.962c0.05,0.444,0.271,0.669,0.711,0.751c0.962,0.18,1.782,0.643,2.439,1.37
	c0.566,0.626,0.977,1.336,1.108,2.19c0.394,2.559-0.534,3.901-2.417,5.146c-0.538,0.357-1.232,0.477-1.891,0.484
	C24.454,29.755,22.082,29.743,19.71,29.742z"/>
<path fill-rule="evenodd" clip-rule="evenodd" fill="#D4EEF9" d="M34.763,16.888c-1.345,0-2.691,0-4.036,0.001
	c-1.061,0-1.882-0.474-2.493-1.309c-0.516-0.706-0.355-2.148,0.206-2.962c0.506-0.736,1.244-0.993,2.041-1.164
	c0.362-0.077,0.693,0.14,1.024,0.255c0.312,0.107,0.55,0.034,0.732-0.195c0.27-0.338,0.609-0.479,1.024-0.439
	c0.27,0.027,0.38-0.077,0.434-0.34c0.245-1.217,1.075-1.902,2.215-2.149c1.217-0.262,2.198,0.267,2.934,1.229
	c0.253,0.332,0.338,0.76,0.431,1.167c0.034,0.153,0.073,0.295,0.24,0.319c0.392,0.057,0.746,0.247,1.061,0.438
	c0.644,0.39,1.127,0.993,1.216,1.75c0.162,1.371-0.161,2.368-1.48,3.126c-0.433,0.247-0.914,0.261-1.381,0.267
	c-1.389,0.022-2.777,0.008-4.167,0.008C34.763,16.889,34.763,16.889,34.763,16.888z"/>
<path fill-rule="evenodd" clip-rule="evenodd" fill="#ED795A" d="M20.075,61.441c1.003,0,1.83,0.818,1.823,1.813
	c-0.007,1.043-0.806,1.838-1.845,1.836c-1.017-0.004-1.805-0.797-1.804-1.814C18.25,62.232,19.034,61.443,20.075,61.441z
	 M21.149,63.254c-0.004-0.617-0.489-1.094-1.1-1.086c-0.61,0.008-1.095,0.508-1.082,1.111c0.014,0.613,0.496,1.084,1.112,1.09
	C20.677,64.373,21.153,63.875,21.149,63.254z"/>
<path fill-rule="evenodd" clip-rule="evenodd" fill="#31B8C6" d="M4.475,43.084c-0.007-1.035,0.738-1.805,1.748-1.806
	c1.017-0.001,1.787,0.737,1.794,1.721C8.024,44,7.273,44.775,6.289,44.785C5.258,44.795,4.483,44.068,4.475,43.084z M6.235,41.979
	c-0.572,0.002-1.066,0.484-1.062,1.037c0.005,0.582,0.505,1.077,1.079,1.068c0.582-0.007,1.066-0.484,1.06-1.039
	C7.304,42.453,6.823,41.975,6.235,41.979z"/>
<path fill-rule="evenodd" clip-rule="evenodd" fill="#365887" d="M15.21,54.324c-0.843-0.018-1.545-0.732-1.518-1.582
	c0.03-0.938,0.665-1.582,1.582-1.604c0.911-0.02,1.65,0.758,1.597,1.674C16.822,53.656,16.153,54.393,15.21,54.324z M16.28,52.738
	c-0.002-0.563-0.42-0.979-0.987-0.98c-0.56-0.002-1.01,0.426-1.017,0.965c-0.008,0.557,0.457,1.018,1.021,1.012
	C15.842,53.729,16.282,53.283,16.28,52.738z"/>
<path fill-rule="evenodd" clip-rule="evenodd" fill="#365887" d="M6.645,63.385c0.197-0.01,0.308,0.078,0.357,0.227
	c0.054,0.162,0.109,0.326,0.119,0.494c0.023,0.377,0.23,0.535,0.583,0.563c0.143,0.012,0.289,0.023,0.425,0.064
	c0.163,0.051,0.257,0.172,0.254,0.359c-0.003,0.176-0.134,0.26-0.26,0.313c-0.129,0.055-0.28,0.064-0.422,0.074
	c-0.409,0.033-0.593,0.25-0.578,0.654c0.003,0.098,0.01,0.191-0.043,0.291c-0.097,0.186-0.207,0.381-0.426,0.375
	c-0.228-0.004-0.233-0.252-0.299-0.416c-0.027-0.066-0.024-0.141-0.034-0.213c-0.069-0.563-0.146-0.631-0.721-0.719
	c-0.198-0.029-0.447,0.043-0.538-0.248c-0.079-0.252-0.044-0.428,0.239-0.486c0.112-0.021,0.229-0.037,0.343-0.037
	c0.443,0.002,0.65-0.205,0.682-0.654C6.342,63.783,6.277,63.441,6.645,63.385z"/>
<path fill-rule="evenodd" clip-rule="evenodd" fill="#31B8C6" d="M60.294,6.906c-0.027,0.222-0.15,0.357-0.367,0.359
	c-0.592,0.004-0.91,0.267-0.92,0.884c-0.003,0.211-0.114,0.403-0.37,0.4c-0.274-0.002-0.394-0.221-0.386-0.438
	c0.023-0.608-0.29-0.825-0.842-0.837c-0.228-0.005-0.401-0.128-0.408-0.366c-0.009-0.245,0.168-0.362,0.394-0.374
	c0.552-0.034,0.895-0.236,0.854-0.871c-0.014-0.222,0.152-0.417,0.42-0.403c0.244,0.015,0.323,0.189,0.354,0.417
	c0.099,0.71,0.102,0.719,0.824,0.86C60.08,6.584,60.272,6.629,60.294,6.906z"/>
<path fill-rule="evenodd" clip-rule="evenodd" fill="#31B8C6" d="M91.573,40.07c0.786,0,1.367,0.558,1.368,1.314
	c0.001,0.754-0.596,1.375-1.324,1.378c-0.788,0.003-1.397-0.587-1.396-1.351C90.223,40.656,90.813,40.071,91.573,40.07z
	 M92.372,41.416c-0.006-0.471-0.328-0.813-0.772-0.817c-0.46-0.005-0.822,0.36-0.819,0.823c0.005,0.461,0.324,0.766,0.81,0.768
	C92.085,42.192,92.377,41.902,92.372,41.416z"/>
<path fill-rule="evenodd" clip-rule="evenodd" fill="#31B8C6" d="M96.771,28.997c-0.006,0.278-0.197,0.331-0.417,0.303
	c-0.384-0.047-0.521,0.139-0.531,0.493c-0.006,0.209-0.056,0.436-0.315,0.434c-0.279-0.003-0.335-0.226-0.344-0.462
	c-0.01-0.318-0.112-0.534-0.496-0.476c-0.088,0.012-0.187-0.07-0.283-0.076c-0.206-0.012-0.276-0.129-0.272-0.312
	c0.004-0.181,0.142-0.266,0.281-0.267c0.495-0.003,0.792-0.188,0.81-0.726c0.006-0.16,0.126-0.311,0.311-0.308
	c0.206,0.004,0.31,0.163,0.307,0.35c-0.003,0.453,0.213,0.66,0.657,0.669C96.713,28.624,96.809,28.762,96.771,28.997z"/>
<path fill-rule="evenodd" clip-rule="evenodd" fill="#31B8C6" d="M72.368,4.656c-0.052,0.203-0.203,0.301-0.382,0.302
	c-0.394,0.004-0.585,0.174-0.58,0.574c0.004,0.188-0.091,0.357-0.291,0.372c-0.241,0.017-0.307-0.173-0.32-0.375
	c-0.024-0.4-0.203-0.615-0.632-0.554c-0.214,0.03-0.325-0.093-0.364-0.281c-0.045-0.226,0.116-0.352,0.291-0.345
	c0.528,0.022,0.702-0.257,0.729-0.729c0.009-0.151,0.142-0.25,0.306-0.256c0.175-0.008,0.238,0.154,0.238,0.259
	c0.007,0.497,0.262,0.721,0.732,0.757C72.264,4.392,72.349,4.498,72.368,4.656z"/>
<path fill-rule="evenodd" clip-rule="evenodd" fill="#D4EEF9" d="M60.997,39.037c-0.089-0.228-0.18-0.457-0.27-0.686
	c0.203,0.047,0.536,0.494,0.462,0.639C61.171,39.029,61.064,39.023,60.997,39.037z"/>
<path fill-rule="evenodd" clip-rule="evenodd" fill="#D4EEF9" d="M52.499,17.411c0.179-0.196,0.382-0.362,0.608-0.5
	C53.182,17.413,52.883,17.463,52.499,17.411z"/>
<path fill-rule="evenodd" clip-rule="evenodd" fill="#D4EEF9" d="M25.49,52.492c0.093,0.254,0.077,0.52,0.069,0.785
	C25.415,53.025,25.5,52.754,25.49,52.492z"/>
<path fill-rule="evenodd" clip-rule="evenodd" fill="#D4EEF9" d="M53.227,16.814c0.021-0.063,0.066-0.097,0.133-0.104
	C53.34,16.778,53.291,16.804,53.227,16.814z"/>
<path fill-rule="evenodd" clip-rule="evenodd" fill="#D4EEF9" d="M52.4,17.494c0.03-0.025,0.063-0.053,0.093-0.079
	C52.463,17.441,52.431,17.469,52.4,17.494z"/>
<path fill-rule="evenodd" clip-rule="evenodd" fill="#D4EEF9" d="M53.131,16.889c0.018-0.016,0.036-0.032,0.055-0.05
	C53.176,16.866,53.156,16.881,53.131,16.889z"/>
</svg>
