<?xml version="1.0" encoding="utf-8"?>
<!-- Generator: Adobe Illustrator 16.0.0, SVG Export Plug-In . SVG Version: 6.00 Build 0)  -->
<!DOCTYPE svg PUBLIC "-//W3C//DTD SVG 1.1//EN" "http://www.w3.org/Graphics/SVG/1.1/DTD/svg11.dtd">
<svg version="1.1" id="Layer_1" xmlns="http://www.w3.org/2000/svg" xmlns:xlink="http://www.w3.org/1999/xlink" x="0px" y="0px"
	 width="100px" height="100px" viewBox="0 0 100 100" enable-background="new 0 0 100 100" xml:space="preserve">
<g>
	<path fill-rule="evenodd" clip-rule="evenodd" fill="#0D0D0B" d="M18.205,68.859c0.103-0.76,0.644-0.791,1.25-0.791
		c5.95,0.009,11.901-0.014,17.85,0.029c0.852,0.004,1.032-0.234,1.022-1.046c-0.033-2.903-0.341-2.513,2.541-2.54
		c0.219-0.002,0.438,0,0.658,0c2.375,0,2.381,0.003,3.316-2.233c0.874-2.092,1.476-4.238,1.393-6.537
		c-0.025-0.7-0.262-1.07-0.971-1.355c-5.59-2.248-8.96-6.362-10.092-12.282c-0.083-0.433-0.248-0.635-0.619-0.814
		c-3.833-1.84-5.805-4.869-5.802-9.147c0.003-3.194-0.002-6.389,0.002-9.583c0.001-1.146,0.364-1.534,1.498-1.552
		c1.346-0.021,2.694-0.029,4.04,0.007c0.535,0.015,0.708-0.142,0.681-0.679c-0.043-0.843-0.015-1.69-0.011-2.536
		c0.006-1.194,0.373-1.567,1.555-1.568c4.822-0.003,9.646-0.001,14.468-0.001c4.76,0,9.521,0,14.28,0
		c1.305,0.001,1.634,0.354,1.665,1.656c0.026,1.025-0.441,2.395,0.186,2.973c0.548,0.504,1.904,0.132,2.903,0.143
		c0.625,0.007,1.255-0.031,1.878,0.017c0.799,0.061,1.24,0.489,1.237,1.34c-0.01,3.602,0.139,7.211-0.049,10.803
		c-0.196,3.738-2.236,6.407-5.583,8.046c-0.501,0.246-0.698,0.502-0.813,1.067c-1.18,5.784-4.505,9.851-9.975,12.075
		c-0.841,0.342-1.048,0.785-1.072,1.57c-0.092,2.972,0.938,5.622,2.24,8.211c0.21,0.417,0.511,0.381,0.85,0.381
		c1.253,0,2.506,0.031,3.758-0.011c0.825-0.026,1.112,0.318,1.095,1.117c-0.017,0.773-0.34,1.783,0.122,2.27
		c0.511,0.535,1.54,0.176,2.341,0.179c8.329,0.013,16.66,0.009,24.99,0.009c0.219,0,0.439,0.007,0.658-0.003
		c0.542-0.02,0.963,0.175,0.954,0.766c-0.01,0.528-0.425,0.72-0.909,0.744c-0.374,0.021-0.748,0.031-1.123,0.047
		c-0.062-0.014-0.121-0.038-0.184-0.038c-8.733-0.002-17.468,0.005-26.201-0.02c-0.67-0.003-0.667,0.312-0.665,0.8
		c0.011,3.661,0.034,7.324-0.016,10.987c-0.012,0.832,0.195,1.06,1.031,1.032c2.001-0.066,4.006-0.013,6.01-0.026
		c0.539-0.005,0.98,0.156,0.993,0.731c0.014,0.622-0.434,0.843-1.021,0.807c-0.187-0.011-0.374,0-0.563,0
		c-6.293,0-12.585-0.002-18.877,0.002c-3.693,0.005-7.386,0.021-11.079,0.031c-2.453-0.011-4.906-0.028-7.358-0.028
		c-0.481,0-0.883-0.101-0.994-0.625c-0.109-0.519,0.173-0.813,0.655-0.947l0.078,0.021l0.074-0.031
		c0.892-0.003,1.784-0.003,2.675-0.003c0.751,0.016,1.505-0.011,2.25,0.059c0.708,0.066,0.899-0.172,0.892-0.879
		c-0.037-3.603-0.051-7.206,0.005-10.809c0.014-0.896-0.195-1.14-1.115-1.13c-5.889,0.046-11.778,0.021-17.667,0.026
		C18.95,69.591,18.396,69.571,18.205,68.859z M50.933,17.764c-4.448,0-8.897,0.029-13.345-0.025
		c-0.929-0.011-1.127,0.25-1.118,1.141c0.049,4.292,0.019,8.584,0.026,12.875c0.001,0.53-0.014,1.09-0.66,1.158
		c-0.775,0.082-0.886-0.483-0.884-1.116c0.011-2.819-0.01-5.639,0.017-8.458c0.006-0.563-0.124-0.774-0.723-0.747
		c-1.063,0.049-2.131,0.048-3.194,0c-0.617-0.028-0.792,0.165-0.786,0.783c0.031,2.913,0.012,5.827,0.015,8.74
		c0.004,3.752,1.938,6.607,5.443,7.958c0.583,0.224,0.833,0.556,0.917,1.148c0.812,5.752,4.013,9.634,9.347,11.796
		c1.659,0.673,1.666,0.66,1.772,2.479c0.168,2.894-0.613,5.569-1.824,8.145c-0.311,0.66-0.314,0.89,0.535,0.878
		c2.975-0.047,5.953-0.044,8.928-0.002c0.833,0.011,0.851-0.176,0.521-0.863c-1.263-2.626-2.021-5.372-1.789-8.334
		c0.132-1.674,0.138-1.672,1.668-2.27c5.193-2.025,8.372-5.782,9.361-11.27c0.188-1.04,0.542-1.52,1.501-1.935
		c2.673-1.159,4.43-3.206,4.775-6.146c0.415-3.519,0.078-7.07,0.166-10.606c0.011-0.458-0.237-0.496-0.59-0.493
		c-1.128,0.009-2.256,0.039-3.382-0.011c-0.604-0.027-0.726,0.189-0.719,0.748c0.028,2.412,0.012,4.824,0.012,7.237
		c0,0.501,0,1.002-0.002,1.504c-0.001,0.525-0.272,0.855-0.788,0.848c-0.463-0.007-0.73-0.313-0.741-0.798
		c-0.007-0.25-0.008-0.501-0.008-0.751c-0.002-4.229-0.019-8.458,0.016-12.687c0.005-0.735-0.185-0.951-0.935-0.945
		C59.954,17.781,55.444,17.764,50.933,17.764z M51.04,66.046c-3.412,0-6.824,0.018-10.236-0.014
		c-0.704-0.006-1.045,0.137-0.963,0.924c0.068,0.648,0.076,1.319-0.001,1.969c-0.107,0.904,0.275,1.081,1.104,1.069
		c3.693-0.04,7.387-0.011,11.081-0.024c0.564-0.002,1.073,0.109,1.087,0.74c0.013,0.693-0.519,0.799-1.12,0.796
		c-3.756-0.016-7.513,0.003-11.27-0.018c-0.611-0.004-0.891,0.109-0.883,0.812c0.036,3.034,0.033,6.071,0.001,9.107
		c-0.006,0.667,0.212,0.848,0.86,0.846c6.824-0.019,13.649-0.019,20.473,0c0.629,0.002,0.875-0.152,0.872-0.832
		c-0.024-4.852-0.025-9.703,0.001-14.557c0.003-0.678-0.229-0.836-0.864-0.829C57.802,66.062,54.421,66.046,51.04,66.046z"/>
	<path fill-rule="evenodd" clip-rule="evenodd" fill="#CEEAF7" d="M40.046,83.936c3.693-0.011,7.386-0.026,11.079-0.031
		c6.292-0.004,12.584-0.002,18.877-0.002c0.188,0,0.376-0.011,0.563,0c0.587,0.036,1.034-0.185,1.021-0.807
		c-0.013-0.575-0.454-0.736-0.993-0.731c-2.004,0.014-4.009-0.04-6.01,0.026c-0.836,0.027-1.043-0.2-1.031-1.032
		c0.05-3.663,0.026-7.326,0.016-10.987c-0.002-0.488-0.005-0.803,0.665-0.8c8.733,0.024,17.468,0.018,26.201,0.02
		c0.063,0,0.122,0.024,0.184,0.038c-0.213,4.129-1.868,7.708-4.196,11.029c-1.421,2.029-3.239,3.692-5.014,5.394
		c-0.162,0.154-0.324,0.294-0.563,0.306c-0.194-0.274-0.423-0.154-0.667-0.074c-1.269,0.427-2.563,0.763-3.854,1.113
		c-3.374,0.918-6.823,1.357-10.292,1.556c-3.957,0.226-7.915-0.06-11.811-0.771C49.349,87.291,44.582,85.98,40.046,83.936z"/>
	<path fill-rule="evenodd" clip-rule="evenodd" fill="#B8E3F9" d="M40.046,83.936c4.536,2.045,9.303,3.355,14.174,4.245
		c3.896,0.712,7.854,0.997,11.811,0.771c3.469-0.198,6.918-0.638,10.292-1.556c1.291-0.351,2.585-0.687,3.854-1.113
		c0.244-0.08,0.473-0.2,0.667,0.074c-1.653,1.547-3.581,2.695-5.547,3.774c-4.862,2.669-10.085,4.308-15.541,5.19
		c-3.86,0.624-7.771,0.834-11.664,0.573c-7.058-0.473-13.855-2.061-20.17-5.373c-2.856-1.501-5.518-3.287-7.885-5.492
		c-0.181-0.167-0.323-0.376-0.483-0.566c0.058-0.421-0.128-0.796-0.23-1.186c-0.232-0.892-0.261-1.795-0.001-2.676
		c0.966-3.272,4.433-4.78,7.586-3.253c1.599,0.776,3.125,1.699,4.692,2.54c1.128,0.606,2.273,1.182,3.406,1.779
		c0.279,0.145,0.766,0.267,0.17,0.652c-0.892,0-1.783,0-2.675,0.003c-0.051,0.002-0.102,0.007-0.152,0.011
		c-0.482,0.134-0.764,0.429-0.655,0.947c0.11,0.524,0.512,0.625,0.994,0.625C35.141,83.907,37.594,83.925,40.046,83.936z"/>
	<path fill-rule="evenodd" clip-rule="evenodd" fill="#CEEAF7" d="M35.176,82.321c0.596-0.386,0.109-0.508-0.17-0.652
		c-1.133-0.598-2.277-1.173-3.406-1.779c-1.568-0.841-3.093-1.764-4.692-2.54c-3.153-1.527-6.62-0.02-7.586,3.253
		c-0.26,0.881-0.231,1.784,0.001,2.676c0.102,0.39,0.289,0.765,0.23,1.186c-1.966-1.625-3.458-3.647-4.748-5.814
		c-1.656-2.777-2.747-5.761-2.965-9.022c0.905-0.014,1.811-0.052,2.715-0.034c0.593,0.014,1.042-0.14,1.256-0.735
		c0.798,0,1.595,0.002,2.393,0.002c0.19,0.712,0.745,0.731,1.336,0.729c5.889-0.005,11.779,0.02,17.667-0.026
		c0.92-0.01,1.129,0.233,1.115,1.13c-0.056,3.603-0.042,7.206-0.005,10.809c0.007,0.707-0.184,0.945-0.892,0.879
		C36.682,82.311,35.927,82.337,35.176,82.321z"/>
	<path fill-rule="evenodd" clip-rule="evenodd" fill="#0D0D0B" d="M15.812,68.857c-0.214,0.596-0.663,0.749-1.256,0.735
		c-0.904-0.018-1.81,0.021-2.715,0.034c-0.405-0.016-0.814-0.009-1.216-0.056c-0.457-0.054-0.781-0.333-0.758-0.801
		c0.023-0.459,0.331-0.702,0.826-0.7c1.409,0.012,2.818,0.012,4.227,0.002C15.467,68.068,15.692,68.394,15.812,68.857z"/>
	<path fill-rule="evenodd" clip-rule="evenodd" fill="#F0BA4C" d="M11.094,75.002c0,0.952-0.739,1.694-1.652,1.663
		c-0.829-0.028-1.626-0.82-1.646-1.634c-0.022-0.872,0.79-1.644,1.714-1.63C10.439,73.415,11.094,74.077,11.094,75.002z"/>
	<path fill-rule="evenodd" clip-rule="evenodd" fill="#B8E3F9" d="M87.456,86.159c0.892,0.021,1.657,0.815,1.648,1.705
		c-0.009,0.888-0.801,1.666-1.693,1.666c-0.93,0.002-1.736-0.837-1.695-1.757C85.756,86.888,86.568,86.134,87.456,86.159z"/>
	<path fill-rule="evenodd" clip-rule="evenodd" fill="#B8E3F9" d="M61.488,0.267c0.897,0.013,1.675,0.791,1.677,1.677
		c0.002,0.887-0.77,1.666-1.668,1.686c-0.929,0.02-1.746-0.796-1.723-1.724C59.797,1.023,60.601,0.254,61.488,0.267z"/>
	<path fill-rule="evenodd" clip-rule="evenodd" fill="#F0BA4C" d="M93.978,63.75c-0.009,0.92-0.696,1.556-1.642,1.524
		c-0.908-0.031-1.531-0.66-1.527-1.543c0.003-0.934,0.667-1.596,1.594-1.592C93.324,62.143,93.988,62.822,93.978,63.75z"/>
	<path fill-rule="evenodd" clip-rule="evenodd" fill="#F0BA4C" d="M90.426,36.56c0.523,0.032,0.841,0.289,0.85,0.806
		c0.009,0.475-0.272,0.761-0.746,0.778c-0.496,0.018-0.849-0.208-0.876-0.747C89.625,36.863,89.933,36.612,90.426,36.56z"/>
	<path fill-rule="evenodd" clip-rule="evenodd" fill="#F0BA4C" d="M23.771,12.425c-0.048,0.438-0.287,0.719-0.771,0.744
		c-0.492,0.026-0.805-0.236-0.814-0.704c-0.008-0.445,0.26-0.784,0.748-0.797C23.405,11.654,23.679,11.931,23.771,12.425z"/>
	<path fill-rule="evenodd" clip-rule="evenodd" fill="#F0BA4C" d="M35.36,98.975c-0.096,0.479-0.375,0.773-0.834,0.758
		c-0.46-0.014-0.767-0.33-0.756-0.787c0.01-0.469,0.335-0.709,0.814-0.705C35.083,98.245,35.298,98.542,35.36,98.975z"/>
	<path fill-rule="evenodd" clip-rule="evenodd" fill="#F0BA4C" d="M12.152,38.406c-0.116,0.47-0.366,0.753-0.85,0.727
		c-0.484-0.026-0.744-0.321-0.731-0.79c0.014-0.486,0.328-0.734,0.801-0.703C11.839,37.67,12.075,37.979,12.152,38.406z"/>
	<path fill-rule="evenodd" clip-rule="evenodd" fill="#F0BA4C" d="M50.933,17.764c4.512,0,9.021,0.018,13.533-0.018
		c0.75-0.006,0.939,0.209,0.935,0.945c-0.034,4.229-0.018,8.458-0.016,12.687c0,0.25,0.001,0.501,0.008,0.751
		c0.011,0.485,0.278,0.791,0.741,0.798c0.516,0.007,0.787-0.323,0.788-0.848c0.002-0.502,0.002-1.003,0.002-1.504
		c0-2.413,0.017-4.825-0.012-7.237c-0.007-0.559,0.114-0.775,0.719-0.748c1.126,0.05,2.254,0.02,3.382,0.011
		c0.353-0.003,0.601,0.034,0.59,0.493c-0.088,3.536,0.249,7.087-0.166,10.606c-0.346,2.94-2.103,4.986-4.775,6.146
		c-0.959,0.415-1.313,0.895-1.501,1.935c-0.989,5.487-4.168,9.244-9.361,11.27c-1.53,0.598-1.536,0.596-1.668,2.27
		c-0.232,2.962,0.526,5.708,1.789,8.334c0.329,0.688,0.312,0.874-0.521,0.863c-2.976-0.042-5.953-0.045-8.928,0.002
		c-0.85,0.012-0.846-0.218-0.535-0.878c1.211-2.575,1.993-5.251,1.824-8.145c-0.106-1.819-0.113-1.807-1.772-2.479
		c-5.334-2.162-8.535-6.043-9.347-11.796c-0.083-0.593-0.334-0.924-0.917-1.148c-3.505-1.351-5.439-4.206-5.443-7.958
		c-0.003-2.913,0.017-5.827-0.015-8.74c-0.006-0.618,0.169-0.811,0.786-0.783c1.063,0.048,2.131,0.049,3.194,0
		c0.599-0.027,0.729,0.184,0.723,0.747c-0.027,2.819-0.006,5.639-0.017,8.458c-0.002,0.633,0.108,1.198,0.884,1.116
		c0.646-0.068,0.661-0.627,0.66-1.158c-0.007-4.292,0.023-8.584-0.026-12.875c-0.01-0.891,0.189-1.151,1.118-1.141
		C42.036,17.793,46.484,17.764,50.933,17.764z M46.017,33.459c0,0.021,0,0.043,0,0.064c-0.627,0-1.253,0.005-1.879-0.001
		c-0.475-0.005-0.979-0.058-1.179,0.519c-0.219,0.631,0.272,0.889,0.677,1.182c1.015,0.732,2.017,1.484,3.049,2.189
		c0.426,0.29,0.562,0.54,0.365,1.069c-0.456,1.228-0.806,2.494-1.233,3.733c-0.157,0.454-0.242,0.871,0.2,1.176
		c0.431,0.297,0.82,0.093,1.197-0.187c0.877-0.654,1.833-1.22,2.637-1.952c0.816-0.743,1.422-0.668,2.208,0.028
		c0.792,0.703,1.717,1.253,2.567,1.891c0.401,0.3,0.801,0.542,1.268,0.194c0.439-0.327,0.304-0.75,0.153-1.19
		c-0.412-1.211-0.753-2.448-1.206-3.643c-0.212-0.562-0.078-0.834,0.386-1.146c1.013-0.681,1.984-1.421,2.972-2.136
		c0.4-0.289,0.912-0.524,0.728-1.162c-0.188-0.646-0.736-0.565-1.236-0.564c-1.158,0.002-2.322-0.065-3.475,0.023
		c-0.827,0.063-1.143-0.27-1.343-1.005c-0.309-1.144-0.707-2.263-1.072-3.391c-0.138-0.427-0.293-0.86-0.841-0.872
		c-0.548-0.012-0.728,0.4-0.869,0.834c-0.204,0.623-0.406,1.245-0.614,1.866c-0.278,0.828-0.331,1.976-0.907,2.39
		C47.993,33.782,46.89,33.459,46.017,33.459z M46.794,22.543c0,0.22,0.025,0.443-0.004,0.658c-0.103,0.74,0.202,0.934,0.936,0.927
		c2.176-0.02,1.862-0.062,1.87-1.897c0-0.125-0.016-0.253,0.003-0.376c0.083-0.568-0.133-0.822-0.724-0.74
		c-0.215,0.03-0.438,0.004-0.657,0.004C46.793,21.119,46.793,21.119,46.794,22.543z M53.686,21.119
		c-1.574,0.021-1.383-0.189-1.388,1.091c-0.007,1.972-0.175,1.905,1.218,1.9c1.574-0.005,1.574,0,1.574-1.368
		C55.091,21.119,55.091,21.119,53.686,21.119z M42.645,21.119c-1.427,0-1.437,0-1.426,1.139c0.019,1.903-0.222,1.644,1.194,1.66
		c1.597,0.018,1.597,0.005,1.598-1.242C44.012,21.119,44.012,21.119,42.645,21.119z M59.251,21.119c-1.386,0-1.386,0-1.386,1.164
		c-0.001,1.638-0.001,1.649,1.204,1.636c1.795-0.02,1.568,0.251,1.583-1.269C60.668,21.119,60.656,21.119,59.251,21.119z"/>
	<path fill-rule="evenodd" clip-rule="evenodd" fill="#545454" d="M51.04,66.046c3.381,0,6.762,0.016,10.143-0.011
		c0.636-0.007,0.867,0.151,0.864,0.829c-0.026,4.854-0.025,9.705-0.001,14.557c0.003,0.68-0.243,0.834-0.872,0.832
		c-6.824-0.019-13.649-0.019-20.473,0c-0.648,0.002-0.866-0.179-0.86-0.846c0.031-3.036,0.034-6.073-0.001-9.107
		c-0.008-0.702,0.272-0.815,0.883-0.812c3.756,0.021,7.513,0.002,11.27,0.018c0.602,0.003,1.133-0.103,1.12-0.796
		c-0.014-0.631-0.522-0.742-1.087-0.74c-3.694,0.014-7.388-0.016-11.081,0.024c-0.829,0.012-1.211-0.165-1.104-1.069
		c0.077-0.649,0.069-1.32,0.001-1.969c-0.082-0.787,0.259-0.93,0.963-0.924C44.216,66.063,47.628,66.046,51.04,66.046z"/>
	<path fill-rule="evenodd" clip-rule="evenodd" fill="#CEEAF7" d="M32.35,82.335c0.05-0.004,0.101-0.009,0.152-0.011
		c0,0-0.074,0.031-0.074,0.031L32.35,82.335z"/>
	<path fill-rule="evenodd" clip-rule="evenodd" fill="#0D0D0B" d="M46.017,33.459c0.873,0,1.976,0.323,2.552-0.091
		c0.577-0.414,0.629-1.563,0.907-2.39c0.208-0.621,0.41-1.244,0.614-1.866c0.142-0.434,0.321-0.846,0.869-0.834
		c0.548,0.012,0.703,0.445,0.841,0.872c0.365,1.128,0.764,2.247,1.072,3.391c0.2,0.736,0.516,1.068,1.343,1.005
		c1.152-0.088,2.316-0.021,3.475-0.023c0.5-0.001,1.049-0.082,1.236,0.564c0.185,0.637-0.327,0.873-0.728,1.162
		c-0.987,0.715-1.959,1.455-2.972,2.136c-0.464,0.312-0.598,0.584-0.386,1.146c0.453,1.195,0.794,2.432,1.206,3.643
		c0.15,0.439,0.286,0.863-0.153,1.19c-0.467,0.349-0.866,0.106-1.268-0.194c-0.851-0.638-1.775-1.188-2.567-1.891
		c-0.786-0.696-1.392-0.771-2.208-0.028c-0.804,0.732-1.76,1.298-2.637,1.952c-0.376,0.28-0.766,0.484-1.197,0.187
		c-0.442-0.305-0.357-0.722-0.2-1.176c0.427-1.239,0.777-2.505,1.233-3.733c0.197-0.529,0.061-0.779-0.365-1.069
		c-1.033-0.706-2.034-1.457-3.049-2.189c-0.405-0.293-0.896-0.55-0.677-1.182c0.199-0.576,0.704-0.523,1.179-0.519
		c0.626,0.006,1.252,0.001,1.879,0.001C46.017,33.502,46.017,33.48,46.017,33.459z M46.211,35.062
		c0.896,0.667,1.595,1.217,2.325,1.721c0.469,0.323,0.533,0.686,0.362,1.204c-0.256,0.772-0.612,1.522-0.733,2.495
		c0.731-0.511,1.364-0.906,1.942-1.371c0.583-0.47,1.076-0.449,1.675-0.006c0.598,0.441,1.129,1.013,1.961,1.281
		c-0.279-0.852-0.491-1.601-0.771-2.322c-0.218-0.561-0.093-0.945,0.388-1.284c0.724-0.511,1.425-1.053,2.315-1.717
		c-0.999,0-1.772-0.05-2.536,0.014c-0.821,0.068-1.267-0.205-1.47-1.035c-0.162-0.664-0.323-1.357-0.777-2.056
		c-0.252,0.738-0.536,1.338-0.653,1.969c-0.175,0.946-0.706,1.197-1.589,1.12C47.917,35.011,47.176,35.062,46.211,35.062z"/>
	<path fill-rule="evenodd" clip-rule="evenodd" fill="#0D0D0B" d="M46.794,22.543c0-1.424,0-1.424,1.422-1.424
		c0.22,0,0.442,0.025,0.657-0.004c0.591-0.083,0.808,0.171,0.724,0.74c-0.019,0.123-0.002,0.25-0.003,0.376
		c-0.008,1.835,0.307,1.877-1.87,1.897c-0.734,0.006-1.038-0.188-0.936-0.927C46.819,22.986,46.794,22.763,46.794,22.543z"/>
	<path fill-rule="evenodd" clip-rule="evenodd" fill="#0D0D0B" d="M53.686,21.119c1.405,0,1.405,0,1.404,1.623
		c0,1.368,0,1.362-1.574,1.368c-1.393,0.005-1.225,0.072-1.218-1.9C52.303,20.93,52.111,21.141,53.686,21.119z"/>
	<path fill-rule="evenodd" clip-rule="evenodd" fill="#0D0D0B" d="M42.645,21.119c1.367,0,1.367,0,1.366,1.557
		c0,1.247,0,1.26-1.598,1.242c-1.416-0.016-1.176,0.243-1.194-1.66C41.208,21.119,41.218,21.119,42.645,21.119z"/>
	<path fill-rule="evenodd" clip-rule="evenodd" fill="#0D0D0B" d="M59.251,21.119c1.405,0,1.417,0,1.401,1.532
		c-0.015,1.52,0.212,1.249-1.583,1.269c-1.205,0.013-1.205,0.001-1.204-1.636C57.865,21.119,57.865,21.119,59.251,21.119z"/>
	<path fill-rule="evenodd" clip-rule="evenodd" fill="#545454" d="M46.211,35.062c0.965,0,1.707-0.051,2.438,0.013
		c0.883,0.077,1.414-0.174,1.589-1.12c0.117-0.631,0.401-1.231,0.653-1.969c0.454,0.699,0.615,1.392,0.777,2.056
		c0.203,0.83,0.648,1.103,1.47,1.035c0.764-0.064,1.537-0.014,2.536-0.014c-0.891,0.664-1.592,1.207-2.315,1.717
		c-0.48,0.339-0.605,0.723-0.388,1.284c0.28,0.721,0.492,1.47,0.771,2.322c-0.832-0.268-1.363-0.84-1.961-1.281
		c-0.599-0.443-1.091-0.464-1.675,0.006c-0.578,0.465-1.21,0.859-1.942,1.371c0.121-0.973,0.477-1.722,0.733-2.495
		c0.17-0.518,0.106-0.881-0.362-1.204C47.806,36.279,47.107,35.729,46.211,35.062z"/>
</g>
</svg>
