<?xml version="1.0" encoding="utf-8"?>
<!-- Generator: Adobe Illustrator 16.0.0, SVG Export Plug-In . SVG Version: 6.00 Build 0)  -->
<!DOCTYPE svg PUBLIC "-//W3C//DTD SVG 1.1//EN" "http://www.w3.org/Graphics/SVG/1.1/DTD/svg11.dtd">
<svg version="1.1" id="Layer_1" xmlns="http://www.w3.org/2000/svg" xmlns:xlink="http://www.w3.org/1999/xlink" x="0px" y="0px"
	 width="100px" height="100px" viewBox="0 0 100 100" enable-background="new 0 0 100 100" xml:space="preserve">
<g>
	<g>
		<g>
			<path fill-rule="evenodd" clip-rule="evenodd" fill="#0D0D0B" d="M91.095,67.736c-0.219,0.01-0.439,0.004-0.658,0.004
				c-1.186,0-2.37-0.001-3.556-0.001v0.001H65.227c-0.627,0.039-1.34,0.21-1.834,0h-1.945c-0.002,0.505,0.002,1.009,0,1.515h1.943
				c0.07-0.012,0.147-0.02,0.241-0.019c8.733,0.023,17.468,0.018,26.201,0.02c0.063,0,0.122,0.023,0.184,0.037
				c0.375-0.016,0.749-0.025,1.123-0.047c0.484-0.023,0.899-0.215,0.909-0.744C92.058,67.912,91.637,67.717,91.095,67.736z"/>
			<path fill-rule="evenodd" clip-rule="evenodd" fill="#0D0D0B" d="M25.631,69.255h2.516c2.821-0.001,5.642-0.006,8.462-0.028
				c0.173-0.002,0.313,0.009,0.439,0.028h2.247c-0.067-0.159-0.09-0.37-0.055-0.665c0.033-0.28,0.043-0.565,0.047-0.85h-2.226
				c-0.104,0.014-0.219,0.022-0.357,0.021c-2.358-0.017-4.717-0.019-7.075-0.021h-7.124v-0.007c-1.217,0-2.434,0.001-3.651-0.001
				c-0.605,0-1.147,0.031-1.25,0.791c0.19,0.713,0.745,0.732,1.336,0.73C21.171,69.252,23.401,69.254,25.631,69.255L25.631,69.255z"
				/>
		</g>
		<path fill-rule="evenodd" clip-rule="evenodd" fill="#CEEAF7" d="M39.422,83.591c3.693-0.01,23.515-14.367,24.185-14.363
			c8.733,0.023,17.468,0.018,26.201,0.02c0.063,0,0.122,0.023,0.184,0.037c-0.213,4.129-1.868,7.709-4.196,11.029
			c-1.421,2.029-3.239,3.693-5.014,5.395c-0.162,0.154-0.324,0.293-0.563,0.305c-0.194-0.273-0.423-0.154-0.667-0.074
			c-1.269,0.428-2.563,0.764-3.854,1.113c-3.374,0.918-6.823,1.357-10.292,1.557c-3.957,0.225-7.915-0.061-11.811-0.771
			C48.725,86.946,43.958,85.636,39.422,83.591z"/>
		<path fill-rule="evenodd" clip-rule="evenodd" fill="#B8E3F9" d="M53.597,87.837c3.896,0.711,7.854,0.996,11.811,0.771
			c3.469-0.199,6.918-0.639,10.292-1.557c1.291-0.35,2.585-0.686,3.854-1.113c0.244-0.08,0.473-0.199,0.667,0.074
			c-1.653,1.547-3.581,2.695-5.547,3.775c-4.862,2.668-10.085,4.307-15.541,5.189c-3.86,0.625-7.771,0.834-11.664,0.574
			c-7.058-0.473-13.855-2.061-20.17-5.373c-2.856-1.502-5.518-3.287-7.885-5.492c-0.181-0.168-0.323-0.377-0.483-0.566
			c0.058-0.422-0.128-0.797-0.23-1.186c-0.232-0.893-0.261-1.795-0.001-2.676c0.966-3.273,4.433-4.781,7.586-3.254
			c1.599,0.777,3.125,1.699,4.692,2.541c1.128,0.605,2.273,1.182,3.406,1.779c0.279,0.145,0.766,0.266,0.17,0.652
			C33.661,81.978,48.725,86.946,53.597,87.837z"/>
		<path fill-rule="evenodd" clip-rule="evenodd" fill="#CEEAF7" d="M40.75,84.847c-11.125-3.905-3.491-1.93-9.773-5.301
			c-1.568-0.842-3.093-1.764-4.692-2.541c-3.153-1.527-6.62-0.02-7.586,3.254c-0.26,0.881-0.231,1.783,0.001,2.676
			c0.102,0.389,0.289,0.764,0.23,1.186c-1.966-1.625-3.458-3.648-4.748-5.814c-1.656-2.777-2.747-5.762-2.965-9.023
			c0.905-0.014,1.811-0.051,2.715-0.033c0.593,0.014,1.042-0.141,1.256-0.736c0.798,0,1.595,0.002,2.393,0.002
			c0.19,0.713,0.745,0.732,1.336,0.73c2.336-0.002,49.203,0.675,53.958,4.13c2.734,1.987-24.38,10.979-24.375,11.472
			C48.508,85.554,41.501,84.862,40.75,84.847z"/>
		<path fill-rule="evenodd" clip-rule="evenodd" fill="#0D0D0B" d="M15.206,68.714c-0.214,0.596-0.663,0.75-1.256,0.736
			c-0.904-0.018-1.81,0.02-2.715,0.033c-0.405-0.016-0.814-0.008-1.216-0.055c-0.457-0.055-0.781-0.334-0.758-0.801
			c0.023-0.459,0.331-0.703,0.826-0.701c1.409,0.012,2.818,0.012,4.227,0.002C14.861,67.925,15.086,68.251,15.206,68.714z"/>
	</g>
	<path fill-rule="evenodd" clip-rule="evenodd" fill="#F0BA4C" d="M10.208,74.734c0,0.953-0.739,1.695-1.652,1.664
		c-0.829-0.029-1.626-0.82-1.646-1.635c-0.022-0.871,0.79-1.643,1.714-1.629C9.553,73.148,10.208,73.811,10.208,74.734z"/>
	<path fill-rule="evenodd" clip-rule="evenodd" fill="#B8E3F9" d="M86.57,85.893c0.891,0.021,1.656,0.814,1.648,1.705
		c-0.01,0.887-0.801,1.666-1.693,1.666c-0.93,0.002-1.736-0.838-1.695-1.758C84.869,86.621,85.682,85.867,86.57,85.893z"/>
	<path fill-rule="evenodd" clip-rule="evenodd" fill="#B8E3F9" d="M60.602,0c0.898,0.013,1.676,0.791,1.678,1.677
		c0.002,0.887-0.77,1.666-1.668,1.686c-0.93,0.02-1.746-0.796-1.723-1.724C58.91,0.757,59.715-0.013,60.602,0z"/>
	<path fill-rule="evenodd" clip-rule="evenodd" fill="#F0BA4C" d="M93.092,63.482c-0.01,0.92-0.697,1.557-1.643,1.525
		c-0.908-0.031-1.531-0.66-1.527-1.543c0.004-0.934,0.668-1.596,1.594-1.592C92.438,61.875,93.102,62.555,93.092,63.482z"/>
	<path fill-rule="evenodd" clip-rule="evenodd" fill="#F0BA4C" d="M89.539,36.293c0.523,0.032,0.842,0.289,0.85,0.806
		c0.01,0.475-0.271,0.761-0.746,0.778c-0.496,0.019-0.848-0.208-0.875-0.747C88.738,36.597,89.047,36.346,89.539,36.293z"/>
	<path fill-rule="evenodd" clip-rule="evenodd" fill="#F0BA4C" d="M22.884,12.158c-0.048,0.438-0.287,0.719-0.771,0.744
		c-0.492,0.026-0.805-0.236-0.814-0.704c-0.008-0.445,0.26-0.784,0.748-0.797C22.519,11.388,22.793,11.665,22.884,12.158z"/>
	<path fill-rule="evenodd" clip-rule="evenodd" fill="#F0BA4C" d="M34.474,98.707c-0.096,0.479-0.375,0.773-0.834,0.758
		c-0.46-0.014-0.767-0.33-0.756-0.787c0.01-0.469,0.335-0.709,0.814-0.705C34.197,97.979,34.412,98.275,34.474,98.707z"/>
	<path fill-rule="evenodd" clip-rule="evenodd" fill="#F0BA4C" d="M11.266,38.14c-0.116,0.469-0.366,0.752-0.85,0.727
		c-0.484-0.026-0.744-0.32-0.731-0.789c0.014-0.487,0.328-0.734,0.801-0.704C10.953,37.404,11.189,37.713,11.266,38.14z"/>
</g>
<path fill-rule="evenodd" clip-rule="evenodd" fill="#CEEAF7" d="M41.463,75.068c0.05-0.004,0.101-0.01,0.152-0.012
	c0,0-0.074,0.031-0.074,0.031L41.463,75.068z"/>
<g>
	<path fill-rule="evenodd" clip-rule="evenodd" fill="#0D0D0B" d="M64.285,24.592c0.279-2.259,0.708-4.299,1.492-6.252
		c0.529-1.319,1.211-2.543,2.209-3.574c1.252-1.295,2.78-2.011,4.579-1.861c2.718,0.226,5.171,1.073,6.755,3.511
		c0.701,1.083,0.789,2.31,0.666,3.551c-0.232,2.319-1.22,4.365-2.412,6.319c-0.567,0.929-1.198,1.823-1.829,2.712
		c-0.214,0.304-0.215,0.466,0.154,0.582c0.695,0.221,1.023,0.684,1.18,1.42c0.771,3.641,1.543,7.284,2.439,10.895
		c0.276,1.115,0.069,2.001-0.367,2.988c-4.935,11.224-9.843,22.462-14.756,33.696c-0.101,0.229-0.2,0.458-0.302,0.687
		c-0.498,1.121-0.911,1.288-2.018,0.805c-8.191-3.581-16.384-7.162-24.577-10.743c-0.771-0.336-1.543-0.67-2.313-1.012
		c-0.928-0.413-1.107-0.854-0.704-1.78c1.208-2.772,2.424-5.543,3.636-8.313c3.71-8.483,7.473-16.945,11.09-25.467
		c0.733-1.725,1.761-2.858,3.374-3.729c2.975-1.604,5.867-3.365,8.777-5.087c0.557-0.33,1.051-0.34,1.596-0.04
		C63.368,24.128,63.793,24.337,64.285,24.592z M54.283,74.273c2.455,1.083,4.918,2.146,7.356,3.262
		c0.586,0.269,0.79,0.14,1.032-0.418c4.845-11.112,9.703-22.219,14.576-33.316c0.228-0.517,0.233-0.983,0.115-1.509
		c-0.752-3.344-1.495-6.692-2.226-10.041c-0.099-0.451-0.237-0.797-0.727-0.959c-0.476-0.156-0.613,0.24-0.808,0.452
		c-2.166,2.391-4.393,4.722-6.782,6.892c-0.318,0.291-0.16,0.421,0.06,0.629c3.05,2.881,2.135,7.386-0.387,9.563
		c-0.358,0.312-0.744,0.589-1.118,0.881c-0.256,0.096-0.511,0.188-0.766,0.285c-3.269,1.23-7.417-0.664-8.485-3.961
		c-0.803-2.476-0.225-4.737,1.499-6.655c1.698-1.89,3.853-2.388,6.271-1.766c0.479,0.124,0.8,0.069,1.155-0.266
		c2.255-2.114,4.47-4.266,6.498-6.603c0.349-0.404,0.38-0.551-0.156-0.782c-2.888-1.234-5.761-2.497-8.629-3.772
		c-0.399-0.177-0.727-0.167-1.089,0.047c-3.073,1.804-6.146,3.605-9.226,5.4c-0.374,0.218-0.588,0.526-0.759,0.917
		c-3.795,8.694-7.595,17.387-11.415,26.071c-0.228,0.513-0.171,0.697,0.356,0.925c5.469,2.367,10.927,4.768,16.389,7.153
		c0.205,0.091,0.426,0.149,0.64,0.222c0.092,0.06,0.182,0.127,0.278,0.18c0.64,0.353,0.886,0.87,0.675,1.426
		c-0.225,0.588-0.777,0.809-1.508,0.586c-0.154-0.048-0.293-0.119-0.45-0.031c-0.087-0.288-0.364-0.321-0.585-0.418
		c-5.438-2.384-10.881-4.758-16.316-7.154c-0.464-0.204-0.678-0.196-0.888,0.326c-0.56,1.393-1.165,2.771-1.805,4.127
		c-0.251,0.536-0.188,0.759,0.378,1.003c5.431,2.349,10.847,4.727,16.27,7.094C53.895,74.145,54.092,74.204,54.283,74.273z
		 M77.718,18.088c-0.125-0.427-0.363-0.784-0.655-1.108c-2.476-2.746-6.65-2.379-8.542,0.763c-1.358,2.255-1.82,4.776-2.128,7.339
		c-0.032,0.284,0.095,0.401,0.33,0.503c2.085,0.907,4.168,1.817,6.247,2.735c0.291,0.127,0.497,0.109,0.703-0.167
		c1.52-2.02,3.001-4.062,3.855-6.473C77.943,20.508,78.173,19.311,77.718,18.088z M66.361,42.274
		c-0.935-2.39-3.236-3.42-5.596-2.503c-2.477,0.963-3.495,3.243-2.543,5.685c0.945,2.417,3.247,3.423,5.661,2.477
		C66.303,46.986,67.306,44.692,66.361,42.274z"/>
	<path fill-rule="evenodd" clip-rule="evenodd" fill="#F0BA4C" d="M57.66,66.926c-0.214-0.072-0.435-0.131-0.64-0.222
		c-5.462-2.386-10.92-4.786-16.389-7.153c-0.527-0.228-0.583-0.412-0.356-0.925c3.82-8.685,7.62-17.377,11.415-26.071
		c0.171-0.39,0.385-0.699,0.759-0.917c3.079-1.795,6.152-3.596,9.226-5.4c0.362-0.213,0.689-0.224,1.089-0.047
		c2.868,1.275,5.741,2.538,8.629,3.772c0.536,0.231,0.505,0.378,0.156,0.782c-2.028,2.337-4.243,4.488-6.498,6.603
		c-0.355,0.334-0.677,0.389-1.155,0.266c-2.419-0.622-4.573-0.124-6.271,1.766c-1.724,1.918-2.302,4.18-1.499,6.655
		c1.068,3.297,5.217,5.191,8.485,3.961c0.255-0.098,0.51-0.189,0.766-0.285c-0.169,0.396-0.332,0.797-0.508,1.189
		C62.467,56.241,60.063,61.582,57.66,66.926z"/>
	<path fill-rule="evenodd" clip-rule="evenodd" fill="#F9D38E" d="M57.66,66.926c2.402-5.344,4.807-10.685,7.208-16.026
		c0.176-0.393,0.339-0.793,0.508-1.189c0.374-0.292,0.76-0.569,1.118-0.881c2.521-2.178,3.437-6.682,0.387-9.563
		c-0.22-0.208-0.378-0.338-0.06-0.629c2.39-2.169,4.616-4.501,6.782-6.892c0.194-0.212,0.332-0.608,0.808-0.452
		c0.489,0.162,0.628,0.508,0.727,0.959c0.73,3.349,1.474,6.697,2.226,10.041c0.118,0.525,0.112,0.992-0.115,1.509
		c-4.873,11.097-9.731,22.204-14.576,33.316c-0.242,0.558-0.446,0.687-1.032,0.418c-2.438-1.115-4.901-2.179-7.356-3.262
		c0.791-1.729,1.582-3.459,2.372-5.188c0.157-0.088,0.296-0.017,0.45,0.031c0.73,0.223,1.283,0.002,1.508-0.586
		c0.211-0.556-0.035-1.073-0.675-1.426C57.842,67.053,57.752,66.985,57.66,66.926z"/>
	<path fill-rule="evenodd" clip-rule="evenodd" fill="#F0BA4C" d="M56.655,69.086c-0.79,1.729-1.581,3.459-2.372,5.188
		c-0.191-0.069-0.389-0.129-0.574-0.21c-5.422-2.367-10.838-4.745-16.27-7.094c-0.566-0.244-0.629-0.467-0.378-1.003
		c0.64-1.355,1.245-2.734,1.805-4.127c0.21-0.522,0.424-0.53,0.888-0.326c5.435,2.396,10.877,4.771,16.316,7.154
		C56.291,68.765,56.568,68.798,56.655,69.086z"/>
	<path fill-rule="evenodd" clip-rule="evenodd" fill="#F0BA4C" d="M66.361,42.274c0.944,2.418-0.059,4.712-2.478,5.659
		c-2.414,0.946-4.716-0.06-5.661-2.477c-0.952-2.442,0.066-4.722,2.543-5.685C63.125,38.854,65.427,39.884,66.361,42.274z"/>
</g>
<path fill-rule="evenodd" clip-rule="evenodd" fill="#0D0D0B" d="M58.612,57.943c0.197-0.508,0.329-1.028,0.386-1.57
	c0.115-1.105-0.052-2.163-0.507-3.177c-0.471-1.053-1.183-1.906-2.129-2.563c-0.344-0.24-0.713-0.438-1.103-0.595
	c-0.29-0.139-0.593-0.231-0.899-0.307c-0.734-0.181-1.479-0.229-2.229-0.134c-0.99,0.124-1.901,0.462-2.727,1.021
	c-0.723,0.49-1.314,1.108-1.773,1.854c-0.311,0.507-0.541,1.044-0.703,1.612c-0.113,0.393-0.182,0.794-0.207,1.201
	c-0.032,0.507-0.005,1.011,0.085,1.512c0.12,0.665,0.342,1.294,0.667,1.886c0.325,0.592,0.736,1.118,1.235,1.573
	c0.527,0.48,1.112,0.868,1.775,1.131c0.189,0.101,0.391,0.164,0.594,0.226c0.822,0.242,1.658,0.323,2.513,0.22
	c1.115-0.135,2.124-0.539,3.017-1.219C57.525,59.916,58.198,59.026,58.612,57.943z M51.758,58.452
	c-0.685-0.311-1.146-0.844-1.491-1.494c-0.027-0.052-0.052-0.111-0.094-0.147c-0.067-0.056-0.145-0.079-0.238-0.029
	c-0.31,0.162-0.612,0.337-0.911,0.514c-0.135,0.081-0.159,0.162-0.093,0.31c0.264,0.594,0.648,1.097,1.146,1.513
	c0.145,0.121,0.297,0.229,0.457,0.328c0.075,0.049,0.091,0.105,0.052,0.188c-0.077,0.168-0.151,0.338-0.215,0.512
	c-0.039,0.104-0.087,0.096-0.165,0.047c-0.371-0.229-0.719-0.488-1.024-0.802c-0.836-0.86-1.334-1.884-1.481-3.079
	c-0.089-0.72-0.021-1.425,0.187-2.114c0.261-0.865,0.723-1.612,1.376-2.238c0.521-0.499,1.116-0.875,1.792-1.124
	c0.758-0.278,1.538-0.388,2.346-0.299c0.29,0.032,0.573,0.077,0.853,0.16c0.09,0.027,0.105,0.067,0.065,0.153
	c-0.076,0.163-0.146,0.33-0.211,0.499c-0.044,0.109-0.103,0.142-0.227,0.121c-0.836-0.148-1.613-0.018-2.276,0.541
	c-0.613,0.514-0.935,1.455-0.668,2.26c0.144,0.434,0.382,0.807,0.674,1.147c0.3,0.351,0.634,0.671,0.962,0.996
	c0.21,0.228,0.42,0.454,0.629,0.682l0,0c0.003,0.063,0.052,0.104,0.08,0.152c0.334,0.543,0.062,1.179-0.562,1.315
	C52.387,58.637,52.069,58.582,51.758,58.452z M55.874,59.967c-0.691,0.49-1.463,0.788-2.31,0.903
	c-0.654,0.09-1.296,0.052-1.938-0.099c-0.1-0.023-0.127-0.059-0.078-0.159c0.075-0.151,0.142-0.307,0.199-0.465
	c0.037-0.103,0.097-0.128,0.198-0.108c0.385,0.081,0.771,0.094,1.154,0.008c0.803-0.182,1.41-0.625,1.758-1.377
	c0.317-0.689,0.303-1.375-0.115-2.029c-0.076-0.118-0.125-0.254-0.249-0.336l-0.003,0.002c0.008-0.017,0.001-0.026-0.014-0.032
	h0.004c-0.097-0.166-0.236-0.297-0.367-0.436c-0.263-0.277-0.531-0.548-0.799-0.821c-0.026-0.028-0.06-0.049-0.09-0.075
	c-0.114-0.152-0.262-0.276-0.39-0.419c-0.15-0.166-0.269-0.349-0.336-0.569c-0.147-0.475,0.199-0.992,0.725-1.045
	c0.257-0.025,0.507-0.021,0.75,0.075c0.016,0.005,0.036,0.003,0.056,0.003c0.657,0.262,1.121,0.73,1.463,1.337
	c0.104,0.184,0.229,0.201,0.396,0.073c0.243-0.19,0.49-0.379,0.732-0.572c0.161-0.126,0.167-0.156,0.081-0.337
	c-0.204-0.436-0.509-0.789-0.872-1.096c-0.16-0.134-0.328-0.257-0.507-0.362c-0.072-0.043-0.091-0.084-0.057-0.16
	c0.08-0.18,0.159-0.359,0.229-0.543c0.031-0.079,0.071-0.075,0.133-0.037c1.025,0.66,1.754,1.559,2.157,2.71
	c0.357,1.021,0.396,2.063,0.102,3.111C57.552,58.3,56.882,59.255,55.874,59.967z"/>
</svg>
