<?xml version="1.0" encoding="utf-8"?>
<!-- Generator: Adobe Illustrator 16.0.0, SVG Export Plug-In . SVG Version: 6.00 Build 0)  -->
<!DOCTYPE svg PUBLIC "-//W3C//DTD SVG 1.1//EN" "http://www.w3.org/Graphics/SVG/1.1/DTD/svg11.dtd">
<svg version="1.1" id="Layer_1" xmlns="http://www.w3.org/2000/svg" xmlns:xlink="http://www.w3.org/1999/xlink" x="0px" y="0px"
	 width="100px" height="100px" viewBox="0 0 100 100" enable-background="new 0 0 100 100" xml:space="preserve">
<g>
	<g>
		<g>
			<path fill-rule="evenodd" clip-rule="evenodd" fill="#0D0D0B" d="M91.095,67.736c-0.219,0.01-0.439,0.004-0.658,0.004
				c-1.186,0-2.37-0.001-3.556-0.001v0.001H65.227c-0.627,0.039-1.34,0.21-1.834,0h-1.945c-0.002,0.505,0.002,1.009,0,1.515h1.943
				c0.07-0.012,0.147-0.02,0.241-0.019c8.733,0.023,17.468,0.018,26.201,0.02c0.063,0,0.122,0.023,0.184,0.037
				c0.375-0.016,0.749-0.025,1.123-0.047c0.484-0.023,0.899-0.215,0.909-0.744C92.058,67.912,91.637,67.717,91.095,67.736z"/>
			<path fill-rule="evenodd" clip-rule="evenodd" fill="#0D0D0B" d="M25.631,69.255h2.516c2.821-0.001,5.642-0.006,8.462-0.028
				c0.173-0.002,0.313,0.009,0.439,0.028h2.247c-0.067-0.159-0.09-0.37-0.055-0.665c0.033-0.28,0.043-0.565,0.047-0.85h-2.226
				c-0.104,0.014-0.219,0.022-0.357,0.021c-2.358-0.017-4.717-0.019-7.075-0.021h-7.124v-0.007c-1.217,0-2.434,0.001-3.651-0.001
				c-0.605,0-1.147,0.031-1.25,0.791c0.19,0.713,0.745,0.732,1.336,0.73C21.171,69.252,23.401,69.254,25.631,69.255L25.631,69.255z"
				/>
		</g>
		<path fill-rule="evenodd" clip-rule="evenodd" fill="#CEEAF7" d="M39.422,83.591c3.693-0.01,23.515-14.367,24.185-14.363
			c8.733,0.023,17.468,0.018,26.201,0.02c0.063,0,0.122,0.023,0.184,0.037c-0.213,4.129-1.868,7.709-4.196,11.029
			c-1.421,2.029-3.239,3.693-5.014,5.395c-0.162,0.154-0.324,0.293-0.563,0.305c-0.194-0.273-0.423-0.154-0.667-0.074
			c-1.269,0.428-2.563,0.764-3.854,1.113c-3.374,0.918-6.823,1.357-10.292,1.557c-3.957,0.225-7.915-0.061-11.811-0.771
			C48.725,86.946,43.958,85.636,39.422,83.591z"/>
		<path fill-rule="evenodd" clip-rule="evenodd" fill="#B8E3F9" d="M53.597,87.837c3.896,0.711,7.854,0.996,11.811,0.771
			c3.469-0.199,6.918-0.639,10.292-1.557c1.291-0.35,2.585-0.686,3.854-1.113c0.244-0.08,0.473-0.199,0.667,0.074
			c-1.653,1.547-3.581,2.695-5.547,3.775c-4.862,2.668-10.085,4.307-15.541,5.189c-3.86,0.625-7.771,0.834-11.664,0.574
			c-7.058-0.473-13.855-2.061-20.17-5.373c-2.856-1.502-5.518-3.287-7.885-5.492c-0.181-0.168-0.323-0.377-0.483-0.566
			c0.058-0.422-0.128-0.797-0.23-1.186c-0.232-0.893-0.261-1.795-0.001-2.676c0.966-3.273,4.433-4.781,7.586-3.254
			c1.599,0.777,3.125,1.699,4.692,2.541c1.128,0.605,2.273,1.182,3.406,1.779c0.279,0.145,0.766,0.266,0.17,0.652
			C33.661,81.978,48.725,86.946,53.597,87.837z"/>
		<path fill-rule="evenodd" clip-rule="evenodd" fill="#CEEAF7" d="M40.75,84.847c-11.125-3.905-3.491-1.93-9.773-5.301
			c-1.568-0.842-3.093-1.764-4.692-2.541c-3.153-1.527-6.62-0.02-7.586,3.254c-0.26,0.881-0.231,1.783,0.001,2.676
			c0.102,0.389,0.289,0.764,0.23,1.186c-1.966-1.625-3.458-3.648-4.748-5.814c-1.656-2.777-2.747-5.762-2.965-9.023
			c0.905-0.014,1.811-0.051,2.715-0.033c0.593,0.014,1.042-0.141,1.256-0.736c0.798,0,1.595,0.002,2.393,0.002
			c0.19,0.713,0.745,0.732,1.336,0.73c2.336-0.002,49.203,0.675,53.958,4.13c2.734,1.987-24.38,10.979-24.375,11.472
			C48.508,85.554,41.501,84.862,40.75,84.847z"/>
		<path fill-rule="evenodd" clip-rule="evenodd" fill="#0D0D0B" d="M15.206,68.714c-0.214,0.596-0.663,0.75-1.256,0.736
			c-0.904-0.018-1.81,0.02-2.715,0.033c-0.405-0.016-0.814-0.008-1.216-0.055c-0.457-0.055-0.781-0.334-0.758-0.801
			c0.023-0.459,0.331-0.703,0.826-0.701c1.409,0.012,2.818,0.012,4.227,0.002C14.861,67.925,15.086,68.251,15.206,68.714z"/>
	</g>
	<path fill-rule="evenodd" clip-rule="evenodd" fill="#F0BA4C" d="M10.208,74.734c0,0.953-0.739,1.695-1.652,1.664
		c-0.829-0.029-1.626-0.82-1.646-1.635c-0.022-0.871,0.79-1.643,1.714-1.629C9.553,73.148,10.208,73.811,10.208,74.734z"/>
	<path fill-rule="evenodd" clip-rule="evenodd" fill="#B8E3F9" d="M86.57,85.893c0.891,0.021,1.656,0.814,1.648,1.705
		c-0.01,0.887-0.801,1.666-1.693,1.666c-0.93,0.002-1.736-0.838-1.695-1.758C84.869,86.621,85.682,85.867,86.57,85.893z"/>
	<path fill-rule="evenodd" clip-rule="evenodd" fill="#B8E3F9" d="M60.602,0c0.898,0.013,1.676,0.791,1.678,1.677
		c0.002,0.887-0.77,1.666-1.668,1.686c-0.93,0.02-1.746-0.796-1.723-1.724C58.91,0.757,59.715-0.013,60.602,0z"/>
	<path fill-rule="evenodd" clip-rule="evenodd" fill="#F0BA4C" d="M93.092,63.482c-0.01,0.92-0.697,1.557-1.643,1.525
		c-0.908-0.031-1.531-0.66-1.527-1.543c0.004-0.934,0.668-1.596,1.594-1.592C92.438,61.875,93.102,62.555,93.092,63.482z"/>
	<path fill-rule="evenodd" clip-rule="evenodd" fill="#F0BA4C" d="M89.539,36.293c0.523,0.032,0.842,0.289,0.85,0.806
		c0.01,0.475-0.271,0.761-0.746,0.778c-0.496,0.019-0.848-0.208-0.875-0.747C88.738,36.597,89.047,36.346,89.539,36.293z"/>
	<path fill-rule="evenodd" clip-rule="evenodd" fill="#F0BA4C" d="M22.884,12.158c-0.048,0.438-0.287,0.719-0.771,0.744
		c-0.492,0.026-0.805-0.236-0.814-0.704c-0.008-0.445,0.26-0.784,0.748-0.797C22.519,11.388,22.793,11.665,22.884,12.158z"/>
	<path fill-rule="evenodd" clip-rule="evenodd" fill="#F0BA4C" d="M34.474,98.707c-0.096,0.479-0.375,0.773-0.834,0.758
		c-0.46-0.014-0.767-0.33-0.756-0.787c0.01-0.469,0.335-0.709,0.814-0.705C34.197,97.979,34.412,98.275,34.474,98.707z"/>
	<path fill-rule="evenodd" clip-rule="evenodd" fill="#F0BA4C" d="M11.266,38.14c-0.116,0.469-0.366,0.752-0.85,0.727
		c-0.484-0.026-0.744-0.32-0.731-0.789c0.014-0.487,0.328-0.734,0.801-0.704C10.953,37.404,11.189,37.713,11.266,38.14z"/>
</g>
<g>
	<path fill-rule="evenodd" clip-rule="evenodd" fill="#CEEAF8" d="M15.291,68.52c0.795,0.001,1.588,0.002,2.384,0.004
		c0.171,0.653,0.665,0.734,1.238,0.731c2.786-0.007,5.573,0.013,8.359-0.015c0.602-0.006,1.033,0.15,1.471,0.591
		c2.839,2.86,6.183,4.928,10.007,6.213c0.228,0.077,0.506,0.077,0.697,0.372c-4.613,0-9.153,0-13.693,0.001
		c-0.25,0-0.501-0.004-0.75,0.01c-0.261,0.014-0.405,0.197-0.424,0.426c-0.019,0.242,0.153,0.422,0.382,0.465
		c0.243,0.044,0.498,0.024,0.749,0.024c11.427,0,22.854-0.002,34.281-0.005c0.28,0,0.565-0.002,0.837-0.053
		c0.192-0.037,0.313-0.201,0.305-0.417c-0.008-0.21-0.115-0.375-0.314-0.41c-0.242-0.045-0.496-0.04-0.745-0.04
		c-2.051-0.003-4.1-0.001-6.158-0.001c0.024-0.246,0.191-0.2,0.291-0.232c4.087-1.316,7.66-3.473,10.644-6.569
		c0.334-0.346,0.681-0.365,1.091-0.365c4.947,0.004,9.893-0.001,14.84,0.005c3.099,0.004,6.196,0.025,9.295,0.038
		c-0.099,3.174-1.245,6.025-2.726,8.764c-1.151,2.13-2.689,3.992-4.377,5.695c-2.425,2.452-5.227,4.436-8.262,6.079
		c-4.485,2.429-9.269,4.024-14.271,4.942c-4.28,0.787-8.621,1.066-12.955,0.778c-5.68-0.378-11.22-1.513-16.514-3.707
		c-5.24-2.174-9.92-5.164-13.704-9.416c-3.129-3.517-5.218-7.586-5.923-12.294c-0.042-0.275-0.017-0.562-0.023-0.844
		c0.905-0.013,1.812-0.048,2.715-0.03C14.629,69.271,15.079,69.117,15.291,68.52z M61.034,83.561c3.633,0,7.266,0.002,10.898,0
		c0.335,0,0.782,0.076,0.815-0.394c0.037-0.54-0.43-0.51-0.808-0.518c-0.125-0.005-0.251-0.003-0.377-0.003
		c-7.046,0-14.093,0-21.139,0.003c-0.219,0-0.438-0.009-0.657,0.008c-0.272,0.024-0.496,0.136-0.493,0.453
		c0.002,0.302,0.192,0.441,0.485,0.448c0.22,0.002,0.438,0.002,0.658,0.002C53.956,83.561,57.495,83.561,61.034,83.561z
		 M53.33,79.783c-2.313,0-4.628-0.007-6.942,0.007c-0.334,0.002-0.85-0.187-0.87,0.406c-0.02,0.586,0.492,0.461,0.833,0.461
		c4.63,0.009,9.258,0.009,13.887,0c0.347,0,0.872,0.125,0.875-0.426c0.004-0.641-0.571-0.438-0.933-0.44
		C57.897,79.776,55.614,79.783,53.33,79.783z M40.828,83.564c0-0.002,0-0.002,0-0.004c1.66,0,3.321,0.002,4.981,0
		c0.339,0,0.784,0.067,0.808-0.402c0.028-0.529-0.438-0.509-0.817-0.509c-3.32-0.005-6.64-0.005-9.961-0.005
		c-0.38,0-0.842-0.013-0.804,0.522c0.033,0.47,0.478,0.396,0.814,0.396C37.508,83.564,39.167,83.564,40.828,83.564z M26.417,79.78
		c-1.064,0-2.13,0.001-3.195-0.002c-0.324,0-0.666-0.012-0.66,0.448c0.003,0.385,0.302,0.438,0.594,0.438
		c2.16,0.007,4.319,0.004,6.48,0c0.313,0,0.584-0.127,0.579-0.473c-0.006-0.362-0.294-0.415-0.604-0.414
		C28.545,79.784,27.481,79.781,26.417,79.78z"/>
	<path fill-rule="evenodd" clip-rule="evenodd" d="M90.076,69.292c-3.099-0.013-6.196-0.034-9.295-0.038
		c-4.947-0.006-9.893-0.001-14.84-0.005c-0.41,0-0.757,0.02-1.091,0.365c-2.983,3.097-6.557,5.253-10.644,6.569
		c-0.1,0.032-0.267-0.014-0.291,0.232c2.059,0,4.107-0.002,6.158,0.001c0.249,0,0.503-0.005,0.745,0.04
		c0.199,0.035,0.307,0.2,0.314,0.41c0.009,0.216-0.112,0.38-0.305,0.417c-0.271,0.051-0.557,0.053-0.837,0.053
		c-11.427,0.003-22.854,0.005-34.281,0.005c-0.25,0-0.506,0.02-0.749-0.024c-0.229-0.043-0.4-0.223-0.382-0.465
		c0.019-0.229,0.163-0.412,0.424-0.426c0.249-0.014,0.5-0.01,0.75-0.01c4.54-0.001,9.08-0.001,13.693-0.001
		c-0.191-0.295-0.47-0.295-0.697-0.372c-3.824-1.285-7.168-3.353-10.007-6.213c-0.438-0.44-0.869-0.597-1.471-0.591
		c-2.786,0.027-5.573,0.008-8.359,0.015c-0.574,0.003-1.067-0.078-1.238-0.731c0.083-0.691,0.543-0.812,1.142-0.807
		c2.287,0.015,4.573,0.006,6.858,0.006c0.307,0,0.613,0,0.936,0c0.031-0.476-0.293-0.686-0.479-0.946
		c-6.227-8.737-6.434-20.093-0.381-28.979c4.431-6.508,10.652-10.146,18.487-11.036c3.349-0.379,6.604,0.043,9.824,0.95
		c0.196,0.055,0.506,0.467,0.692-0.003c0.152-0.39,0.387-0.813-0.074-1.19c-0.678-0.556-1.32-1.155-2.019-1.684
		c-0.523-0.397-0.56-0.747-0.25-1.335c1.022-1.942,0.594-1.666,2.502-0.976c0.379,0.137,0.745,0.315,1.119,0.467
		c0.863,0.35,1.495,0.106,1.981-0.708c0.149-0.249,0.02-0.407-0.057-0.603c-0.332-0.839-0.634-1.692-1.001-2.515
		c-0.219-0.49-0.165-0.765,0.319-1.065c1.762-1.094,1.75-1.113,3.067,0.509c0.218,0.267,0.421,0.545,0.646,0.806
		c0.326,0.378,0.531,0.876,1.259,0.61c0.642-0.235,0.974-0.498,0.979-1.226c0.007-0.616,0.287-1.231,0.283-1.845
		c-0.007-0.97,0.478-1.103,1.298-1.078c1.69,0.051,1.691,0.014,1.938,1.658c0.069,0.464,0.191,0.927,0.191,1.391
		c0,0.6,0.241,0.855,0.818,1.04c0.612,0.196,0.953,0.1,1.313-0.424c0.479-0.693,1.061-1.313,1.581-1.978
		c0.272-0.35,0.519-0.417,0.95-0.197c1.922,0.976,1.931,0.959,1.134,2.958c-0.116,0.289-0.222,0.582-0.349,0.866
		c-0.227,0.504-0.479,0.904,0.104,1.456c0.565,0.533,1.006,0.724,1.681,0.324c0.265-0.156,0.574-0.234,0.865-0.349
		c2.201-0.867,1.612-1.037,2.853,0.975c0.309,0.499,0.269,0.831-0.21,1.186c-0.702,0.52-1.329,1.153-2.06,1.628
		c-0.634,0.413-0.232,0.853-0.218,1.311c0.018,0.521,0.324,0.595,0.725,0.647c0.836,0.11,1.668,0.252,2.504,0.357
		c0.587,0.074,0.833,0.324,0.833,0.969c0.001,1.916,0.033,1.917-1.841,2.224c-0.339,0.056-0.692,0.061-1.014,0.168
		c-0.421,0.142-1.012-0.105-1.201,0.616c-0.186,0.695-0.227,1.213,0.493,1.656c0.662,0.406,1.221,0.977,1.841,1.451
		c0.395,0.301,0.465,0.605,0.199,1.04c-1.307,2.144-0.711,1.927-2.902,1.067c-0.289-0.113-0.579-0.227-0.867-0.344
		c-0.968-0.387-1.42-0.224-2.016,0.631c-0.2,0.286-0.038,0.464,0.047,0.683c0.34,0.87,0.657,1.75,1.034,2.603
		c0.202,0.455,0.077,0.704-0.327,0.9c-0.364,0.177-0.751,0.325-1.082,0.552c-0.621,0.424-1.038,0.148-1.467-0.346
		c0.376,1.484,0.891,2.906,1.179,4.393c1.284,6.649,0.144,12.843-3.451,18.578c-0.37,0.59-0.83,1.126-1.251,1.686
		c-0.212,0.282-0.183,0.454,0.205,0.468c0.252,0.009,0.502,0.004,0.752,0.004c7.609,0,15.22,0,22.831,0
		c0.25,0,0.501-0.002,0.751,0.007c0.443,0.018,0.71,0.27,0.749,0.69c0.043,0.441-0.251,0.718-0.647,0.787
		C91.019,69.286,90.543,69.269,90.076,69.292z M65.491,51.604c1.658,0,3.317-0.021,4.975,0.011c0.541,0.011,0.721-0.148,0.654-0.687
		c-0.1-0.805-0.11-1.622-0.227-2.425c-0.522-3.636-1.793-6.989-3.854-10.04c-0.264-0.391-0.506-0.54-0.983-0.374
		c-2.329,0.807-4.705,1.452-7.123,1.926c-0.432,0.085-0.58,0.237-0.449,0.735c0.863,3.338,1.331,6.736,1.336,10.188
		c0.002,0.542,0.172,0.687,0.695,0.677C62.174,51.584,63.833,51.604,65.491,51.604z M27.897,51.599c1.659,0,3.317-0.016,4.974,0.012
		c0.491,0.008,0.636-0.14,0.643-0.632c0.035-2.631,0.318-5.24,0.818-7.822c0.08-0.415,0.019-0.607-0.352-0.815
		c-0.839-0.474-1.379-1.215-1.403-2.188c-0.013-0.539-0.315-0.61-0.674-0.698c-1.517-0.369-3.016-0.803-4.477-1.348
		c-0.545-0.203-0.812-0.055-1.123,0.417c-2.466,3.743-3.736,7.865-4.053,12.315c-0.046,0.65,0.17,0.786,0.767,0.773
		C24.644,51.576,26.271,51.599,27.897,51.599z M65.502,52.515c-1.626,0-3.255,0.028-4.88-0.013
		c-0.619-0.017-0.806,0.173-0.799,0.787c0.021,2.383-0.255,4.741-0.7,7.078c-0.065,0.343-0.05,0.568,0.312,0.754
		c0.939,0.483,1.402,1.305,1.49,2.339c0.025,0.286,0.099,0.466,0.405,0.528c1.777,0.366,3.485,0.967,5.195,1.558
		c0.347,0.121,0.509,0.014,0.682-0.254c2.383-3.704,3.731-7.736,3.909-12.154c0.021-0.512-0.162-0.637-0.64-0.632
		C68.818,52.53,67.16,52.516,65.502,52.515z M27.945,52.511c-1.69,0-3.381,0.012-5.073-0.008c-0.468-0.006-0.663,0.107-0.63,0.626
		c0.281,4.357,1.522,8.394,3.885,12.082c0.298,0.466,0.57,0.413,0.982,0.281c1.543-0.495,3.085-0.998,4.647-1.431
		c0.428-0.119,0.606-0.234,0.658-0.699c0.101-0.919,0.578-1.684,1.391-2.112c0.538-0.284,0.496-0.653,0.415-1.082
		c-0.444-2.311-0.629-4.648-0.7-6.994c-0.015-0.532-0.164-0.686-0.691-0.676C31.203,52.53,29.574,52.511,27.945,52.511z
		 M52.985,51.599c1.752,0,3.504-0.002,5.256,0.003c0.387,0,0.738,0.047,0.722-0.549c-0.102-3.447-0.484-6.853-1.364-10.196
		c-0.121-0.46-0.303-0.489-0.719-0.418c-3.025,0.505-6.069,0.848-9.141,0.841c-0.543,0-0.688,0.194-0.686,0.711
		c0.02,2.972,0.027,5.945-0.005,8.917c-0.006,0.627,0.246,0.708,0.774,0.7C49.542,51.583,51.264,51.599,52.985,51.599z
		 M40.264,51.604c1.754,0,3.508-0.008,5.263,0.004c0.425,0.005,0.697-0.018,0.693-0.585c-0.026-3.037-0.021-6.076-0.004-9.115
		c0.002-0.501-0.185-0.642-0.661-0.631c-2.132,0.048-4.25-0.19-6.367-0.414c-0.471-0.049-0.725,0.055-0.974,0.464
		c-0.531,0.874-1.316,1.422-2.37,1.461c-0.428,0.016-0.587,0.179-0.66,0.598c-0.433,2.5-0.733,5.011-0.767,7.552
		c-0.007,0.54,0.153,0.686,0.679,0.676C36.818,51.585,38.541,51.604,40.264,51.604z M53.076,52.511
		c-1.781,0-3.564,0.018-5.346-0.013c-0.537-0.007-0.688,0.163-0.683,0.693c0.023,2.814,0.02,5.628,0.001,8.441
		c-0.002,0.483,0.146,0.66,0.64,0.654c2.252-0.02,4.496,0.111,6.732,0.395c0.35,0.044,0.642,0.046,0.838-0.368
		c0.467-0.984,1.32-1.483,2.366-1.614c0.466-0.057,0.615-0.239,0.688-0.685c0.365-2.223,0.544-4.459,0.663-6.706
		c0.037-0.702-0.21-0.825-0.835-0.812C56.453,52.534,54.765,52.511,53.076,52.511z M40.273,52.515c-1.688,0-3.378,0.024-5.066-0.012
		c-0.603-0.013-0.805,0.149-0.789,0.778c0.052,2.224,0.31,4.423,0.634,6.62c0.065,0.446,0.188,0.776,0.774,0.831
		c1.068,0.099,1.861,0.692,2.341,1.656c0.154,0.31,0.281,0.494,0.693,0.429c2.196-0.341,4.406-0.526,6.629-0.524
		c0.527,0,0.708-0.186,0.705-0.712c-0.018-2.783-0.024-5.567,0.003-8.352c0.005-0.595-0.21-0.734-0.764-0.726
		C43.714,52.534,41.993,52.515,40.273,52.515z M47.063,69.83c0,1.912,0.04,3.823-0.019,5.731c-0.026,0.848,0.251,0.923,0.976,0.729
		c1.015-0.272,1.948-0.683,2.783-1.303c2.768-2.062,4.325-4.965,5.598-8.066c0.146-0.353,0.039-0.569-0.271-0.776
		c-0.659-0.438-1.091-1.089-1.163-1.851c-0.057-0.598-0.33-0.699-0.813-0.757c-2.147-0.256-4.307-0.305-6.466-0.394
		c-0.608-0.026-0.633,0.313-0.631,0.767C47.07,65.885,47.063,67.858,47.063,69.83z M46.208,69.844c0-1.97-0.027-3.939,0.015-5.907
		c0.015-0.695-0.235-0.83-0.871-0.79c-2.025,0.128-4.052,0.229-6.067,0.479c-0.462,0.059-0.741,0.155-0.83,0.665
		c-0.134,0.768-0.55,1.403-1.185,1.844c-0.388,0.27-0.422,0.494-0.25,0.922c0.764,1.886,1.674,3.691,2.914,5.31
		c1.392,1.814,3.024,3.301,5.327,3.908c0.745,0.195,0.987,0.12,0.963-0.713C46.17,73.657,46.208,71.75,46.208,69.844z
		 M47.058,34.008c0,1.879,0.021,3.759-0.013,5.637c-0.011,0.579,0.162,0.738,0.739,0.733c2.98-0.025,5.93-0.348,8.871-0.802
		c0.478-0.074,0.538-0.22,0.391-0.672c-0.951-2.902-2.194-5.651-4.192-7.995c-1.343-1.577-2.932-2.785-5.036-3.221
		c-0.706-0.147-0.777,0.092-0.769,0.681C47.073,30.25,47.058,32.129,47.058,34.008z M46.188,34.042c0-1.877-0.023-3.755,0.012-5.631
		c0.011-0.662-0.22-0.822-0.827-0.675c-0.955,0.23-1.834,0.616-2.63,1.185c-2.723,1.949-4.304,4.723-5.58,7.723
		c-0.169,0.4,0.023,0.555,0.286,0.763c0.606,0.481,1.047,1.085,1.14,1.873c0.054,0.468,0.293,0.625,0.733,0.666
		c2.024,0.184,4.043,0.409,6.081,0.422c0.614,0.004,0.809-0.166,0.797-0.786C46.163,37.735,46.187,35.889,46.188,34.042z
		 M51.508,28.356c0.618,0.59,1.206,1.089,1.724,1.654c2.262,2.473,3.618,5.45,4.646,8.591c0.184,0.561,0.424,0.677,0.937,0.559
		c2.189-0.506,4.36-1.079,6.511-1.74c0.727-0.224,0.632-0.431,0.253-0.907c-3.1-3.902-7.159-6.371-11.822-7.924
		C53.082,28.364,52.36,28.151,51.508,28.356z M66.407,66.474c-1.789-0.675-3.482-1.184-5.201-1.621
		c-0.359-0.091-0.491,0.016-0.645,0.313c-0.537,1.045-1.425,1.544-2.59,1.518c-0.356-0.008-0.561,0.07-0.7,0.431
		c-1.297,3.351-3.019,6.421-5.883,8.746C57.56,74.657,62.502,71.516,66.407,66.474z M42.119,75.938
		c-0.787-0.748-1.402-1.276-1.95-1.867c-1.786-1.932-2.995-4.22-3.953-6.644c-0.191-0.484-0.363-0.777-0.973-0.755
		c-1.015,0.034-1.817-0.488-2.328-1.334c-0.295-0.487-0.594-0.531-1.062-0.384c-1.367,0.43-2.73,0.88-4.115,1.247
		c-0.776,0.206-0.575,0.49-0.224,0.925c2.663,3.299,5.92,5.805,9.846,7.428C38.826,75.16,40.32,75.677,42.119,75.938z
		 M69.732,30.262c-0.005-2.537-2.024-4.58-4.555-4.607c-2.629-0.027-4.694,1.926-4.773,4.492c-0.012,0.39,0.114,0.613,0.44,0.83
		c1.514,1.003,2.905,2.162,4.131,3.502c0.348,0.379,0.695,0.452,1.156,0.347C68.196,34.352,69.736,32.408,69.732,30.262z
		 M27.289,37.121c1.724,0.614,3.381,1.127,5.075,1.519c0.27,0.063,0.451,0.005,0.597-0.283c0.573-1.122,1.562-1.564,2.767-1.571
		c0.352-0.003,0.479-0.16,0.602-0.453c1.362-3.249,3.114-6.22,6.029-8.371C36.202,29.107,31.229,32.156,27.289,37.121z
		 M37.602,63.697c-0.021-1.067-1.063-2.063-2.153-2.058c-1.107,0.002-2.131,0.933-2.136,1.938c-0.007,1.272,1.02,2.312,2.225,2.256
		C36.663,65.781,37.624,64.787,37.602,63.697z M59.998,63.631c-0.007-1.133-0.882-1.989-2.036-1.996
		c-1.169-0.007-2.118,0.907-2.125,2.042c-0.008,1.205,0.93,2.159,2.12,2.157C59.168,65.832,60.006,64.928,59.998,63.631z
		 M37.683,39.755c-0.014-1.163-0.917-2.052-2.085-2.055c-1.233-0.004-2.121,0.933-2.119,2.237c0.001,1.136,0.916,1.931,2.188,1.901
		C36.903,41.809,37.7,40.985,37.683,39.755z"/>
	<path fill-rule="evenodd" clip-rule="evenodd" d="M15.291,68.52c-0.212,0.598-0.661,0.752-1.254,0.74
		c-0.904-0.018-1.81,0.018-2.715,0.03c-0.434-0.02-0.876,0.004-1.3-0.071c-0.435-0.076-0.74-0.365-0.678-0.849
		c0.055-0.423,0.332-0.647,0.776-0.646c1.432,0.003,2.865,0.003,4.298-0.002C14.958,67.722,15.179,68.058,15.291,68.52z"/>
	<path fill-rule="evenodd" clip-rule="evenodd" d="M61.034,83.561c-3.539,0-7.078,0-10.617,0c-0.22,0-0.438,0-0.658-0.002
		c-0.293-0.007-0.483-0.146-0.485-0.448c-0.003-0.317,0.221-0.429,0.493-0.453c0.219-0.017,0.438-0.008,0.657-0.008
		c7.046-0.003,14.093-0.003,21.139-0.003c0.126,0,0.252-0.002,0.377,0.003c0.378,0.008,0.845-0.022,0.808,0.518
		c-0.033,0.47-0.48,0.394-0.815,0.394C68.3,83.563,64.667,83.561,61.034,83.561z"/>
	<path fill-rule="evenodd" clip-rule="evenodd" d="M53.33,79.783c2.284,0,4.567-0.007,6.85,0.008c0.361,0.003,0.937-0.2,0.933,0.44
		c-0.003,0.551-0.528,0.426-0.875,0.426c-4.629,0.009-9.257,0.009-13.887,0c-0.341,0-0.853,0.125-0.833-0.461
		c0.02-0.593,0.536-0.404,0.87-0.406C48.702,79.776,51.017,79.783,53.33,79.783z"/>
	<path fill-rule="evenodd" clip-rule="evenodd" d="M40.828,83.564c-1.66,0-3.319,0-4.979-0.002c-0.337,0-0.782,0.074-0.814-0.396
		c-0.038-0.535,0.424-0.522,0.804-0.522c3.321,0,6.641,0,9.961,0.005c0.379,0,0.846-0.021,0.817,0.509
		c-0.024,0.47-0.469,0.402-0.808,0.402c-1.66,0.002-3.321,0-4.981,0C40.828,83.563,40.828,83.563,40.828,83.564z"/>
	<path fill-rule="evenodd" clip-rule="evenodd" d="M26.417,79.78c1.063,0.001,2.128,0.004,3.193-0.003
		c0.31-0.001,0.599,0.052,0.604,0.414c0.005,0.346-0.266,0.473-0.579,0.473c-2.161,0.004-4.32,0.007-6.48,0
		c-0.292,0-0.59-0.053-0.594-0.438c-0.005-0.46,0.336-0.448,0.66-0.448C24.287,79.781,25.353,79.78,26.417,79.78z"/>
	<path fill-rule="evenodd" clip-rule="evenodd" fill="#8CD3F3" d="M65.491,51.604c-1.658,0-3.317-0.02-4.976,0.011
		c-0.523,0.01-0.693-0.135-0.695-0.677c-0.005-3.452-0.473-6.85-1.336-10.188c-0.131-0.498,0.018-0.65,0.449-0.735
		c2.418-0.474,4.794-1.119,7.123-1.926c0.478-0.166,0.72-0.017,0.983,0.374c2.061,3.051,3.331,6.404,3.854,10.04
		c0.116,0.803,0.127,1.62,0.227,2.425c0.066,0.538-0.113,0.697-0.654,0.687C68.809,51.583,67.149,51.604,65.491,51.604z"/>
	<path fill-rule="evenodd" clip-rule="evenodd" fill="#43B1DE" d="M27.897,51.599c-1.626,0-3.254-0.022-4.88,0.014
		c-0.597,0.013-0.813-0.123-0.767-0.773c0.317-4.45,1.587-8.572,4.053-12.315c0.311-0.472,0.577-0.619,1.123-0.417
		c1.461,0.544,2.96,0.979,4.477,1.348c0.359,0.088,0.661,0.16,0.674,0.698c0.024,0.973,0.564,1.714,1.403,2.188
		c0.371,0.208,0.432,0.401,0.352,0.815c-0.5,2.582-0.783,5.191-0.818,7.822c-0.006,0.492-0.152,0.64-0.643,0.632
		C31.215,51.583,29.557,51.599,27.897,51.599z"/>
	<path fill-rule="evenodd" clip-rule="evenodd" fill="#43B1DE" d="M65.502,52.516c1.658,0,3.316,0.015,4.975-0.01
		c0.478-0.005,0.66,0.12,0.64,0.632c-0.178,4.418-1.526,8.45-3.909,12.154c-0.173,0.268-0.335,0.375-0.682,0.254
		c-1.71-0.591-3.418-1.191-5.195-1.558c-0.307-0.063-0.38-0.242-0.405-0.528c-0.088-1.034-0.551-1.855-1.49-2.339
		c-0.361-0.186-0.377-0.411-0.312-0.754c0.445-2.337,0.722-4.695,0.7-7.078c-0.007-0.614,0.18-0.804,0.799-0.787
		C62.247,52.543,63.876,52.515,65.502,52.516z"/>
	<path fill-rule="evenodd" clip-rule="evenodd" fill="#8CD3F3" d="M27.945,52.511c1.629,0,3.257,0.02,4.885-0.013
		c0.527-0.01,0.676,0.144,0.691,0.676c0.071,2.346,0.256,4.684,0.7,6.994c0.082,0.429,0.123,0.798-0.415,1.082
		c-0.813,0.429-1.291,1.193-1.391,2.112c-0.052,0.465-0.23,0.58-0.658,0.699c-1.562,0.433-3.104,0.936-4.647,1.431
		c-0.412,0.132-0.684,0.185-0.982-0.281c-2.362-3.688-3.604-7.725-3.885-12.082c-0.033-0.519,0.162-0.632,0.63-0.626
		C24.564,52.522,26.255,52.511,27.945,52.511z"/>
	<path fill-rule="evenodd" clip-rule="evenodd" fill="#43B1DE" d="M52.985,51.599c-1.722,0-3.443-0.016-5.164,0.01
		c-0.528,0.008-0.78-0.073-0.774-0.7c0.033-2.973,0.025-5.945,0.005-8.917c-0.002-0.518,0.142-0.712,0.686-0.711
		c3.072,0.007,6.116-0.336,9.141-0.841c0.416-0.07,0.598-0.042,0.719,0.418c0.88,3.343,1.263,6.749,1.364,10.196
		c0.017,0.596-0.335,0.549-0.722,0.549C56.489,51.597,54.737,51.599,52.985,51.599z"/>
	<path fill-rule="evenodd" clip-rule="evenodd" fill="#8CD3F3" d="M40.264,51.604c-1.723,0-3.445-0.019-5.167,0.011
		c-0.526,0.01-0.687-0.136-0.679-0.676c0.033-2.541,0.333-5.052,0.767-7.552c0.073-0.419,0.232-0.582,0.66-0.598
		c1.054-0.039,1.838-0.587,2.37-1.461c0.249-0.409,0.502-0.513,0.974-0.464c2.116,0.223,4.234,0.462,6.367,0.414
		c0.477-0.011,0.664,0.13,0.661,0.631c-0.017,3.039-0.021,6.078,0.004,9.115c0.004,0.567-0.268,0.59-0.693,0.585
		C43.772,51.596,42.018,51.604,40.264,51.604z"/>
	<path fill-rule="evenodd" clip-rule="evenodd" fill="#8CD3F3" d="M53.076,52.511c1.688,0,3.377,0.023,5.064-0.014
		c0.625-0.014,0.872,0.109,0.835,0.812c-0.119,2.247-0.298,4.483-0.663,6.706c-0.073,0.445-0.223,0.628-0.688,0.685
		c-1.046,0.131-1.899,0.63-2.366,1.614c-0.196,0.414-0.488,0.412-0.838,0.368c-2.236-0.283-4.48-0.414-6.732-0.395
		c-0.494,0.006-0.642-0.171-0.64-0.654c0.019-2.813,0.022-5.627-0.001-8.441c-0.005-0.53,0.146-0.7,0.683-0.693
		C49.512,52.528,51.295,52.511,53.076,52.511z"/>
	<path fill-rule="evenodd" clip-rule="evenodd" fill="#43B1DE" d="M40.273,52.515c1.719,0,3.441,0.02,5.16-0.011
		c0.554-0.009,0.77,0.131,0.764,0.726c-0.027,2.784-0.021,5.568-0.003,8.352c0.003,0.526-0.178,0.712-0.705,0.712
		c-2.223-0.002-4.433,0.184-6.629,0.524c-0.412,0.065-0.539-0.119-0.693-0.429c-0.48-0.964-1.273-1.558-2.341-1.656
		c-0.586-0.055-0.708-0.385-0.774-0.831c-0.324-2.197-0.582-4.396-0.634-6.62c-0.016-0.629,0.187-0.791,0.789-0.778
		C36.895,52.539,38.585,52.515,40.273,52.515z"/>
	<path fill-rule="evenodd" clip-rule="evenodd" fill="#43B1DE" d="M47.063,69.83c0-1.972,0.007-3.945-0.005-5.92
		c-0.002-0.453,0.023-0.793,0.631-0.767c2.159,0.089,4.318,0.138,6.466,0.394c0.482,0.058,0.756,0.159,0.813,0.757
		c0.072,0.762,0.504,1.413,1.163,1.851c0.311,0.207,0.417,0.424,0.271,0.776c-1.272,3.102-2.83,6.005-5.598,8.066
		c-0.835,0.62-1.769,1.03-2.783,1.303c-0.725,0.194-1.002,0.119-0.976-0.729C47.103,73.653,47.063,71.742,47.063,69.83z"/>
	<path fill-rule="evenodd" clip-rule="evenodd" fill="#8CD3F3" d="M46.208,69.844c0,1.906-0.037,3.813,0.018,5.718
		c0.024,0.833-0.219,0.908-0.963,0.713c-2.303-0.607-3.936-2.094-5.327-3.908c-1.24-1.618-2.15-3.424-2.914-5.31
		c-0.172-0.428-0.139-0.652,0.25-0.922c0.635-0.44,1.05-1.076,1.185-1.844c0.089-0.51,0.367-0.606,0.83-0.665
		c2.016-0.251,4.042-0.352,6.067-0.479c0.636-0.04,0.886,0.095,0.871,0.79C46.18,65.904,46.208,67.874,46.208,69.844z"/>
	<path fill-rule="evenodd" clip-rule="evenodd" fill="#8CD3F3" d="M47.058,34.008c0-1.879,0.016-3.759-0.01-5.638
		c-0.009-0.589,0.063-0.828,0.769-0.681c2.104,0.436,3.693,1.644,5.036,3.221c1.998,2.344,3.241,5.093,4.192,7.995
		c0.147,0.452,0.087,0.598-0.391,0.672c-2.94,0.454-5.89,0.777-8.871,0.802c-0.577,0.004-0.75-0.155-0.739-0.733
		C47.079,37.767,47.058,35.887,47.058,34.008z"/>
	<path fill-rule="evenodd" clip-rule="evenodd" fill="#43B1DE" d="M46.187,34.042c0,1.846-0.024,3.693,0.012,5.539
		c0.012,0.62-0.183,0.79-0.797,0.786c-2.037-0.013-4.056-0.238-6.081-0.422c-0.44-0.04-0.68-0.198-0.733-0.666
		c-0.093-0.787-0.533-1.392-1.14-1.873c-0.263-0.208-0.455-0.363-0.286-0.763c1.276-3,2.857-5.774,5.58-7.723
		c0.795-0.568,1.675-0.954,2.63-1.185c0.607-0.146,0.838,0.014,0.827,0.675C46.165,30.288,46.188,32.166,46.187,34.042z"/>
	<path fill-rule="evenodd" clip-rule="evenodd" fill="#43B1DE" d="M51.508,28.356c0.853-0.205,1.574,0.008,2.247,0.232
		c4.663,1.553,8.723,4.022,11.822,7.924c0.379,0.476,0.474,0.684-0.253,0.907c-2.15,0.661-4.321,1.234-6.511,1.74
		c-0.513,0.118-0.753,0.002-0.937-0.559c-1.027-3.141-2.384-6.118-4.646-8.591C52.714,29.445,52.126,28.946,51.508,28.356z"/>
	<path fill-rule="evenodd" clip-rule="evenodd" fill="#8CD3F3" d="M66.407,66.474c-3.905,5.042-8.848,8.184-15.019,9.386
		c2.864-2.325,4.586-5.396,5.883-8.746c0.14-0.36,0.344-0.438,0.7-0.431c1.165,0.026,2.053-0.473,2.59-1.518
		c0.153-0.297,0.285-0.403,0.645-0.313C62.925,65.29,64.618,65.799,66.407,66.474z"/>
	<path fill-rule="evenodd" clip-rule="evenodd" fill="#43B1DE" d="M42.119,75.938c-1.798-0.261-3.292-0.777-4.759-1.384
		c-3.926-1.623-7.183-4.129-9.846-7.428c-0.351-0.435-0.552-0.719,0.224-0.925c1.385-0.367,2.748-0.817,4.115-1.247
		c0.468-0.147,0.766-0.104,1.062,0.384c0.51,0.846,1.313,1.368,2.328,1.334c0.61-0.022,0.782,0.271,0.973,0.755
		c0.958,2.424,2.167,4.712,3.953,6.644C40.716,74.661,41.332,75.189,42.119,75.938z"/>
	<path fill-rule="evenodd" clip-rule="evenodd" fill="#8CD3F3" d="M27.289,37.121c3.94-4.965,8.914-8.014,15.069-9.159
		c-2.915,2.15-4.667,5.122-6.029,8.371c-0.123,0.293-0.25,0.45-0.602,0.453c-1.206,0.007-2.194,0.449-2.767,1.571
		c-0.146,0.288-0.327,0.345-0.597,0.283C30.669,38.249,29.012,37.735,27.289,37.121z"/>
	<path fill-rule="evenodd" clip-rule="evenodd" fill="#7FAB57" d="M37.602,63.697c0.022,1.09-0.939,2.084-2.063,2.137
		c-1.206,0.056-2.232-0.983-2.225-2.256c0.004-1.006,1.028-1.937,2.136-1.938C36.539,61.635,37.581,62.63,37.602,63.697z"/>
	<path fill-rule="evenodd" clip-rule="evenodd" fill="#7FAB57" d="M59.998,63.631c0.008,1.297-0.83,2.201-2.041,2.203
		c-1.19,0.002-2.128-0.952-2.12-2.157c0.007-1.135,0.956-2.049,2.125-2.042C59.116,61.642,59.991,62.498,59.998,63.631z"/>
	<path fill-rule="evenodd" clip-rule="evenodd" fill="#7FAB57" d="M37.683,39.755c0.017,1.23-0.78,2.054-2.017,2.083
		c-1.272,0.03-2.187-0.765-2.188-1.901c-0.001-1.304,0.886-2.241,2.119-2.237C36.766,37.703,37.669,38.592,37.683,39.755z"/>
</g>
</svg>
